%TF.GenerationSoftware,KiCad,Pcbnew,(6.0.7)*%
%TF.CreationDate,2022-12-19T16:29:39-08:00*%
%TF.ProjectId,Intermediary_revC_4layer,496e7465-726d-4656-9469-6172795f7265,rev?*%
%TF.SameCoordinates,Original*%
%TF.FileFunction,Drillmap*%
%TF.FilePolarity,Positive*%
%FSLAX45Y45*%
G04 Gerber Fmt 4.5, Leading zero omitted, Abs format (unit mm)*
G04 Created by KiCad (PCBNEW (6.0.7)) date 2022-12-19 16:29:39*
%MOMM*%
%LPD*%
G01*
G04 APERTURE LIST*
%ADD10C,0.100000*%
%ADD11C,0.200000*%
%ADD12C,0.115200*%
G04 APERTURE END LIST*
D10*
X16764000Y-10604500D02*
G75*
G03*
X17018000Y-10350500I0J254000D01*
G01*
X12192000Y-8382000D02*
G75*
G03*
X11938000Y-8636000I0J-254000D01*
G01*
X12192000Y-8382000D02*
X16764000Y-8382000D01*
X17018000Y-8636000D02*
G75*
G03*
X16764000Y-8382000I-254000J0D01*
G01*
X11938000Y-10350500D02*
X11938000Y-8636000D01*
X16764000Y-10604500D02*
X12192000Y-10604500D01*
X11938000Y-10350500D02*
G75*
G03*
X12192000Y-10604500I254000J0D01*
G01*
X17018000Y-8636000D02*
X17018000Y-10350500D01*
D11*
D12*
X12058200Y-9670600D02*
X12173400Y-9785800D01*
X12173400Y-9670600D02*
X12058200Y-9785800D01*
X16757200Y-8527600D02*
X16872400Y-8642800D01*
X16872400Y-8527600D02*
X16757200Y-8642800D01*
X16757200Y-10343700D02*
X16872400Y-10458900D01*
X16872400Y-10343700D02*
X16757200Y-10458900D01*
D11*
X12190619Y-10919976D02*
X12190619Y-10719976D01*
X12238238Y-10719976D01*
X12266809Y-10729500D01*
X12285857Y-10748548D01*
X12295381Y-10767595D01*
X12304905Y-10805690D01*
X12304905Y-10834262D01*
X12295381Y-10872357D01*
X12285857Y-10891405D01*
X12266809Y-10910452D01*
X12238238Y-10919976D01*
X12190619Y-10919976D01*
X12390619Y-10919976D02*
X12390619Y-10786643D01*
X12390619Y-10824738D02*
X12400143Y-10805690D01*
X12409667Y-10796167D01*
X12428714Y-10786643D01*
X12447762Y-10786643D01*
X12514428Y-10919976D02*
X12514428Y-10786643D01*
X12514428Y-10719976D02*
X12504905Y-10729500D01*
X12514428Y-10739024D01*
X12523952Y-10729500D01*
X12514428Y-10719976D01*
X12514428Y-10739024D01*
X12638238Y-10919976D02*
X12619190Y-10910452D01*
X12609667Y-10891405D01*
X12609667Y-10719976D01*
X12743000Y-10919976D02*
X12723952Y-10910452D01*
X12714428Y-10891405D01*
X12714428Y-10719976D01*
X12971571Y-10919976D02*
X12971571Y-10719976D01*
X13038238Y-10862833D01*
X13104905Y-10719976D01*
X13104905Y-10919976D01*
X13285857Y-10919976D02*
X13285857Y-10815214D01*
X13276333Y-10796167D01*
X13257286Y-10786643D01*
X13219190Y-10786643D01*
X13200143Y-10796167D01*
X13285857Y-10910452D02*
X13266809Y-10919976D01*
X13219190Y-10919976D01*
X13200143Y-10910452D01*
X13190619Y-10891405D01*
X13190619Y-10872357D01*
X13200143Y-10853310D01*
X13219190Y-10843786D01*
X13266809Y-10843786D01*
X13285857Y-10834262D01*
X13381095Y-10786643D02*
X13381095Y-10986643D01*
X13381095Y-10796167D02*
X13400143Y-10786643D01*
X13438238Y-10786643D01*
X13457286Y-10796167D01*
X13466809Y-10805690D01*
X13476333Y-10824738D01*
X13476333Y-10881881D01*
X13466809Y-10900929D01*
X13457286Y-10910452D01*
X13438238Y-10919976D01*
X13400143Y-10919976D01*
X13381095Y-10910452D01*
X13562048Y-10900929D02*
X13571571Y-10910452D01*
X13562048Y-10919976D01*
X13552524Y-10910452D01*
X13562048Y-10900929D01*
X13562048Y-10919976D01*
X13562048Y-10796167D02*
X13571571Y-10805690D01*
X13562048Y-10815214D01*
X13552524Y-10805690D01*
X13562048Y-10796167D01*
X13562048Y-10815214D01*
D12*
X11817800Y-11191900D02*
X11933000Y-11307100D01*
X11933000Y-11191900D02*
X11817800Y-11307100D01*
D11*
X12295381Y-11339976D02*
X12181095Y-11339976D01*
X12238238Y-11339976D02*
X12238238Y-11139976D01*
X12219190Y-11168548D01*
X12200143Y-11187595D01*
X12181095Y-11197119D01*
X12381095Y-11320928D02*
X12390619Y-11330452D01*
X12381095Y-11339976D01*
X12371571Y-11330452D01*
X12381095Y-11320928D01*
X12381095Y-11339976D01*
X12581095Y-11339976D02*
X12466809Y-11339976D01*
X12523952Y-11339976D02*
X12523952Y-11139976D01*
X12504905Y-11168548D01*
X12485857Y-11187595D01*
X12466809Y-11197119D01*
X12762048Y-11139976D02*
X12666809Y-11139976D01*
X12657286Y-11235214D01*
X12666809Y-11225690D01*
X12685857Y-11216167D01*
X12733476Y-11216167D01*
X12752524Y-11225690D01*
X12762048Y-11235214D01*
X12771571Y-11254262D01*
X12771571Y-11301881D01*
X12762048Y-11320928D01*
X12752524Y-11330452D01*
X12733476Y-11339976D01*
X12685857Y-11339976D01*
X12666809Y-11330452D01*
X12657286Y-11320928D01*
X12847762Y-11159024D02*
X12857286Y-11149500D01*
X12876333Y-11139976D01*
X12923952Y-11139976D01*
X12943000Y-11149500D01*
X12952524Y-11159024D01*
X12962048Y-11178071D01*
X12962048Y-11197119D01*
X12952524Y-11225690D01*
X12838238Y-11339976D01*
X12962048Y-11339976D01*
X13047762Y-11339976D02*
X13047762Y-11206643D01*
X13047762Y-11225690D02*
X13057286Y-11216167D01*
X13076333Y-11206643D01*
X13104905Y-11206643D01*
X13123952Y-11216167D01*
X13133476Y-11235214D01*
X13133476Y-11339976D01*
X13133476Y-11235214D02*
X13143000Y-11216167D01*
X13162048Y-11206643D01*
X13190619Y-11206643D01*
X13209667Y-11216167D01*
X13219190Y-11235214D01*
X13219190Y-11339976D01*
X13314428Y-11339976D02*
X13314428Y-11206643D01*
X13314428Y-11225690D02*
X13323952Y-11216167D01*
X13343000Y-11206643D01*
X13371571Y-11206643D01*
X13390619Y-11216167D01*
X13400143Y-11235214D01*
X13400143Y-11339976D01*
X13400143Y-11235214D02*
X13409667Y-11216167D01*
X13428714Y-11206643D01*
X13457286Y-11206643D01*
X13476333Y-11216167D01*
X13485857Y-11235214D01*
X13485857Y-11339976D01*
X13876333Y-11130452D02*
X13704905Y-11387595D01*
X14133476Y-11139976D02*
X14152524Y-11139976D01*
X14171571Y-11149500D01*
X14181095Y-11159024D01*
X14190619Y-11178071D01*
X14200143Y-11216167D01*
X14200143Y-11263786D01*
X14190619Y-11301881D01*
X14181095Y-11320928D01*
X14171571Y-11330452D01*
X14152524Y-11339976D01*
X14133476Y-11339976D01*
X14114428Y-11330452D01*
X14104905Y-11320928D01*
X14095381Y-11301881D01*
X14085857Y-11263786D01*
X14085857Y-11216167D01*
X14095381Y-11178071D01*
X14104905Y-11159024D01*
X14114428Y-11149500D01*
X14133476Y-11139976D01*
X14285857Y-11320928D02*
X14295381Y-11330452D01*
X14285857Y-11339976D01*
X14276333Y-11330452D01*
X14285857Y-11320928D01*
X14285857Y-11339976D01*
X14419190Y-11139976D02*
X14438238Y-11139976D01*
X14457286Y-11149500D01*
X14466809Y-11159024D01*
X14476333Y-11178071D01*
X14485857Y-11216167D01*
X14485857Y-11263786D01*
X14476333Y-11301881D01*
X14466809Y-11320928D01*
X14457286Y-11330452D01*
X14438238Y-11339976D01*
X14419190Y-11339976D01*
X14400143Y-11330452D01*
X14390619Y-11320928D01*
X14381095Y-11301881D01*
X14371571Y-11263786D01*
X14371571Y-11216167D01*
X14381095Y-11178071D01*
X14390619Y-11159024D01*
X14400143Y-11149500D01*
X14419190Y-11139976D01*
X14657286Y-11206643D02*
X14657286Y-11339976D01*
X14609667Y-11130452D02*
X14562048Y-11273309D01*
X14685857Y-11273309D01*
X14857286Y-11139976D02*
X14762048Y-11139976D01*
X14752524Y-11235214D01*
X14762048Y-11225690D01*
X14781095Y-11216167D01*
X14828714Y-11216167D01*
X14847762Y-11225690D01*
X14857286Y-11235214D01*
X14866809Y-11254262D01*
X14866809Y-11301881D01*
X14857286Y-11320928D01*
X14847762Y-11330452D01*
X14828714Y-11339976D01*
X14781095Y-11339976D01*
X14762048Y-11330452D01*
X14752524Y-11320928D01*
X15038238Y-11206643D02*
X15038238Y-11339976D01*
X14990619Y-11130452D02*
X14943000Y-11273309D01*
X15066809Y-11273309D01*
X15133476Y-11139976D02*
X15133476Y-11178071D01*
X15209667Y-11139976D02*
X15209667Y-11178071D01*
X15504905Y-11416167D02*
X15495381Y-11406643D01*
X15476333Y-11378071D01*
X15466809Y-11359024D01*
X15457286Y-11330452D01*
X15447762Y-11282833D01*
X15447762Y-11244738D01*
X15457286Y-11197119D01*
X15466809Y-11168548D01*
X15476333Y-11149500D01*
X15495381Y-11120929D01*
X15504905Y-11111405D01*
X15562048Y-11139976D02*
X15685857Y-11139976D01*
X15619190Y-11216167D01*
X15647762Y-11216167D01*
X15666809Y-11225690D01*
X15676333Y-11235214D01*
X15685857Y-11254262D01*
X15685857Y-11301881D01*
X15676333Y-11320928D01*
X15666809Y-11330452D01*
X15647762Y-11339976D01*
X15590619Y-11339976D01*
X15571571Y-11330452D01*
X15562048Y-11320928D01*
X15923952Y-11339976D02*
X15923952Y-11139976D01*
X16009667Y-11339976D02*
X16009667Y-11235214D01*
X16000143Y-11216167D01*
X15981095Y-11206643D01*
X15952524Y-11206643D01*
X15933476Y-11216167D01*
X15923952Y-11225690D01*
X16133476Y-11339976D02*
X16114428Y-11330452D01*
X16104905Y-11320928D01*
X16095381Y-11301881D01*
X16095381Y-11244738D01*
X16104905Y-11225690D01*
X16114428Y-11216167D01*
X16133476Y-11206643D01*
X16162048Y-11206643D01*
X16181095Y-11216167D01*
X16190619Y-11225690D01*
X16200143Y-11244738D01*
X16200143Y-11301881D01*
X16190619Y-11320928D01*
X16181095Y-11330452D01*
X16162048Y-11339976D01*
X16133476Y-11339976D01*
X16314428Y-11339976D02*
X16295381Y-11330452D01*
X16285857Y-11311405D01*
X16285857Y-11139976D01*
X16466809Y-11330452D02*
X16447762Y-11339976D01*
X16409667Y-11339976D01*
X16390619Y-11330452D01*
X16381095Y-11311405D01*
X16381095Y-11235214D01*
X16390619Y-11216167D01*
X16409667Y-11206643D01*
X16447762Y-11206643D01*
X16466809Y-11216167D01*
X16476333Y-11235214D01*
X16476333Y-11254262D01*
X16381095Y-11273309D01*
X16552524Y-11330452D02*
X16571571Y-11339976D01*
X16609667Y-11339976D01*
X16628714Y-11330452D01*
X16638238Y-11311405D01*
X16638238Y-11301881D01*
X16628714Y-11282833D01*
X16609667Y-11273309D01*
X16581095Y-11273309D01*
X16562048Y-11263786D01*
X16552524Y-11244738D01*
X16552524Y-11235214D01*
X16562048Y-11216167D01*
X16581095Y-11206643D01*
X16609667Y-11206643D01*
X16628714Y-11216167D01*
X16704905Y-11416167D02*
X16714428Y-11406643D01*
X16733476Y-11378071D01*
X16743000Y-11359024D01*
X16752524Y-11330452D01*
X16762048Y-11282833D01*
X16762048Y-11244738D01*
X16752524Y-11197119D01*
X16743000Y-11168548D01*
X16733476Y-11149500D01*
X16714428Y-11120929D01*
X16704905Y-11111405D01*
X17066810Y-11416167D02*
X17057286Y-11406643D01*
X17038238Y-11378071D01*
X17028714Y-11359024D01*
X17019190Y-11330452D01*
X17009667Y-11282833D01*
X17009667Y-11244738D01*
X17019190Y-11197119D01*
X17028714Y-11168548D01*
X17038238Y-11149500D01*
X17057286Y-11120929D01*
X17066810Y-11111405D01*
X17143000Y-11206643D02*
X17143000Y-11339976D01*
X17143000Y-11225690D02*
X17152524Y-11216167D01*
X17171571Y-11206643D01*
X17200143Y-11206643D01*
X17219190Y-11216167D01*
X17228714Y-11235214D01*
X17228714Y-11339976D01*
X17352524Y-11339976D02*
X17333476Y-11330452D01*
X17323952Y-11320928D01*
X17314429Y-11301881D01*
X17314429Y-11244738D01*
X17323952Y-11225690D01*
X17333476Y-11216167D01*
X17352524Y-11206643D01*
X17381095Y-11206643D01*
X17400143Y-11216167D01*
X17409667Y-11225690D01*
X17419190Y-11244738D01*
X17419190Y-11301881D01*
X17409667Y-11320928D01*
X17400143Y-11330452D01*
X17381095Y-11339976D01*
X17352524Y-11339976D01*
X17476333Y-11206643D02*
X17552524Y-11206643D01*
X17504905Y-11139976D02*
X17504905Y-11311405D01*
X17514429Y-11330452D01*
X17533476Y-11339976D01*
X17552524Y-11339976D01*
X17771571Y-11206643D02*
X17771571Y-11406643D01*
X17771571Y-11216167D02*
X17790619Y-11206643D01*
X17828714Y-11206643D01*
X17847762Y-11216167D01*
X17857286Y-11225690D01*
X17866810Y-11244738D01*
X17866810Y-11301881D01*
X17857286Y-11320928D01*
X17847762Y-11330452D01*
X17828714Y-11339976D01*
X17790619Y-11339976D01*
X17771571Y-11330452D01*
X17981095Y-11339976D02*
X17962048Y-11330452D01*
X17952524Y-11311405D01*
X17952524Y-11139976D01*
X18143000Y-11339976D02*
X18143000Y-11235214D01*
X18133476Y-11216167D01*
X18114429Y-11206643D01*
X18076333Y-11206643D01*
X18057286Y-11216167D01*
X18143000Y-11330452D02*
X18123952Y-11339976D01*
X18076333Y-11339976D01*
X18057286Y-11330452D01*
X18047762Y-11311405D01*
X18047762Y-11292357D01*
X18057286Y-11273309D01*
X18076333Y-11263786D01*
X18123952Y-11263786D01*
X18143000Y-11254262D01*
X18209667Y-11206643D02*
X18285857Y-11206643D01*
X18238238Y-11139976D02*
X18238238Y-11311405D01*
X18247762Y-11330452D01*
X18266810Y-11339976D01*
X18285857Y-11339976D01*
X18428714Y-11330452D02*
X18409667Y-11339976D01*
X18371571Y-11339976D01*
X18352524Y-11330452D01*
X18343000Y-11311405D01*
X18343000Y-11235214D01*
X18352524Y-11216167D01*
X18371571Y-11206643D01*
X18409667Y-11206643D01*
X18428714Y-11216167D01*
X18438238Y-11235214D01*
X18438238Y-11254262D01*
X18343000Y-11273309D01*
X18609667Y-11339976D02*
X18609667Y-11139976D01*
X18609667Y-11330452D02*
X18590619Y-11339976D01*
X18552524Y-11339976D01*
X18533476Y-11330452D01*
X18523952Y-11320928D01*
X18514429Y-11301881D01*
X18514429Y-11244738D01*
X18523952Y-11225690D01*
X18533476Y-11216167D01*
X18552524Y-11206643D01*
X18590619Y-11206643D01*
X18609667Y-11216167D01*
X18685857Y-11416167D02*
X18695381Y-11406643D01*
X18714429Y-11378071D01*
X18723952Y-11359024D01*
X18733476Y-11330452D01*
X18743000Y-11282833D01*
X18743000Y-11244738D01*
X18733476Y-11197119D01*
X18723952Y-11168548D01*
X18714429Y-11149500D01*
X18695381Y-11120929D01*
X18685857Y-11111405D01*
M02*
