%TF.GenerationSoftware,KiCad,Pcbnew,(6.0.7)*%
%TF.CreationDate,2022-12-19T16:29:32-08:00*%
%TF.ProjectId,Intermediary_revC_4layer,496e7465-726d-4656-9469-6172795f7265,rev?*%
%TF.SameCoordinates,Original*%
%TF.FileFunction,Legend,Top*%
%TF.FilePolarity,Positive*%
%FSLAX46Y46*%
G04 Gerber Fmt 4.6, Leading zero omitted, Abs format (unit mm)*
G04 Created by KiCad (PCBNEW (6.0.7)) date 2022-12-19 16:29:32*
%MOMM*%
%LPD*%
G01*
G04 APERTURE LIST*
%ADD10C,0.150000*%
%ADD11C,0.200000*%
%ADD12C,0.120000*%
%ADD13C,0.127000*%
G04 APERTURE END LIST*
D10*
X162123380Y-102343976D02*
X161647190Y-102677309D01*
X162123380Y-102915404D02*
X161123380Y-102915404D01*
X161123380Y-102534452D01*
X161171000Y-102439214D01*
X161218619Y-102391595D01*
X161313857Y-102343976D01*
X161456714Y-102343976D01*
X161551952Y-102391595D01*
X161599571Y-102439214D01*
X161647190Y-102534452D01*
X161647190Y-102915404D01*
X161599571Y-101582071D02*
X161647190Y-101439214D01*
X161694809Y-101391595D01*
X161790047Y-101343976D01*
X161932904Y-101343976D01*
X162028142Y-101391595D01*
X162075761Y-101439214D01*
X162123380Y-101534452D01*
X162123380Y-101915404D01*
X161123380Y-101915404D01*
X161123380Y-101582071D01*
X161171000Y-101486833D01*
X161218619Y-101439214D01*
X161313857Y-101391595D01*
X161409095Y-101391595D01*
X161504333Y-101439214D01*
X161551952Y-101486833D01*
X161599571Y-101582071D01*
X161599571Y-101915404D01*
X161123380Y-100439214D02*
X161123380Y-100915404D01*
X161599571Y-100963023D01*
X161551952Y-100915404D01*
X161504333Y-100820166D01*
X161504333Y-100582071D01*
X161551952Y-100486833D01*
X161599571Y-100439214D01*
X161694809Y-100391595D01*
X161932904Y-100391595D01*
X162028142Y-100439214D01*
X162075761Y-100486833D01*
X162123380Y-100582071D01*
X162123380Y-100820166D01*
X162075761Y-100915404D01*
X162028142Y-100963023D01*
X135381857Y-88066619D02*
X135715190Y-88542809D01*
X135953285Y-88066619D02*
X135953285Y-89066619D01*
X135572333Y-89066619D01*
X135477095Y-89019000D01*
X135429476Y-88971380D01*
X135381857Y-88876142D01*
X135381857Y-88733285D01*
X135429476Y-88638047D01*
X135477095Y-88590428D01*
X135572333Y-88542809D01*
X135953285Y-88542809D01*
X134619952Y-88590428D02*
X134477095Y-88542809D01*
X134429476Y-88495190D01*
X134381857Y-88399952D01*
X134381857Y-88257095D01*
X134429476Y-88161857D01*
X134477095Y-88114238D01*
X134572333Y-88066619D01*
X134953285Y-88066619D01*
X134953285Y-89066619D01*
X134619952Y-89066619D01*
X134524714Y-89019000D01*
X134477095Y-88971380D01*
X134429476Y-88876142D01*
X134429476Y-88780904D01*
X134477095Y-88685666D01*
X134524714Y-88638047D01*
X134619952Y-88590428D01*
X134953285Y-88590428D01*
X133429476Y-88066619D02*
X134000904Y-88066619D01*
X133715190Y-88066619D02*
X133715190Y-89066619D01*
X133810428Y-88923761D01*
X133905666Y-88828523D01*
X134000904Y-88780904D01*
X133096142Y-89066619D02*
X132477095Y-89066619D01*
X132810428Y-88685666D01*
X132667571Y-88685666D01*
X132572333Y-88638047D01*
X132524714Y-88590428D01*
X132477095Y-88495190D01*
X132477095Y-88257095D01*
X132524714Y-88161857D01*
X132572333Y-88114238D01*
X132667571Y-88066619D01*
X132953285Y-88066619D01*
X133048523Y-88114238D01*
X133096142Y-88161857D01*
X163711000Y-92913104D02*
X163663380Y-93008342D01*
X163663380Y-93151200D01*
X163711000Y-93294057D01*
X163806238Y-93389295D01*
X163901476Y-93436914D01*
X164091952Y-93484533D01*
X164234809Y-93484533D01*
X164425285Y-93436914D01*
X164520523Y-93389295D01*
X164615761Y-93294057D01*
X164663380Y-93151200D01*
X164663380Y-93055961D01*
X164615761Y-92913104D01*
X164568142Y-92865485D01*
X164234809Y-92865485D01*
X164234809Y-93055961D01*
X164663380Y-92436914D02*
X163663380Y-92436914D01*
X164663380Y-91865485D01*
X163663380Y-91865485D01*
X164663380Y-91389295D02*
X163663380Y-91389295D01*
X163663380Y-91151200D01*
X163711000Y-91008342D01*
X163806238Y-90913104D01*
X163901476Y-90865485D01*
X164091952Y-90817866D01*
X164234809Y-90817866D01*
X164425285Y-90865485D01*
X164520523Y-90913104D01*
X164615761Y-91008342D01*
X164663380Y-91151200D01*
X164663380Y-91389295D01*
X158631000Y-102391595D02*
X158583380Y-102486833D01*
X158583380Y-102629690D01*
X158631000Y-102772547D01*
X158726238Y-102867785D01*
X158821476Y-102915404D01*
X159011952Y-102963023D01*
X159154809Y-102963023D01*
X159345285Y-102915404D01*
X159440523Y-102867785D01*
X159535761Y-102772547D01*
X159583380Y-102629690D01*
X159583380Y-102534452D01*
X159535761Y-102391595D01*
X159488142Y-102343976D01*
X159154809Y-102343976D01*
X159154809Y-102534452D01*
X159583380Y-101915404D02*
X158583380Y-101915404D01*
X159583380Y-101343976D01*
X158583380Y-101343976D01*
X159583380Y-100867785D02*
X158583380Y-100867785D01*
X158583380Y-100629690D01*
X158631000Y-100486833D01*
X158726238Y-100391595D01*
X158821476Y-100343976D01*
X159011952Y-100296357D01*
X159154809Y-100296357D01*
X159345285Y-100343976D01*
X159440523Y-100391595D01*
X159535761Y-100486833D01*
X159583380Y-100629690D01*
X159583380Y-100867785D01*
X157043380Y-102343976D02*
X156567190Y-102677309D01*
X157043380Y-102915404D02*
X156043380Y-102915404D01*
X156043380Y-102534452D01*
X156091000Y-102439214D01*
X156138619Y-102391595D01*
X156233857Y-102343976D01*
X156376714Y-102343976D01*
X156471952Y-102391595D01*
X156519571Y-102439214D01*
X156567190Y-102534452D01*
X156567190Y-102915404D01*
X156757666Y-101963023D02*
X156757666Y-101486833D01*
X157043380Y-102058261D02*
X156043380Y-101724928D01*
X157043380Y-101391595D01*
X156376714Y-100629690D02*
X157043380Y-100629690D01*
X155995761Y-100867785D02*
X156710047Y-101105880D01*
X156710047Y-100486833D01*
X134691380Y-102343976D02*
X134215190Y-102677309D01*
X134691380Y-102915404D02*
X133691380Y-102915404D01*
X133691380Y-102534452D01*
X133739000Y-102439214D01*
X133786619Y-102391595D01*
X133881857Y-102343976D01*
X134024714Y-102343976D01*
X134119952Y-102391595D01*
X134167571Y-102439214D01*
X134215190Y-102534452D01*
X134215190Y-102915404D01*
X134167571Y-101582071D02*
X134215190Y-101439214D01*
X134262809Y-101391595D01*
X134358047Y-101343976D01*
X134500904Y-101343976D01*
X134596142Y-101391595D01*
X134643761Y-101439214D01*
X134691380Y-101534452D01*
X134691380Y-101915404D01*
X133691380Y-101915404D01*
X133691380Y-101582071D01*
X133739000Y-101486833D01*
X133786619Y-101439214D01*
X133881857Y-101391595D01*
X133977095Y-101391595D01*
X134072333Y-101439214D01*
X134119952Y-101486833D01*
X134167571Y-101582071D01*
X134167571Y-101915404D01*
X133691380Y-100724928D02*
X133691380Y-100629690D01*
X133739000Y-100534452D01*
X133786619Y-100486833D01*
X133881857Y-100439214D01*
X134072333Y-100391595D01*
X134310428Y-100391595D01*
X134500904Y-100439214D01*
X134596142Y-100486833D01*
X134643761Y-100534452D01*
X134691380Y-100629690D01*
X134691380Y-100724928D01*
X134643761Y-100820166D01*
X134596142Y-100867785D01*
X134500904Y-100915404D01*
X134310428Y-100963023D01*
X134072333Y-100963023D01*
X133881857Y-100915404D01*
X133786619Y-100867785D01*
X133739000Y-100820166D01*
X133691380Y-100724928D01*
X161123380Y-89723261D02*
X162123380Y-89389928D01*
X161123380Y-89056595D01*
X161599571Y-88389928D02*
X161647190Y-88247071D01*
X161694809Y-88199452D01*
X161790047Y-88151833D01*
X161932904Y-88151833D01*
X162028142Y-88199452D01*
X162075761Y-88247071D01*
X162123380Y-88342309D01*
X162123380Y-88723261D01*
X161123380Y-88723261D01*
X161123380Y-88389928D01*
X161171000Y-88294690D01*
X161218619Y-88247071D01*
X161313857Y-88199452D01*
X161409095Y-88199452D01*
X161504333Y-88247071D01*
X161551952Y-88294690D01*
X161599571Y-88389928D01*
X161599571Y-88723261D01*
X161123380Y-87723261D02*
X161932904Y-87723261D01*
X162028142Y-87675642D01*
X162075761Y-87628023D01*
X162123380Y-87532785D01*
X162123380Y-87342309D01*
X162075761Y-87247071D01*
X162028142Y-87199452D01*
X161932904Y-87151833D01*
X161123380Y-87151833D01*
X162075761Y-86723261D02*
X162123380Y-86580404D01*
X162123380Y-86342309D01*
X162075761Y-86247071D01*
X162028142Y-86199452D01*
X161932904Y-86151833D01*
X161837666Y-86151833D01*
X161742428Y-86199452D01*
X161694809Y-86247071D01*
X161647190Y-86342309D01*
X161599571Y-86532785D01*
X161551952Y-86628023D01*
X161504333Y-86675642D01*
X161409095Y-86723261D01*
X161313857Y-86723261D01*
X161218619Y-86675642D01*
X161171000Y-86628023D01*
X161123380Y-86532785D01*
X161123380Y-86294690D01*
X161171000Y-86151833D01*
X132841857Y-86669619D02*
X133175190Y-87145809D01*
X133413285Y-86669619D02*
X133413285Y-87669619D01*
X133032333Y-87669619D01*
X132937095Y-87622000D01*
X132889476Y-87574380D01*
X132841857Y-87479142D01*
X132841857Y-87336285D01*
X132889476Y-87241047D01*
X132937095Y-87193428D01*
X133032333Y-87145809D01*
X133413285Y-87145809D01*
X132079952Y-87193428D02*
X131937095Y-87145809D01*
X131889476Y-87098190D01*
X131841857Y-87002952D01*
X131841857Y-86860095D01*
X131889476Y-86764857D01*
X131937095Y-86717238D01*
X132032333Y-86669619D01*
X132413285Y-86669619D01*
X132413285Y-87669619D01*
X132079952Y-87669619D01*
X131984714Y-87622000D01*
X131937095Y-87574380D01*
X131889476Y-87479142D01*
X131889476Y-87383904D01*
X131937095Y-87288666D01*
X131984714Y-87241047D01*
X132079952Y-87193428D01*
X132413285Y-87193428D01*
X130889476Y-86669619D02*
X131460904Y-86669619D01*
X131175190Y-86669619D02*
X131175190Y-87669619D01*
X131270428Y-87526761D01*
X131365666Y-87431523D01*
X131460904Y-87383904D01*
X130032333Y-87336285D02*
X130032333Y-86669619D01*
X130270428Y-87717238D02*
X130508523Y-87002952D01*
X129889476Y-87002952D01*
X139771380Y-102343976D02*
X139295190Y-102677309D01*
X139771380Y-102915404D02*
X138771380Y-102915404D01*
X138771380Y-102534452D01*
X138819000Y-102439214D01*
X138866619Y-102391595D01*
X138961857Y-102343976D01*
X139104714Y-102343976D01*
X139199952Y-102391595D01*
X139247571Y-102439214D01*
X139295190Y-102534452D01*
X139295190Y-102915404D01*
X139247571Y-101582071D02*
X139295190Y-101439214D01*
X139342809Y-101391595D01*
X139438047Y-101343976D01*
X139580904Y-101343976D01*
X139676142Y-101391595D01*
X139723761Y-101439214D01*
X139771380Y-101534452D01*
X139771380Y-101915404D01*
X138771380Y-101915404D01*
X138771380Y-101582071D01*
X138819000Y-101486833D01*
X138866619Y-101439214D01*
X138961857Y-101391595D01*
X139057095Y-101391595D01*
X139152333Y-101439214D01*
X139199952Y-101486833D01*
X139247571Y-101582071D01*
X139247571Y-101915404D01*
X138866619Y-100963023D02*
X138819000Y-100915404D01*
X138771380Y-100820166D01*
X138771380Y-100582071D01*
X138819000Y-100486833D01*
X138866619Y-100439214D01*
X138961857Y-100391595D01*
X139057095Y-100391595D01*
X139199952Y-100439214D01*
X139771380Y-101010642D01*
X139771380Y-100391595D01*
X163663380Y-98170904D02*
X163663380Y-97599476D01*
X164663380Y-97885190D02*
X163663380Y-97885190D01*
X163663380Y-97361380D02*
X164663380Y-96694714D01*
X163663380Y-96694714D02*
X164663380Y-97361380D01*
X151963380Y-102343976D02*
X151487190Y-102677309D01*
X151963380Y-102915404D02*
X150963380Y-102915404D01*
X150963380Y-102534452D01*
X151011000Y-102439214D01*
X151058619Y-102391595D01*
X151153857Y-102343976D01*
X151296714Y-102343976D01*
X151391952Y-102391595D01*
X151439571Y-102439214D01*
X151487190Y-102534452D01*
X151487190Y-102915404D01*
X151677666Y-101963023D02*
X151677666Y-101486833D01*
X151963380Y-102058261D02*
X150963380Y-101724928D01*
X151963380Y-101391595D01*
X150963380Y-101153500D02*
X150963380Y-100534452D01*
X151344333Y-100867785D01*
X151344333Y-100724928D01*
X151391952Y-100629690D01*
X151439571Y-100582071D01*
X151534809Y-100534452D01*
X151772904Y-100534452D01*
X151868142Y-100582071D01*
X151915761Y-100629690D01*
X151963380Y-100724928D01*
X151963380Y-101010642D01*
X151915761Y-101105880D01*
X151868142Y-101153500D01*
X148471000Y-89026904D02*
X148423380Y-89122142D01*
X148423380Y-89265000D01*
X148471000Y-89407857D01*
X148566238Y-89503095D01*
X148661476Y-89550714D01*
X148851952Y-89598333D01*
X148994809Y-89598333D01*
X149185285Y-89550714D01*
X149280523Y-89503095D01*
X149375761Y-89407857D01*
X149423380Y-89265000D01*
X149423380Y-89169761D01*
X149375761Y-89026904D01*
X149328142Y-88979285D01*
X148994809Y-88979285D01*
X148994809Y-89169761D01*
X149423380Y-88550714D02*
X148423380Y-88550714D01*
X149423380Y-87979285D01*
X148423380Y-87979285D01*
X149423380Y-87503095D02*
X148423380Y-87503095D01*
X148423380Y-87265000D01*
X148471000Y-87122142D01*
X148566238Y-87026904D01*
X148661476Y-86979285D01*
X148851952Y-86931666D01*
X148994809Y-86931666D01*
X149185285Y-86979285D01*
X149280523Y-87026904D01*
X149375761Y-87122142D01*
X149423380Y-87265000D01*
X149423380Y-87503095D01*
X149423380Y-102343976D02*
X148947190Y-102677309D01*
X149423380Y-102915404D02*
X148423380Y-102915404D01*
X148423380Y-102534452D01*
X148471000Y-102439214D01*
X148518619Y-102391595D01*
X148613857Y-102343976D01*
X148756714Y-102343976D01*
X148851952Y-102391595D01*
X148899571Y-102439214D01*
X148947190Y-102534452D01*
X148947190Y-102915404D01*
X149137666Y-101963023D02*
X149137666Y-101486833D01*
X149423380Y-102058261D02*
X148423380Y-101724928D01*
X149423380Y-101391595D01*
X148518619Y-101105880D02*
X148471000Y-101058261D01*
X148423380Y-100963023D01*
X148423380Y-100724928D01*
X148471000Y-100629690D01*
X148518619Y-100582071D01*
X148613857Y-100534452D01*
X148709095Y-100534452D01*
X148851952Y-100582071D01*
X149423380Y-101153500D01*
X149423380Y-100534452D01*
X121483380Y-104306666D02*
X121007190Y-104640000D01*
X121483380Y-104878095D02*
X120483380Y-104878095D01*
X120483380Y-104497142D01*
X120531000Y-104401904D01*
X120578619Y-104354285D01*
X120673857Y-104306666D01*
X120816714Y-104306666D01*
X120911952Y-104354285D01*
X120959571Y-104401904D01*
X121007190Y-104497142D01*
X121007190Y-104878095D01*
X120483380Y-103973333D02*
X121483380Y-103306666D01*
X120483380Y-103306666D02*
X121483380Y-103973333D01*
X143001857Y-86669619D02*
X143335190Y-87145809D01*
X143573285Y-86669619D02*
X143573285Y-87669619D01*
X143192333Y-87669619D01*
X143097095Y-87622000D01*
X143049476Y-87574380D01*
X143001857Y-87479142D01*
X143001857Y-87336285D01*
X143049476Y-87241047D01*
X143097095Y-87193428D01*
X143192333Y-87145809D01*
X143573285Y-87145809D01*
X142239952Y-87193428D02*
X142097095Y-87145809D01*
X142049476Y-87098190D01*
X142001857Y-87002952D01*
X142001857Y-86860095D01*
X142049476Y-86764857D01*
X142097095Y-86717238D01*
X142192333Y-86669619D01*
X142573285Y-86669619D01*
X142573285Y-87669619D01*
X142239952Y-87669619D01*
X142144714Y-87622000D01*
X142097095Y-87574380D01*
X142049476Y-87479142D01*
X142049476Y-87383904D01*
X142097095Y-87288666D01*
X142144714Y-87241047D01*
X142239952Y-87193428D01*
X142573285Y-87193428D01*
X141049476Y-86669619D02*
X141620904Y-86669619D01*
X141335190Y-86669619D02*
X141335190Y-87669619D01*
X141430428Y-87526761D01*
X141525666Y-87431523D01*
X141620904Y-87383904D01*
X140430428Y-87669619D02*
X140335190Y-87669619D01*
X140239952Y-87622000D01*
X140192333Y-87574380D01*
X140144714Y-87479142D01*
X140097095Y-87288666D01*
X140097095Y-87050571D01*
X140144714Y-86860095D01*
X140192333Y-86764857D01*
X140239952Y-86717238D01*
X140335190Y-86669619D01*
X140430428Y-86669619D01*
X140525666Y-86717238D01*
X140573285Y-86764857D01*
X140620904Y-86860095D01*
X140668523Y-87050571D01*
X140668523Y-87288666D01*
X140620904Y-87479142D01*
X140573285Y-87574380D01*
X140525666Y-87622000D01*
X140430428Y-87669619D01*
X165382380Y-105201404D02*
X164382380Y-105201404D01*
X165096666Y-104868071D01*
X164382380Y-104534738D01*
X165382380Y-104534738D01*
X164858571Y-104058547D02*
X164858571Y-103725214D01*
X165382380Y-103582357D02*
X165382380Y-104058547D01*
X164382380Y-104058547D01*
X164382380Y-103582357D01*
X164477619Y-103201404D02*
X164430000Y-103153785D01*
X164382380Y-103058547D01*
X164382380Y-102820452D01*
X164430000Y-102725214D01*
X164477619Y-102677595D01*
X164572857Y-102629976D01*
X164668095Y-102629976D01*
X164810952Y-102677595D01*
X165382380Y-103249023D01*
X165382380Y-102629976D01*
X165382380Y-101677595D02*
X165382380Y-102249023D01*
X165382380Y-101963309D02*
X164382380Y-101963309D01*
X164525238Y-102058547D01*
X164620476Y-102153785D01*
X164668095Y-102249023D01*
X164810952Y-101106166D02*
X164763333Y-101201404D01*
X164715714Y-101249023D01*
X164620476Y-101296642D01*
X164572857Y-101296642D01*
X164477619Y-101249023D01*
X164430000Y-101201404D01*
X164382380Y-101106166D01*
X164382380Y-100915690D01*
X164430000Y-100820452D01*
X164477619Y-100772833D01*
X164572857Y-100725214D01*
X164620476Y-100725214D01*
X164715714Y-100772833D01*
X164763333Y-100820452D01*
X164810952Y-100915690D01*
X164810952Y-101106166D01*
X164858571Y-101201404D01*
X164906190Y-101249023D01*
X165001428Y-101296642D01*
X165191904Y-101296642D01*
X165287142Y-101249023D01*
X165334761Y-101201404D01*
X165382380Y-101106166D01*
X165382380Y-100915690D01*
X165334761Y-100820452D01*
X165287142Y-100772833D01*
X165191904Y-100725214D01*
X165001428Y-100725214D01*
X164906190Y-100772833D01*
X164858571Y-100820452D01*
X164810952Y-100915690D01*
X165382380Y-100296642D02*
X164382380Y-100296642D01*
X164382380Y-100058547D01*
X164430000Y-99915690D01*
X164525238Y-99820452D01*
X164620476Y-99772833D01*
X164810952Y-99725214D01*
X164953809Y-99725214D01*
X165144285Y-99772833D01*
X165239523Y-99820452D01*
X165334761Y-99915690D01*
X165382380Y-100058547D01*
X165382380Y-100296642D01*
X166611428Y-105201404D02*
X166611428Y-104439500D01*
X166992380Y-103963309D02*
X165992380Y-103963309D01*
X166373333Y-103963309D02*
X166325714Y-103868071D01*
X166325714Y-103677595D01*
X166373333Y-103582357D01*
X166420952Y-103534738D01*
X166516190Y-103487119D01*
X166801904Y-103487119D01*
X166897142Y-103534738D01*
X166944761Y-103582357D01*
X166992380Y-103677595D01*
X166992380Y-103868071D01*
X166944761Y-103963309D01*
X166325714Y-102629976D02*
X166992380Y-102629976D01*
X166325714Y-103058547D02*
X166849523Y-103058547D01*
X166944761Y-103010928D01*
X166992380Y-102915690D01*
X166992380Y-102772833D01*
X166944761Y-102677595D01*
X166897142Y-102629976D01*
X166325714Y-101725214D02*
X167135238Y-101725214D01*
X167230476Y-101772833D01*
X167278095Y-101820452D01*
X167325714Y-101915690D01*
X167325714Y-102058547D01*
X167278095Y-102153785D01*
X166944761Y-101725214D02*
X166992380Y-101820452D01*
X166992380Y-102010928D01*
X166944761Y-102106166D01*
X166897142Y-102153785D01*
X166801904Y-102201404D01*
X166516190Y-102201404D01*
X166420952Y-102153785D01*
X166373333Y-102106166D01*
X166325714Y-102010928D01*
X166325714Y-101820452D01*
X166373333Y-101725214D01*
X166325714Y-100820452D02*
X167135238Y-100820452D01*
X167230476Y-100868071D01*
X167278095Y-100915690D01*
X167325714Y-101010928D01*
X167325714Y-101153785D01*
X167278095Y-101249023D01*
X166944761Y-100820452D02*
X166992380Y-100915690D01*
X166992380Y-101106166D01*
X166944761Y-101201404D01*
X166897142Y-101249023D01*
X166801904Y-101296642D01*
X166516190Y-101296642D01*
X166420952Y-101249023D01*
X166373333Y-101201404D01*
X166325714Y-101106166D01*
X166325714Y-100915690D01*
X166373333Y-100820452D01*
X166944761Y-99963309D02*
X166992380Y-100058547D01*
X166992380Y-100249023D01*
X166944761Y-100344261D01*
X166849523Y-100391880D01*
X166468571Y-100391880D01*
X166373333Y-100344261D01*
X166325714Y-100249023D01*
X166325714Y-100058547D01*
X166373333Y-99963309D01*
X166468571Y-99915690D01*
X166563809Y-99915690D01*
X166659047Y-100391880D01*
X166992380Y-99487119D02*
X166325714Y-99487119D01*
X166516190Y-99487119D02*
X166420952Y-99439500D01*
X166373333Y-99391880D01*
X166325714Y-99296642D01*
X166325714Y-99201404D01*
X157043380Y-89058666D02*
X156567190Y-89392000D01*
X157043380Y-89630095D02*
X156043380Y-89630095D01*
X156043380Y-89249142D01*
X156091000Y-89153904D01*
X156138619Y-89106285D01*
X156233857Y-89058666D01*
X156376714Y-89058666D01*
X156471952Y-89106285D01*
X156519571Y-89153904D01*
X156567190Y-89249142D01*
X156567190Y-89630095D01*
X156519571Y-88296761D02*
X156567190Y-88153904D01*
X156614809Y-88106285D01*
X156710047Y-88058666D01*
X156852904Y-88058666D01*
X156948142Y-88106285D01*
X156995761Y-88153904D01*
X157043380Y-88249142D01*
X157043380Y-88630095D01*
X156043380Y-88630095D01*
X156043380Y-88296761D01*
X156091000Y-88201523D01*
X156138619Y-88153904D01*
X156233857Y-88106285D01*
X156329095Y-88106285D01*
X156424333Y-88153904D01*
X156471952Y-88201523D01*
X156519571Y-88296761D01*
X156519571Y-88630095D01*
X156471952Y-87487238D02*
X156424333Y-87582476D01*
X156376714Y-87630095D01*
X156281476Y-87677714D01*
X156233857Y-87677714D01*
X156138619Y-87630095D01*
X156091000Y-87582476D01*
X156043380Y-87487238D01*
X156043380Y-87296761D01*
X156091000Y-87201523D01*
X156138619Y-87153904D01*
X156233857Y-87106285D01*
X156281476Y-87106285D01*
X156376714Y-87153904D01*
X156424333Y-87201523D01*
X156471952Y-87296761D01*
X156471952Y-87487238D01*
X156519571Y-87582476D01*
X156567190Y-87630095D01*
X156662428Y-87677714D01*
X156852904Y-87677714D01*
X156948142Y-87630095D01*
X156995761Y-87582476D01*
X157043380Y-87487238D01*
X157043380Y-87296761D01*
X156995761Y-87201523D01*
X156948142Y-87153904D01*
X156852904Y-87106285D01*
X156662428Y-87106285D01*
X156567190Y-87153904D01*
X156519571Y-87201523D01*
X156471952Y-87296761D01*
X151011000Y-89026904D02*
X150963380Y-89122142D01*
X150963380Y-89265000D01*
X151011000Y-89407857D01*
X151106238Y-89503095D01*
X151201476Y-89550714D01*
X151391952Y-89598333D01*
X151534809Y-89598333D01*
X151725285Y-89550714D01*
X151820523Y-89503095D01*
X151915761Y-89407857D01*
X151963380Y-89265000D01*
X151963380Y-89169761D01*
X151915761Y-89026904D01*
X151868142Y-88979285D01*
X151534809Y-88979285D01*
X151534809Y-89169761D01*
X151963380Y-88550714D02*
X150963380Y-88550714D01*
X151963380Y-87979285D01*
X150963380Y-87979285D01*
X151963380Y-87503095D02*
X150963380Y-87503095D01*
X150963380Y-87265000D01*
X151011000Y-87122142D01*
X151106238Y-87026904D01*
X151201476Y-86979285D01*
X151391952Y-86931666D01*
X151534809Y-86931666D01*
X151725285Y-86979285D01*
X151820523Y-87026904D01*
X151915761Y-87122142D01*
X151963380Y-87265000D01*
X151963380Y-87503095D01*
X159583380Y-89058666D02*
X159107190Y-89392000D01*
X159583380Y-89630095D02*
X158583380Y-89630095D01*
X158583380Y-89249142D01*
X158631000Y-89153904D01*
X158678619Y-89106285D01*
X158773857Y-89058666D01*
X158916714Y-89058666D01*
X159011952Y-89106285D01*
X159059571Y-89153904D01*
X159107190Y-89249142D01*
X159107190Y-89630095D01*
X159059571Y-88296761D02*
X159107190Y-88153904D01*
X159154809Y-88106285D01*
X159250047Y-88058666D01*
X159392904Y-88058666D01*
X159488142Y-88106285D01*
X159535761Y-88153904D01*
X159583380Y-88249142D01*
X159583380Y-88630095D01*
X158583380Y-88630095D01*
X158583380Y-88296761D01*
X158631000Y-88201523D01*
X158678619Y-88153904D01*
X158773857Y-88106285D01*
X158869095Y-88106285D01*
X158964333Y-88153904D01*
X159011952Y-88201523D01*
X159059571Y-88296761D01*
X159059571Y-88630095D01*
X158583380Y-87725333D02*
X158583380Y-87058666D01*
X159583380Y-87487238D01*
X142311380Y-102343976D02*
X141835190Y-102677309D01*
X142311380Y-102915404D02*
X141311380Y-102915404D01*
X141311380Y-102534452D01*
X141359000Y-102439214D01*
X141406619Y-102391595D01*
X141501857Y-102343976D01*
X141644714Y-102343976D01*
X141739952Y-102391595D01*
X141787571Y-102439214D01*
X141835190Y-102534452D01*
X141835190Y-102915404D01*
X141787571Y-101582071D02*
X141835190Y-101439214D01*
X141882809Y-101391595D01*
X141978047Y-101343976D01*
X142120904Y-101343976D01*
X142216142Y-101391595D01*
X142263761Y-101439214D01*
X142311380Y-101534452D01*
X142311380Y-101915404D01*
X141311380Y-101915404D01*
X141311380Y-101582071D01*
X141359000Y-101486833D01*
X141406619Y-101439214D01*
X141501857Y-101391595D01*
X141597095Y-101391595D01*
X141692333Y-101439214D01*
X141739952Y-101486833D01*
X141787571Y-101582071D01*
X141787571Y-101915404D01*
X141311380Y-101010642D02*
X141311380Y-100391595D01*
X141692333Y-100724928D01*
X141692333Y-100582071D01*
X141739952Y-100486833D01*
X141787571Y-100439214D01*
X141882809Y-100391595D01*
X142120904Y-100391595D01*
X142216142Y-100439214D01*
X142263761Y-100486833D01*
X142311380Y-100582071D01*
X142311380Y-100867785D01*
X142263761Y-100963023D01*
X142216142Y-101010642D01*
X129611380Y-102343976D02*
X129135190Y-102677309D01*
X129611380Y-102915404D02*
X128611380Y-102915404D01*
X128611380Y-102534452D01*
X128659000Y-102439214D01*
X128706619Y-102391595D01*
X128801857Y-102343976D01*
X128944714Y-102343976D01*
X129039952Y-102391595D01*
X129087571Y-102439214D01*
X129135190Y-102534452D01*
X129135190Y-102915404D01*
X129325666Y-101963023D02*
X129325666Y-101486833D01*
X129611380Y-102058261D02*
X128611380Y-101724928D01*
X129611380Y-101391595D01*
X128611380Y-100867785D02*
X128611380Y-100772547D01*
X128659000Y-100677309D01*
X128706619Y-100629690D01*
X128801857Y-100582071D01*
X128992333Y-100534452D01*
X129230428Y-100534452D01*
X129420904Y-100582071D01*
X129516142Y-100629690D01*
X129563761Y-100677309D01*
X129611380Y-100772547D01*
X129611380Y-100867785D01*
X129563761Y-100963023D01*
X129516142Y-101010642D01*
X129420904Y-101058261D01*
X129230428Y-101105880D01*
X128992333Y-101105880D01*
X128801857Y-101058261D01*
X128706619Y-101010642D01*
X128659000Y-100963023D01*
X128611380Y-100867785D01*
X132151380Y-102343976D02*
X131675190Y-102677309D01*
X132151380Y-102915404D02*
X131151380Y-102915404D01*
X131151380Y-102534452D01*
X131199000Y-102439214D01*
X131246619Y-102391595D01*
X131341857Y-102343976D01*
X131484714Y-102343976D01*
X131579952Y-102391595D01*
X131627571Y-102439214D01*
X131675190Y-102534452D01*
X131675190Y-102915404D01*
X131865666Y-101963023D02*
X131865666Y-101486833D01*
X132151380Y-102058261D02*
X131151380Y-101724928D01*
X132151380Y-101391595D01*
X132151380Y-100534452D02*
X132151380Y-101105880D01*
X132151380Y-100820166D02*
X131151380Y-100820166D01*
X131294238Y-100915404D01*
X131389476Y-101010642D01*
X131437095Y-101105880D01*
X140334857Y-88066619D02*
X140668190Y-88542809D01*
X140906285Y-88066619D02*
X140906285Y-89066619D01*
X140525333Y-89066619D01*
X140430095Y-89019000D01*
X140382476Y-88971380D01*
X140334857Y-88876142D01*
X140334857Y-88733285D01*
X140382476Y-88638047D01*
X140430095Y-88590428D01*
X140525333Y-88542809D01*
X140906285Y-88542809D01*
X139572952Y-88590428D02*
X139430095Y-88542809D01*
X139382476Y-88495190D01*
X139334857Y-88399952D01*
X139334857Y-88257095D01*
X139382476Y-88161857D01*
X139430095Y-88114238D01*
X139525333Y-88066619D01*
X139906285Y-88066619D01*
X139906285Y-89066619D01*
X139572952Y-89066619D01*
X139477714Y-89019000D01*
X139430095Y-88971380D01*
X139382476Y-88876142D01*
X139382476Y-88780904D01*
X139430095Y-88685666D01*
X139477714Y-88638047D01*
X139572952Y-88590428D01*
X139906285Y-88590428D01*
X138382476Y-88066619D02*
X138953904Y-88066619D01*
X138668190Y-88066619D02*
X138668190Y-89066619D01*
X138763428Y-88923761D01*
X138858666Y-88828523D01*
X138953904Y-88780904D01*
X137430095Y-88066619D02*
X138001523Y-88066619D01*
X137715809Y-88066619D02*
X137715809Y-89066619D01*
X137811047Y-88923761D01*
X137906285Y-88828523D01*
X138001523Y-88780904D01*
X164663380Y-95111866D02*
X164187190Y-95445200D01*
X164663380Y-95683295D02*
X163663380Y-95683295D01*
X163663380Y-95302342D01*
X163711000Y-95207104D01*
X163758619Y-95159485D01*
X163853857Y-95111866D01*
X163996714Y-95111866D01*
X164091952Y-95159485D01*
X164139571Y-95207104D01*
X164187190Y-95302342D01*
X164187190Y-95683295D01*
X163663380Y-94778533D02*
X164663380Y-94111866D01*
X163663380Y-94111866D02*
X164663380Y-94778533D01*
X154503380Y-102343976D02*
X154027190Y-102677309D01*
X154503380Y-102915404D02*
X153503380Y-102915404D01*
X153503380Y-102534452D01*
X153551000Y-102439214D01*
X153598619Y-102391595D01*
X153693857Y-102343976D01*
X153836714Y-102343976D01*
X153931952Y-102391595D01*
X153979571Y-102439214D01*
X154027190Y-102534452D01*
X154027190Y-102915404D01*
X153979571Y-101582071D02*
X154027190Y-101439214D01*
X154074809Y-101391595D01*
X154170047Y-101343976D01*
X154312904Y-101343976D01*
X154408142Y-101391595D01*
X154455761Y-101439214D01*
X154503380Y-101534452D01*
X154503380Y-101915404D01*
X153503380Y-101915404D01*
X153503380Y-101582071D01*
X153551000Y-101486833D01*
X153598619Y-101439214D01*
X153693857Y-101391595D01*
X153789095Y-101391595D01*
X153884333Y-101439214D01*
X153931952Y-101486833D01*
X153979571Y-101582071D01*
X153979571Y-101915404D01*
X153836714Y-100486833D02*
X154503380Y-100486833D01*
X153455761Y-100724928D02*
X154170047Y-100963023D01*
X154170047Y-100343976D01*
X138017095Y-87669619D02*
X137398047Y-87669619D01*
X137731380Y-87288666D01*
X137588523Y-87288666D01*
X137493285Y-87241047D01*
X137445666Y-87193428D01*
X137398047Y-87098190D01*
X137398047Y-86860095D01*
X137445666Y-86764857D01*
X137493285Y-86717238D01*
X137588523Y-86669619D01*
X137874238Y-86669619D01*
X137969476Y-86717238D01*
X138017095Y-86764857D01*
X137112333Y-87669619D02*
X136779000Y-86669619D01*
X136445666Y-87669619D01*
X136207571Y-87669619D02*
X135588523Y-87669619D01*
X135921857Y-87288666D01*
X135779000Y-87288666D01*
X135683761Y-87241047D01*
X135636142Y-87193428D01*
X135588523Y-87098190D01*
X135588523Y-86860095D01*
X135636142Y-86764857D01*
X135683761Y-86717238D01*
X135779000Y-86669619D01*
X136064714Y-86669619D01*
X136159952Y-86717238D01*
X136207571Y-86764857D01*
X120483380Y-102361904D02*
X120483380Y-101790476D01*
X121483380Y-102076190D02*
X120483380Y-102076190D01*
X120483380Y-101552380D02*
X121483380Y-100885714D01*
X120483380Y-100885714D02*
X121483380Y-101552380D01*
X154503380Y-89058666D02*
X154027190Y-89392000D01*
X154503380Y-89630095D02*
X153503380Y-89630095D01*
X153503380Y-89249142D01*
X153551000Y-89153904D01*
X153598619Y-89106285D01*
X153693857Y-89058666D01*
X153836714Y-89058666D01*
X153931952Y-89106285D01*
X153979571Y-89153904D01*
X154027190Y-89249142D01*
X154027190Y-89630095D01*
X153979571Y-88296761D02*
X154027190Y-88153904D01*
X154074809Y-88106285D01*
X154170047Y-88058666D01*
X154312904Y-88058666D01*
X154408142Y-88106285D01*
X154455761Y-88153904D01*
X154503380Y-88249142D01*
X154503380Y-88630095D01*
X153503380Y-88630095D01*
X153503380Y-88296761D01*
X153551000Y-88201523D01*
X153598619Y-88153904D01*
X153693857Y-88106285D01*
X153789095Y-88106285D01*
X153884333Y-88153904D01*
X153931952Y-88201523D01*
X153979571Y-88296761D01*
X153979571Y-88630095D01*
X154503380Y-87582476D02*
X154503380Y-87392000D01*
X154455761Y-87296761D01*
X154408142Y-87249142D01*
X154265285Y-87153904D01*
X154074809Y-87106285D01*
X153693857Y-87106285D01*
X153598619Y-87153904D01*
X153551000Y-87201523D01*
X153503380Y-87296761D01*
X153503380Y-87487238D01*
X153551000Y-87582476D01*
X153598619Y-87630095D01*
X153693857Y-87677714D01*
X153931952Y-87677714D01*
X154027190Y-87630095D01*
X154074809Y-87582476D01*
X154122428Y-87487238D01*
X154122428Y-87296761D01*
X154074809Y-87201523D01*
X154027190Y-87153904D01*
X153931952Y-87106285D01*
X130301857Y-88066619D02*
X130635190Y-88542809D01*
X130873285Y-88066619D02*
X130873285Y-89066619D01*
X130492333Y-89066619D01*
X130397095Y-89019000D01*
X130349476Y-88971380D01*
X130301857Y-88876142D01*
X130301857Y-88733285D01*
X130349476Y-88638047D01*
X130397095Y-88590428D01*
X130492333Y-88542809D01*
X130873285Y-88542809D01*
X129539952Y-88590428D02*
X129397095Y-88542809D01*
X129349476Y-88495190D01*
X129301857Y-88399952D01*
X129301857Y-88257095D01*
X129349476Y-88161857D01*
X129397095Y-88114238D01*
X129492333Y-88066619D01*
X129873285Y-88066619D01*
X129873285Y-89066619D01*
X129539952Y-89066619D01*
X129444714Y-89019000D01*
X129397095Y-88971380D01*
X129349476Y-88876142D01*
X129349476Y-88780904D01*
X129397095Y-88685666D01*
X129444714Y-88638047D01*
X129539952Y-88590428D01*
X129873285Y-88590428D01*
X128349476Y-88066619D02*
X128920904Y-88066619D01*
X128635190Y-88066619D02*
X128635190Y-89066619D01*
X128730428Y-88923761D01*
X128825666Y-88828523D01*
X128920904Y-88780904D01*
X127444714Y-89066619D02*
X127920904Y-89066619D01*
X127968523Y-88590428D01*
X127920904Y-88638047D01*
X127825666Y-88685666D01*
X127587571Y-88685666D01*
X127492333Y-88638047D01*
X127444714Y-88590428D01*
X127397095Y-88495190D01*
X127397095Y-88257095D01*
X127444714Y-88161857D01*
X127492333Y-88114238D01*
X127587571Y-88066619D01*
X127825666Y-88066619D01*
X127920904Y-88114238D01*
X127968523Y-88161857D01*
X137231380Y-102343976D02*
X136755190Y-102677309D01*
X137231380Y-102915404D02*
X136231380Y-102915404D01*
X136231380Y-102534452D01*
X136279000Y-102439214D01*
X136326619Y-102391595D01*
X136421857Y-102343976D01*
X136564714Y-102343976D01*
X136659952Y-102391595D01*
X136707571Y-102439214D01*
X136755190Y-102534452D01*
X136755190Y-102915404D01*
X136707571Y-101582071D02*
X136755190Y-101439214D01*
X136802809Y-101391595D01*
X136898047Y-101343976D01*
X137040904Y-101343976D01*
X137136142Y-101391595D01*
X137183761Y-101439214D01*
X137231380Y-101534452D01*
X137231380Y-101915404D01*
X136231380Y-101915404D01*
X136231380Y-101582071D01*
X136279000Y-101486833D01*
X136326619Y-101439214D01*
X136421857Y-101391595D01*
X136517095Y-101391595D01*
X136612333Y-101439214D01*
X136659952Y-101486833D01*
X136707571Y-101582071D01*
X136707571Y-101915404D01*
X137231380Y-100391595D02*
X137231380Y-100963023D01*
X137231380Y-100677309D02*
X136231380Y-100677309D01*
X136374238Y-100772547D01*
X136469476Y-100867785D01*
X136517095Y-100963023D01*
%TO.C,J5*%
X129206780Y-93479333D02*
X129921066Y-93479333D01*
X130063923Y-93526952D01*
X130159161Y-93622190D01*
X130206780Y-93765047D01*
X130206780Y-93860285D01*
X129206780Y-92526952D02*
X129206780Y-93003142D01*
X129682971Y-93050761D01*
X129635352Y-93003142D01*
X129587733Y-92907904D01*
X129587733Y-92669809D01*
X129635352Y-92574571D01*
X129682971Y-92526952D01*
X129778209Y-92479333D01*
X130016304Y-92479333D01*
X130111542Y-92526952D01*
X130159161Y-92574571D01*
X130206780Y-92669809D01*
X130206780Y-92907904D01*
X130159161Y-93003142D01*
X130111542Y-93050761D01*
%TO.C,R10*%
X121610380Y-89111057D02*
X121134190Y-89444390D01*
X121610380Y-89682485D02*
X120610380Y-89682485D01*
X120610380Y-89301533D01*
X120658000Y-89206295D01*
X120705619Y-89158676D01*
X120800857Y-89111057D01*
X120943714Y-89111057D01*
X121038952Y-89158676D01*
X121086571Y-89206295D01*
X121134190Y-89301533D01*
X121134190Y-89682485D01*
X121610380Y-88158676D02*
X121610380Y-88730104D01*
X121610380Y-88444390D02*
X120610380Y-88444390D01*
X120753238Y-88539628D01*
X120848476Y-88634866D01*
X120896095Y-88730104D01*
X120610380Y-87539628D02*
X120610380Y-87444390D01*
X120658000Y-87349152D01*
X120705619Y-87301533D01*
X120800857Y-87253914D01*
X120991333Y-87206295D01*
X121229428Y-87206295D01*
X121419904Y-87253914D01*
X121515142Y-87301533D01*
X121562761Y-87349152D01*
X121610380Y-87444390D01*
X121610380Y-87539628D01*
X121562761Y-87634866D01*
X121515142Y-87682485D01*
X121419904Y-87730104D01*
X121229428Y-87777723D01*
X120991333Y-87777723D01*
X120800857Y-87730104D01*
X120705619Y-87682485D01*
X120658000Y-87634866D01*
X120610380Y-87539628D01*
%TO.C,J6*%
X167854380Y-89995333D02*
X168568666Y-89995333D01*
X168711523Y-90042952D01*
X168806761Y-90138190D01*
X168854380Y-90281047D01*
X168854380Y-90376285D01*
X167854380Y-89090571D02*
X167854380Y-89281047D01*
X167902000Y-89376285D01*
X167949619Y-89423904D01*
X168092476Y-89519142D01*
X168282952Y-89566761D01*
X168663904Y-89566761D01*
X168759142Y-89519142D01*
X168806761Y-89471523D01*
X168854380Y-89376285D01*
X168854380Y-89185809D01*
X168806761Y-89090571D01*
X168759142Y-89042952D01*
X168663904Y-88995333D01*
X168425809Y-88995333D01*
X168330571Y-89042952D01*
X168282952Y-89090571D01*
X168235333Y-89185809D01*
X168235333Y-89376285D01*
X168282952Y-89471523D01*
X168330571Y-89519142D01*
X168425809Y-89566761D01*
%TO.C,D4*%
X121610380Y-86590095D02*
X120610380Y-86590095D01*
X120610380Y-86352000D01*
X120658000Y-86209142D01*
X120753238Y-86113904D01*
X120848476Y-86066285D01*
X121038952Y-86018666D01*
X121181809Y-86018666D01*
X121372285Y-86066285D01*
X121467523Y-86113904D01*
X121562761Y-86209142D01*
X121610380Y-86352000D01*
X121610380Y-86590095D01*
X120943714Y-85161523D02*
X121610380Y-85161523D01*
X120562761Y-85399619D02*
X121277047Y-85637714D01*
X121277047Y-85018666D01*
%TO.C,U1*%
X126198380Y-99567904D02*
X127007904Y-99567904D01*
X127103142Y-99520285D01*
X127150761Y-99472666D01*
X127198380Y-99377428D01*
X127198380Y-99186952D01*
X127150761Y-99091714D01*
X127103142Y-99044095D01*
X127007904Y-98996476D01*
X126198380Y-98996476D01*
X127198380Y-97996476D02*
X127198380Y-98567904D01*
X127198380Y-98282190D02*
X126198380Y-98282190D01*
X126341238Y-98377428D01*
X126436476Y-98472666D01*
X126484095Y-98567904D01*
D11*
%TO.C,J5*%
X119581400Y-99466000D02*
X119931400Y-99466000D01*
X122955400Y-90526000D02*
X122275400Y-90526000D01*
X119581400Y-90526000D02*
X119581400Y-99466000D01*
X122955400Y-99466000D02*
X122275400Y-99466000D01*
X119931400Y-90526000D02*
X119581400Y-90526000D01*
X126905400Y-92021000D02*
G75*
G03*
X126905400Y-92021000I-100000J0D01*
G01*
D12*
%TO.C,R10*%
X124816764Y-87558200D02*
X123362636Y-87558200D01*
X124816764Y-89378200D02*
X123362636Y-89378200D01*
%TO.C,D1*%
X126310200Y-100439600D02*
X122425200Y-100439600D01*
X122425200Y-102709600D02*
X126310200Y-102709600D01*
X126310200Y-102709600D02*
X126310200Y-100439600D01*
%TO.C,J6*%
X167322000Y-98724000D02*
X167322000Y-90984000D01*
X167322000Y-92674000D02*
X166912000Y-92674000D01*
X169672000Y-98724000D02*
X167322000Y-98724000D01*
X167322000Y-95214000D02*
X166912000Y-95214000D01*
X167322000Y-94494000D02*
X166912000Y-94494000D01*
X167322000Y-97754000D02*
X166972000Y-97754000D01*
X167322000Y-91954000D02*
X166912000Y-91954000D01*
X167322000Y-97034000D02*
X166972000Y-97034000D01*
X169672000Y-90984000D02*
X167322000Y-90984000D01*
%TO.C,D3*%
X126310200Y-105275000D02*
X126310200Y-103005000D01*
X126310200Y-103005000D02*
X122425200Y-103005000D01*
X122425200Y-105275000D02*
X126310200Y-105275000D01*
%TO.C,D4*%
X126361000Y-86987000D02*
X126361000Y-84717000D01*
X126361000Y-84717000D02*
X122476000Y-84717000D01*
X122476000Y-86987000D02*
X126361000Y-86987000D01*
D13*
%TO.C,U1*%
X163148200Y-89874500D02*
X163148200Y-100034500D01*
X127588200Y-89874500D02*
X163148200Y-89874500D01*
X127588200Y-100034500D02*
X127588200Y-89874500D01*
X163148200Y-100034500D02*
X127588200Y-100034500D01*
D11*
X128069200Y-100796500D02*
G75*
G03*
X128069200Y-100796500I-100000J0D01*
G01*
%TD*%
M02*
