%TF.GenerationSoftware,KiCad,Pcbnew,(6.0.7)*%
%TF.CreationDate,2022-12-19T16:29:32-08:00*%
%TF.ProjectId,Intermediary_revC_4layer,496e7465-726d-4656-9469-6172795f7265,rev?*%
%TF.SameCoordinates,Original*%
%TF.FileFunction,Copper,L2,Inr*%
%TF.FilePolarity,Positive*%
%FSLAX46Y46*%
G04 Gerber Fmt 4.6, Leading zero omitted, Abs format (unit mm)*
G04 Created by KiCad (PCBNEW (6.0.7)) date 2022-12-19 16:29:32*
%MOMM*%
%LPD*%
G01*
G04 APERTURE LIST*
%ADD10C,0.300000*%
%TA.AperFunction,NonConductor*%
%ADD11C,0.300000*%
%TD*%
%TA.AperFunction,ComponentPad*%
%ADD12C,0.650000*%
%TD*%
%TA.AperFunction,ComponentPad*%
%ADD13O,1.700000X0.900000*%
%TD*%
%TA.AperFunction,ComponentPad*%
%ADD14O,2.400000X0.900000*%
%TD*%
%TA.AperFunction,ComponentPad*%
%ADD15C,1.700000*%
%TD*%
%TA.AperFunction,ComponentPad*%
%ADD16O,1.700000X1.700000*%
%TD*%
%TA.AperFunction,ComponentPad*%
%ADD17R,1.508000X1.508000*%
%TD*%
%TA.AperFunction,ComponentPad*%
%ADD18C,1.508000*%
%TD*%
%TA.AperFunction,ViaPad*%
%ADD19C,0.600000*%
%TD*%
G04 APERTURE END LIST*
D10*
D11*
X165005628Y-85518571D02*
X164934200Y-85447142D01*
X164862771Y-85304285D01*
X164862771Y-84947142D01*
X164934200Y-84804285D01*
X165005628Y-84732857D01*
X165148485Y-84661428D01*
X165291342Y-84661428D01*
X165505628Y-84732857D01*
X166362771Y-85590000D01*
X166362771Y-84661428D01*
D12*
%TO.N,GNDREF*%
%TO.C,J5*%
X125465400Y-92021000D03*
%TO.N,+5V*%
X125465400Y-92871000D03*
%TO.N,Net-(J5-PadA5)*%
X125465400Y-93721000D03*
%TO.N,/D+*%
X125465400Y-94571000D03*
%TO.N,/D-*%
X125465400Y-95421000D03*
%TO.N,unconnected-(J5-PadA8)*%
X125465400Y-96271000D03*
%TO.N,+5V*%
X125465400Y-97121000D03*
%TO.N,GNDREF*%
X125465400Y-97971000D03*
X124115400Y-97971000D03*
%TO.N,+5V*%
X124115400Y-97121000D03*
%TO.N,Net-(J5-PadB5)*%
X124115400Y-96271000D03*
%TO.N,/D+*%
X124115400Y-95421000D03*
%TO.N,/D-*%
X124115400Y-94571000D03*
%TO.N,unconnected-(J5-PadB8)*%
X124115400Y-93721000D03*
%TO.N,+5V*%
X124115400Y-92871000D03*
%TO.N,GNDREF*%
X124115400Y-92021000D03*
D13*
X121105400Y-90671000D03*
X121105400Y-99321000D03*
D14*
X124485400Y-90671000D03*
X124485400Y-99321000D03*
%TD*%
D15*
%TO.N,/PIC32/RA0*%
%TO.C,J1*%
X129112200Y-104775000D03*
D16*
%TO.N,/PIC32/RA1*%
X131652200Y-104775000D03*
%TO.N,/PIC32/RB0*%
X134192200Y-104775000D03*
%TO.N,/PIC32/RB1*%
X136732200Y-104775000D03*
%TO.N,/CP2102N/TXD*%
X139272200Y-104775000D03*
%TO.N,/CP2102N/RXD*%
X141812200Y-104775000D03*
%TD*%
D15*
%TO.N,/PIC32/RB15*%
%TO.C,J3*%
X129137200Y-85090000D03*
D16*
%TO.N,/PIC32/RB14*%
X131677200Y-85090000D03*
%TO.N,/PIC32/RB13*%
X134217200Y-85090000D03*
%TO.N,+3V3*%
X136757200Y-85090000D03*
%TO.N,/RB11{slash}D-_PIC*%
X139297200Y-85090000D03*
%TO.N,/RB10{slash}D+_PIC*%
X141837200Y-85090000D03*
%TD*%
D15*
%TO.N,/PIC32/RB9{slash}TX_TGT*%
%TO.C,J6*%
X165862000Y-97394000D03*
D16*
%TO.N,/PIC32/RB8{slash}RX_TGT*%
X165862000Y-94854000D03*
%TO.N,GNDREF*%
X165862000Y-92314000D03*
%TD*%
D15*
%TO.N,GNDREF*%
%TO.C,J4*%
X148949200Y-85090000D03*
D16*
X151489200Y-85090000D03*
%TO.N,/PIC32/RB9{slash}TX_TGT*%
X154029200Y-85090000D03*
%TO.N,/PIC32/RB8{slash}RX_TGT*%
X156569200Y-85090000D03*
%TO.N,/PIC32/RB7*%
X159109200Y-85090000D03*
%TO.N,/VBUS_PIC*%
X161649200Y-85090000D03*
%TD*%
D15*
%TO.N,/RA2{slash}TXT_PIC*%
%TO.C,J2*%
X148924200Y-104775000D03*
D16*
%TO.N,/RA3{slash}RXT_PIC*%
X151464200Y-104775000D03*
%TO.N,/PIC32/RB4*%
X154004200Y-104775000D03*
%TO.N,/PIC32/RA4*%
X156544200Y-104775000D03*
%TO.N,GNDREF*%
X159084200Y-104775000D03*
%TO.N,/PIC32/RB5*%
X161624200Y-104775000D03*
%TD*%
D17*
%TO.N,/PIC32/~{MCLR}*%
%TO.C,U1*%
X128858200Y-98764500D03*
D18*
%TO.N,/PIC32/RA0*%
X131398200Y-98764500D03*
%TO.N,/PIC32/RA1*%
X133938200Y-98764500D03*
%TO.N,/PIC32/RB0*%
X136478200Y-98764500D03*
%TO.N,/PIC32/RB1*%
X139018200Y-98764500D03*
%TO.N,/CP2102N/TXD*%
X141558200Y-98764500D03*
%TO.N,/CP2102N/RXD*%
X144098200Y-98764500D03*
%TO.N,GNDREF*%
X146638200Y-98764500D03*
%TO.N,/RA2{slash}TXT_PIC*%
X149178200Y-98764500D03*
%TO.N,/RA3{slash}RXT_PIC*%
X151718200Y-98764500D03*
%TO.N,/PIC32/RB4*%
X154258200Y-98764500D03*
%TO.N,/PIC32/RA4*%
X156798200Y-98764500D03*
%TO.N,+3V3*%
X159338200Y-98764500D03*
%TO.N,/PIC32/RB5*%
X161878200Y-98764500D03*
%TO.N,/VBUS_PIC*%
X161878200Y-91144500D03*
%TO.N,/PIC32/RB7*%
X159338200Y-91144500D03*
%TO.N,/PIC32/RB8{slash}RX_TGT*%
X156798200Y-91144500D03*
%TO.N,/PIC32/RB9{slash}TX_TGT*%
X154258200Y-91144500D03*
%TO.N,GNDREF*%
X151718200Y-91144500D03*
%TO.N,Net-(C6-Pad1)*%
X149178200Y-91144500D03*
%TO.N,/RB10{slash}D+_PIC*%
X146638200Y-91144500D03*
%TO.N,/RB11{slash}D-_PIC*%
X144098200Y-91144500D03*
%TO.N,+3V3*%
X141558200Y-91144500D03*
%TO.N,/PIC32/RB13*%
X139018200Y-91144500D03*
%TO.N,/PIC32/RB14*%
X136478200Y-91144500D03*
%TO.N,/PIC32/RB15*%
X133938200Y-91144500D03*
%TO.N,GNDREF*%
X131398200Y-91144500D03*
%TO.N,+3V3*%
X128858200Y-91144500D03*
%TD*%
D19*
%TO.N,GNDREF*%
X132969000Y-88138000D03*
X143764000Y-95631000D03*
X142494000Y-94361000D03*
X131220400Y-94865000D03*
X143764000Y-94361000D03*
X150698200Y-88138000D03*
X134923000Y-94820000D03*
X142494000Y-95631000D03*
X140157200Y-88138000D03*
X157429200Y-101727000D03*
X145846800Y-88138000D03*
X148539200Y-96266000D03*
X124383800Y-85852000D03*
X140436600Y-101727000D03*
X160020000Y-88138000D03*
X120904000Y-94234000D03*
%TO.N,+3V3*%
X140233400Y-94005400D03*
X151358600Y-93726000D03*
X125552200Y-89814400D03*
X122625200Y-102850600D03*
X129438400Y-88138000D03*
X137871200Y-94818200D03*
X135585200Y-101727000D03*
%TO.N,Net-(D1-Pad1)*%
X127541617Y-103716417D03*
%TO.N,Net-(D3-Pad1)*%
X127329700Y-105029000D03*
%TO.N,/RB10{slash}D+_PIC*%
X127914400Y-100304600D03*
%TO.N,Net-(J5-PadB5)*%
X122758300Y-97586700D03*
X126826200Y-94869000D03*
%TO.N,/D+*%
X126800700Y-101726934D03*
X126802585Y-95888647D03*
%TO.N,/VREGIN_CP2102N*%
X154127200Y-96266000D03*
X126873000Y-88138000D03*
X141147800Y-93065600D03*
%TO.N,/RA2{slash}TXT_PIC*%
X145288000Y-101701600D03*
%TD*%
%TA.AperFunction,Conductor*%
%TO.N,GNDREF*%
G36*
X128571239Y-84142893D02*
G01*
X128596959Y-84187442D01*
X128588026Y-84238100D01*
X128570021Y-84259106D01*
X128434981Y-84367680D01*
X128434974Y-84367687D01*
X128432112Y-84369988D01*
X128305689Y-84520653D01*
X128303918Y-84523875D01*
X128303917Y-84523876D01*
X128268173Y-84588895D01*
X128210939Y-84693004D01*
X128151469Y-84880476D01*
X128129545Y-85075930D01*
X128129853Y-85079598D01*
X128129853Y-85079601D01*
X128145687Y-85268161D01*
X128146003Y-85271919D01*
X128200215Y-85460979D01*
X128290116Y-85635908D01*
X128412283Y-85790044D01*
X128415077Y-85792422D01*
X128415078Y-85792423D01*
X128515048Y-85877504D01*
X128562062Y-85917516D01*
X128565263Y-85919305D01*
X128565266Y-85919307D01*
X128633911Y-85957671D01*
X128733747Y-86013467D01*
X128737244Y-86014603D01*
X128737248Y-86014605D01*
X128818257Y-86040926D01*
X128920800Y-86074244D01*
X129020720Y-86086159D01*
X129112437Y-86097096D01*
X129112439Y-86097096D01*
X129116095Y-86097532D01*
X129312194Y-86082443D01*
X129460891Y-86040926D01*
X129498083Y-86030542D01*
X129498085Y-86030541D01*
X129501628Y-86029552D01*
X129647492Y-85955871D01*
X129673897Y-85942533D01*
X129673898Y-85942532D01*
X129677181Y-85940874D01*
X129832166Y-85819786D01*
X129960680Y-85670901D01*
X129973061Y-85649107D01*
X130056010Y-85503091D01*
X130056012Y-85503088D01*
X130057828Y-85499890D01*
X130088869Y-85406578D01*
X130118748Y-85316760D01*
X130118749Y-85316757D01*
X130119910Y-85313266D01*
X130141942Y-85138862D01*
X130144296Y-85120228D01*
X130144560Y-85118138D01*
X130144822Y-85099377D01*
X130144924Y-85092099D01*
X130144924Y-85092093D01*
X130144953Y-85090000D01*
X130143934Y-85079608D01*
X130126121Y-84897927D01*
X130126120Y-84897922D01*
X130125761Y-84894260D01*
X130068914Y-84705975D01*
X129976579Y-84532318D01*
X129852272Y-84379903D01*
X129705452Y-84258443D01*
X129679421Y-84214075D01*
X129688000Y-84163356D01*
X129727173Y-84130016D01*
X129753386Y-84125300D01*
X131062901Y-84125300D01*
X131111239Y-84142893D01*
X131136959Y-84187442D01*
X131128026Y-84238100D01*
X131110021Y-84259106D01*
X130974981Y-84367680D01*
X130974974Y-84367687D01*
X130972112Y-84369988D01*
X130845689Y-84520653D01*
X130843918Y-84523875D01*
X130843917Y-84523876D01*
X130808173Y-84588895D01*
X130750939Y-84693004D01*
X130691469Y-84880476D01*
X130669545Y-85075930D01*
X130669853Y-85079598D01*
X130669853Y-85079601D01*
X130685687Y-85268161D01*
X130686003Y-85271919D01*
X130740215Y-85460979D01*
X130830116Y-85635908D01*
X130952283Y-85790044D01*
X130955077Y-85792422D01*
X130955078Y-85792423D01*
X131055048Y-85877504D01*
X131102062Y-85917516D01*
X131105263Y-85919305D01*
X131105266Y-85919307D01*
X131173911Y-85957671D01*
X131273747Y-86013467D01*
X131277244Y-86014603D01*
X131277248Y-86014605D01*
X131358257Y-86040926D01*
X131460800Y-86074244D01*
X131560720Y-86086159D01*
X131652437Y-86097096D01*
X131652439Y-86097096D01*
X131656095Y-86097532D01*
X131852194Y-86082443D01*
X132000891Y-86040926D01*
X132038083Y-86030542D01*
X132038085Y-86030541D01*
X132041628Y-86029552D01*
X132187492Y-85955871D01*
X132213897Y-85942533D01*
X132213898Y-85942532D01*
X132217181Y-85940874D01*
X132372166Y-85819786D01*
X132500680Y-85670901D01*
X132513061Y-85649107D01*
X132596010Y-85503091D01*
X132596012Y-85503088D01*
X132597828Y-85499890D01*
X132628869Y-85406578D01*
X132658748Y-85316760D01*
X132658749Y-85316757D01*
X132659910Y-85313266D01*
X132681942Y-85138862D01*
X132684296Y-85120228D01*
X132684560Y-85118138D01*
X132684822Y-85099377D01*
X132684924Y-85092099D01*
X132684924Y-85092093D01*
X132684953Y-85090000D01*
X132683934Y-85079608D01*
X132666121Y-84897927D01*
X132666120Y-84897922D01*
X132665761Y-84894260D01*
X132608914Y-84705975D01*
X132516579Y-84532318D01*
X132392272Y-84379903D01*
X132245452Y-84258443D01*
X132219421Y-84214075D01*
X132228000Y-84163356D01*
X132267173Y-84130016D01*
X132293386Y-84125300D01*
X133602901Y-84125300D01*
X133651239Y-84142893D01*
X133676959Y-84187442D01*
X133668026Y-84238100D01*
X133650021Y-84259106D01*
X133514981Y-84367680D01*
X133514974Y-84367687D01*
X133512112Y-84369988D01*
X133385689Y-84520653D01*
X133383918Y-84523875D01*
X133383917Y-84523876D01*
X133348173Y-84588895D01*
X133290939Y-84693004D01*
X133231469Y-84880476D01*
X133209545Y-85075930D01*
X133209853Y-85079598D01*
X133209853Y-85079601D01*
X133225687Y-85268161D01*
X133226003Y-85271919D01*
X133280215Y-85460979D01*
X133370116Y-85635908D01*
X133492283Y-85790044D01*
X133495077Y-85792422D01*
X133495078Y-85792423D01*
X133595048Y-85877504D01*
X133642062Y-85917516D01*
X133645263Y-85919305D01*
X133645266Y-85919307D01*
X133713911Y-85957671D01*
X133813747Y-86013467D01*
X133817244Y-86014603D01*
X133817248Y-86014605D01*
X133898257Y-86040926D01*
X134000800Y-86074244D01*
X134100720Y-86086159D01*
X134192437Y-86097096D01*
X134192439Y-86097096D01*
X134196095Y-86097532D01*
X134392194Y-86082443D01*
X134540891Y-86040926D01*
X134578083Y-86030542D01*
X134578085Y-86030541D01*
X134581628Y-86029552D01*
X134727492Y-85955871D01*
X134753897Y-85942533D01*
X134753898Y-85942532D01*
X134757181Y-85940874D01*
X134912166Y-85819786D01*
X135040680Y-85670901D01*
X135053061Y-85649107D01*
X135136010Y-85503091D01*
X135136012Y-85503088D01*
X135137828Y-85499890D01*
X135168869Y-85406578D01*
X135198748Y-85316760D01*
X135198749Y-85316757D01*
X135199910Y-85313266D01*
X135221942Y-85138862D01*
X135224296Y-85120228D01*
X135224560Y-85118138D01*
X135224822Y-85099377D01*
X135224924Y-85092099D01*
X135224924Y-85092093D01*
X135224953Y-85090000D01*
X135223934Y-85079608D01*
X135206121Y-84897927D01*
X135206120Y-84897922D01*
X135205761Y-84894260D01*
X135148914Y-84705975D01*
X135056579Y-84532318D01*
X134932272Y-84379903D01*
X134785452Y-84258443D01*
X134759421Y-84214075D01*
X134768000Y-84163356D01*
X134807173Y-84130016D01*
X134833386Y-84125300D01*
X136142901Y-84125300D01*
X136191239Y-84142893D01*
X136216959Y-84187442D01*
X136208026Y-84238100D01*
X136190021Y-84259106D01*
X136054981Y-84367680D01*
X136054974Y-84367687D01*
X136052112Y-84369988D01*
X135925689Y-84520653D01*
X135923918Y-84523875D01*
X135923917Y-84523876D01*
X135888173Y-84588895D01*
X135830939Y-84693004D01*
X135771469Y-84880476D01*
X135749545Y-85075930D01*
X135749853Y-85079598D01*
X135749853Y-85079601D01*
X135765687Y-85268161D01*
X135766003Y-85271919D01*
X135820215Y-85460979D01*
X135910116Y-85635908D01*
X136032283Y-85790044D01*
X136035077Y-85792422D01*
X136035078Y-85792423D01*
X136135048Y-85877504D01*
X136182062Y-85917516D01*
X136185263Y-85919305D01*
X136185266Y-85919307D01*
X136253911Y-85957671D01*
X136353747Y-86013467D01*
X136357244Y-86014603D01*
X136357248Y-86014605D01*
X136438257Y-86040926D01*
X136540800Y-86074244D01*
X136640720Y-86086159D01*
X136732437Y-86097096D01*
X136732439Y-86097096D01*
X136736095Y-86097532D01*
X136932194Y-86082443D01*
X137080891Y-86040926D01*
X137118083Y-86030542D01*
X137118085Y-86030541D01*
X137121628Y-86029552D01*
X137267492Y-85955871D01*
X137293897Y-85942533D01*
X137293898Y-85942532D01*
X137297181Y-85940874D01*
X137452166Y-85819786D01*
X137580680Y-85670901D01*
X137593061Y-85649107D01*
X137676010Y-85503091D01*
X137676012Y-85503088D01*
X137677828Y-85499890D01*
X137708869Y-85406578D01*
X137738748Y-85316760D01*
X137738749Y-85316757D01*
X137739910Y-85313266D01*
X137761942Y-85138862D01*
X137764296Y-85120228D01*
X137764560Y-85118138D01*
X137764822Y-85099377D01*
X137764924Y-85092099D01*
X137764924Y-85092093D01*
X137764953Y-85090000D01*
X137763934Y-85079608D01*
X137746121Y-84897927D01*
X137746120Y-84897922D01*
X137745761Y-84894260D01*
X137688914Y-84705975D01*
X137596579Y-84532318D01*
X137472272Y-84379903D01*
X137325452Y-84258443D01*
X137299421Y-84214075D01*
X137308000Y-84163356D01*
X137347173Y-84130016D01*
X137373386Y-84125300D01*
X138682901Y-84125300D01*
X138731239Y-84142893D01*
X138756959Y-84187442D01*
X138748026Y-84238100D01*
X138730021Y-84259106D01*
X138594981Y-84367680D01*
X138594974Y-84367687D01*
X138592112Y-84369988D01*
X138465689Y-84520653D01*
X138463918Y-84523875D01*
X138463917Y-84523876D01*
X138428173Y-84588895D01*
X138370939Y-84693004D01*
X138311469Y-84880476D01*
X138289545Y-85075930D01*
X138289853Y-85079598D01*
X138289853Y-85079601D01*
X138305687Y-85268161D01*
X138306003Y-85271919D01*
X138360215Y-85460979D01*
X138450116Y-85635908D01*
X138572283Y-85790044D01*
X138575077Y-85792422D01*
X138575078Y-85792423D01*
X138675048Y-85877504D01*
X138722062Y-85917516D01*
X138725263Y-85919305D01*
X138725266Y-85919307D01*
X138793911Y-85957671D01*
X138893747Y-86013467D01*
X138897244Y-86014603D01*
X138897248Y-86014605D01*
X138978257Y-86040926D01*
X139080800Y-86074244D01*
X139180720Y-86086159D01*
X139272437Y-86097096D01*
X139272439Y-86097096D01*
X139276095Y-86097532D01*
X139472194Y-86082443D01*
X139620891Y-86040926D01*
X139658083Y-86030542D01*
X139658085Y-86030541D01*
X139661628Y-86029552D01*
X139807492Y-85955871D01*
X139833897Y-85942533D01*
X139833898Y-85942532D01*
X139837181Y-85940874D01*
X139992166Y-85819786D01*
X140120680Y-85670901D01*
X140133061Y-85649107D01*
X140216010Y-85503091D01*
X140216012Y-85503088D01*
X140217828Y-85499890D01*
X140248869Y-85406578D01*
X140278748Y-85316760D01*
X140278749Y-85316757D01*
X140279910Y-85313266D01*
X140301942Y-85138862D01*
X140304296Y-85120228D01*
X140304560Y-85118138D01*
X140304822Y-85099377D01*
X140304924Y-85092099D01*
X140304924Y-85092093D01*
X140304953Y-85090000D01*
X140303934Y-85079608D01*
X140286121Y-84897927D01*
X140286120Y-84897922D01*
X140285761Y-84894260D01*
X140228914Y-84705975D01*
X140136579Y-84532318D01*
X140012272Y-84379903D01*
X139865452Y-84258443D01*
X139839421Y-84214075D01*
X139848000Y-84163356D01*
X139887173Y-84130016D01*
X139913386Y-84125300D01*
X141222901Y-84125300D01*
X141271239Y-84142893D01*
X141296959Y-84187442D01*
X141288026Y-84238100D01*
X141270021Y-84259106D01*
X141134981Y-84367680D01*
X141134974Y-84367687D01*
X141132112Y-84369988D01*
X141005689Y-84520653D01*
X141003918Y-84523875D01*
X141003917Y-84523876D01*
X140968173Y-84588895D01*
X140910939Y-84693004D01*
X140851469Y-84880476D01*
X140829545Y-85075930D01*
X140829853Y-85079598D01*
X140829853Y-85079601D01*
X140845687Y-85268161D01*
X140846003Y-85271919D01*
X140900215Y-85460979D01*
X140990116Y-85635908D01*
X141112283Y-85790044D01*
X141115077Y-85792422D01*
X141115078Y-85792423D01*
X141215048Y-85877504D01*
X141262062Y-85917516D01*
X141265263Y-85919305D01*
X141265266Y-85919307D01*
X141333911Y-85957671D01*
X141433747Y-86013467D01*
X141437244Y-86014603D01*
X141437248Y-86014605D01*
X141518257Y-86040926D01*
X141620800Y-86074244D01*
X141720720Y-86086159D01*
X141812437Y-86097096D01*
X141812439Y-86097096D01*
X141816095Y-86097532D01*
X142012194Y-86082443D01*
X142160891Y-86040926D01*
X142198083Y-86030542D01*
X142198085Y-86030541D01*
X142201628Y-86029552D01*
X142347492Y-85955871D01*
X148447769Y-85955871D01*
X148448251Y-85957671D01*
X148450382Y-85959597D01*
X148542737Y-86011211D01*
X148549450Y-86014144D01*
X148729410Y-86072616D01*
X148736558Y-86074188D01*
X148924448Y-86096593D01*
X148931781Y-86096746D01*
X149120439Y-86082230D01*
X149127647Y-86080959D01*
X149309908Y-86030071D01*
X149316723Y-86027428D01*
X149444873Y-85962695D01*
X149452271Y-85954817D01*
X149452327Y-85953811D01*
X149450129Y-85950139D01*
X148958577Y-85458587D01*
X148948778Y-85454018D01*
X148942787Y-85455623D01*
X148452338Y-85946072D01*
X148447769Y-85955871D01*
X142347492Y-85955871D01*
X142373897Y-85942533D01*
X142373898Y-85942532D01*
X142377181Y-85940874D01*
X142532166Y-85819786D01*
X142660680Y-85670901D01*
X142673061Y-85649107D01*
X142756010Y-85503091D01*
X142756012Y-85503088D01*
X142757828Y-85499890D01*
X142788869Y-85406578D01*
X142818748Y-85316760D01*
X142818749Y-85316757D01*
X142819910Y-85313266D01*
X142841942Y-85138862D01*
X142844296Y-85120228D01*
X142844560Y-85118138D01*
X142844822Y-85099377D01*
X142844924Y-85092099D01*
X142844924Y-85092093D01*
X142844953Y-85090000D01*
X142843934Y-85079608D01*
X147942356Y-85079608D01*
X147958190Y-85268161D01*
X147959512Y-85275363D01*
X148011670Y-85457261D01*
X148014364Y-85464063D01*
X148076726Y-85585410D01*
X148084657Y-85592754D01*
X148085805Y-85592810D01*
X148089271Y-85590719D01*
X148580613Y-85099377D01*
X148584788Y-85090422D01*
X149313218Y-85090422D01*
X149314823Y-85096413D01*
X149805189Y-85586779D01*
X149814988Y-85591348D01*
X149816925Y-85590829D01*
X149818701Y-85588878D01*
X149867553Y-85502882D01*
X149870528Y-85496200D01*
X149919411Y-85349250D01*
X150521398Y-85349250D01*
X150521554Y-85352235D01*
X150551670Y-85457261D01*
X150554364Y-85464063D01*
X150640857Y-85632363D01*
X150644823Y-85638518D01*
X150762364Y-85786817D01*
X150767440Y-85792074D01*
X150911555Y-85914725D01*
X150917553Y-85918894D01*
X151082737Y-86011211D01*
X151089450Y-86014144D01*
X151222589Y-86057403D01*
X151233392Y-86057026D01*
X151234194Y-86056304D01*
X151235200Y-86052269D01*
X151235200Y-86046606D01*
X151743200Y-86046606D01*
X151746897Y-86056763D01*
X151748574Y-86057732D01*
X151751322Y-86057597D01*
X151849901Y-86030073D01*
X151856734Y-86027422D01*
X152025628Y-85942108D01*
X152031811Y-85938184D01*
X152180920Y-85821687D01*
X152186223Y-85816637D01*
X152309864Y-85673397D01*
X152314086Y-85667412D01*
X152407554Y-85502880D01*
X152410528Y-85496200D01*
X152456973Y-85356582D01*
X152456671Y-85345777D01*
X152456050Y-85345078D01*
X152451790Y-85344000D01*
X151756459Y-85344000D01*
X151746302Y-85347697D01*
X151743200Y-85353069D01*
X151743200Y-86046606D01*
X151235200Y-86046606D01*
X151235200Y-85357259D01*
X151231503Y-85347102D01*
X151226131Y-85344000D01*
X150532452Y-85344000D01*
X150522295Y-85347697D01*
X150521398Y-85349250D01*
X149919411Y-85349250D01*
X149930259Y-85316641D01*
X149931880Y-85309507D01*
X149955793Y-85120215D01*
X149956086Y-85116020D01*
X149956421Y-85092099D01*
X149956245Y-85087907D01*
X149937627Y-84898024D01*
X149936201Y-84890828D01*
X149881512Y-84709688D01*
X149878724Y-84702923D01*
X149821341Y-84595002D01*
X149813308Y-84587769D01*
X149811872Y-84587719D01*
X149808822Y-84589588D01*
X149317787Y-85080623D01*
X149313218Y-85090422D01*
X148584788Y-85090422D01*
X148585182Y-85089578D01*
X148583577Y-85083587D01*
X148093009Y-84593019D01*
X148083210Y-84588450D01*
X148081548Y-84588895D01*
X148079472Y-84591208D01*
X148025175Y-84689975D01*
X148022288Y-84696711D01*
X147965074Y-84877074D01*
X147963551Y-84884239D01*
X147942459Y-85072275D01*
X147942356Y-85079608D01*
X142843934Y-85079608D01*
X142826121Y-84897927D01*
X142826120Y-84897922D01*
X142825761Y-84894260D01*
X142768914Y-84705975D01*
X142676579Y-84532318D01*
X142552272Y-84379903D01*
X142405452Y-84258443D01*
X142379421Y-84214075D01*
X142388000Y-84163356D01*
X142427173Y-84130016D01*
X142453386Y-84125300D01*
X148372516Y-84125300D01*
X148420854Y-84142893D01*
X148446574Y-84187442D01*
X148447650Y-84203649D01*
X148446672Y-84226984D01*
X148448654Y-84230244D01*
X148939823Y-84721413D01*
X148949622Y-84725982D01*
X148955613Y-84724377D01*
X149446337Y-84233653D01*
X149450906Y-84223854D01*
X149449863Y-84219963D01*
X149454347Y-84168719D01*
X149490720Y-84132346D01*
X149522501Y-84125300D01*
X150875699Y-84125300D01*
X150924037Y-84142893D01*
X150949757Y-84187442D01*
X150940824Y-84238100D01*
X150922820Y-84259106D01*
X150787328Y-84368044D01*
X150782103Y-84373161D01*
X150660466Y-84518122D01*
X150656332Y-84524160D01*
X150565175Y-84689975D01*
X150562288Y-84696711D01*
X150522112Y-84823361D01*
X150522565Y-84834161D01*
X150523388Y-84835063D01*
X150527205Y-84836000D01*
X152446389Y-84836000D01*
X152456546Y-84832303D01*
X152457299Y-84830999D01*
X152457094Y-84827540D01*
X152421512Y-84709688D01*
X152418724Y-84702922D01*
X152329884Y-84535839D01*
X152325839Y-84529751D01*
X152206241Y-84383109D01*
X152201078Y-84377910D01*
X152056667Y-84258443D01*
X152030636Y-84214075D01*
X152039215Y-84163356D01*
X152078388Y-84130016D01*
X152104601Y-84125300D01*
X153414901Y-84125300D01*
X153463239Y-84142893D01*
X153488959Y-84187442D01*
X153480026Y-84238100D01*
X153462021Y-84259106D01*
X153326981Y-84367680D01*
X153326974Y-84367687D01*
X153324112Y-84369988D01*
X153197689Y-84520653D01*
X153195918Y-84523875D01*
X153195917Y-84523876D01*
X153160173Y-84588895D01*
X153102939Y-84693004D01*
X153043469Y-84880476D01*
X153021545Y-85075930D01*
X153021853Y-85079598D01*
X153021853Y-85079601D01*
X153037687Y-85268161D01*
X153038003Y-85271919D01*
X153092215Y-85460979D01*
X153182116Y-85635908D01*
X153304283Y-85790044D01*
X153307077Y-85792422D01*
X153307078Y-85792423D01*
X153407048Y-85877504D01*
X153454062Y-85917516D01*
X153457263Y-85919305D01*
X153457266Y-85919307D01*
X153525911Y-85957671D01*
X153625747Y-86013467D01*
X153629244Y-86014603D01*
X153629248Y-86014605D01*
X153710257Y-86040926D01*
X153812800Y-86074244D01*
X153912720Y-86086159D01*
X154004437Y-86097096D01*
X154004439Y-86097096D01*
X154008095Y-86097532D01*
X154204194Y-86082443D01*
X154352891Y-86040926D01*
X154390083Y-86030542D01*
X154390085Y-86030541D01*
X154393628Y-86029552D01*
X154539492Y-85955871D01*
X154565897Y-85942533D01*
X154565898Y-85942532D01*
X154569181Y-85940874D01*
X154724166Y-85819786D01*
X154852680Y-85670901D01*
X154865061Y-85649107D01*
X154948010Y-85503091D01*
X154948012Y-85503088D01*
X154949828Y-85499890D01*
X154980869Y-85406578D01*
X155010748Y-85316760D01*
X155010749Y-85316757D01*
X155011910Y-85313266D01*
X155033942Y-85138862D01*
X155036296Y-85120228D01*
X155036560Y-85118138D01*
X155036822Y-85099377D01*
X155036924Y-85092099D01*
X155036924Y-85092093D01*
X155036953Y-85090000D01*
X155035934Y-85079608D01*
X155018121Y-84897927D01*
X155018120Y-84897922D01*
X155017761Y-84894260D01*
X154960914Y-84705975D01*
X154868579Y-84532318D01*
X154744272Y-84379903D01*
X154597452Y-84258443D01*
X154571421Y-84214075D01*
X154580000Y-84163356D01*
X154619173Y-84130016D01*
X154645386Y-84125300D01*
X155954901Y-84125300D01*
X156003239Y-84142893D01*
X156028959Y-84187442D01*
X156020026Y-84238100D01*
X156002021Y-84259106D01*
X155866981Y-84367680D01*
X155866974Y-84367687D01*
X155864112Y-84369988D01*
X155737689Y-84520653D01*
X155735918Y-84523875D01*
X155735917Y-84523876D01*
X155700173Y-84588895D01*
X155642939Y-84693004D01*
X155583469Y-84880476D01*
X155561545Y-85075930D01*
X155561853Y-85079598D01*
X155561853Y-85079601D01*
X155577687Y-85268161D01*
X155578003Y-85271919D01*
X155632215Y-85460979D01*
X155722116Y-85635908D01*
X155844283Y-85790044D01*
X155847077Y-85792422D01*
X155847078Y-85792423D01*
X155947048Y-85877504D01*
X155994062Y-85917516D01*
X155997263Y-85919305D01*
X155997266Y-85919307D01*
X156065911Y-85957671D01*
X156165747Y-86013467D01*
X156169244Y-86014603D01*
X156169248Y-86014605D01*
X156250257Y-86040926D01*
X156352800Y-86074244D01*
X156452720Y-86086159D01*
X156544437Y-86097096D01*
X156544439Y-86097096D01*
X156548095Y-86097532D01*
X156744194Y-86082443D01*
X156892891Y-86040926D01*
X156930083Y-86030542D01*
X156930085Y-86030541D01*
X156933628Y-86029552D01*
X157079492Y-85955871D01*
X157105897Y-85942533D01*
X157105898Y-85942532D01*
X157109181Y-85940874D01*
X157264166Y-85819786D01*
X157392680Y-85670901D01*
X157405061Y-85649107D01*
X157488010Y-85503091D01*
X157488012Y-85503088D01*
X157489828Y-85499890D01*
X157520869Y-85406578D01*
X157550748Y-85316760D01*
X157550749Y-85316757D01*
X157551910Y-85313266D01*
X157573942Y-85138862D01*
X157576296Y-85120228D01*
X157576560Y-85118138D01*
X157576822Y-85099377D01*
X157576924Y-85092099D01*
X157576924Y-85092093D01*
X157576953Y-85090000D01*
X157575934Y-85079608D01*
X157558121Y-84897927D01*
X157558120Y-84897922D01*
X157557761Y-84894260D01*
X157500914Y-84705975D01*
X157408579Y-84532318D01*
X157284272Y-84379903D01*
X157137452Y-84258443D01*
X157111421Y-84214075D01*
X157120000Y-84163356D01*
X157159173Y-84130016D01*
X157185386Y-84125300D01*
X158494901Y-84125300D01*
X158543239Y-84142893D01*
X158568959Y-84187442D01*
X158560026Y-84238100D01*
X158542021Y-84259106D01*
X158406981Y-84367680D01*
X158406974Y-84367687D01*
X158404112Y-84369988D01*
X158277689Y-84520653D01*
X158275918Y-84523875D01*
X158275917Y-84523876D01*
X158240173Y-84588895D01*
X158182939Y-84693004D01*
X158123469Y-84880476D01*
X158101545Y-85075930D01*
X158101853Y-85079598D01*
X158101853Y-85079601D01*
X158117687Y-85268161D01*
X158118003Y-85271919D01*
X158172215Y-85460979D01*
X158262116Y-85635908D01*
X158384283Y-85790044D01*
X158387077Y-85792422D01*
X158387078Y-85792423D01*
X158487048Y-85877504D01*
X158534062Y-85917516D01*
X158537263Y-85919305D01*
X158537266Y-85919307D01*
X158605911Y-85957671D01*
X158705747Y-86013467D01*
X158709244Y-86014603D01*
X158709248Y-86014605D01*
X158790257Y-86040926D01*
X158892800Y-86074244D01*
X158992720Y-86086159D01*
X159084437Y-86097096D01*
X159084439Y-86097096D01*
X159088095Y-86097532D01*
X159284194Y-86082443D01*
X159432891Y-86040926D01*
X159470083Y-86030542D01*
X159470085Y-86030541D01*
X159473628Y-86029552D01*
X159619492Y-85955871D01*
X159645897Y-85942533D01*
X159645898Y-85942532D01*
X159649181Y-85940874D01*
X159804166Y-85819786D01*
X159932680Y-85670901D01*
X159945061Y-85649107D01*
X160028010Y-85503091D01*
X160028012Y-85503088D01*
X160029828Y-85499890D01*
X160060869Y-85406578D01*
X160090748Y-85316760D01*
X160090749Y-85316757D01*
X160091910Y-85313266D01*
X160113942Y-85138862D01*
X160116296Y-85120228D01*
X160116560Y-85118138D01*
X160116822Y-85099377D01*
X160116924Y-85092099D01*
X160116924Y-85092093D01*
X160116953Y-85090000D01*
X160115934Y-85079608D01*
X160098121Y-84897927D01*
X160098120Y-84897922D01*
X160097761Y-84894260D01*
X160040914Y-84705975D01*
X159948579Y-84532318D01*
X159824272Y-84379903D01*
X159677452Y-84258443D01*
X159651421Y-84214075D01*
X159660000Y-84163356D01*
X159699173Y-84130016D01*
X159725386Y-84125300D01*
X161034901Y-84125300D01*
X161083239Y-84142893D01*
X161108959Y-84187442D01*
X161100026Y-84238100D01*
X161082021Y-84259106D01*
X160946981Y-84367680D01*
X160946974Y-84367687D01*
X160944112Y-84369988D01*
X160817689Y-84520653D01*
X160815918Y-84523875D01*
X160815917Y-84523876D01*
X160780173Y-84588895D01*
X160722939Y-84693004D01*
X160663469Y-84880476D01*
X160641545Y-85075930D01*
X160641853Y-85079598D01*
X160641853Y-85079601D01*
X160657687Y-85268161D01*
X160658003Y-85271919D01*
X160712215Y-85460979D01*
X160802116Y-85635908D01*
X160924283Y-85790044D01*
X160927077Y-85792422D01*
X160927078Y-85792423D01*
X161027048Y-85877504D01*
X161074062Y-85917516D01*
X161077263Y-85919305D01*
X161077266Y-85919307D01*
X161145911Y-85957671D01*
X161245747Y-86013467D01*
X161249244Y-86014603D01*
X161249248Y-86014605D01*
X161330257Y-86040926D01*
X161432800Y-86074244D01*
X161532720Y-86086159D01*
X161624437Y-86097096D01*
X161624439Y-86097096D01*
X161628095Y-86097532D01*
X161824194Y-86082443D01*
X161972891Y-86040926D01*
X162010083Y-86030542D01*
X162010085Y-86030541D01*
X162013628Y-86029552D01*
X162159492Y-85955871D01*
X162185897Y-85942533D01*
X162185898Y-85942532D01*
X162189181Y-85940874D01*
X162344166Y-85819786D01*
X162472680Y-85670901D01*
X162485061Y-85649107D01*
X162568010Y-85503091D01*
X162568012Y-85503088D01*
X162569828Y-85499890D01*
X162600869Y-85406578D01*
X162630748Y-85316760D01*
X162630749Y-85316757D01*
X162631910Y-85313266D01*
X162653942Y-85138862D01*
X162656296Y-85120228D01*
X162656560Y-85118138D01*
X162656822Y-85099377D01*
X162656924Y-85092099D01*
X162656924Y-85092093D01*
X162656953Y-85090000D01*
X162655934Y-85079608D01*
X162638121Y-84897927D01*
X162638120Y-84897922D01*
X162637761Y-84894260D01*
X162580914Y-84705975D01*
X162488579Y-84532318D01*
X162364272Y-84379903D01*
X162217452Y-84258443D01*
X162191421Y-84214075D01*
X162200000Y-84163356D01*
X162239173Y-84130016D01*
X162265386Y-84125300D01*
X164008800Y-84125300D01*
X164057138Y-84142893D01*
X164082858Y-84187442D01*
X164084000Y-84200500D01*
X164084000Y-86182200D01*
X167284400Y-86182200D01*
X167284400Y-86012097D01*
X167301993Y-85963759D01*
X167346542Y-85938039D01*
X167397200Y-85946972D01*
X167430265Y-85986377D01*
X167433714Y-85999362D01*
X167443996Y-86059200D01*
X167510544Y-86215598D01*
X167611287Y-86352493D01*
X167740821Y-86462540D01*
X167892196Y-86539836D01*
X168057294Y-86580235D01*
X168060635Y-86580442D01*
X168060640Y-86580443D01*
X168063832Y-86580641D01*
X168068014Y-86580900D01*
X168190560Y-86580900D01*
X168192720Y-86580648D01*
X168192723Y-86580648D01*
X168234018Y-86575833D01*
X168316825Y-86566179D01*
X168320934Y-86564687D01*
X168320936Y-86564687D01*
X168472486Y-86509677D01*
X168472488Y-86509676D01*
X168476593Y-86508186D01*
X168618736Y-86414993D01*
X168735626Y-86291601D01*
X168779773Y-86215598D01*
X168818802Y-86148404D01*
X168820996Y-86144627D01*
X168870264Y-85981956D01*
X168870534Y-85977600D01*
X168870535Y-85977596D01*
X168880518Y-85816673D01*
X168880518Y-85816669D01*
X168880788Y-85812314D01*
X168852004Y-85644800D01*
X168791617Y-85502882D01*
X168787168Y-85492425D01*
X168787167Y-85492424D01*
X168785456Y-85488402D01*
X168684713Y-85351507D01*
X168555179Y-85241460D01*
X168403804Y-85164164D01*
X168238706Y-85123765D01*
X168235365Y-85123558D01*
X168235360Y-85123557D01*
X168232048Y-85123352D01*
X168227986Y-85123100D01*
X168105440Y-85123100D01*
X168103280Y-85123352D01*
X168103277Y-85123352D01*
X168061982Y-85128167D01*
X167979175Y-85137821D01*
X167975066Y-85139313D01*
X167975064Y-85139313D01*
X167823514Y-85194323D01*
X167823512Y-85194324D01*
X167819407Y-85195814D01*
X167815756Y-85198208D01*
X167697936Y-85275454D01*
X167677264Y-85289007D01*
X167560374Y-85412399D01*
X167558180Y-85416177D01*
X167558178Y-85416179D01*
X167513891Y-85492425D01*
X167475004Y-85559373D01*
X167473738Y-85563552D01*
X167473737Y-85563555D01*
X167431571Y-85702778D01*
X167400722Y-85743941D01*
X167350631Y-85755643D01*
X167304737Y-85732410D01*
X167284400Y-85680980D01*
X167284400Y-84200500D01*
X167301993Y-84152162D01*
X167346542Y-84126442D01*
X167359600Y-84125300D01*
X167606707Y-84125300D01*
X167619764Y-84126442D01*
X167640000Y-84130010D01*
X167651149Y-84128044D01*
X167668748Y-84127039D01*
X167904826Y-84141319D01*
X167913841Y-84142414D01*
X168170323Y-84189416D01*
X168179140Y-84191589D01*
X168251301Y-84214075D01*
X168428097Y-84269167D01*
X168436577Y-84272383D01*
X168674370Y-84379405D01*
X168682405Y-84383622D01*
X168905573Y-84518532D01*
X168913032Y-84523681D01*
X169118301Y-84684499D01*
X169125098Y-84690521D01*
X169309479Y-84874902D01*
X169315501Y-84881699D01*
X169476319Y-85086968D01*
X169481468Y-85094427D01*
X169611489Y-85309507D01*
X169616377Y-85317592D01*
X169620595Y-85325630D01*
X169699024Y-85499890D01*
X169727615Y-85563417D01*
X169730833Y-85571903D01*
X169737331Y-85592754D01*
X169808411Y-85820860D01*
X169810584Y-85829677D01*
X169857586Y-86086159D01*
X169858681Y-86095174D01*
X169872961Y-86331252D01*
X169871956Y-86348850D01*
X169869990Y-86360000D01*
X169871132Y-86366477D01*
X169873558Y-86380235D01*
X169874700Y-86393293D01*
X169874700Y-103471707D01*
X169873558Y-103484764D01*
X169869990Y-103505000D01*
X169871132Y-103511477D01*
X169871956Y-103516150D01*
X169872961Y-103533748D01*
X169858681Y-103769826D01*
X169857586Y-103778841D01*
X169810584Y-104035323D01*
X169808411Y-104044140D01*
X169799959Y-104071264D01*
X169757078Y-104208876D01*
X169730835Y-104293092D01*
X169727617Y-104301577D01*
X169632945Y-104511931D01*
X169620597Y-104539367D01*
X169616378Y-104547405D01*
X169481468Y-104770573D01*
X169476319Y-104778032D01*
X169315501Y-104983301D01*
X169309479Y-104990098D01*
X169125098Y-105174479D01*
X169118301Y-105180501D01*
X168913032Y-105341319D01*
X168905573Y-105346468D01*
X168682408Y-105481377D01*
X168674370Y-105485595D01*
X168436577Y-105592617D01*
X168428097Y-105595833D01*
X168328400Y-105626900D01*
X168179140Y-105673411D01*
X168170323Y-105675584D01*
X167913841Y-105722586D01*
X167904826Y-105723681D01*
X167668748Y-105737961D01*
X167651150Y-105736956D01*
X167646477Y-105736132D01*
X167640000Y-105734990D01*
X167623151Y-105737961D01*
X167619765Y-105738558D01*
X167606707Y-105739700D01*
X162236887Y-105739700D01*
X162188549Y-105722107D01*
X162162829Y-105677558D01*
X162171762Y-105626900D01*
X162190589Y-105605242D01*
X162316267Y-105507051D01*
X162319166Y-105504786D01*
X162447680Y-105355901D01*
X162469573Y-105317363D01*
X162543010Y-105188091D01*
X162543012Y-105188088D01*
X162544828Y-105184890D01*
X162592967Y-105040179D01*
X162605748Y-105001760D01*
X162605749Y-105001757D01*
X162606910Y-104998266D01*
X162631560Y-104803138D01*
X162631846Y-104782640D01*
X162631924Y-104777099D01*
X162631924Y-104777093D01*
X162631953Y-104775000D01*
X162631518Y-104770566D01*
X162613121Y-104582927D01*
X162613120Y-104582922D01*
X162612761Y-104579260D01*
X162555914Y-104390975D01*
X162463579Y-104217318D01*
X162339272Y-104064903D01*
X162324504Y-104052686D01*
X167415212Y-104052686D01*
X167443996Y-104220200D01*
X167510544Y-104376598D01*
X167611287Y-104513493D01*
X167740821Y-104623540D01*
X167892196Y-104700836D01*
X168057294Y-104741235D01*
X168060635Y-104741442D01*
X168060640Y-104741443D01*
X168063832Y-104741641D01*
X168068014Y-104741900D01*
X168190560Y-104741900D01*
X168192720Y-104741648D01*
X168192723Y-104741648D01*
X168234018Y-104736833D01*
X168316825Y-104727179D01*
X168320934Y-104725687D01*
X168320936Y-104725687D01*
X168472486Y-104670677D01*
X168472488Y-104670676D01*
X168476593Y-104669186D01*
X168618736Y-104575993D01*
X168735626Y-104452601D01*
X168769377Y-104394496D01*
X168818802Y-104309404D01*
X168820996Y-104305627D01*
X168861962Y-104170367D01*
X168868997Y-104147140D01*
X168868997Y-104147138D01*
X168870264Y-104142956D01*
X168870534Y-104138600D01*
X168870535Y-104138596D01*
X168880518Y-103977673D01*
X168880518Y-103977669D01*
X168880788Y-103973314D01*
X168852004Y-103805800D01*
X168785456Y-103649402D01*
X168684713Y-103512507D01*
X168555179Y-103402460D01*
X168403804Y-103325164D01*
X168238706Y-103284765D01*
X168235365Y-103284558D01*
X168235360Y-103284557D01*
X168232048Y-103284352D01*
X168227986Y-103284100D01*
X168105440Y-103284100D01*
X168103280Y-103284352D01*
X168103277Y-103284352D01*
X168061982Y-103289167D01*
X167979175Y-103298821D01*
X167975066Y-103300313D01*
X167975064Y-103300313D01*
X167823514Y-103355323D01*
X167823512Y-103355324D01*
X167819407Y-103356814D01*
X167677264Y-103450007D01*
X167674260Y-103453178D01*
X167656707Y-103471707D01*
X167560374Y-103573399D01*
X167558180Y-103577177D01*
X167558178Y-103577179D01*
X167513891Y-103653425D01*
X167475004Y-103720373D01*
X167446884Y-103813220D01*
X167436959Y-103845990D01*
X167425736Y-103883044D01*
X167425466Y-103887400D01*
X167425465Y-103887404D01*
X167416289Y-104035323D01*
X167415212Y-104052686D01*
X162324504Y-104052686D01*
X162187728Y-103939535D01*
X162014720Y-103845990D01*
X161826837Y-103787830D01*
X161698703Y-103774363D01*
X161634890Y-103767656D01*
X161634889Y-103767656D01*
X161631235Y-103767272D01*
X161603171Y-103769826D01*
X161439024Y-103784764D01*
X161439023Y-103784764D01*
X161435366Y-103785097D01*
X161431841Y-103786134D01*
X161431838Y-103786135D01*
X161323378Y-103818057D01*
X161246689Y-103840628D01*
X161072392Y-103931748D01*
X161034383Y-103962308D01*
X160927397Y-104048327D01*
X160919112Y-104054988D01*
X160792689Y-104205653D01*
X160790918Y-104208875D01*
X160790917Y-104208876D01*
X160786276Y-104217318D01*
X160697939Y-104378004D01*
X160638469Y-104565476D01*
X160616545Y-104760930D01*
X160616853Y-104764598D01*
X160616853Y-104764601D01*
X160628272Y-104900579D01*
X160633003Y-104956919D01*
X160687215Y-105145979D01*
X160777116Y-105320908D01*
X160899283Y-105475044D01*
X160902077Y-105477422D01*
X160902078Y-105477423D01*
X160930957Y-105502001D01*
X161049062Y-105602516D01*
X161050380Y-105603253D01*
X161079677Y-105644781D01*
X161075375Y-105696040D01*
X161039130Y-105732542D01*
X161007109Y-105739700D01*
X159696074Y-105739700D01*
X159647736Y-105722107D01*
X159622016Y-105677558D01*
X159630949Y-105626900D01*
X159649776Y-105605242D01*
X159775920Y-105506687D01*
X159781223Y-105501637D01*
X159904864Y-105358397D01*
X159909086Y-105352412D01*
X160002554Y-105187880D01*
X160005528Y-105181200D01*
X160051973Y-105041582D01*
X160051671Y-105030777D01*
X160051050Y-105030078D01*
X160046790Y-105029000D01*
X158127452Y-105029000D01*
X158117295Y-105032697D01*
X158116398Y-105034250D01*
X158116554Y-105037235D01*
X158146670Y-105142261D01*
X158149364Y-105149063D01*
X158235857Y-105317363D01*
X158239823Y-105323518D01*
X158357364Y-105471817D01*
X158362440Y-105477074D01*
X158506555Y-105599725D01*
X158510906Y-105602749D01*
X158540559Y-105644782D01*
X158536256Y-105696041D01*
X158500010Y-105732542D01*
X158467990Y-105739700D01*
X157156887Y-105739700D01*
X157108549Y-105722107D01*
X157082829Y-105677558D01*
X157091762Y-105626900D01*
X157110589Y-105605242D01*
X157236267Y-105507051D01*
X157239166Y-105504786D01*
X157367680Y-105355901D01*
X157389573Y-105317363D01*
X157463010Y-105188091D01*
X157463012Y-105188088D01*
X157464828Y-105184890D01*
X157512967Y-105040179D01*
X157525748Y-105001760D01*
X157525749Y-105001757D01*
X157526910Y-104998266D01*
X157551560Y-104803138D01*
X157551846Y-104782640D01*
X157551924Y-104777099D01*
X157551924Y-104777093D01*
X157551953Y-104775000D01*
X157551518Y-104770566D01*
X157533121Y-104582927D01*
X157533120Y-104582922D01*
X157532761Y-104579260D01*
X157511355Y-104508361D01*
X158117112Y-104508361D01*
X158117565Y-104519161D01*
X158118388Y-104520063D01*
X158122205Y-104521000D01*
X158816941Y-104521000D01*
X158827098Y-104517303D01*
X158830200Y-104511931D01*
X158830200Y-104507741D01*
X159338200Y-104507741D01*
X159341897Y-104517898D01*
X159347269Y-104521000D01*
X160041389Y-104521000D01*
X160051546Y-104517303D01*
X160052299Y-104515999D01*
X160052094Y-104512540D01*
X160016512Y-104394688D01*
X160013724Y-104387922D01*
X159924884Y-104220839D01*
X159920839Y-104214751D01*
X159801241Y-104068109D01*
X159796078Y-104062910D01*
X159650278Y-103942294D01*
X159644216Y-103938205D01*
X159477757Y-103848201D01*
X159471013Y-103845366D01*
X159350866Y-103808175D01*
X159340071Y-103808703D01*
X159339068Y-103809631D01*
X159338200Y-103813220D01*
X159338200Y-104507741D01*
X158830200Y-104507741D01*
X158830200Y-103818057D01*
X158826503Y-103807900D01*
X158825075Y-103807075D01*
X158821851Y-103807255D01*
X158710408Y-103840055D01*
X158703621Y-103842797D01*
X158535921Y-103930468D01*
X158529803Y-103934472D01*
X158382328Y-104053044D01*
X158377103Y-104058161D01*
X158255466Y-104203122D01*
X158251332Y-104209160D01*
X158160175Y-104374975D01*
X158157288Y-104381711D01*
X158117112Y-104508361D01*
X157511355Y-104508361D01*
X157475914Y-104390975D01*
X157383579Y-104217318D01*
X157259272Y-104064903D01*
X157107728Y-103939535D01*
X156934720Y-103845990D01*
X156746837Y-103787830D01*
X156618703Y-103774363D01*
X156554890Y-103767656D01*
X156554889Y-103767656D01*
X156551235Y-103767272D01*
X156523171Y-103769826D01*
X156359024Y-103784764D01*
X156359023Y-103784764D01*
X156355366Y-103785097D01*
X156351841Y-103786134D01*
X156351838Y-103786135D01*
X156243378Y-103818057D01*
X156166689Y-103840628D01*
X155992392Y-103931748D01*
X155954383Y-103962308D01*
X155847397Y-104048327D01*
X155839112Y-104054988D01*
X155712689Y-104205653D01*
X155710918Y-104208875D01*
X155710917Y-104208876D01*
X155706276Y-104217318D01*
X155617939Y-104378004D01*
X155558469Y-104565476D01*
X155536545Y-104760930D01*
X155536853Y-104764598D01*
X155536853Y-104764601D01*
X155548272Y-104900579D01*
X155553003Y-104956919D01*
X155607215Y-105145979D01*
X155697116Y-105320908D01*
X155819283Y-105475044D01*
X155822077Y-105477422D01*
X155822078Y-105477423D01*
X155850957Y-105502001D01*
X155969062Y-105602516D01*
X155970380Y-105603253D01*
X155999677Y-105644781D01*
X155995375Y-105696040D01*
X155959130Y-105732542D01*
X155927109Y-105739700D01*
X154616887Y-105739700D01*
X154568549Y-105722107D01*
X154542829Y-105677558D01*
X154551762Y-105626900D01*
X154570589Y-105605242D01*
X154696267Y-105507051D01*
X154699166Y-105504786D01*
X154827680Y-105355901D01*
X154849573Y-105317363D01*
X154923010Y-105188091D01*
X154923012Y-105188088D01*
X154924828Y-105184890D01*
X154972967Y-105040179D01*
X154985748Y-105001760D01*
X154985749Y-105001757D01*
X154986910Y-104998266D01*
X155011560Y-104803138D01*
X155011846Y-104782640D01*
X155011924Y-104777099D01*
X155011924Y-104777093D01*
X155011953Y-104775000D01*
X155011518Y-104770566D01*
X154993121Y-104582927D01*
X154993120Y-104582922D01*
X154992761Y-104579260D01*
X154935914Y-104390975D01*
X154843579Y-104217318D01*
X154719272Y-104064903D01*
X154567728Y-103939535D01*
X154394720Y-103845990D01*
X154206837Y-103787830D01*
X154078703Y-103774363D01*
X154014890Y-103767656D01*
X154014889Y-103767656D01*
X154011235Y-103767272D01*
X153983171Y-103769826D01*
X153819024Y-103784764D01*
X153819023Y-103784764D01*
X153815366Y-103785097D01*
X153811841Y-103786134D01*
X153811838Y-103786135D01*
X153703378Y-103818057D01*
X153626689Y-103840628D01*
X153452392Y-103931748D01*
X153414383Y-103962308D01*
X153307397Y-104048327D01*
X153299112Y-104054988D01*
X153172689Y-104205653D01*
X153170918Y-104208875D01*
X153170917Y-104208876D01*
X153166276Y-104217318D01*
X153077939Y-104378004D01*
X153018469Y-104565476D01*
X152996545Y-104760930D01*
X152996853Y-104764598D01*
X152996853Y-104764601D01*
X153008272Y-104900579D01*
X153013003Y-104956919D01*
X153067215Y-105145979D01*
X153157116Y-105320908D01*
X153279283Y-105475044D01*
X153282077Y-105477422D01*
X153282078Y-105477423D01*
X153310957Y-105502001D01*
X153429062Y-105602516D01*
X153430380Y-105603253D01*
X153459677Y-105644781D01*
X153455375Y-105696040D01*
X153419130Y-105732542D01*
X153387109Y-105739700D01*
X152076887Y-105739700D01*
X152028549Y-105722107D01*
X152002829Y-105677558D01*
X152011762Y-105626900D01*
X152030589Y-105605242D01*
X152156267Y-105507051D01*
X152159166Y-105504786D01*
X152287680Y-105355901D01*
X152309573Y-105317363D01*
X152383010Y-105188091D01*
X152383012Y-105188088D01*
X152384828Y-105184890D01*
X152432967Y-105040179D01*
X152445748Y-105001760D01*
X152445749Y-105001757D01*
X152446910Y-104998266D01*
X152471560Y-104803138D01*
X152471846Y-104782640D01*
X152471924Y-104777099D01*
X152471924Y-104777093D01*
X152471953Y-104775000D01*
X152471518Y-104770566D01*
X152453121Y-104582927D01*
X152453120Y-104582922D01*
X152452761Y-104579260D01*
X152395914Y-104390975D01*
X152303579Y-104217318D01*
X152179272Y-104064903D01*
X152027728Y-103939535D01*
X151854720Y-103845990D01*
X151666837Y-103787830D01*
X151538703Y-103774363D01*
X151474890Y-103767656D01*
X151474889Y-103767656D01*
X151471235Y-103767272D01*
X151443171Y-103769826D01*
X151279024Y-103784764D01*
X151279023Y-103784764D01*
X151275366Y-103785097D01*
X151271841Y-103786134D01*
X151271838Y-103786135D01*
X151163378Y-103818057D01*
X151086689Y-103840628D01*
X150912392Y-103931748D01*
X150874383Y-103962308D01*
X150767397Y-104048327D01*
X150759112Y-104054988D01*
X150632689Y-104205653D01*
X150630918Y-104208875D01*
X150630917Y-104208876D01*
X150626276Y-104217318D01*
X150537939Y-104378004D01*
X150478469Y-104565476D01*
X150456545Y-104760930D01*
X150456853Y-104764598D01*
X150456853Y-104764601D01*
X150468272Y-104900579D01*
X150473003Y-104956919D01*
X150527215Y-105145979D01*
X150617116Y-105320908D01*
X150739283Y-105475044D01*
X150742077Y-105477422D01*
X150742078Y-105477423D01*
X150770957Y-105502001D01*
X150889062Y-105602516D01*
X150890380Y-105603253D01*
X150919677Y-105644781D01*
X150915375Y-105696040D01*
X150879130Y-105732542D01*
X150847109Y-105739700D01*
X149536887Y-105739700D01*
X149488549Y-105722107D01*
X149462829Y-105677558D01*
X149471762Y-105626900D01*
X149490589Y-105605242D01*
X149616267Y-105507051D01*
X149619166Y-105504786D01*
X149747680Y-105355901D01*
X149769573Y-105317363D01*
X149843010Y-105188091D01*
X149843012Y-105188088D01*
X149844828Y-105184890D01*
X149892967Y-105040179D01*
X149905748Y-105001760D01*
X149905749Y-105001757D01*
X149906910Y-104998266D01*
X149931560Y-104803138D01*
X149931846Y-104782640D01*
X149931924Y-104777099D01*
X149931924Y-104777093D01*
X149931953Y-104775000D01*
X149931518Y-104770566D01*
X149913121Y-104582927D01*
X149913120Y-104582922D01*
X149912761Y-104579260D01*
X149855914Y-104390975D01*
X149763579Y-104217318D01*
X149639272Y-104064903D01*
X149487728Y-103939535D01*
X149314720Y-103845990D01*
X149126837Y-103787830D01*
X148998703Y-103774363D01*
X148934890Y-103767656D01*
X148934889Y-103767656D01*
X148931235Y-103767272D01*
X148903171Y-103769826D01*
X148739024Y-103784764D01*
X148739023Y-103784764D01*
X148735366Y-103785097D01*
X148731841Y-103786134D01*
X148731838Y-103786135D01*
X148623378Y-103818057D01*
X148546689Y-103840628D01*
X148372392Y-103931748D01*
X148334383Y-103962308D01*
X148227397Y-104048327D01*
X148219112Y-104054988D01*
X148092689Y-104205653D01*
X148090918Y-104208875D01*
X148090917Y-104208876D01*
X148086276Y-104217318D01*
X147997939Y-104378004D01*
X147938469Y-104565476D01*
X147916545Y-104760930D01*
X147916853Y-104764598D01*
X147916853Y-104764601D01*
X147928272Y-104900579D01*
X147933003Y-104956919D01*
X147987215Y-105145979D01*
X148077116Y-105320908D01*
X148199283Y-105475044D01*
X148202077Y-105477422D01*
X148202078Y-105477423D01*
X148230957Y-105502001D01*
X148349062Y-105602516D01*
X148350380Y-105603253D01*
X148379677Y-105644781D01*
X148375375Y-105696040D01*
X148339130Y-105732542D01*
X148307109Y-105739700D01*
X142424887Y-105739700D01*
X142376549Y-105722107D01*
X142350829Y-105677558D01*
X142359762Y-105626900D01*
X142378589Y-105605242D01*
X142504267Y-105507051D01*
X142507166Y-105504786D01*
X142635680Y-105355901D01*
X142657573Y-105317363D01*
X142731010Y-105188091D01*
X142731012Y-105188088D01*
X142732828Y-105184890D01*
X142780967Y-105040179D01*
X142793748Y-105001760D01*
X142793749Y-105001757D01*
X142794910Y-104998266D01*
X142819560Y-104803138D01*
X142819846Y-104782640D01*
X142819924Y-104777099D01*
X142819924Y-104777093D01*
X142819953Y-104775000D01*
X142819518Y-104770566D01*
X142801121Y-104582927D01*
X142801120Y-104582922D01*
X142800761Y-104579260D01*
X142743914Y-104390975D01*
X142651579Y-104217318D01*
X142527272Y-104064903D01*
X142375728Y-103939535D01*
X142202720Y-103845990D01*
X142014837Y-103787830D01*
X141886703Y-103774363D01*
X141822890Y-103767656D01*
X141822889Y-103767656D01*
X141819235Y-103767272D01*
X141791171Y-103769826D01*
X141627024Y-103784764D01*
X141627023Y-103784764D01*
X141623366Y-103785097D01*
X141619841Y-103786134D01*
X141619838Y-103786135D01*
X141511378Y-103818057D01*
X141434689Y-103840628D01*
X141260392Y-103931748D01*
X141222383Y-103962308D01*
X141115397Y-104048327D01*
X141107112Y-104054988D01*
X140980689Y-104205653D01*
X140978918Y-104208875D01*
X140978917Y-104208876D01*
X140974276Y-104217318D01*
X140885939Y-104378004D01*
X140826469Y-104565476D01*
X140804545Y-104760930D01*
X140804853Y-104764598D01*
X140804853Y-104764601D01*
X140816272Y-104900579D01*
X140821003Y-104956919D01*
X140875215Y-105145979D01*
X140965116Y-105320908D01*
X141087283Y-105475044D01*
X141090077Y-105477422D01*
X141090078Y-105477423D01*
X141118957Y-105502001D01*
X141237062Y-105602516D01*
X141238380Y-105603253D01*
X141267677Y-105644781D01*
X141263375Y-105696040D01*
X141227130Y-105732542D01*
X141195109Y-105739700D01*
X139884887Y-105739700D01*
X139836549Y-105722107D01*
X139810829Y-105677558D01*
X139819762Y-105626900D01*
X139838589Y-105605242D01*
X139964267Y-105507051D01*
X139967166Y-105504786D01*
X140095680Y-105355901D01*
X140117573Y-105317363D01*
X140191010Y-105188091D01*
X140191012Y-105188088D01*
X140192828Y-105184890D01*
X140240967Y-105040179D01*
X140253748Y-105001760D01*
X140253749Y-105001757D01*
X140254910Y-104998266D01*
X140279560Y-104803138D01*
X140279846Y-104782640D01*
X140279924Y-104777099D01*
X140279924Y-104777093D01*
X140279953Y-104775000D01*
X140279518Y-104770566D01*
X140261121Y-104582927D01*
X140261120Y-104582922D01*
X140260761Y-104579260D01*
X140203914Y-104390975D01*
X140111579Y-104217318D01*
X139987272Y-104064903D01*
X139835728Y-103939535D01*
X139662720Y-103845990D01*
X139474837Y-103787830D01*
X139346703Y-103774363D01*
X139282890Y-103767656D01*
X139282889Y-103767656D01*
X139279235Y-103767272D01*
X139251171Y-103769826D01*
X139087024Y-103784764D01*
X139087023Y-103784764D01*
X139083366Y-103785097D01*
X139079841Y-103786134D01*
X139079838Y-103786135D01*
X138971378Y-103818057D01*
X138894689Y-103840628D01*
X138720392Y-103931748D01*
X138682383Y-103962308D01*
X138575397Y-104048327D01*
X138567112Y-104054988D01*
X138440689Y-104205653D01*
X138438918Y-104208875D01*
X138438917Y-104208876D01*
X138434276Y-104217318D01*
X138345939Y-104378004D01*
X138286469Y-104565476D01*
X138264545Y-104760930D01*
X138264853Y-104764598D01*
X138264853Y-104764601D01*
X138276272Y-104900579D01*
X138281003Y-104956919D01*
X138335215Y-105145979D01*
X138425116Y-105320908D01*
X138547283Y-105475044D01*
X138550077Y-105477422D01*
X138550078Y-105477423D01*
X138578957Y-105502001D01*
X138697062Y-105602516D01*
X138698380Y-105603253D01*
X138727677Y-105644781D01*
X138723375Y-105696040D01*
X138687130Y-105732542D01*
X138655109Y-105739700D01*
X137344887Y-105739700D01*
X137296549Y-105722107D01*
X137270829Y-105677558D01*
X137279762Y-105626900D01*
X137298589Y-105605242D01*
X137424267Y-105507051D01*
X137427166Y-105504786D01*
X137555680Y-105355901D01*
X137577573Y-105317363D01*
X137651010Y-105188091D01*
X137651012Y-105188088D01*
X137652828Y-105184890D01*
X137700967Y-105040179D01*
X137713748Y-105001760D01*
X137713749Y-105001757D01*
X137714910Y-104998266D01*
X137739560Y-104803138D01*
X137739846Y-104782640D01*
X137739924Y-104777099D01*
X137739924Y-104777093D01*
X137739953Y-104775000D01*
X137739518Y-104770566D01*
X137721121Y-104582927D01*
X137721120Y-104582922D01*
X137720761Y-104579260D01*
X137663914Y-104390975D01*
X137571579Y-104217318D01*
X137447272Y-104064903D01*
X137295728Y-103939535D01*
X137122720Y-103845990D01*
X136934837Y-103787830D01*
X136806703Y-103774363D01*
X136742890Y-103767656D01*
X136742889Y-103767656D01*
X136739235Y-103767272D01*
X136711171Y-103769826D01*
X136547024Y-103784764D01*
X136547023Y-103784764D01*
X136543366Y-103785097D01*
X136539841Y-103786134D01*
X136539838Y-103786135D01*
X136431378Y-103818057D01*
X136354689Y-103840628D01*
X136180392Y-103931748D01*
X136142383Y-103962308D01*
X136035397Y-104048327D01*
X136027112Y-104054988D01*
X135900689Y-104205653D01*
X135898918Y-104208875D01*
X135898917Y-104208876D01*
X135894276Y-104217318D01*
X135805939Y-104378004D01*
X135746469Y-104565476D01*
X135724545Y-104760930D01*
X135724853Y-104764598D01*
X135724853Y-104764601D01*
X135736272Y-104900579D01*
X135741003Y-104956919D01*
X135795215Y-105145979D01*
X135885116Y-105320908D01*
X136007283Y-105475044D01*
X136010077Y-105477422D01*
X136010078Y-105477423D01*
X136038957Y-105502001D01*
X136157062Y-105602516D01*
X136158380Y-105603253D01*
X136187677Y-105644781D01*
X136183375Y-105696040D01*
X136147130Y-105732542D01*
X136115109Y-105739700D01*
X134804887Y-105739700D01*
X134756549Y-105722107D01*
X134730829Y-105677558D01*
X134739762Y-105626900D01*
X134758589Y-105605242D01*
X134884267Y-105507051D01*
X134887166Y-105504786D01*
X135015680Y-105355901D01*
X135037573Y-105317363D01*
X135111010Y-105188091D01*
X135111012Y-105188088D01*
X135112828Y-105184890D01*
X135160967Y-105040179D01*
X135173748Y-105001760D01*
X135173749Y-105001757D01*
X135174910Y-104998266D01*
X135199560Y-104803138D01*
X135199846Y-104782640D01*
X135199924Y-104777099D01*
X135199924Y-104777093D01*
X135199953Y-104775000D01*
X135199518Y-104770566D01*
X135181121Y-104582927D01*
X135181120Y-104582922D01*
X135180761Y-104579260D01*
X135123914Y-104390975D01*
X135031579Y-104217318D01*
X134907272Y-104064903D01*
X134755728Y-103939535D01*
X134582720Y-103845990D01*
X134394837Y-103787830D01*
X134266703Y-103774363D01*
X134202890Y-103767656D01*
X134202889Y-103767656D01*
X134199235Y-103767272D01*
X134171171Y-103769826D01*
X134007024Y-103784764D01*
X134007023Y-103784764D01*
X134003366Y-103785097D01*
X133999841Y-103786134D01*
X133999838Y-103786135D01*
X133891378Y-103818057D01*
X133814689Y-103840628D01*
X133640392Y-103931748D01*
X133602383Y-103962308D01*
X133495397Y-104048327D01*
X133487112Y-104054988D01*
X133360689Y-104205653D01*
X133358918Y-104208875D01*
X133358917Y-104208876D01*
X133354276Y-104217318D01*
X133265939Y-104378004D01*
X133206469Y-104565476D01*
X133184545Y-104760930D01*
X133184853Y-104764598D01*
X133184853Y-104764601D01*
X133196272Y-104900579D01*
X133201003Y-104956919D01*
X133255215Y-105145979D01*
X133345116Y-105320908D01*
X133467283Y-105475044D01*
X133470077Y-105477422D01*
X133470078Y-105477423D01*
X133498957Y-105502001D01*
X133617062Y-105602516D01*
X133618380Y-105603253D01*
X133647677Y-105644781D01*
X133643375Y-105696040D01*
X133607130Y-105732542D01*
X133575109Y-105739700D01*
X132264887Y-105739700D01*
X132216549Y-105722107D01*
X132190829Y-105677558D01*
X132199762Y-105626900D01*
X132218589Y-105605242D01*
X132344267Y-105507051D01*
X132347166Y-105504786D01*
X132475680Y-105355901D01*
X132497573Y-105317363D01*
X132571010Y-105188091D01*
X132571012Y-105188088D01*
X132572828Y-105184890D01*
X132620967Y-105040179D01*
X132633748Y-105001760D01*
X132633749Y-105001757D01*
X132634910Y-104998266D01*
X132659560Y-104803138D01*
X132659846Y-104782640D01*
X132659924Y-104777099D01*
X132659924Y-104777093D01*
X132659953Y-104775000D01*
X132659518Y-104770566D01*
X132641121Y-104582927D01*
X132641120Y-104582922D01*
X132640761Y-104579260D01*
X132583914Y-104390975D01*
X132491579Y-104217318D01*
X132367272Y-104064903D01*
X132215728Y-103939535D01*
X132042720Y-103845990D01*
X131854837Y-103787830D01*
X131726703Y-103774363D01*
X131662890Y-103767656D01*
X131662889Y-103767656D01*
X131659235Y-103767272D01*
X131631171Y-103769826D01*
X131467024Y-103784764D01*
X131467023Y-103784764D01*
X131463366Y-103785097D01*
X131459841Y-103786134D01*
X131459838Y-103786135D01*
X131351378Y-103818057D01*
X131274689Y-103840628D01*
X131100392Y-103931748D01*
X131062383Y-103962308D01*
X130955397Y-104048327D01*
X130947112Y-104054988D01*
X130820689Y-104205653D01*
X130818918Y-104208875D01*
X130818917Y-104208876D01*
X130814276Y-104217318D01*
X130725939Y-104378004D01*
X130666469Y-104565476D01*
X130644545Y-104760930D01*
X130644853Y-104764598D01*
X130644853Y-104764601D01*
X130656272Y-104900579D01*
X130661003Y-104956919D01*
X130715215Y-105145979D01*
X130805116Y-105320908D01*
X130927283Y-105475044D01*
X130930077Y-105477422D01*
X130930078Y-105477423D01*
X130958957Y-105502001D01*
X131077062Y-105602516D01*
X131078380Y-105603253D01*
X131107677Y-105644781D01*
X131103375Y-105696040D01*
X131067130Y-105732542D01*
X131035109Y-105739700D01*
X129724887Y-105739700D01*
X129676549Y-105722107D01*
X129650829Y-105677558D01*
X129659762Y-105626900D01*
X129678589Y-105605242D01*
X129804267Y-105507051D01*
X129807166Y-105504786D01*
X129935680Y-105355901D01*
X129957573Y-105317363D01*
X130031010Y-105188091D01*
X130031012Y-105188088D01*
X130032828Y-105184890D01*
X130080967Y-105040179D01*
X130093748Y-105001760D01*
X130093749Y-105001757D01*
X130094910Y-104998266D01*
X130119560Y-104803138D01*
X130119846Y-104782640D01*
X130119924Y-104777099D01*
X130119924Y-104777093D01*
X130119953Y-104775000D01*
X130119518Y-104770566D01*
X130101121Y-104582927D01*
X130101120Y-104582922D01*
X130100761Y-104579260D01*
X130043914Y-104390975D01*
X129951579Y-104217318D01*
X129827272Y-104064903D01*
X129675728Y-103939535D01*
X129502720Y-103845990D01*
X129314837Y-103787830D01*
X129186703Y-103774363D01*
X129122890Y-103767656D01*
X129122889Y-103767656D01*
X129119235Y-103767272D01*
X129091171Y-103769826D01*
X128927024Y-103784764D01*
X128927023Y-103784764D01*
X128923366Y-103785097D01*
X128919841Y-103786134D01*
X128919838Y-103786135D01*
X128811378Y-103818057D01*
X128734689Y-103840628D01*
X128560392Y-103931748D01*
X128522383Y-103962308D01*
X128415397Y-104048327D01*
X128407112Y-104054988D01*
X128280689Y-104205653D01*
X128278918Y-104208875D01*
X128278917Y-104208876D01*
X128274276Y-104217318D01*
X128185939Y-104378004D01*
X128126469Y-104565476D01*
X128104545Y-104760930D01*
X128104853Y-104764598D01*
X128104853Y-104764601D01*
X128116272Y-104900579D01*
X128121003Y-104956919D01*
X128175215Y-105145979D01*
X128265116Y-105320908D01*
X128387283Y-105475044D01*
X128390077Y-105477422D01*
X128390078Y-105477423D01*
X128418957Y-105502001D01*
X128537062Y-105602516D01*
X128538380Y-105603253D01*
X128567677Y-105644781D01*
X128563375Y-105696040D01*
X128527130Y-105732542D01*
X128495109Y-105739700D01*
X121953293Y-105739700D01*
X121940235Y-105738558D01*
X121936850Y-105737961D01*
X121920000Y-105734990D01*
X121913523Y-105736132D01*
X121908850Y-105736956D01*
X121891252Y-105737961D01*
X121655174Y-105723681D01*
X121646159Y-105722586D01*
X121389677Y-105675584D01*
X121380860Y-105673411D01*
X121231600Y-105626900D01*
X121131903Y-105595833D01*
X121123423Y-105592617D01*
X120885630Y-105485595D01*
X120877592Y-105481377D01*
X120654427Y-105346468D01*
X120646968Y-105341319D01*
X120441699Y-105180501D01*
X120434902Y-105174479D01*
X120283833Y-105023410D01*
X126872177Y-105023410D01*
X126872871Y-105028717D01*
X126872871Y-105028720D01*
X126874553Y-105041582D01*
X126888998Y-105152046D01*
X126941247Y-105270791D01*
X127024723Y-105370098D01*
X127132717Y-105441984D01*
X127256545Y-105480671D01*
X127323416Y-105481896D01*
X127380893Y-105482950D01*
X127380895Y-105482950D01*
X127386255Y-105483048D01*
X127391426Y-105481638D01*
X127391428Y-105481638D01*
X127458758Y-105463282D01*
X127511418Y-105448925D01*
X127621973Y-105381044D01*
X127625565Y-105377076D01*
X127625567Y-105377074D01*
X127674043Y-105323518D01*
X127709032Y-105284863D01*
X127765597Y-105168112D01*
X127787120Y-105040179D01*
X127787257Y-105029000D01*
X127786845Y-105026122D01*
X127769625Y-104905876D01*
X127769624Y-104905873D01*
X127768866Y-104900579D01*
X127715170Y-104782482D01*
X127707669Y-104773776D01*
X127633982Y-104688258D01*
X127633981Y-104688257D01*
X127630487Y-104684202D01*
X127624857Y-104680553D01*
X127526116Y-104616552D01*
X127526115Y-104616551D01*
X127521623Y-104613640D01*
X127479067Y-104600913D01*
X127402465Y-104578004D01*
X127402462Y-104578004D01*
X127397331Y-104576469D01*
X127391976Y-104576436D01*
X127391974Y-104576436D01*
X127333864Y-104576081D01*
X127267602Y-104575676D01*
X127142866Y-104611326D01*
X127033148Y-104680553D01*
X126947270Y-104777791D01*
X126944994Y-104782638D01*
X126944993Y-104782640D01*
X126934388Y-104805228D01*
X126892136Y-104895223D01*
X126872177Y-105023410D01*
X120283833Y-105023410D01*
X120250521Y-104990098D01*
X120244499Y-104983301D01*
X120083681Y-104778032D01*
X120078532Y-104770573D01*
X119943622Y-104547405D01*
X119939403Y-104539367D01*
X119927055Y-104511931D01*
X119832383Y-104301577D01*
X119829165Y-104293092D01*
X119802923Y-104208876D01*
X119760041Y-104071264D01*
X119751589Y-104044140D01*
X119749416Y-104035323D01*
X119702414Y-103778841D01*
X119701319Y-103769826D01*
X119697750Y-103710827D01*
X127084094Y-103710827D01*
X127084788Y-103716134D01*
X127084788Y-103716137D01*
X127091525Y-103767656D01*
X127100915Y-103839463D01*
X127103074Y-103844369D01*
X127103074Y-103844370D01*
X127140773Y-103930047D01*
X127153164Y-103958208D01*
X127236640Y-104057515D01*
X127344634Y-104129401D01*
X127468462Y-104168088D01*
X127535333Y-104169313D01*
X127592810Y-104170367D01*
X127592812Y-104170367D01*
X127598172Y-104170465D01*
X127603343Y-104169055D01*
X127603345Y-104169055D01*
X127683728Y-104147140D01*
X127723335Y-104136342D01*
X127833890Y-104068461D01*
X127837482Y-104064493D01*
X127837484Y-104064491D01*
X127916067Y-103977673D01*
X127920949Y-103972280D01*
X127977514Y-103855529D01*
X127999037Y-103727596D01*
X127999075Y-103724555D01*
X127999106Y-103722006D01*
X127999174Y-103716417D01*
X127998762Y-103713539D01*
X127981542Y-103593293D01*
X127981541Y-103593290D01*
X127980783Y-103587996D01*
X127927087Y-103469899D01*
X127919586Y-103461193D01*
X127845899Y-103375675D01*
X127845898Y-103375674D01*
X127842404Y-103371619D01*
X127836774Y-103367970D01*
X127738033Y-103303969D01*
X127738032Y-103303968D01*
X127733540Y-103301057D01*
X127679063Y-103284765D01*
X127614382Y-103265421D01*
X127614379Y-103265421D01*
X127609248Y-103263886D01*
X127603893Y-103263853D01*
X127603891Y-103263853D01*
X127545781Y-103263498D01*
X127479519Y-103263093D01*
X127354783Y-103298743D01*
X127245065Y-103367970D01*
X127159187Y-103465208D01*
X127156911Y-103470055D01*
X127156910Y-103470057D01*
X127109881Y-103570226D01*
X127104053Y-103582640D01*
X127084094Y-103710827D01*
X119697750Y-103710827D01*
X119687039Y-103533748D01*
X119688044Y-103516150D01*
X119688868Y-103511477D01*
X119690010Y-103505000D01*
X119686442Y-103484764D01*
X119685300Y-103471707D01*
X119685300Y-102845010D01*
X122167677Y-102845010D01*
X122168371Y-102850317D01*
X122168371Y-102850320D01*
X122170245Y-102864649D01*
X122184498Y-102973646D01*
X122236747Y-103092391D01*
X122320223Y-103191698D01*
X122428217Y-103263584D01*
X122552045Y-103302271D01*
X122618916Y-103303496D01*
X122676393Y-103304550D01*
X122676395Y-103304550D01*
X122681755Y-103304648D01*
X122686926Y-103303238D01*
X122686928Y-103303238D01*
X122757125Y-103284100D01*
X122806918Y-103270525D01*
X122917473Y-103202644D01*
X122921065Y-103198676D01*
X122921067Y-103198674D01*
X122957681Y-103158223D01*
X123004532Y-103106463D01*
X123061097Y-102989712D01*
X123082620Y-102861779D01*
X123082757Y-102850600D01*
X123082345Y-102847722D01*
X123065125Y-102727476D01*
X123065124Y-102727473D01*
X123064366Y-102722179D01*
X123010670Y-102604082D01*
X123003169Y-102595376D01*
X122929482Y-102509858D01*
X122929481Y-102509857D01*
X122925987Y-102505802D01*
X122920357Y-102502153D01*
X122821616Y-102438152D01*
X122821615Y-102438151D01*
X122817123Y-102435240D01*
X122774567Y-102422513D01*
X122697965Y-102399604D01*
X122697962Y-102399604D01*
X122692831Y-102398069D01*
X122687476Y-102398036D01*
X122687474Y-102398036D01*
X122629364Y-102397681D01*
X122563102Y-102397276D01*
X122438366Y-102432926D01*
X122328648Y-102502153D01*
X122242770Y-102599391D01*
X122187636Y-102716823D01*
X122167677Y-102845010D01*
X119685300Y-102845010D01*
X119685300Y-101721344D01*
X126343177Y-101721344D01*
X126343871Y-101726651D01*
X126343871Y-101726654D01*
X126354900Y-101810992D01*
X126359998Y-101849980D01*
X126412247Y-101968725D01*
X126495723Y-102068032D01*
X126603717Y-102139918D01*
X126727545Y-102178605D01*
X126794416Y-102179830D01*
X126851893Y-102180884D01*
X126851895Y-102180884D01*
X126857255Y-102180982D01*
X126862426Y-102179572D01*
X126862428Y-102179572D01*
X126950539Y-102155550D01*
X126982418Y-102146859D01*
X127073481Y-102090946D01*
X127088408Y-102081781D01*
X127092973Y-102078978D01*
X127096565Y-102075010D01*
X127096567Y-102075008D01*
X127133181Y-102034557D01*
X127180032Y-101982797D01*
X127236597Y-101866046D01*
X127258120Y-101738113D01*
X127258257Y-101726934D01*
X127257466Y-101721410D01*
X135127677Y-101721410D01*
X135128371Y-101726717D01*
X135128371Y-101726720D01*
X135130236Y-101740983D01*
X135144498Y-101850046D01*
X135146657Y-101854952D01*
X135146657Y-101854953D01*
X135193510Y-101961434D01*
X135196747Y-101968791D01*
X135280223Y-102068098D01*
X135388217Y-102139984D01*
X135512045Y-102178671D01*
X135578916Y-102179896D01*
X135636393Y-102180950D01*
X135636395Y-102180950D01*
X135641755Y-102181048D01*
X135646926Y-102179638D01*
X135646928Y-102179638D01*
X135734922Y-102155648D01*
X135766918Y-102146925D01*
X135877473Y-102079044D01*
X135881065Y-102075076D01*
X135881067Y-102075074D01*
X135917681Y-102034623D01*
X135964532Y-101982863D01*
X136021097Y-101866112D01*
X136042620Y-101738179D01*
X136042757Y-101727000D01*
X136042345Y-101724122D01*
X136038319Y-101696010D01*
X144830477Y-101696010D01*
X144831171Y-101701317D01*
X144831171Y-101701320D01*
X144835991Y-101738179D01*
X144847298Y-101824646D01*
X144849457Y-101829552D01*
X144849457Y-101829553D01*
X144865514Y-101866046D01*
X144899547Y-101943391D01*
X144983023Y-102042698D01*
X145091017Y-102114584D01*
X145214845Y-102153271D01*
X145281716Y-102154496D01*
X145339193Y-102155550D01*
X145339195Y-102155550D01*
X145344555Y-102155648D01*
X145349726Y-102154238D01*
X145349728Y-102154238D01*
X145417058Y-102135882D01*
X145469718Y-102121525D01*
X145560781Y-102065612D01*
X145575708Y-102056447D01*
X145580273Y-102053644D01*
X145583865Y-102049676D01*
X145583867Y-102049674D01*
X145620481Y-102009223D01*
X145667332Y-101957463D01*
X145723897Y-101840712D01*
X145745420Y-101712779D01*
X145745557Y-101701600D01*
X145745145Y-101698722D01*
X145727925Y-101578476D01*
X145727924Y-101578473D01*
X145727166Y-101573179D01*
X145684989Y-101480416D01*
X145675689Y-101459962D01*
X145675688Y-101459961D01*
X145673470Y-101455082D01*
X145665969Y-101446376D01*
X145592282Y-101360858D01*
X145592281Y-101360857D01*
X145588787Y-101356802D01*
X145583157Y-101353153D01*
X145484416Y-101289152D01*
X145484415Y-101289151D01*
X145479923Y-101286240D01*
X145437367Y-101273513D01*
X145360765Y-101250604D01*
X145360762Y-101250604D01*
X145355631Y-101249069D01*
X145350276Y-101249036D01*
X145350274Y-101249036D01*
X145292164Y-101248681D01*
X145225902Y-101248276D01*
X145101166Y-101283926D01*
X144991448Y-101353153D01*
X144905570Y-101450391D01*
X144903294Y-101455238D01*
X144903293Y-101455240D01*
X144893380Y-101476355D01*
X144850436Y-101567823D01*
X144830477Y-101696010D01*
X136038319Y-101696010D01*
X136025125Y-101603876D01*
X136025124Y-101603873D01*
X136024366Y-101598579D01*
X135970670Y-101480482D01*
X135963169Y-101471776D01*
X135889482Y-101386258D01*
X135889481Y-101386257D01*
X135885987Y-101382202D01*
X135880357Y-101378553D01*
X135781616Y-101314552D01*
X135781615Y-101314551D01*
X135777123Y-101311640D01*
X135701928Y-101289152D01*
X135657965Y-101276004D01*
X135657962Y-101276004D01*
X135652831Y-101274469D01*
X135647476Y-101274436D01*
X135647474Y-101274436D01*
X135589364Y-101274081D01*
X135523102Y-101273676D01*
X135398366Y-101309326D01*
X135288648Y-101378553D01*
X135202770Y-101475791D01*
X135200494Y-101480638D01*
X135200493Y-101480640D01*
X135154560Y-101578476D01*
X135147636Y-101593223D01*
X135127677Y-101721410D01*
X127257466Y-101721410D01*
X127240625Y-101603810D01*
X127240624Y-101603807D01*
X127239866Y-101598513D01*
X127186170Y-101480416D01*
X127178726Y-101471776D01*
X127104982Y-101386192D01*
X127104981Y-101386191D01*
X127101487Y-101382136D01*
X127091551Y-101375696D01*
X126997116Y-101314486D01*
X126997115Y-101314485D01*
X126992623Y-101311574D01*
X126917649Y-101289152D01*
X126873465Y-101275938D01*
X126873462Y-101275938D01*
X126868331Y-101274403D01*
X126862976Y-101274370D01*
X126862974Y-101274370D01*
X126804864Y-101274015D01*
X126738602Y-101273610D01*
X126613866Y-101309260D01*
X126504148Y-101378487D01*
X126418270Y-101475725D01*
X126363136Y-101593157D01*
X126343177Y-101721344D01*
X119685300Y-101721344D01*
X119685300Y-100299010D01*
X127456877Y-100299010D01*
X127457571Y-100304317D01*
X127457571Y-100304320D01*
X127459445Y-100318649D01*
X127473698Y-100427646D01*
X127525947Y-100546391D01*
X127609423Y-100645698D01*
X127717417Y-100717584D01*
X127841245Y-100756271D01*
X127908116Y-100757496D01*
X127965593Y-100758550D01*
X127965595Y-100758550D01*
X127970955Y-100758648D01*
X127976126Y-100757238D01*
X127976128Y-100757238D01*
X128043458Y-100738882D01*
X128096118Y-100724525D01*
X128206673Y-100656644D01*
X128210265Y-100652676D01*
X128210267Y-100652674D01*
X128246881Y-100612223D01*
X128293732Y-100560463D01*
X128350297Y-100443712D01*
X128371820Y-100315779D01*
X128371957Y-100304600D01*
X128371545Y-100301722D01*
X128354325Y-100181476D01*
X128354324Y-100181473D01*
X128353566Y-100176179D01*
X128299870Y-100058082D01*
X128292369Y-100049376D01*
X128218682Y-99963858D01*
X128218681Y-99963857D01*
X128215187Y-99959802D01*
X128209557Y-99956153D01*
X128110816Y-99892152D01*
X128110815Y-99892151D01*
X128106323Y-99889240D01*
X128063767Y-99876513D01*
X127987165Y-99853604D01*
X127987162Y-99853604D01*
X127982031Y-99852069D01*
X127976676Y-99852036D01*
X127976674Y-99852036D01*
X127918564Y-99851681D01*
X127852302Y-99851276D01*
X127727566Y-99886926D01*
X127617848Y-99956153D01*
X127531970Y-100053391D01*
X127476836Y-100170823D01*
X127456877Y-100299010D01*
X119685300Y-100299010D01*
X119685300Y-99578583D01*
X120161992Y-99578583D01*
X120162686Y-99584920D01*
X120177318Y-99620244D01*
X120182205Y-99628709D01*
X120272765Y-99746730D01*
X120279670Y-99753635D01*
X120397693Y-99844197D01*
X120406150Y-99849079D01*
X120543588Y-99906009D01*
X120553029Y-99908538D01*
X120663481Y-99923079D01*
X120668374Y-99923400D01*
X120838141Y-99923400D01*
X120848298Y-99919703D01*
X120851400Y-99914331D01*
X120851400Y-99910141D01*
X121359400Y-99910141D01*
X121363097Y-99920298D01*
X121368469Y-99923400D01*
X121542426Y-99923400D01*
X121547319Y-99923079D01*
X121657771Y-99908538D01*
X121667212Y-99906009D01*
X121804650Y-99849079D01*
X121813107Y-99844197D01*
X121931130Y-99753635D01*
X121938035Y-99746730D01*
X122028595Y-99628709D01*
X122033482Y-99620244D01*
X122047149Y-99587250D01*
X122047527Y-99578583D01*
X123191992Y-99578583D01*
X123192686Y-99584920D01*
X123207318Y-99620244D01*
X123212205Y-99628709D01*
X123302765Y-99746730D01*
X123309670Y-99753635D01*
X123427693Y-99844197D01*
X123436150Y-99849079D01*
X123573588Y-99906009D01*
X123583029Y-99908538D01*
X123693481Y-99923079D01*
X123698374Y-99923400D01*
X124218141Y-99923400D01*
X124228298Y-99919703D01*
X124231400Y-99914331D01*
X124231400Y-99910141D01*
X124739400Y-99910141D01*
X124743097Y-99920298D01*
X124748469Y-99923400D01*
X125272426Y-99923400D01*
X125277319Y-99923079D01*
X125387771Y-99908538D01*
X125397212Y-99906009D01*
X125534650Y-99849079D01*
X125543107Y-99844197D01*
X125661130Y-99753635D01*
X125668035Y-99746730D01*
X125758595Y-99628709D01*
X125763482Y-99620244D01*
X125777149Y-99587250D01*
X125777606Y-99576784D01*
X125771486Y-99575000D01*
X124752659Y-99575000D01*
X124742502Y-99578697D01*
X124739400Y-99584069D01*
X124739400Y-99910141D01*
X124231400Y-99910141D01*
X124231400Y-99588259D01*
X124227703Y-99578102D01*
X124222331Y-99575000D01*
X123201836Y-99575000D01*
X123191992Y-99578583D01*
X122047527Y-99578583D01*
X122047606Y-99576784D01*
X122041486Y-99575000D01*
X121372659Y-99575000D01*
X121362502Y-99578697D01*
X121359400Y-99584069D01*
X121359400Y-99910141D01*
X120851400Y-99910141D01*
X120851400Y-99588259D01*
X120847703Y-99578102D01*
X120842331Y-99575000D01*
X120171836Y-99575000D01*
X120161992Y-99578583D01*
X119685300Y-99578583D01*
X119685300Y-99065216D01*
X120163194Y-99065216D01*
X120169314Y-99067000D01*
X120838141Y-99067000D01*
X120848298Y-99063303D01*
X120851400Y-99057931D01*
X120851400Y-99053741D01*
X121359400Y-99053741D01*
X121363097Y-99063898D01*
X121368469Y-99067000D01*
X122038964Y-99067000D01*
X122043865Y-99065216D01*
X123193194Y-99065216D01*
X123199314Y-99067000D01*
X124218141Y-99067000D01*
X124228298Y-99063303D01*
X124231400Y-99057931D01*
X124231400Y-99053741D01*
X124739400Y-99053741D01*
X124743097Y-99063898D01*
X124748469Y-99067000D01*
X125768964Y-99067000D01*
X125778808Y-99063417D01*
X125778114Y-99057080D01*
X125763482Y-99021756D01*
X125758595Y-99013291D01*
X125668035Y-98895270D01*
X125661130Y-98888365D01*
X125543107Y-98797803D01*
X125534650Y-98792921D01*
X125397212Y-98735991D01*
X125387771Y-98733462D01*
X125277319Y-98718921D01*
X125272426Y-98718600D01*
X124752659Y-98718600D01*
X124742502Y-98722297D01*
X124739400Y-98727669D01*
X124739400Y-99053741D01*
X124231400Y-99053741D01*
X124231400Y-98731859D01*
X124227703Y-98721702D01*
X124222331Y-98718600D01*
X123698374Y-98718600D01*
X123693481Y-98718921D01*
X123583029Y-98733462D01*
X123573588Y-98735991D01*
X123436150Y-98792921D01*
X123427693Y-98797803D01*
X123309670Y-98888365D01*
X123302765Y-98895270D01*
X123212205Y-99013291D01*
X123207318Y-99021756D01*
X123193651Y-99054750D01*
X123193194Y-99065216D01*
X122043865Y-99065216D01*
X122048808Y-99063417D01*
X122048114Y-99057080D01*
X122033482Y-99021756D01*
X122028595Y-99013291D01*
X121938035Y-98895270D01*
X121931130Y-98888365D01*
X121813107Y-98797803D01*
X121804650Y-98792921D01*
X121667212Y-98735991D01*
X121657771Y-98733462D01*
X121547319Y-98718921D01*
X121542426Y-98718600D01*
X121372659Y-98718600D01*
X121362502Y-98722297D01*
X121359400Y-98727669D01*
X121359400Y-99053741D01*
X120851400Y-99053741D01*
X120851400Y-98731859D01*
X120847703Y-98721702D01*
X120842331Y-98718600D01*
X120668374Y-98718600D01*
X120663481Y-98718921D01*
X120553029Y-98733462D01*
X120543588Y-98735991D01*
X120406150Y-98792921D01*
X120397693Y-98797803D01*
X120279670Y-98888365D01*
X120272765Y-98895270D01*
X120182205Y-99013291D01*
X120177318Y-99021756D01*
X120163651Y-99054750D01*
X120163194Y-99065216D01*
X119685300Y-99065216D01*
X119685300Y-98436647D01*
X124013440Y-98436647D01*
X124019875Y-98441353D01*
X124033175Y-98445508D01*
X124043646Y-98447203D01*
X124169652Y-98449513D01*
X124180187Y-98448201D01*
X124209200Y-98440291D01*
X124214356Y-98436647D01*
X125363440Y-98436647D01*
X125369875Y-98441353D01*
X125383175Y-98445508D01*
X125393646Y-98447203D01*
X125519652Y-98449513D01*
X125530187Y-98448201D01*
X125559200Y-98440291D01*
X125566321Y-98435258D01*
X125562676Y-98427486D01*
X125474777Y-98339587D01*
X125464978Y-98335018D01*
X125458987Y-98336623D01*
X125367352Y-98428258D01*
X125363440Y-98436647D01*
X124214356Y-98436647D01*
X124216321Y-98435258D01*
X124212676Y-98427486D01*
X124124777Y-98339587D01*
X124114978Y-98335018D01*
X124108987Y-98336623D01*
X124017352Y-98428258D01*
X124013440Y-98436647D01*
X119685300Y-98436647D01*
X119685300Y-97321686D01*
X120425212Y-97321686D01*
X120453996Y-97489200D01*
X120455708Y-97493223D01*
X120508489Y-97617266D01*
X120520544Y-97645598D01*
X120621287Y-97782493D01*
X120750821Y-97892540D01*
X120902196Y-97969836D01*
X121067294Y-98010235D01*
X121070635Y-98010442D01*
X121070640Y-98010443D01*
X121073832Y-98010641D01*
X121078014Y-98010900D01*
X121200560Y-98010900D01*
X121202720Y-98010648D01*
X121202723Y-98010648D01*
X121244018Y-98005833D01*
X121326825Y-97996179D01*
X121330934Y-97994687D01*
X121330936Y-97994687D01*
X121482486Y-97939677D01*
X121482488Y-97939676D01*
X121486593Y-97938186D01*
X121589699Y-97870587D01*
X121625085Y-97847387D01*
X121625087Y-97847386D01*
X121628736Y-97844993D01*
X121640485Y-97832591D01*
X121742620Y-97724774D01*
X121745626Y-97721601D01*
X121789773Y-97645598D01*
X121827230Y-97581110D01*
X122300777Y-97581110D01*
X122301471Y-97586417D01*
X122301471Y-97586420D01*
X122304160Y-97606982D01*
X122317598Y-97709746D01*
X122369847Y-97828491D01*
X122453323Y-97927798D01*
X122504138Y-97961623D01*
X122556812Y-97996685D01*
X122561317Y-97999684D01*
X122685145Y-98038371D01*
X122752016Y-98039596D01*
X122809493Y-98040650D01*
X122809495Y-98040650D01*
X122814855Y-98040748D01*
X122820026Y-98039338D01*
X122820028Y-98039338D01*
X122924601Y-98010828D01*
X122940018Y-98006625D01*
X122998987Y-97970418D01*
X123633821Y-97970418D01*
X123646321Y-98066001D01*
X123650311Y-98073683D01*
X123654973Y-98072217D01*
X123746813Y-97980377D01*
X123750988Y-97971422D01*
X124479418Y-97971422D01*
X124481023Y-97977413D01*
X124572178Y-98068568D01*
X124580023Y-98072226D01*
X124583306Y-98067538D01*
X124597082Y-97985653D01*
X124597601Y-97979872D01*
X124597673Y-97973909D01*
X124597446Y-97970418D01*
X124983821Y-97970418D01*
X124996321Y-98066001D01*
X125000311Y-98073683D01*
X125004973Y-98072217D01*
X125096813Y-97980377D01*
X125100988Y-97971422D01*
X125829418Y-97971422D01*
X125831023Y-97977413D01*
X125922178Y-98068568D01*
X125930023Y-98072226D01*
X125933306Y-98067538D01*
X125945435Y-97995443D01*
X127951300Y-97995443D01*
X127951301Y-99533556D01*
X127960172Y-99578158D01*
X127993966Y-99628734D01*
X128000123Y-99632848D01*
X128038383Y-99658413D01*
X128038384Y-99658414D01*
X128044542Y-99662528D01*
X128051806Y-99663973D01*
X128085026Y-99670581D01*
X128089143Y-99671400D01*
X128858095Y-99671400D01*
X129627256Y-99671399D01*
X129671858Y-99662528D01*
X129722434Y-99628734D01*
X129756228Y-99578158D01*
X129761371Y-99552304D01*
X129764379Y-99537182D01*
X129764379Y-99537181D01*
X129765100Y-99533557D01*
X129765099Y-98764500D01*
X130486305Y-98764500D01*
X130486717Y-98768420D01*
X130499324Y-98888365D01*
X130506232Y-98954094D01*
X130565142Y-99135401D01*
X130660461Y-99300498D01*
X130663101Y-99303430D01*
X130785385Y-99439241D01*
X130785389Y-99439244D01*
X130788023Y-99442170D01*
X130791211Y-99444486D01*
X130791213Y-99444488D01*
X130939065Y-99551909D01*
X130939068Y-99551911D01*
X130942252Y-99554224D01*
X131116409Y-99631764D01*
X131302881Y-99671400D01*
X131493519Y-99671400D01*
X131679991Y-99631764D01*
X131854148Y-99554224D01*
X131857332Y-99551911D01*
X131857335Y-99551909D01*
X132005187Y-99444488D01*
X132005189Y-99444486D01*
X132008377Y-99442170D01*
X132011011Y-99439244D01*
X132011015Y-99439241D01*
X132133299Y-99303430D01*
X132135939Y-99300498D01*
X132231258Y-99135401D01*
X132290168Y-98954094D01*
X132297077Y-98888365D01*
X132309683Y-98768420D01*
X132310095Y-98764500D01*
X133026305Y-98764500D01*
X133026717Y-98768420D01*
X133039324Y-98888365D01*
X133046232Y-98954094D01*
X133105142Y-99135401D01*
X133200461Y-99300498D01*
X133203101Y-99303430D01*
X133325385Y-99439241D01*
X133325389Y-99439244D01*
X133328023Y-99442170D01*
X133331211Y-99444486D01*
X133331213Y-99444488D01*
X133479065Y-99551909D01*
X133479068Y-99551911D01*
X133482252Y-99554224D01*
X133656409Y-99631764D01*
X133842881Y-99671400D01*
X134033519Y-99671400D01*
X134219991Y-99631764D01*
X134394148Y-99554224D01*
X134397332Y-99551911D01*
X134397335Y-99551909D01*
X134545187Y-99444488D01*
X134545189Y-99444486D01*
X134548377Y-99442170D01*
X134551011Y-99439244D01*
X134551015Y-99439241D01*
X134673299Y-99303430D01*
X134675939Y-99300498D01*
X134771258Y-99135401D01*
X134830168Y-98954094D01*
X134837077Y-98888365D01*
X134849683Y-98768420D01*
X134850095Y-98764500D01*
X135566305Y-98764500D01*
X135566717Y-98768420D01*
X135579324Y-98888365D01*
X135586232Y-98954094D01*
X135645142Y-99135401D01*
X135740461Y-99300498D01*
X135743101Y-99303430D01*
X135865385Y-99439241D01*
X135865389Y-99439244D01*
X135868023Y-99442170D01*
X135871211Y-99444486D01*
X135871213Y-99444488D01*
X136019065Y-99551909D01*
X136019068Y-99551911D01*
X136022252Y-99554224D01*
X136196409Y-99631764D01*
X136382881Y-99671400D01*
X136573519Y-99671400D01*
X136759991Y-99631764D01*
X136934148Y-99554224D01*
X136937332Y-99551911D01*
X136937335Y-99551909D01*
X137085187Y-99444488D01*
X137085189Y-99444486D01*
X137088377Y-99442170D01*
X137091011Y-99439244D01*
X137091015Y-99439241D01*
X137213299Y-99303430D01*
X137215939Y-99300498D01*
X137311258Y-99135401D01*
X137370168Y-98954094D01*
X137377077Y-98888365D01*
X137389683Y-98768420D01*
X137390095Y-98764500D01*
X138106305Y-98764500D01*
X138106717Y-98768420D01*
X138119324Y-98888365D01*
X138126232Y-98954094D01*
X138185142Y-99135401D01*
X138280461Y-99300498D01*
X138283101Y-99303430D01*
X138405385Y-99439241D01*
X138405389Y-99439244D01*
X138408023Y-99442170D01*
X138411211Y-99444486D01*
X138411213Y-99444488D01*
X138559065Y-99551909D01*
X138559068Y-99551911D01*
X138562252Y-99554224D01*
X138736409Y-99631764D01*
X138922881Y-99671400D01*
X139113519Y-99671400D01*
X139299991Y-99631764D01*
X139474148Y-99554224D01*
X139477332Y-99551911D01*
X139477335Y-99551909D01*
X139625187Y-99444488D01*
X139625189Y-99444486D01*
X139628377Y-99442170D01*
X139631011Y-99439244D01*
X139631015Y-99439241D01*
X139753299Y-99303430D01*
X139755939Y-99300498D01*
X139851258Y-99135401D01*
X139910168Y-98954094D01*
X139917077Y-98888365D01*
X139929683Y-98768420D01*
X139930095Y-98764500D01*
X140646305Y-98764500D01*
X140646717Y-98768420D01*
X140659324Y-98888365D01*
X140666232Y-98954094D01*
X140725142Y-99135401D01*
X140820461Y-99300498D01*
X140823101Y-99303430D01*
X140945385Y-99439241D01*
X140945389Y-99439244D01*
X140948023Y-99442170D01*
X140951211Y-99444486D01*
X140951213Y-99444488D01*
X141099065Y-99551909D01*
X141099068Y-99551911D01*
X141102252Y-99554224D01*
X141276409Y-99631764D01*
X141462881Y-99671400D01*
X141653519Y-99671400D01*
X141839991Y-99631764D01*
X142014148Y-99554224D01*
X142017332Y-99551911D01*
X142017335Y-99551909D01*
X142165187Y-99444488D01*
X142165189Y-99444486D01*
X142168377Y-99442170D01*
X142171011Y-99439244D01*
X142171015Y-99439241D01*
X142293299Y-99303430D01*
X142295939Y-99300498D01*
X142391258Y-99135401D01*
X142450168Y-98954094D01*
X142457077Y-98888365D01*
X142469683Y-98768420D01*
X142470095Y-98764500D01*
X143186305Y-98764500D01*
X143186717Y-98768420D01*
X143199324Y-98888365D01*
X143206232Y-98954094D01*
X143265142Y-99135401D01*
X143360461Y-99300498D01*
X143363101Y-99303430D01*
X143485385Y-99439241D01*
X143485389Y-99439244D01*
X143488023Y-99442170D01*
X143491211Y-99444486D01*
X143491213Y-99444488D01*
X143639065Y-99551909D01*
X143639068Y-99551911D01*
X143642252Y-99554224D01*
X143816409Y-99631764D01*
X144002881Y-99671400D01*
X144193519Y-99671400D01*
X144379991Y-99631764D01*
X144536456Y-99562101D01*
X146205037Y-99562101D01*
X146209576Y-99565843D01*
X146352966Y-99629684D01*
X146360417Y-99632105D01*
X146539082Y-99670081D01*
X146546871Y-99670900D01*
X146729529Y-99670900D01*
X146737318Y-99670081D01*
X146915983Y-99632105D01*
X146923434Y-99629684D01*
X147064058Y-99567074D01*
X147071832Y-99559566D01*
X147068934Y-99554444D01*
X146647577Y-99133087D01*
X146637778Y-99128518D01*
X146631787Y-99130123D01*
X146209606Y-99552304D01*
X146205037Y-99562101D01*
X144536456Y-99562101D01*
X144554148Y-99554224D01*
X144557332Y-99551911D01*
X144557335Y-99551909D01*
X144705187Y-99444488D01*
X144705189Y-99444486D01*
X144708377Y-99442170D01*
X144711011Y-99439244D01*
X144711015Y-99439241D01*
X144833299Y-99303430D01*
X144835939Y-99300498D01*
X144931258Y-99135401D01*
X144990168Y-98954094D01*
X144997077Y-98888365D01*
X145009683Y-98768420D01*
X145727219Y-98768420D01*
X145746311Y-98950071D01*
X145747941Y-98957738D01*
X145804383Y-99131448D01*
X145807571Y-99138609D01*
X145836559Y-99188818D01*
X145844839Y-99195766D01*
X145846990Y-99195766D01*
X145849013Y-99194477D01*
X146269613Y-98773877D01*
X146273788Y-98764922D01*
X147002218Y-98764922D01*
X147003823Y-98770913D01*
X147423834Y-99190924D01*
X147433633Y-99195493D01*
X147435709Y-99194937D01*
X147437328Y-99193170D01*
X147468829Y-99138609D01*
X147472017Y-99131448D01*
X147528459Y-98957738D01*
X147530089Y-98950071D01*
X147549181Y-98768420D01*
X147549181Y-98764500D01*
X148266305Y-98764500D01*
X148266717Y-98768420D01*
X148279324Y-98888365D01*
X148286232Y-98954094D01*
X148345142Y-99135401D01*
X148440461Y-99300498D01*
X148443101Y-99303430D01*
X148565385Y-99439241D01*
X148565389Y-99439244D01*
X148568023Y-99442170D01*
X148571211Y-99444486D01*
X148571213Y-99444488D01*
X148719065Y-99551909D01*
X148719068Y-99551911D01*
X148722252Y-99554224D01*
X148896409Y-99631764D01*
X149082881Y-99671400D01*
X149273519Y-99671400D01*
X149459991Y-99631764D01*
X149634148Y-99554224D01*
X149637332Y-99551911D01*
X149637335Y-99551909D01*
X149785187Y-99444488D01*
X149785189Y-99444486D01*
X149788377Y-99442170D01*
X149791011Y-99439244D01*
X149791015Y-99439241D01*
X149913299Y-99303430D01*
X149915939Y-99300498D01*
X150011258Y-99135401D01*
X150070168Y-98954094D01*
X150077077Y-98888365D01*
X150089683Y-98768420D01*
X150090095Y-98764500D01*
X150806305Y-98764500D01*
X150806717Y-98768420D01*
X150819324Y-98888365D01*
X150826232Y-98954094D01*
X150885142Y-99135401D01*
X150980461Y-99300498D01*
X150983101Y-99303430D01*
X151105385Y-99439241D01*
X151105389Y-99439244D01*
X151108023Y-99442170D01*
X151111211Y-99444486D01*
X151111213Y-99444488D01*
X151259065Y-99551909D01*
X151259068Y-99551911D01*
X151262252Y-99554224D01*
X151436409Y-99631764D01*
X151622881Y-99671400D01*
X151813519Y-99671400D01*
X151999991Y-99631764D01*
X152174148Y-99554224D01*
X152177332Y-99551911D01*
X152177335Y-99551909D01*
X152325187Y-99444488D01*
X152325189Y-99444486D01*
X152328377Y-99442170D01*
X152331011Y-99439244D01*
X152331015Y-99439241D01*
X152453299Y-99303430D01*
X152455939Y-99300498D01*
X152551258Y-99135401D01*
X152610168Y-98954094D01*
X152617077Y-98888365D01*
X152629683Y-98768420D01*
X152630095Y-98764500D01*
X153346305Y-98764500D01*
X153346717Y-98768420D01*
X153359324Y-98888365D01*
X153366232Y-98954094D01*
X153425142Y-99135401D01*
X153520461Y-99300498D01*
X153523101Y-99303430D01*
X153645385Y-99439241D01*
X153645389Y-99439244D01*
X153648023Y-99442170D01*
X153651211Y-99444486D01*
X153651213Y-99444488D01*
X153799065Y-99551909D01*
X153799068Y-99551911D01*
X153802252Y-99554224D01*
X153976409Y-99631764D01*
X154162881Y-99671400D01*
X154353519Y-99671400D01*
X154539991Y-99631764D01*
X154714148Y-99554224D01*
X154717332Y-99551911D01*
X154717335Y-99551909D01*
X154865187Y-99444488D01*
X154865189Y-99444486D01*
X154868377Y-99442170D01*
X154871011Y-99439244D01*
X154871015Y-99439241D01*
X154993299Y-99303430D01*
X154995939Y-99300498D01*
X155091258Y-99135401D01*
X155150168Y-98954094D01*
X155157077Y-98888365D01*
X155169683Y-98768420D01*
X155170095Y-98764500D01*
X155886305Y-98764500D01*
X155886717Y-98768420D01*
X155899324Y-98888365D01*
X155906232Y-98954094D01*
X155965142Y-99135401D01*
X156060461Y-99300498D01*
X156063101Y-99303430D01*
X156185385Y-99439241D01*
X156185389Y-99439244D01*
X156188023Y-99442170D01*
X156191211Y-99444486D01*
X156191213Y-99444488D01*
X156339065Y-99551909D01*
X156339068Y-99551911D01*
X156342252Y-99554224D01*
X156516409Y-99631764D01*
X156702881Y-99671400D01*
X156893519Y-99671400D01*
X157079991Y-99631764D01*
X157254148Y-99554224D01*
X157257332Y-99551911D01*
X157257335Y-99551909D01*
X157405187Y-99444488D01*
X157405189Y-99444486D01*
X157408377Y-99442170D01*
X157411011Y-99439244D01*
X157411015Y-99439241D01*
X157533299Y-99303430D01*
X157535939Y-99300498D01*
X157631258Y-99135401D01*
X157690168Y-98954094D01*
X157697077Y-98888365D01*
X157709683Y-98768420D01*
X157710095Y-98764500D01*
X158426305Y-98764500D01*
X158426717Y-98768420D01*
X158439324Y-98888365D01*
X158446232Y-98954094D01*
X158505142Y-99135401D01*
X158600461Y-99300498D01*
X158603101Y-99303430D01*
X158725385Y-99439241D01*
X158725389Y-99439244D01*
X158728023Y-99442170D01*
X158731211Y-99444486D01*
X158731213Y-99444488D01*
X158879065Y-99551909D01*
X158879068Y-99551911D01*
X158882252Y-99554224D01*
X159056409Y-99631764D01*
X159242881Y-99671400D01*
X159433519Y-99671400D01*
X159619991Y-99631764D01*
X159794148Y-99554224D01*
X159797332Y-99551911D01*
X159797335Y-99551909D01*
X159945187Y-99444488D01*
X159945189Y-99444486D01*
X159948377Y-99442170D01*
X159951011Y-99439244D01*
X159951015Y-99439241D01*
X160073299Y-99303430D01*
X160075939Y-99300498D01*
X160171258Y-99135401D01*
X160230168Y-98954094D01*
X160237077Y-98888365D01*
X160249683Y-98768420D01*
X160250095Y-98764500D01*
X160966305Y-98764500D01*
X160966717Y-98768420D01*
X160979324Y-98888365D01*
X160986232Y-98954094D01*
X161045142Y-99135401D01*
X161140461Y-99300498D01*
X161143101Y-99303430D01*
X161265385Y-99439241D01*
X161265389Y-99439244D01*
X161268023Y-99442170D01*
X161271211Y-99444486D01*
X161271213Y-99444488D01*
X161419065Y-99551909D01*
X161419068Y-99551911D01*
X161422252Y-99554224D01*
X161596409Y-99631764D01*
X161782881Y-99671400D01*
X161973519Y-99671400D01*
X162159991Y-99631764D01*
X162334148Y-99554224D01*
X162337332Y-99551911D01*
X162337335Y-99551909D01*
X162485187Y-99444488D01*
X162485189Y-99444486D01*
X162488377Y-99442170D01*
X162491011Y-99439244D01*
X162491015Y-99439241D01*
X162613299Y-99303430D01*
X162615939Y-99300498D01*
X162711258Y-99135401D01*
X162770168Y-98954094D01*
X162777077Y-98888365D01*
X162789683Y-98768420D01*
X162790095Y-98764500D01*
X162785597Y-98721702D01*
X162770580Y-98578823D01*
X162770579Y-98578820D01*
X162770168Y-98574906D01*
X162711258Y-98393599D01*
X162615939Y-98228502D01*
X162523692Y-98126051D01*
X162491015Y-98089759D01*
X162491011Y-98089756D01*
X162488377Y-98086830D01*
X162470282Y-98073683D01*
X162337335Y-97977091D01*
X162337332Y-97977089D01*
X162334148Y-97974776D01*
X162159991Y-97897236D01*
X161973519Y-97857600D01*
X161782881Y-97857600D01*
X161596409Y-97897236D01*
X161592811Y-97898838D01*
X161425848Y-97973175D01*
X161425845Y-97973177D01*
X161422253Y-97974776D01*
X161419069Y-97977089D01*
X161419066Y-97977091D01*
X161286118Y-98073683D01*
X161268023Y-98086830D01*
X161265389Y-98089756D01*
X161265385Y-98089759D01*
X161232708Y-98126051D01*
X161140461Y-98228502D01*
X161045142Y-98393599D01*
X160986232Y-98574906D01*
X160985821Y-98578820D01*
X160985820Y-98578823D01*
X160970803Y-98721702D01*
X160966305Y-98764500D01*
X160250095Y-98764500D01*
X160245597Y-98721702D01*
X160230580Y-98578823D01*
X160230579Y-98578820D01*
X160230168Y-98574906D01*
X160171258Y-98393599D01*
X160075939Y-98228502D01*
X159983692Y-98126051D01*
X159951015Y-98089759D01*
X159951011Y-98089756D01*
X159948377Y-98086830D01*
X159930282Y-98073683D01*
X159797335Y-97977091D01*
X159797332Y-97977089D01*
X159794148Y-97974776D01*
X159619991Y-97897236D01*
X159433519Y-97857600D01*
X159242881Y-97857600D01*
X159056409Y-97897236D01*
X159052811Y-97898838D01*
X158885848Y-97973175D01*
X158885845Y-97973177D01*
X158882253Y-97974776D01*
X158879069Y-97977089D01*
X158879066Y-97977091D01*
X158746118Y-98073683D01*
X158728023Y-98086830D01*
X158725389Y-98089756D01*
X158725385Y-98089759D01*
X158692708Y-98126051D01*
X158600461Y-98228502D01*
X158505142Y-98393599D01*
X158446232Y-98574906D01*
X158445821Y-98578820D01*
X158445820Y-98578823D01*
X158430803Y-98721702D01*
X158426305Y-98764500D01*
X157710095Y-98764500D01*
X157705597Y-98721702D01*
X157690580Y-98578823D01*
X157690579Y-98578820D01*
X157690168Y-98574906D01*
X157631258Y-98393599D01*
X157535939Y-98228502D01*
X157443692Y-98126051D01*
X157411015Y-98089759D01*
X157411011Y-98089756D01*
X157408377Y-98086830D01*
X157390282Y-98073683D01*
X157257335Y-97977091D01*
X157257332Y-97977089D01*
X157254148Y-97974776D01*
X157079991Y-97897236D01*
X156893519Y-97857600D01*
X156702881Y-97857600D01*
X156516409Y-97897236D01*
X156512811Y-97898838D01*
X156345848Y-97973175D01*
X156345845Y-97973177D01*
X156342253Y-97974776D01*
X156339069Y-97977089D01*
X156339066Y-97977091D01*
X156206118Y-98073683D01*
X156188023Y-98086830D01*
X156185389Y-98089756D01*
X156185385Y-98089759D01*
X156152708Y-98126051D01*
X156060461Y-98228502D01*
X155965142Y-98393599D01*
X155906232Y-98574906D01*
X155905821Y-98578820D01*
X155905820Y-98578823D01*
X155890803Y-98721702D01*
X155886305Y-98764500D01*
X155170095Y-98764500D01*
X155165597Y-98721702D01*
X155150580Y-98578823D01*
X155150579Y-98578820D01*
X155150168Y-98574906D01*
X155091258Y-98393599D01*
X154995939Y-98228502D01*
X154903692Y-98126051D01*
X154871015Y-98089759D01*
X154871011Y-98089756D01*
X154868377Y-98086830D01*
X154850282Y-98073683D01*
X154717335Y-97977091D01*
X154717332Y-97977089D01*
X154714148Y-97974776D01*
X154539991Y-97897236D01*
X154353519Y-97857600D01*
X154162881Y-97857600D01*
X153976409Y-97897236D01*
X153972811Y-97898838D01*
X153805848Y-97973175D01*
X153805845Y-97973177D01*
X153802253Y-97974776D01*
X153799069Y-97977089D01*
X153799066Y-97977091D01*
X153666118Y-98073683D01*
X153648023Y-98086830D01*
X153645389Y-98089756D01*
X153645385Y-98089759D01*
X153612708Y-98126051D01*
X153520461Y-98228502D01*
X153425142Y-98393599D01*
X153366232Y-98574906D01*
X153365821Y-98578820D01*
X153365820Y-98578823D01*
X153350803Y-98721702D01*
X153346305Y-98764500D01*
X152630095Y-98764500D01*
X152625597Y-98721702D01*
X152610580Y-98578823D01*
X152610579Y-98578820D01*
X152610168Y-98574906D01*
X152551258Y-98393599D01*
X152455939Y-98228502D01*
X152363692Y-98126051D01*
X152331015Y-98089759D01*
X152331011Y-98089756D01*
X152328377Y-98086830D01*
X152310282Y-98073683D01*
X152177335Y-97977091D01*
X152177332Y-97977089D01*
X152174148Y-97974776D01*
X151999991Y-97897236D01*
X151813519Y-97857600D01*
X151622881Y-97857600D01*
X151436409Y-97897236D01*
X151432811Y-97898838D01*
X151265848Y-97973175D01*
X151265845Y-97973177D01*
X151262253Y-97974776D01*
X151259069Y-97977089D01*
X151259066Y-97977091D01*
X151126118Y-98073683D01*
X151108023Y-98086830D01*
X151105389Y-98089756D01*
X151105385Y-98089759D01*
X151072708Y-98126051D01*
X150980461Y-98228502D01*
X150885142Y-98393599D01*
X150826232Y-98574906D01*
X150825821Y-98578820D01*
X150825820Y-98578823D01*
X150810803Y-98721702D01*
X150806305Y-98764500D01*
X150090095Y-98764500D01*
X150085597Y-98721702D01*
X150070580Y-98578823D01*
X150070579Y-98578820D01*
X150070168Y-98574906D01*
X150011258Y-98393599D01*
X149915939Y-98228502D01*
X149823692Y-98126051D01*
X149791015Y-98089759D01*
X149791011Y-98089756D01*
X149788377Y-98086830D01*
X149770282Y-98073683D01*
X149637335Y-97977091D01*
X149637332Y-97977089D01*
X149634148Y-97974776D01*
X149459991Y-97897236D01*
X149273519Y-97857600D01*
X149082881Y-97857600D01*
X148896409Y-97897236D01*
X148892811Y-97898838D01*
X148725848Y-97973175D01*
X148725845Y-97973177D01*
X148722253Y-97974776D01*
X148719069Y-97977089D01*
X148719066Y-97977091D01*
X148586118Y-98073683D01*
X148568023Y-98086830D01*
X148565389Y-98089756D01*
X148565385Y-98089759D01*
X148532708Y-98126051D01*
X148440461Y-98228502D01*
X148345142Y-98393599D01*
X148286232Y-98574906D01*
X148285821Y-98578820D01*
X148285820Y-98578823D01*
X148270803Y-98721702D01*
X148266305Y-98764500D01*
X147549181Y-98764500D01*
X147549181Y-98760580D01*
X147530089Y-98578929D01*
X147528459Y-98571262D01*
X147472017Y-98397552D01*
X147468829Y-98390391D01*
X147439841Y-98340182D01*
X147431561Y-98333234D01*
X147429410Y-98333234D01*
X147427387Y-98334523D01*
X147006787Y-98755123D01*
X147002218Y-98764922D01*
X146273788Y-98764922D01*
X146274182Y-98764078D01*
X146272577Y-98758087D01*
X145852566Y-98338076D01*
X145842767Y-98333507D01*
X145840691Y-98334063D01*
X145839072Y-98335830D01*
X145807571Y-98390391D01*
X145804383Y-98397552D01*
X145747941Y-98571262D01*
X145746311Y-98578929D01*
X145727219Y-98760580D01*
X145727219Y-98768420D01*
X145009683Y-98768420D01*
X145010095Y-98764500D01*
X145005597Y-98721702D01*
X144990580Y-98578823D01*
X144990579Y-98578820D01*
X144990168Y-98574906D01*
X144931258Y-98393599D01*
X144835939Y-98228502D01*
X144743692Y-98126051D01*
X144711015Y-98089759D01*
X144711011Y-98089756D01*
X144708377Y-98086830D01*
X144690282Y-98073683D01*
X144557335Y-97977091D01*
X144557332Y-97977089D01*
X144554148Y-97974776D01*
X144542150Y-97969434D01*
X146204568Y-97969434D01*
X146207466Y-97974556D01*
X146628823Y-98395913D01*
X146638622Y-98400482D01*
X146644613Y-98398877D01*
X147066794Y-97976696D01*
X147071363Y-97966899D01*
X147066824Y-97963157D01*
X146923434Y-97899316D01*
X146915983Y-97896895D01*
X146737318Y-97858919D01*
X146729529Y-97858100D01*
X146546871Y-97858100D01*
X146539082Y-97858919D01*
X146360417Y-97896895D01*
X146352966Y-97899316D01*
X146212342Y-97961926D01*
X146204568Y-97969434D01*
X144542150Y-97969434D01*
X144379991Y-97897236D01*
X144193519Y-97857600D01*
X144002881Y-97857600D01*
X143816409Y-97897236D01*
X143812811Y-97898838D01*
X143645848Y-97973175D01*
X143645845Y-97973177D01*
X143642253Y-97974776D01*
X143639069Y-97977089D01*
X143639066Y-97977091D01*
X143506118Y-98073683D01*
X143488023Y-98086830D01*
X143485389Y-98089756D01*
X143485385Y-98089759D01*
X143452708Y-98126051D01*
X143360461Y-98228502D01*
X143265142Y-98393599D01*
X143206232Y-98574906D01*
X143205821Y-98578820D01*
X143205820Y-98578823D01*
X143190803Y-98721702D01*
X143186305Y-98764500D01*
X142470095Y-98764500D01*
X142465597Y-98721702D01*
X142450580Y-98578823D01*
X142450579Y-98578820D01*
X142450168Y-98574906D01*
X142391258Y-98393599D01*
X142295939Y-98228502D01*
X142203692Y-98126051D01*
X142171015Y-98089759D01*
X142171011Y-98089756D01*
X142168377Y-98086830D01*
X142150282Y-98073683D01*
X142017335Y-97977091D01*
X142017332Y-97977089D01*
X142014148Y-97974776D01*
X141839991Y-97897236D01*
X141653519Y-97857600D01*
X141462881Y-97857600D01*
X141276409Y-97897236D01*
X141272811Y-97898838D01*
X141105848Y-97973175D01*
X141105845Y-97973177D01*
X141102253Y-97974776D01*
X141099069Y-97977089D01*
X141099066Y-97977091D01*
X140966118Y-98073683D01*
X140948023Y-98086830D01*
X140945389Y-98089756D01*
X140945385Y-98089759D01*
X140912708Y-98126051D01*
X140820461Y-98228502D01*
X140725142Y-98393599D01*
X140666232Y-98574906D01*
X140665821Y-98578820D01*
X140665820Y-98578823D01*
X140650803Y-98721702D01*
X140646305Y-98764500D01*
X139930095Y-98764500D01*
X139925597Y-98721702D01*
X139910580Y-98578823D01*
X139910579Y-98578820D01*
X139910168Y-98574906D01*
X139851258Y-98393599D01*
X139755939Y-98228502D01*
X139663692Y-98126051D01*
X139631015Y-98089759D01*
X139631011Y-98089756D01*
X139628377Y-98086830D01*
X139610282Y-98073683D01*
X139477335Y-97977091D01*
X139477332Y-97977089D01*
X139474148Y-97974776D01*
X139299991Y-97897236D01*
X139113519Y-97857600D01*
X138922881Y-97857600D01*
X138736409Y-97897236D01*
X138732811Y-97898838D01*
X138565848Y-97973175D01*
X138565845Y-97973177D01*
X138562253Y-97974776D01*
X138559069Y-97977089D01*
X138559066Y-97977091D01*
X138426118Y-98073683D01*
X138408023Y-98086830D01*
X138405389Y-98089756D01*
X138405385Y-98089759D01*
X138372708Y-98126051D01*
X138280461Y-98228502D01*
X138185142Y-98393599D01*
X138126232Y-98574906D01*
X138125821Y-98578820D01*
X138125820Y-98578823D01*
X138110803Y-98721702D01*
X138106305Y-98764500D01*
X137390095Y-98764500D01*
X137385597Y-98721702D01*
X137370580Y-98578823D01*
X137370579Y-98578820D01*
X137370168Y-98574906D01*
X137311258Y-98393599D01*
X137215939Y-98228502D01*
X137123692Y-98126051D01*
X137091015Y-98089759D01*
X137091011Y-98089756D01*
X137088377Y-98086830D01*
X137070282Y-98073683D01*
X136937335Y-97977091D01*
X136937332Y-97977089D01*
X136934148Y-97974776D01*
X136759991Y-97897236D01*
X136573519Y-97857600D01*
X136382881Y-97857600D01*
X136196409Y-97897236D01*
X136192811Y-97898838D01*
X136025848Y-97973175D01*
X136025845Y-97973177D01*
X136022253Y-97974776D01*
X136019069Y-97977089D01*
X136019066Y-97977091D01*
X135886118Y-98073683D01*
X135868023Y-98086830D01*
X135865389Y-98089756D01*
X135865385Y-98089759D01*
X135832708Y-98126051D01*
X135740461Y-98228502D01*
X135645142Y-98393599D01*
X135586232Y-98574906D01*
X135585821Y-98578820D01*
X135585820Y-98578823D01*
X135570803Y-98721702D01*
X135566305Y-98764500D01*
X134850095Y-98764500D01*
X134845597Y-98721702D01*
X134830580Y-98578823D01*
X134830579Y-98578820D01*
X134830168Y-98574906D01*
X134771258Y-98393599D01*
X134675939Y-98228502D01*
X134583692Y-98126051D01*
X134551015Y-98089759D01*
X134551011Y-98089756D01*
X134548377Y-98086830D01*
X134530282Y-98073683D01*
X134397335Y-97977091D01*
X134397332Y-97977089D01*
X134394148Y-97974776D01*
X134219991Y-97897236D01*
X134033519Y-97857600D01*
X133842881Y-97857600D01*
X133656409Y-97897236D01*
X133652811Y-97898838D01*
X133485848Y-97973175D01*
X133485845Y-97973177D01*
X133482253Y-97974776D01*
X133479069Y-97977089D01*
X133479066Y-97977091D01*
X133346118Y-98073683D01*
X133328023Y-98086830D01*
X133325389Y-98089756D01*
X133325385Y-98089759D01*
X133292708Y-98126051D01*
X133200461Y-98228502D01*
X133105142Y-98393599D01*
X133046232Y-98574906D01*
X133045821Y-98578820D01*
X133045820Y-98578823D01*
X133030803Y-98721702D01*
X133026305Y-98764500D01*
X132310095Y-98764500D01*
X132305597Y-98721702D01*
X132290580Y-98578823D01*
X132290579Y-98578820D01*
X132290168Y-98574906D01*
X132231258Y-98393599D01*
X132135939Y-98228502D01*
X132043692Y-98126051D01*
X132011015Y-98089759D01*
X132011011Y-98089756D01*
X132008377Y-98086830D01*
X131990282Y-98073683D01*
X131857335Y-97977091D01*
X131857332Y-97977089D01*
X131854148Y-97974776D01*
X131679991Y-97897236D01*
X131493519Y-97857600D01*
X131302881Y-97857600D01*
X131116409Y-97897236D01*
X131112811Y-97898838D01*
X130945848Y-97973175D01*
X130945845Y-97973177D01*
X130942253Y-97974776D01*
X130939069Y-97977089D01*
X130939066Y-97977091D01*
X130806118Y-98073683D01*
X130788023Y-98086830D01*
X130785389Y-98089756D01*
X130785385Y-98089759D01*
X130752708Y-98126051D01*
X130660461Y-98228502D01*
X130565142Y-98393599D01*
X130506232Y-98574906D01*
X130505821Y-98578820D01*
X130505820Y-98578823D01*
X130490803Y-98721702D01*
X130486305Y-98764500D01*
X129765099Y-98764500D01*
X129765099Y-97995444D01*
X129756228Y-97950842D01*
X129722434Y-97900266D01*
X129682960Y-97873890D01*
X129678017Y-97870587D01*
X129678016Y-97870586D01*
X129671858Y-97866472D01*
X129633888Y-97858919D01*
X129630882Y-97858321D01*
X129630881Y-97858321D01*
X129627257Y-97857600D01*
X128858305Y-97857600D01*
X128089144Y-97857601D01*
X128044542Y-97866472D01*
X127993966Y-97900266D01*
X127989852Y-97906423D01*
X127965552Y-97942791D01*
X127960172Y-97950842D01*
X127958727Y-97958106D01*
X127954887Y-97977413D01*
X127951300Y-97995443D01*
X125945435Y-97995443D01*
X125947082Y-97985653D01*
X125947601Y-97979872D01*
X125947673Y-97973909D01*
X125947296Y-97968119D01*
X125934168Y-97876449D01*
X125930084Y-97868817D01*
X125925188Y-97870422D01*
X125833987Y-97961623D01*
X125829418Y-97971422D01*
X125100988Y-97971422D01*
X125101382Y-97970578D01*
X125099777Y-97964587D01*
X125008290Y-97873100D01*
X125000445Y-97869442D01*
X124997330Y-97873890D01*
X124983951Y-97959818D01*
X124983821Y-97970418D01*
X124597446Y-97970418D01*
X124597296Y-97968119D01*
X124584168Y-97876449D01*
X124580084Y-97868817D01*
X124575188Y-97870422D01*
X124483987Y-97961623D01*
X124479418Y-97971422D01*
X123750988Y-97971422D01*
X123751382Y-97970578D01*
X123749777Y-97964587D01*
X123658290Y-97873100D01*
X123650445Y-97869442D01*
X123647330Y-97873890D01*
X123633951Y-97959818D01*
X123633821Y-97970418D01*
X122998987Y-97970418D01*
X123050573Y-97938744D01*
X123054165Y-97934776D01*
X123054167Y-97934774D01*
X123113868Y-97868817D01*
X123137632Y-97842563D01*
X123194197Y-97725812D01*
X123215720Y-97597879D01*
X123215857Y-97586700D01*
X123215445Y-97583822D01*
X123198225Y-97463576D01*
X123198224Y-97463573D01*
X123197466Y-97458279D01*
X123167288Y-97391907D01*
X123145989Y-97345062D01*
X123145988Y-97345061D01*
X123143770Y-97340182D01*
X123136269Y-97331476D01*
X123062582Y-97245958D01*
X123062581Y-97245957D01*
X123059087Y-97241902D01*
X123053081Y-97238009D01*
X122954716Y-97174252D01*
X122954715Y-97174251D01*
X122950223Y-97171340D01*
X122900280Y-97156404D01*
X122831065Y-97135704D01*
X122831062Y-97135704D01*
X122825931Y-97134169D01*
X122820576Y-97134136D01*
X122820574Y-97134136D01*
X122762464Y-97133781D01*
X122696202Y-97133376D01*
X122571466Y-97169026D01*
X122461748Y-97238253D01*
X122375870Y-97335491D01*
X122373594Y-97340338D01*
X122373593Y-97340340D01*
X122336177Y-97420034D01*
X122320736Y-97452923D01*
X122300777Y-97581110D01*
X121827230Y-97581110D01*
X121828802Y-97578404D01*
X121830996Y-97574627D01*
X121877180Y-97422138D01*
X121878997Y-97416140D01*
X121878997Y-97416138D01*
X121880264Y-97411956D01*
X121880534Y-97407600D01*
X121880535Y-97407596D01*
X121890518Y-97246673D01*
X121890518Y-97246669D01*
X121890788Y-97242314D01*
X121868929Y-97115101D01*
X123632622Y-97115101D01*
X123633316Y-97120408D01*
X123633316Y-97120411D01*
X123635016Y-97133409D01*
X123650372Y-97250838D01*
X123705505Y-97376137D01*
X123793589Y-97480926D01*
X123798048Y-97483894D01*
X123798049Y-97483895D01*
X123810942Y-97492477D01*
X123907543Y-97556781D01*
X123912655Y-97558378D01*
X123912657Y-97558379D01*
X123994096Y-97583822D01*
X124038207Y-97597603D01*
X124067009Y-97598131D01*
X124082114Y-97598408D01*
X124112517Y-97605441D01*
X124115821Y-97606982D01*
X124133373Y-97602279D01*
X124154213Y-97599730D01*
X124169714Y-97600014D01*
X124169716Y-97600014D01*
X124175077Y-97600112D01*
X124180248Y-97598702D01*
X124180250Y-97598702D01*
X124283894Y-97570445D01*
X124307149Y-97564105D01*
X124423806Y-97492477D01*
X124427398Y-97488509D01*
X124427400Y-97488507D01*
X124485582Y-97424228D01*
X124515671Y-97390986D01*
X124575358Y-97267791D01*
X124598070Y-97132796D01*
X124598214Y-97121000D01*
X124597369Y-97115101D01*
X124982622Y-97115101D01*
X124983316Y-97120408D01*
X124983316Y-97120411D01*
X124985016Y-97133409D01*
X125000372Y-97250838D01*
X125055505Y-97376137D01*
X125143589Y-97480926D01*
X125148048Y-97483894D01*
X125148049Y-97483895D01*
X125160942Y-97492477D01*
X125257543Y-97556781D01*
X125262655Y-97558378D01*
X125262657Y-97558379D01*
X125344096Y-97583822D01*
X125388207Y-97597603D01*
X125417009Y-97598131D01*
X125432114Y-97598408D01*
X125462517Y-97605441D01*
X125465821Y-97606982D01*
X125483373Y-97602279D01*
X125504213Y-97599730D01*
X125519714Y-97600014D01*
X125519716Y-97600014D01*
X125525077Y-97600112D01*
X125530248Y-97598702D01*
X125530250Y-97598702D01*
X125633894Y-97570445D01*
X125657149Y-97564105D01*
X125773806Y-97492477D01*
X125777398Y-97488509D01*
X125777400Y-97488507D01*
X125835582Y-97424228D01*
X125865671Y-97390986D01*
X125871028Y-97379930D01*
X164854345Y-97379930D01*
X164854653Y-97383598D01*
X164854653Y-97383601D01*
X164869196Y-97556781D01*
X164870803Y-97575919D01*
X164925015Y-97764979D01*
X165014916Y-97939908D01*
X165017201Y-97942791D01*
X165032127Y-97961623D01*
X165137083Y-98094044D01*
X165139877Y-98096422D01*
X165139878Y-98096423D01*
X165174691Y-98126051D01*
X165286862Y-98221516D01*
X165290063Y-98223305D01*
X165290066Y-98223307D01*
X165328656Y-98244874D01*
X165458547Y-98317467D01*
X165462044Y-98318603D01*
X165462048Y-98318605D01*
X165554615Y-98348681D01*
X165645600Y-98378244D01*
X165745755Y-98390187D01*
X165837237Y-98401096D01*
X165837239Y-98401096D01*
X165840895Y-98401532D01*
X166036994Y-98386443D01*
X166151061Y-98354595D01*
X166222883Y-98334542D01*
X166222885Y-98334541D01*
X166226428Y-98333552D01*
X166401981Y-98244874D01*
X166556966Y-98123786D01*
X166685480Y-97974901D01*
X166695021Y-97958106D01*
X166780810Y-97807091D01*
X166780812Y-97807088D01*
X166782628Y-97803890D01*
X166835285Y-97645598D01*
X166843548Y-97620760D01*
X166843549Y-97620757D01*
X166844710Y-97617266D01*
X166869360Y-97422138D01*
X166869753Y-97394000D01*
X166869548Y-97391907D01*
X166850921Y-97201927D01*
X166850920Y-97201922D01*
X166850561Y-97198260D01*
X166793714Y-97009975D01*
X166701379Y-96836318D01*
X166577072Y-96683903D01*
X166544724Y-96657142D01*
X166428359Y-96560877D01*
X166425528Y-96558535D01*
X166252520Y-96464990D01*
X166064637Y-96406830D01*
X165941766Y-96393916D01*
X165872690Y-96386656D01*
X165872689Y-96386656D01*
X165869035Y-96386272D01*
X165784633Y-96393953D01*
X165676824Y-96403764D01*
X165676823Y-96403764D01*
X165673166Y-96404097D01*
X165669641Y-96405134D01*
X165669638Y-96405135D01*
X165610254Y-96422613D01*
X165484489Y-96459628D01*
X165310192Y-96550748D01*
X165287102Y-96569313D01*
X165162524Y-96669476D01*
X165156912Y-96673988D01*
X165030489Y-96824653D01*
X165028718Y-96827875D01*
X165028717Y-96827876D01*
X164978950Y-96918402D01*
X164935739Y-96997004D01*
X164876269Y-97184476D01*
X164854345Y-97379930D01*
X125871028Y-97379930D01*
X125925358Y-97267791D01*
X125948070Y-97132796D01*
X125948214Y-97121000D01*
X125929994Y-96993777D01*
X125929567Y-96990793D01*
X125929566Y-96990789D01*
X125928807Y-96985490D01*
X125872148Y-96860874D01*
X125782790Y-96757169D01*
X125778299Y-96754258D01*
X125776459Y-96752653D01*
X125751598Y-96707619D01*
X125761502Y-96657142D01*
X125773981Y-96642635D01*
X125773806Y-96642477D01*
X125787974Y-96626824D01*
X125865671Y-96540986D01*
X125901644Y-96466738D01*
X125923022Y-96422613D01*
X125923022Y-96422612D01*
X125925358Y-96417791D01*
X125938392Y-96340318D01*
X125947588Y-96285663D01*
X125947588Y-96285659D01*
X125948070Y-96282796D01*
X125948214Y-96271000D01*
X125939998Y-96213635D01*
X125929567Y-96140793D01*
X125929566Y-96140789D01*
X125928807Y-96135490D01*
X125925117Y-96127373D01*
X125879825Y-96027759D01*
X125872148Y-96010874D01*
X125782790Y-95907169D01*
X125778299Y-95904258D01*
X125776459Y-95902653D01*
X125765641Y-95883057D01*
X126345062Y-95883057D01*
X126345756Y-95888364D01*
X126345756Y-95888367D01*
X126350580Y-95925258D01*
X126361883Y-96011693D01*
X126414132Y-96130438D01*
X126497608Y-96229745D01*
X126605602Y-96301631D01*
X126729430Y-96340318D01*
X126796301Y-96341543D01*
X126853778Y-96342597D01*
X126853780Y-96342597D01*
X126859140Y-96342695D01*
X126864311Y-96341285D01*
X126864313Y-96341285D01*
X126931643Y-96322929D01*
X126984303Y-96308572D01*
X127062742Y-96260410D01*
X153669677Y-96260410D01*
X153670371Y-96265717D01*
X153670371Y-96265720D01*
X153672245Y-96280049D01*
X153686498Y-96389046D01*
X153688657Y-96393952D01*
X153688657Y-96393953D01*
X153693567Y-96405112D01*
X153738747Y-96507791D01*
X153822223Y-96607098D01*
X153858020Y-96630926D01*
X153922712Y-96673988D01*
X153930217Y-96678984D01*
X154054045Y-96717671D01*
X154120916Y-96718896D01*
X154178393Y-96719950D01*
X154178395Y-96719950D01*
X154183755Y-96720048D01*
X154188926Y-96718638D01*
X154188928Y-96718638D01*
X154274024Y-96695438D01*
X154308918Y-96685925D01*
X154419473Y-96618044D01*
X154423065Y-96614076D01*
X154423067Y-96614074D01*
X154476934Y-96554562D01*
X154506532Y-96521863D01*
X154563097Y-96405112D01*
X154584620Y-96277179D01*
X154584757Y-96266000D01*
X154584345Y-96263122D01*
X154567125Y-96142876D01*
X154567124Y-96142873D01*
X154566366Y-96137579D01*
X154518628Y-96032585D01*
X154514889Y-96024362D01*
X154514888Y-96024361D01*
X154512670Y-96019482D01*
X154505169Y-96010776D01*
X154431482Y-95925258D01*
X154431481Y-95925257D01*
X154427987Y-95921202D01*
X154422357Y-95917553D01*
X154323616Y-95853552D01*
X154323615Y-95853551D01*
X154319123Y-95850640D01*
X154276567Y-95837913D01*
X154199965Y-95815004D01*
X154199962Y-95815004D01*
X154194831Y-95813469D01*
X154189476Y-95813436D01*
X154189474Y-95813436D01*
X154131364Y-95813081D01*
X154065102Y-95812676D01*
X153940366Y-95848326D01*
X153830648Y-95917553D01*
X153744770Y-96014791D01*
X153742494Y-96019638D01*
X153742493Y-96019640D01*
X153691913Y-96127373D01*
X153689636Y-96132223D01*
X153669677Y-96260410D01*
X127062742Y-96260410D01*
X127094858Y-96240691D01*
X127098450Y-96236723D01*
X127098452Y-96236721D01*
X127135066Y-96196270D01*
X127181917Y-96144510D01*
X127238482Y-96027759D01*
X127260005Y-95899826D01*
X127260142Y-95888647D01*
X127259730Y-95885769D01*
X127242510Y-95765523D01*
X127242509Y-95765520D01*
X127241751Y-95760226D01*
X127206778Y-95683307D01*
X127190274Y-95647009D01*
X127190273Y-95647008D01*
X127188055Y-95642129D01*
X127180554Y-95633423D01*
X127106867Y-95547905D01*
X127106866Y-95547904D01*
X127103372Y-95543849D01*
X127097742Y-95540200D01*
X126999001Y-95476199D01*
X126999000Y-95476198D01*
X126994508Y-95473287D01*
X126989377Y-95471753D01*
X126989376Y-95471752D01*
X126930508Y-95454147D01*
X126889238Y-95423442D01*
X126877360Y-95373392D01*
X126900432Y-95327417D01*
X126932274Y-95309548D01*
X126972630Y-95298546D01*
X127007918Y-95288925D01*
X127118473Y-95221044D01*
X127122065Y-95217076D01*
X127122067Y-95217074D01*
X127164455Y-95170244D01*
X127205532Y-95124863D01*
X127262097Y-95008112D01*
X127283620Y-94880179D01*
X127283757Y-94869000D01*
X127283345Y-94866122D01*
X127275682Y-94812610D01*
X137413677Y-94812610D01*
X137414371Y-94817917D01*
X137414371Y-94817920D01*
X137419089Y-94854000D01*
X137430498Y-94941246D01*
X137432657Y-94946152D01*
X137432657Y-94946153D01*
X137479518Y-95052653D01*
X137482747Y-95059991D01*
X137566223Y-95159298D01*
X137570683Y-95162266D01*
X137570682Y-95162266D01*
X137653020Y-95217074D01*
X137674217Y-95231184D01*
X137798045Y-95269871D01*
X137864916Y-95271096D01*
X137922393Y-95272150D01*
X137922395Y-95272150D01*
X137927755Y-95272248D01*
X137932926Y-95270838D01*
X137932928Y-95270838D01*
X138000258Y-95252482D01*
X138052918Y-95238125D01*
X138163473Y-95170244D01*
X138167065Y-95166276D01*
X138167067Y-95166274D01*
X138244470Y-95080760D01*
X138250532Y-95074063D01*
X138292844Y-94986730D01*
X138304759Y-94962138D01*
X138304759Y-94962137D01*
X138307097Y-94957312D01*
X138326845Y-94839930D01*
X164854345Y-94839930D01*
X164854653Y-94843598D01*
X164854653Y-94843601D01*
X164868468Y-95008112D01*
X164870803Y-95035919D01*
X164925015Y-95224979D01*
X165014916Y-95399908D01*
X165017201Y-95402791D01*
X165031633Y-95421000D01*
X165137083Y-95554044D01*
X165139877Y-95556422D01*
X165139878Y-95556423D01*
X165174691Y-95586051D01*
X165286862Y-95681516D01*
X165290063Y-95683305D01*
X165290066Y-95683307D01*
X165328656Y-95704874D01*
X165458547Y-95777467D01*
X165462044Y-95778603D01*
X165462048Y-95778605D01*
X165554615Y-95808681D01*
X165645600Y-95838244D01*
X165736690Y-95849106D01*
X165837237Y-95861096D01*
X165837239Y-95861096D01*
X165840895Y-95861532D01*
X166036994Y-95846443D01*
X166155212Y-95813436D01*
X166222883Y-95794542D01*
X166222885Y-95794541D01*
X166226428Y-95793552D01*
X166401981Y-95704874D01*
X166556966Y-95583786D01*
X166685480Y-95434901D01*
X166687823Y-95430777D01*
X166780810Y-95267091D01*
X166780812Y-95267088D01*
X166782628Y-95263890D01*
X166819879Y-95151909D01*
X166843548Y-95080760D01*
X166843549Y-95080757D01*
X166844710Y-95077266D01*
X166869360Y-94882138D01*
X166869622Y-94863410D01*
X166869724Y-94856099D01*
X166869724Y-94856093D01*
X166869753Y-94854000D01*
X166869548Y-94851907D01*
X166850921Y-94661927D01*
X166850920Y-94661922D01*
X166850561Y-94658260D01*
X166793714Y-94469975D01*
X166701379Y-94296318D01*
X166577072Y-94143903D01*
X166571419Y-94139226D01*
X166428359Y-94020877D01*
X166425528Y-94018535D01*
X166252520Y-93924990D01*
X166064637Y-93866830D01*
X165912479Y-93850838D01*
X165872690Y-93846656D01*
X165872689Y-93846656D01*
X165869035Y-93846272D01*
X165818862Y-93850838D01*
X165676824Y-93863764D01*
X165676823Y-93863764D01*
X165673166Y-93864097D01*
X165669641Y-93865134D01*
X165669638Y-93865135D01*
X165611399Y-93882276D01*
X165484489Y-93919628D01*
X165310192Y-94010748D01*
X165307328Y-94013051D01*
X165170417Y-94123130D01*
X165156912Y-94133988D01*
X165030489Y-94284653D01*
X165028718Y-94287875D01*
X165028717Y-94287876D01*
X164952380Y-94426734D01*
X164935739Y-94457004D01*
X164876269Y-94644476D01*
X164854345Y-94839930D01*
X138326845Y-94839930D01*
X138328620Y-94829379D01*
X138328757Y-94818200D01*
X138328345Y-94815322D01*
X138311125Y-94695076D01*
X138311124Y-94695073D01*
X138310366Y-94689779D01*
X138296035Y-94658260D01*
X138258889Y-94576562D01*
X138258888Y-94576561D01*
X138256670Y-94571682D01*
X138251000Y-94565101D01*
X138175482Y-94477458D01*
X138175481Y-94477457D01*
X138171987Y-94473402D01*
X138166357Y-94469753D01*
X138067616Y-94405752D01*
X138067615Y-94405751D01*
X138063123Y-94402840D01*
X138020567Y-94390113D01*
X137943965Y-94367204D01*
X137943962Y-94367204D01*
X137938831Y-94365669D01*
X137933476Y-94365636D01*
X137933474Y-94365636D01*
X137875364Y-94365281D01*
X137809102Y-94364876D01*
X137684366Y-94400526D01*
X137574648Y-94469753D01*
X137488770Y-94566991D01*
X137486494Y-94571838D01*
X137486493Y-94571840D01*
X137447576Y-94654731D01*
X137433636Y-94684423D01*
X137413677Y-94812610D01*
X127275682Y-94812610D01*
X127266125Y-94745876D01*
X127266124Y-94745873D01*
X127265366Y-94740579D01*
X127244677Y-94695076D01*
X127213889Y-94627362D01*
X127213888Y-94627361D01*
X127211670Y-94622482D01*
X127204169Y-94613776D01*
X127130482Y-94528258D01*
X127130481Y-94528257D01*
X127126987Y-94524202D01*
X127121357Y-94520553D01*
X127022616Y-94456552D01*
X127022615Y-94456551D01*
X127018123Y-94453640D01*
X126975165Y-94440793D01*
X126898965Y-94418004D01*
X126898962Y-94418004D01*
X126893831Y-94416469D01*
X126888476Y-94416436D01*
X126888474Y-94416436D01*
X126830364Y-94416081D01*
X126764102Y-94415676D01*
X126639366Y-94451326D01*
X126529648Y-94520553D01*
X126443770Y-94617791D01*
X126441494Y-94622638D01*
X126441493Y-94622640D01*
X126412486Y-94684423D01*
X126388636Y-94735223D01*
X126368677Y-94863410D01*
X126369371Y-94868717D01*
X126369371Y-94868720D01*
X126371126Y-94882138D01*
X126385498Y-94992046D01*
X126387657Y-94996952D01*
X126387657Y-94996953D01*
X126419464Y-95069239D01*
X126437747Y-95110791D01*
X126521223Y-95210098D01*
X126629217Y-95281984D01*
X126698690Y-95303689D01*
X126739581Y-95334896D01*
X126750846Y-95385088D01*
X126727213Y-95430777D01*
X126696929Y-95447772D01*
X126615751Y-95470973D01*
X126506033Y-95540200D01*
X126420155Y-95637438D01*
X126417879Y-95642285D01*
X126417878Y-95642287D01*
X126397279Y-95686162D01*
X126365021Y-95754870D01*
X126345062Y-95883057D01*
X125765641Y-95883057D01*
X125751598Y-95857619D01*
X125761502Y-95807142D01*
X125773981Y-95792635D01*
X125773806Y-95792477D01*
X125789017Y-95775672D01*
X125865671Y-95690986D01*
X125925358Y-95567791D01*
X125941647Y-95470973D01*
X125947588Y-95435663D01*
X125947588Y-95435659D01*
X125948070Y-95432796D01*
X125948214Y-95421000D01*
X125934186Y-95323048D01*
X125929567Y-95290793D01*
X125929566Y-95290789D01*
X125928807Y-95285490D01*
X125922787Y-95272248D01*
X125892664Y-95205997D01*
X125872148Y-95160874D01*
X125782790Y-95057169D01*
X125778299Y-95054258D01*
X125776459Y-95052653D01*
X125751598Y-95007619D01*
X125761502Y-94957142D01*
X125773981Y-94942635D01*
X125773806Y-94942477D01*
X125826530Y-94884228D01*
X125865671Y-94840986D01*
X125911751Y-94745876D01*
X125923022Y-94722613D01*
X125923022Y-94722612D01*
X125925358Y-94717791D01*
X125941393Y-94622482D01*
X125947588Y-94585663D01*
X125947588Y-94585659D01*
X125948070Y-94582796D01*
X125948214Y-94571000D01*
X125939998Y-94513635D01*
X125929567Y-94440793D01*
X125929566Y-94440789D01*
X125928807Y-94435490D01*
X125924186Y-94425325D01*
X125888345Y-94346498D01*
X125872148Y-94310874D01*
X125782790Y-94207169D01*
X125778299Y-94204258D01*
X125776459Y-94202653D01*
X125751598Y-94157619D01*
X125761502Y-94107142D01*
X125773981Y-94092635D01*
X125773806Y-94092477D01*
X125787974Y-94076824D01*
X125857684Y-93999810D01*
X139775877Y-93999810D01*
X139776571Y-94005117D01*
X139776571Y-94005120D01*
X139784676Y-94067098D01*
X139792698Y-94128446D01*
X139794857Y-94133352D01*
X139794857Y-94133353D01*
X139800754Y-94146755D01*
X139844947Y-94247191D01*
X139928423Y-94346498D01*
X140036417Y-94418384D01*
X140160245Y-94457071D01*
X140227116Y-94458296D01*
X140284593Y-94459350D01*
X140284595Y-94459350D01*
X140289955Y-94459448D01*
X140295126Y-94458038D01*
X140295128Y-94458038D01*
X140379142Y-94435133D01*
X140415118Y-94425325D01*
X140525673Y-94357444D01*
X140529265Y-94353476D01*
X140529267Y-94353474D01*
X140578066Y-94299561D01*
X140612732Y-94261263D01*
X140669297Y-94144512D01*
X140690820Y-94016579D01*
X140690957Y-94005400D01*
X140690545Y-94002522D01*
X140673325Y-93882276D01*
X140673324Y-93882273D01*
X140672566Y-93876979D01*
X140668446Y-93867917D01*
X140621089Y-93763762D01*
X140621088Y-93763761D01*
X140618870Y-93758882D01*
X140611369Y-93750176D01*
X140585721Y-93720410D01*
X150901077Y-93720410D01*
X150901771Y-93725717D01*
X150901771Y-93725720D01*
X150906108Y-93758882D01*
X150917898Y-93849046D01*
X150920057Y-93853952D01*
X150920057Y-93853953D01*
X150948498Y-93918589D01*
X150970147Y-93967791D01*
X151053623Y-94067098D01*
X151058083Y-94070066D01*
X151058082Y-94070066D01*
X151154112Y-94133988D01*
X151161617Y-94138984D01*
X151285445Y-94177671D01*
X151352316Y-94178896D01*
X151409793Y-94179950D01*
X151409795Y-94179950D01*
X151415155Y-94180048D01*
X151420326Y-94178638D01*
X151420328Y-94178638D01*
X151497424Y-94157619D01*
X151540318Y-94145925D01*
X151650873Y-94078044D01*
X151654465Y-94074076D01*
X151654467Y-94074074D01*
X151706319Y-94016788D01*
X151737932Y-93981863D01*
X151791109Y-93872105D01*
X151792159Y-93869938D01*
X151792159Y-93869937D01*
X151794497Y-93865112D01*
X151816020Y-93737179D01*
X151816157Y-93726000D01*
X151815441Y-93721000D01*
X151798525Y-93602876D01*
X151798524Y-93602873D01*
X151797766Y-93597579D01*
X151792617Y-93586255D01*
X151746289Y-93484362D01*
X151746288Y-93484361D01*
X151744070Y-93479482D01*
X151736569Y-93470776D01*
X151662882Y-93385258D01*
X151662881Y-93385257D01*
X151659387Y-93381202D01*
X151653757Y-93377553D01*
X151555016Y-93313552D01*
X151555015Y-93313551D01*
X151550523Y-93310640D01*
X151499691Y-93295438D01*
X151431365Y-93275004D01*
X151431362Y-93275004D01*
X151426231Y-93273469D01*
X151420876Y-93273436D01*
X151420874Y-93273436D01*
X151362764Y-93273081D01*
X151296502Y-93272676D01*
X151171766Y-93308326D01*
X151062048Y-93377553D01*
X150976170Y-93474791D01*
X150973894Y-93479638D01*
X150973893Y-93479640D01*
X150939194Y-93553548D01*
X150921036Y-93592223D01*
X150901077Y-93720410D01*
X140585721Y-93720410D01*
X140537682Y-93664658D01*
X140537681Y-93664657D01*
X140534187Y-93660602D01*
X140528557Y-93656953D01*
X140429816Y-93592952D01*
X140429815Y-93592951D01*
X140425323Y-93590040D01*
X140374992Y-93574988D01*
X140306165Y-93554404D01*
X140306162Y-93554404D01*
X140301031Y-93552869D01*
X140295676Y-93552836D01*
X140295674Y-93552836D01*
X140237564Y-93552481D01*
X140171302Y-93552076D01*
X140046566Y-93587726D01*
X139936848Y-93656953D01*
X139850970Y-93754191D01*
X139848694Y-93759038D01*
X139848693Y-93759040D01*
X139804132Y-93853953D01*
X139795836Y-93871623D01*
X139775877Y-93999810D01*
X125857684Y-93999810D01*
X125865671Y-93990986D01*
X125918340Y-93882276D01*
X125923022Y-93872613D01*
X125923022Y-93872612D01*
X125925358Y-93867791D01*
X125943681Y-93758882D01*
X125947588Y-93735663D01*
X125947588Y-93735659D01*
X125948070Y-93732796D01*
X125948118Y-93728913D01*
X125948178Y-93723910D01*
X125948214Y-93721000D01*
X125931297Y-93602876D01*
X125929567Y-93590793D01*
X125929566Y-93590789D01*
X125928807Y-93585490D01*
X125913976Y-93552869D01*
X125878762Y-93475421D01*
X125872148Y-93460874D01*
X125782790Y-93357169D01*
X125778299Y-93354258D01*
X125776459Y-93352653D01*
X125751598Y-93307619D01*
X125761502Y-93257142D01*
X125773981Y-93242635D01*
X125773806Y-93242477D01*
X125812774Y-93199426D01*
X125865671Y-93140986D01*
X125904903Y-93060010D01*
X140690277Y-93060010D01*
X140690971Y-93065317D01*
X140690971Y-93065320D01*
X140692845Y-93079649D01*
X140707098Y-93188646D01*
X140709257Y-93193552D01*
X140709257Y-93193553D01*
X140754616Y-93296640D01*
X140759347Y-93307391D01*
X140842823Y-93406698D01*
X140950817Y-93478584D01*
X141074645Y-93517271D01*
X141141516Y-93518496D01*
X141198993Y-93519550D01*
X141198995Y-93519550D01*
X141204355Y-93519648D01*
X141209526Y-93518238D01*
X141209528Y-93518238D01*
X141276858Y-93499882D01*
X141329518Y-93485525D01*
X141440073Y-93417644D01*
X141443665Y-93413676D01*
X141443667Y-93413674D01*
X141498900Y-93352653D01*
X141527132Y-93321463D01*
X141567254Y-93238651D01*
X141581359Y-93209538D01*
X141581359Y-93209537D01*
X141583697Y-93204712D01*
X141605220Y-93076779D01*
X141605357Y-93065600D01*
X141604945Y-93062722D01*
X141587725Y-92942476D01*
X141587724Y-92942473D01*
X141586966Y-92937179D01*
X141554194Y-92865101D01*
X141535489Y-92823962D01*
X141535488Y-92823961D01*
X141533270Y-92819082D01*
X141525769Y-92810376D01*
X141452082Y-92724858D01*
X141452081Y-92724857D01*
X141448587Y-92720802D01*
X141442957Y-92717153D01*
X141344216Y-92653152D01*
X141344215Y-92653151D01*
X141339723Y-92650240D01*
X141297167Y-92637513D01*
X141220565Y-92614604D01*
X141220562Y-92614604D01*
X141215431Y-92613069D01*
X141210076Y-92613036D01*
X141210074Y-92613036D01*
X141151964Y-92612681D01*
X141085702Y-92612276D01*
X140960966Y-92647926D01*
X140851248Y-92717153D01*
X140765370Y-92814391D01*
X140763094Y-92819238D01*
X140763093Y-92819240D01*
X140741562Y-92865101D01*
X140710236Y-92931823D01*
X140690277Y-93060010D01*
X125904903Y-93060010D01*
X125925358Y-93017791D01*
X125938029Y-92942476D01*
X125947588Y-92885663D01*
X125947588Y-92885659D01*
X125948070Y-92882796D01*
X125948214Y-92871000D01*
X125939532Y-92810376D01*
X125929567Y-92740793D01*
X125929566Y-92740789D01*
X125928807Y-92735490D01*
X125924893Y-92726880D01*
X125874367Y-92615755D01*
X125872148Y-92610874D01*
X125839729Y-92573250D01*
X164894198Y-92573250D01*
X164894354Y-92576235D01*
X164924470Y-92681261D01*
X164927164Y-92688063D01*
X165013657Y-92856363D01*
X165017623Y-92862518D01*
X165135164Y-93010817D01*
X165140240Y-93016074D01*
X165284355Y-93138725D01*
X165290353Y-93142894D01*
X165455537Y-93235211D01*
X165462250Y-93238144D01*
X165595389Y-93281403D01*
X165606192Y-93281026D01*
X165606994Y-93280304D01*
X165608000Y-93276269D01*
X165608000Y-93270606D01*
X166116000Y-93270606D01*
X166119697Y-93280763D01*
X166121374Y-93281732D01*
X166124122Y-93281597D01*
X166222701Y-93254073D01*
X166229534Y-93251422D01*
X166398428Y-93166108D01*
X166404611Y-93162184D01*
X166553720Y-93045687D01*
X166559023Y-93040637D01*
X166682664Y-92897397D01*
X166686886Y-92891412D01*
X166780354Y-92726880D01*
X166783328Y-92720200D01*
X166829773Y-92580582D01*
X166829471Y-92569777D01*
X166828850Y-92569078D01*
X166824590Y-92568000D01*
X166129259Y-92568000D01*
X166119102Y-92571697D01*
X166116000Y-92577069D01*
X166116000Y-93270606D01*
X165608000Y-93270606D01*
X165608000Y-92581259D01*
X165604303Y-92571102D01*
X165598931Y-92568000D01*
X164905252Y-92568000D01*
X164895095Y-92571697D01*
X164894198Y-92573250D01*
X125839729Y-92573250D01*
X125832053Y-92564341D01*
X125786284Y-92511223D01*
X125786281Y-92511220D01*
X125782790Y-92507169D01*
X125776850Y-92503319D01*
X125672410Y-92435624D01*
X125672409Y-92435623D01*
X125667917Y-92432712D01*
X125622729Y-92419198D01*
X125541898Y-92395024D01*
X125541895Y-92395024D01*
X125536764Y-92393489D01*
X125531408Y-92393456D01*
X125531406Y-92393456D01*
X125498862Y-92393257D01*
X125467541Y-92386212D01*
X125464980Y-92385018D01*
X125445461Y-92390248D01*
X125425539Y-92392810D01*
X125399875Y-92392653D01*
X125268252Y-92430271D01*
X125152479Y-92503319D01*
X125061861Y-92605924D01*
X125059585Y-92610771D01*
X125059584Y-92610773D01*
X125057245Y-92615755D01*
X125003683Y-92729839D01*
X124982622Y-92865101D01*
X124983316Y-92870408D01*
X124983316Y-92870411D01*
X124986845Y-92897397D01*
X125000372Y-93000838D01*
X125055505Y-93126137D01*
X125143589Y-93230926D01*
X125148049Y-93233895D01*
X125152042Y-93237465D01*
X125150982Y-93238651D01*
X125177425Y-93274589D01*
X125174146Y-93325924D01*
X125154929Y-93351773D01*
X125152479Y-93353319D01*
X125061861Y-93455924D01*
X125059585Y-93460771D01*
X125059584Y-93460773D01*
X125050726Y-93479640D01*
X125003683Y-93579839D01*
X124982622Y-93715101D01*
X124983316Y-93720408D01*
X124983316Y-93720410D01*
X124984047Y-93726000D01*
X125000372Y-93850838D01*
X125055505Y-93976137D01*
X125143589Y-94080926D01*
X125148049Y-94083895D01*
X125152042Y-94087465D01*
X125150982Y-94088651D01*
X125177425Y-94124589D01*
X125174146Y-94175924D01*
X125154929Y-94201773D01*
X125152479Y-94203319D01*
X125061861Y-94305924D01*
X125059585Y-94310771D01*
X125059584Y-94310773D01*
X125041418Y-94349466D01*
X125003683Y-94429839D01*
X124982622Y-94565101D01*
X124983316Y-94570408D01*
X124983316Y-94570411D01*
X124990146Y-94622640D01*
X125000372Y-94700838D01*
X125055505Y-94826137D01*
X125143589Y-94930926D01*
X125148049Y-94933895D01*
X125152042Y-94937465D01*
X125150982Y-94938651D01*
X125177425Y-94974589D01*
X125174146Y-95025924D01*
X125154929Y-95051773D01*
X125152479Y-95053319D01*
X125061861Y-95155924D01*
X125059585Y-95160771D01*
X125059584Y-95160773D01*
X125038352Y-95205997D01*
X125003683Y-95279839D01*
X124982622Y-95415101D01*
X124983316Y-95420408D01*
X124983316Y-95420411D01*
X124986894Y-95447772D01*
X125000372Y-95550838D01*
X125055505Y-95676137D01*
X125143589Y-95780926D01*
X125148049Y-95783895D01*
X125152042Y-95787465D01*
X125150982Y-95788651D01*
X125177425Y-95824589D01*
X125174146Y-95875924D01*
X125154929Y-95901773D01*
X125152479Y-95903319D01*
X125061861Y-96005924D01*
X125059585Y-96010771D01*
X125059584Y-96010773D01*
X125034680Y-96063817D01*
X125003683Y-96129839D01*
X124982622Y-96265101D01*
X124983316Y-96270408D01*
X124983316Y-96270411D01*
X124988491Y-96309981D01*
X125000372Y-96400838D01*
X125055505Y-96526137D01*
X125143589Y-96630926D01*
X125148049Y-96633895D01*
X125152042Y-96637465D01*
X125150982Y-96638651D01*
X125177425Y-96674589D01*
X125174146Y-96725924D01*
X125154929Y-96751773D01*
X125152479Y-96753319D01*
X125061861Y-96855924D01*
X125003683Y-96979839D01*
X124982622Y-97115101D01*
X124597369Y-97115101D01*
X124579994Y-96993777D01*
X124579567Y-96990793D01*
X124579566Y-96990789D01*
X124578807Y-96985490D01*
X124522148Y-96860874D01*
X124432790Y-96757169D01*
X124428299Y-96754258D01*
X124426459Y-96752653D01*
X124401598Y-96707619D01*
X124411502Y-96657142D01*
X124423981Y-96642635D01*
X124423806Y-96642477D01*
X124437974Y-96626824D01*
X124515671Y-96540986D01*
X124551644Y-96466738D01*
X124573022Y-96422613D01*
X124573022Y-96422612D01*
X124575358Y-96417791D01*
X124588392Y-96340318D01*
X124597588Y-96285663D01*
X124597588Y-96285659D01*
X124598070Y-96282796D01*
X124598214Y-96271000D01*
X124589998Y-96213635D01*
X124579567Y-96140793D01*
X124579566Y-96140789D01*
X124578807Y-96135490D01*
X124575117Y-96127373D01*
X124529825Y-96027759D01*
X124522148Y-96010874D01*
X124432790Y-95907169D01*
X124428299Y-95904258D01*
X124426459Y-95902653D01*
X124401598Y-95857619D01*
X124411502Y-95807142D01*
X124423981Y-95792635D01*
X124423806Y-95792477D01*
X124439017Y-95775672D01*
X124515671Y-95690986D01*
X124575358Y-95567791D01*
X124591647Y-95470973D01*
X124597588Y-95435663D01*
X124597588Y-95435659D01*
X124598070Y-95432796D01*
X124598214Y-95421000D01*
X124584186Y-95323048D01*
X124579567Y-95290793D01*
X124579566Y-95290789D01*
X124578807Y-95285490D01*
X124572787Y-95272248D01*
X124542664Y-95205997D01*
X124522148Y-95160874D01*
X124432790Y-95057169D01*
X124428299Y-95054258D01*
X124426459Y-95052653D01*
X124401598Y-95007619D01*
X124411502Y-94957142D01*
X124423981Y-94942635D01*
X124423806Y-94942477D01*
X124476530Y-94884228D01*
X124515671Y-94840986D01*
X124561751Y-94745876D01*
X124573022Y-94722613D01*
X124573022Y-94722612D01*
X124575358Y-94717791D01*
X124591393Y-94622482D01*
X124597588Y-94585663D01*
X124597588Y-94585659D01*
X124598070Y-94582796D01*
X124598214Y-94571000D01*
X124589998Y-94513635D01*
X124579567Y-94440793D01*
X124579566Y-94440789D01*
X124578807Y-94435490D01*
X124574186Y-94425325D01*
X124538345Y-94346498D01*
X124522148Y-94310874D01*
X124432790Y-94207169D01*
X124428299Y-94204258D01*
X124426459Y-94202653D01*
X124401598Y-94157619D01*
X124411502Y-94107142D01*
X124423981Y-94092635D01*
X124423806Y-94092477D01*
X124437974Y-94076824D01*
X124515671Y-93990986D01*
X124568340Y-93882276D01*
X124573022Y-93872613D01*
X124573022Y-93872612D01*
X124575358Y-93867791D01*
X124593681Y-93758882D01*
X124597588Y-93735663D01*
X124597588Y-93735659D01*
X124598070Y-93732796D01*
X124598118Y-93728913D01*
X124598178Y-93723910D01*
X124598214Y-93721000D01*
X124581297Y-93602876D01*
X124579567Y-93590793D01*
X124579566Y-93590789D01*
X124578807Y-93585490D01*
X124563976Y-93552869D01*
X124528762Y-93475421D01*
X124522148Y-93460874D01*
X124432790Y-93357169D01*
X124428299Y-93354258D01*
X124426459Y-93352653D01*
X124401598Y-93307619D01*
X124411502Y-93257142D01*
X124423981Y-93242635D01*
X124423806Y-93242477D01*
X124462774Y-93199426D01*
X124515671Y-93140986D01*
X124575358Y-93017791D01*
X124588029Y-92942476D01*
X124597588Y-92885663D01*
X124597588Y-92885659D01*
X124598070Y-92882796D01*
X124598214Y-92871000D01*
X124589532Y-92810376D01*
X124579567Y-92740793D01*
X124579566Y-92740789D01*
X124578807Y-92735490D01*
X124574893Y-92726880D01*
X124524367Y-92615755D01*
X124522148Y-92610874D01*
X124482053Y-92564341D01*
X124436284Y-92511223D01*
X124436281Y-92511220D01*
X124432790Y-92507169D01*
X124426850Y-92503319D01*
X124322410Y-92435624D01*
X124322409Y-92435623D01*
X124317917Y-92432712D01*
X124272729Y-92419198D01*
X124191898Y-92395024D01*
X124191895Y-92395024D01*
X124186764Y-92393489D01*
X124181408Y-92393456D01*
X124181406Y-92393456D01*
X124148862Y-92393257D01*
X124117541Y-92386212D01*
X124114980Y-92385018D01*
X124095461Y-92390248D01*
X124075539Y-92392810D01*
X124049875Y-92392653D01*
X123918252Y-92430271D01*
X123802479Y-92503319D01*
X123711861Y-92605924D01*
X123709585Y-92610771D01*
X123709584Y-92610773D01*
X123707245Y-92615755D01*
X123653683Y-92729839D01*
X123632622Y-92865101D01*
X123633316Y-92870408D01*
X123633316Y-92870411D01*
X123636845Y-92897397D01*
X123650372Y-93000838D01*
X123705505Y-93126137D01*
X123793589Y-93230926D01*
X123798049Y-93233895D01*
X123802042Y-93237465D01*
X123800982Y-93238651D01*
X123827425Y-93274589D01*
X123824146Y-93325924D01*
X123804929Y-93351773D01*
X123802479Y-93353319D01*
X123711861Y-93455924D01*
X123709585Y-93460771D01*
X123709584Y-93460773D01*
X123700726Y-93479640D01*
X123653683Y-93579839D01*
X123632622Y-93715101D01*
X123633316Y-93720408D01*
X123633316Y-93720410D01*
X123634047Y-93726000D01*
X123650372Y-93850838D01*
X123705505Y-93976137D01*
X123793589Y-94080926D01*
X123798049Y-94083895D01*
X123802042Y-94087465D01*
X123800982Y-94088651D01*
X123827425Y-94124589D01*
X123824146Y-94175924D01*
X123804929Y-94201773D01*
X123802479Y-94203319D01*
X123711861Y-94305924D01*
X123709585Y-94310771D01*
X123709584Y-94310773D01*
X123691418Y-94349466D01*
X123653683Y-94429839D01*
X123632622Y-94565101D01*
X123633316Y-94570408D01*
X123633316Y-94570411D01*
X123640146Y-94622640D01*
X123650372Y-94700838D01*
X123705505Y-94826137D01*
X123793589Y-94930926D01*
X123798049Y-94933895D01*
X123802042Y-94937465D01*
X123800982Y-94938651D01*
X123827425Y-94974589D01*
X123824146Y-95025924D01*
X123804929Y-95051773D01*
X123802479Y-95053319D01*
X123711861Y-95155924D01*
X123709585Y-95160771D01*
X123709584Y-95160773D01*
X123688352Y-95205997D01*
X123653683Y-95279839D01*
X123632622Y-95415101D01*
X123633316Y-95420408D01*
X123633316Y-95420411D01*
X123636894Y-95447772D01*
X123650372Y-95550838D01*
X123705505Y-95676137D01*
X123793589Y-95780926D01*
X123798049Y-95783895D01*
X123802042Y-95787465D01*
X123800982Y-95788651D01*
X123827425Y-95824589D01*
X123824146Y-95875924D01*
X123804929Y-95901773D01*
X123802479Y-95903319D01*
X123711861Y-96005924D01*
X123709585Y-96010771D01*
X123709584Y-96010773D01*
X123684680Y-96063817D01*
X123653683Y-96129839D01*
X123632622Y-96265101D01*
X123633316Y-96270408D01*
X123633316Y-96270411D01*
X123638491Y-96309981D01*
X123650372Y-96400838D01*
X123705505Y-96526137D01*
X123793589Y-96630926D01*
X123798049Y-96633895D01*
X123802042Y-96637465D01*
X123800982Y-96638651D01*
X123827425Y-96674589D01*
X123824146Y-96725924D01*
X123804929Y-96751773D01*
X123802479Y-96753319D01*
X123711861Y-96855924D01*
X123653683Y-96979839D01*
X123632622Y-97115101D01*
X121868929Y-97115101D01*
X121862004Y-97074800D01*
X121795456Y-96918402D01*
X121694713Y-96781507D01*
X121565179Y-96671460D01*
X121413804Y-96594164D01*
X121248706Y-96553765D01*
X121245365Y-96553558D01*
X121245360Y-96553557D01*
X121242048Y-96553352D01*
X121237986Y-96553100D01*
X121115440Y-96553100D01*
X121113280Y-96553352D01*
X121113277Y-96553352D01*
X121083807Y-96556788D01*
X120989175Y-96567821D01*
X120985066Y-96569313D01*
X120985064Y-96569313D01*
X120833514Y-96624323D01*
X120833512Y-96624324D01*
X120829407Y-96625814D01*
X120803992Y-96642477D01*
X120704634Y-96707619D01*
X120687264Y-96719007D01*
X120570374Y-96842399D01*
X120568180Y-96846177D01*
X120568178Y-96846179D01*
X120523891Y-96922425D01*
X120485004Y-96989373D01*
X120448882Y-97108641D01*
X120441566Y-97132796D01*
X120435736Y-97152044D01*
X120435466Y-97156400D01*
X120435465Y-97156404D01*
X120428883Y-97262511D01*
X120425212Y-97321686D01*
X119685300Y-97321686D01*
X119685300Y-92020418D01*
X123633821Y-92020418D01*
X123646321Y-92116001D01*
X123650311Y-92123683D01*
X123654973Y-92122217D01*
X123746813Y-92030377D01*
X123750988Y-92021422D01*
X124479418Y-92021422D01*
X124481023Y-92027413D01*
X124572178Y-92118568D01*
X124580023Y-92122226D01*
X124583306Y-92117538D01*
X124597082Y-92035653D01*
X124597601Y-92029872D01*
X124597673Y-92023909D01*
X124597446Y-92020418D01*
X124983821Y-92020418D01*
X124996321Y-92116001D01*
X125000311Y-92123683D01*
X125004973Y-92122217D01*
X125096813Y-92030377D01*
X125100988Y-92021422D01*
X125829418Y-92021422D01*
X125831023Y-92027413D01*
X125922178Y-92118568D01*
X125930023Y-92122226D01*
X125933306Y-92117538D01*
X125947082Y-92035653D01*
X125947601Y-92029872D01*
X125947673Y-92023909D01*
X125947296Y-92018119D01*
X125934168Y-91926449D01*
X125930084Y-91918817D01*
X125925188Y-91920422D01*
X125833987Y-92011623D01*
X125829418Y-92021422D01*
X125100988Y-92021422D01*
X125101382Y-92020578D01*
X125099777Y-92014587D01*
X125008290Y-91923100D01*
X125000445Y-91919442D01*
X124997330Y-91923890D01*
X124983951Y-92009818D01*
X124983821Y-92020418D01*
X124597446Y-92020418D01*
X124597296Y-92018119D01*
X124584168Y-91926449D01*
X124580084Y-91918817D01*
X124575188Y-91920422D01*
X124483987Y-92011623D01*
X124479418Y-92021422D01*
X123750988Y-92021422D01*
X123751382Y-92020578D01*
X123749777Y-92014587D01*
X123658290Y-91923100D01*
X123650445Y-91919442D01*
X123647330Y-91923890D01*
X123633951Y-92009818D01*
X123633821Y-92020418D01*
X119685300Y-92020418D01*
X119685300Y-91556556D01*
X124014128Y-91556556D01*
X124017734Y-91564124D01*
X124106023Y-91652413D01*
X124115822Y-91656982D01*
X124121813Y-91655377D01*
X124213117Y-91564073D01*
X124216622Y-91556556D01*
X125364128Y-91556556D01*
X125367734Y-91564124D01*
X125456023Y-91652413D01*
X125465822Y-91656982D01*
X125471813Y-91655377D01*
X125563117Y-91564073D01*
X125566954Y-91555844D01*
X125560322Y-91551056D01*
X125541827Y-91545525D01*
X125531332Y-91543956D01*
X125405297Y-91543186D01*
X125394795Y-91544624D01*
X125371334Y-91551330D01*
X125364128Y-91556556D01*
X124216622Y-91556556D01*
X124216954Y-91555844D01*
X124210322Y-91551056D01*
X124191827Y-91545525D01*
X124181332Y-91543956D01*
X124055297Y-91543186D01*
X124044795Y-91544624D01*
X124021334Y-91551330D01*
X124014128Y-91556556D01*
X119685300Y-91556556D01*
X119685300Y-90928583D01*
X120161992Y-90928583D01*
X120162686Y-90934920D01*
X120177318Y-90970244D01*
X120182205Y-90978709D01*
X120272765Y-91096730D01*
X120279670Y-91103635D01*
X120397693Y-91194197D01*
X120406150Y-91199079D01*
X120543588Y-91256009D01*
X120553029Y-91258538D01*
X120663481Y-91273079D01*
X120668374Y-91273400D01*
X120838141Y-91273400D01*
X120848298Y-91269703D01*
X120851400Y-91264331D01*
X120851400Y-91260141D01*
X121359400Y-91260141D01*
X121363097Y-91270298D01*
X121368469Y-91273400D01*
X121542426Y-91273400D01*
X121547319Y-91273079D01*
X121657771Y-91258538D01*
X121667212Y-91256009D01*
X121804650Y-91199079D01*
X121813107Y-91194197D01*
X121931130Y-91103635D01*
X121938035Y-91096730D01*
X122028595Y-90978709D01*
X122033482Y-90970244D01*
X122047149Y-90937250D01*
X122047527Y-90928583D01*
X123191992Y-90928583D01*
X123192686Y-90934920D01*
X123207318Y-90970244D01*
X123212205Y-90978709D01*
X123302765Y-91096730D01*
X123309670Y-91103635D01*
X123427693Y-91194197D01*
X123436150Y-91199079D01*
X123573588Y-91256009D01*
X123583029Y-91258538D01*
X123693481Y-91273079D01*
X123698374Y-91273400D01*
X124218141Y-91273400D01*
X124228298Y-91269703D01*
X124231400Y-91264331D01*
X124231400Y-91260141D01*
X124739400Y-91260141D01*
X124743097Y-91270298D01*
X124748469Y-91273400D01*
X125272426Y-91273400D01*
X125277319Y-91273079D01*
X125387771Y-91258538D01*
X125397212Y-91256009D01*
X125534650Y-91199079D01*
X125543107Y-91194197D01*
X125607874Y-91144500D01*
X127946305Y-91144500D01*
X127946717Y-91148420D01*
X127958900Y-91264331D01*
X127966232Y-91334094D01*
X128025142Y-91515401D01*
X128120461Y-91680498D01*
X128123101Y-91683430D01*
X128245385Y-91819241D01*
X128245389Y-91819244D01*
X128248023Y-91822170D01*
X128251211Y-91824486D01*
X128251213Y-91824488D01*
X128399065Y-91931909D01*
X128399068Y-91931911D01*
X128402252Y-91934224D01*
X128576409Y-92011764D01*
X128762881Y-92051400D01*
X128953519Y-92051400D01*
X129139991Y-92011764D01*
X129296456Y-91942101D01*
X130965037Y-91942101D01*
X130969576Y-91945843D01*
X131112966Y-92009684D01*
X131120417Y-92012105D01*
X131299082Y-92050081D01*
X131306871Y-92050900D01*
X131489529Y-92050900D01*
X131497318Y-92050081D01*
X131675983Y-92012105D01*
X131683434Y-92009684D01*
X131824058Y-91947074D01*
X131831832Y-91939566D01*
X131828934Y-91934444D01*
X131407577Y-91513087D01*
X131397778Y-91508518D01*
X131391787Y-91510123D01*
X130969606Y-91932304D01*
X130965037Y-91942101D01*
X129296456Y-91942101D01*
X129314148Y-91934224D01*
X129317332Y-91931911D01*
X129317335Y-91931909D01*
X129465187Y-91824488D01*
X129465189Y-91824486D01*
X129468377Y-91822170D01*
X129471011Y-91819244D01*
X129471015Y-91819241D01*
X129593299Y-91683430D01*
X129595939Y-91680498D01*
X129691258Y-91515401D01*
X129750168Y-91334094D01*
X129757501Y-91264331D01*
X129769683Y-91148420D01*
X130487219Y-91148420D01*
X130506311Y-91330071D01*
X130507941Y-91337738D01*
X130564383Y-91511448D01*
X130567571Y-91518609D01*
X130596559Y-91568818D01*
X130604839Y-91575766D01*
X130606990Y-91575766D01*
X130609013Y-91574477D01*
X131029613Y-91153877D01*
X131033788Y-91144922D01*
X131762218Y-91144922D01*
X131763823Y-91150913D01*
X132183834Y-91570924D01*
X132193633Y-91575493D01*
X132195709Y-91574937D01*
X132197328Y-91573170D01*
X132228829Y-91518609D01*
X132232017Y-91511448D01*
X132288459Y-91337738D01*
X132290089Y-91330071D01*
X132309181Y-91148420D01*
X132309181Y-91144500D01*
X133026305Y-91144500D01*
X133026717Y-91148420D01*
X133038900Y-91264331D01*
X133046232Y-91334094D01*
X133105142Y-91515401D01*
X133200461Y-91680498D01*
X133203101Y-91683430D01*
X133325385Y-91819241D01*
X133325389Y-91819244D01*
X133328023Y-91822170D01*
X133331211Y-91824486D01*
X133331213Y-91824488D01*
X133479065Y-91931909D01*
X133479068Y-91931911D01*
X133482252Y-91934224D01*
X133656409Y-92011764D01*
X133842881Y-92051400D01*
X134033519Y-92051400D01*
X134219991Y-92011764D01*
X134394148Y-91934224D01*
X134397332Y-91931911D01*
X134397335Y-91931909D01*
X134545187Y-91824488D01*
X134545189Y-91824486D01*
X134548377Y-91822170D01*
X134551011Y-91819244D01*
X134551015Y-91819241D01*
X134673299Y-91683430D01*
X134675939Y-91680498D01*
X134771258Y-91515401D01*
X134830168Y-91334094D01*
X134837501Y-91264331D01*
X134849683Y-91148420D01*
X134850095Y-91144500D01*
X135566305Y-91144500D01*
X135566717Y-91148420D01*
X135578900Y-91264331D01*
X135586232Y-91334094D01*
X135645142Y-91515401D01*
X135740461Y-91680498D01*
X135743101Y-91683430D01*
X135865385Y-91819241D01*
X135865389Y-91819244D01*
X135868023Y-91822170D01*
X135871211Y-91824486D01*
X135871213Y-91824488D01*
X136019065Y-91931909D01*
X136019068Y-91931911D01*
X136022252Y-91934224D01*
X136196409Y-92011764D01*
X136382881Y-92051400D01*
X136573519Y-92051400D01*
X136759991Y-92011764D01*
X136934148Y-91934224D01*
X136937332Y-91931911D01*
X136937335Y-91931909D01*
X137085187Y-91824488D01*
X137085189Y-91824486D01*
X137088377Y-91822170D01*
X137091011Y-91819244D01*
X137091015Y-91819241D01*
X137213299Y-91683430D01*
X137215939Y-91680498D01*
X137311258Y-91515401D01*
X137370168Y-91334094D01*
X137377501Y-91264331D01*
X137389683Y-91148420D01*
X137390095Y-91144500D01*
X138106305Y-91144500D01*
X138106717Y-91148420D01*
X138118900Y-91264331D01*
X138126232Y-91334094D01*
X138185142Y-91515401D01*
X138280461Y-91680498D01*
X138283101Y-91683430D01*
X138405385Y-91819241D01*
X138405389Y-91819244D01*
X138408023Y-91822170D01*
X138411211Y-91824486D01*
X138411213Y-91824488D01*
X138559065Y-91931909D01*
X138559068Y-91931911D01*
X138562252Y-91934224D01*
X138736409Y-92011764D01*
X138922881Y-92051400D01*
X139113519Y-92051400D01*
X139299991Y-92011764D01*
X139474148Y-91934224D01*
X139477332Y-91931911D01*
X139477335Y-91931909D01*
X139625187Y-91824488D01*
X139625189Y-91824486D01*
X139628377Y-91822170D01*
X139631011Y-91819244D01*
X139631015Y-91819241D01*
X139753299Y-91683430D01*
X139755939Y-91680498D01*
X139851258Y-91515401D01*
X139910168Y-91334094D01*
X139917501Y-91264331D01*
X139929683Y-91148420D01*
X139930095Y-91144500D01*
X140646305Y-91144500D01*
X140646717Y-91148420D01*
X140658900Y-91264331D01*
X140666232Y-91334094D01*
X140725142Y-91515401D01*
X140820461Y-91680498D01*
X140823101Y-91683430D01*
X140945385Y-91819241D01*
X140945389Y-91819244D01*
X140948023Y-91822170D01*
X140951211Y-91824486D01*
X140951213Y-91824488D01*
X141099065Y-91931909D01*
X141099068Y-91931911D01*
X141102252Y-91934224D01*
X141276409Y-92011764D01*
X141462881Y-92051400D01*
X141653519Y-92051400D01*
X141839991Y-92011764D01*
X142014148Y-91934224D01*
X142017332Y-91931911D01*
X142017335Y-91931909D01*
X142165187Y-91824488D01*
X142165189Y-91824486D01*
X142168377Y-91822170D01*
X142171011Y-91819244D01*
X142171015Y-91819241D01*
X142293299Y-91683430D01*
X142295939Y-91680498D01*
X142391258Y-91515401D01*
X142450168Y-91334094D01*
X142457501Y-91264331D01*
X142469683Y-91148420D01*
X142470095Y-91144500D01*
X143186305Y-91144500D01*
X143186717Y-91148420D01*
X143198900Y-91264331D01*
X143206232Y-91334094D01*
X143265142Y-91515401D01*
X143360461Y-91680498D01*
X143363101Y-91683430D01*
X143485385Y-91819241D01*
X143485389Y-91819244D01*
X143488023Y-91822170D01*
X143491211Y-91824486D01*
X143491213Y-91824488D01*
X143639065Y-91931909D01*
X143639068Y-91931911D01*
X143642252Y-91934224D01*
X143816409Y-92011764D01*
X144002881Y-92051400D01*
X144193519Y-92051400D01*
X144379991Y-92011764D01*
X144554148Y-91934224D01*
X144557332Y-91931911D01*
X144557335Y-91931909D01*
X144705187Y-91824488D01*
X144705189Y-91824486D01*
X144708377Y-91822170D01*
X144711011Y-91819244D01*
X144711015Y-91819241D01*
X144833299Y-91683430D01*
X144835939Y-91680498D01*
X144931258Y-91515401D01*
X144990168Y-91334094D01*
X144997501Y-91264331D01*
X145009683Y-91148420D01*
X145010095Y-91144500D01*
X145726305Y-91144500D01*
X145726717Y-91148420D01*
X145738900Y-91264331D01*
X145746232Y-91334094D01*
X145805142Y-91515401D01*
X145900461Y-91680498D01*
X145903101Y-91683430D01*
X146025385Y-91819241D01*
X146025389Y-91819244D01*
X146028023Y-91822170D01*
X146031211Y-91824486D01*
X146031213Y-91824488D01*
X146179065Y-91931909D01*
X146179068Y-91931911D01*
X146182252Y-91934224D01*
X146356409Y-92011764D01*
X146542881Y-92051400D01*
X146733519Y-92051400D01*
X146919991Y-92011764D01*
X147094148Y-91934224D01*
X147097332Y-91931911D01*
X147097335Y-91931909D01*
X147245187Y-91824488D01*
X147245189Y-91824486D01*
X147248377Y-91822170D01*
X147251011Y-91819244D01*
X147251015Y-91819241D01*
X147373299Y-91683430D01*
X147375939Y-91680498D01*
X147471258Y-91515401D01*
X147530168Y-91334094D01*
X147537501Y-91264331D01*
X147549683Y-91148420D01*
X147550095Y-91144500D01*
X148266305Y-91144500D01*
X148266717Y-91148420D01*
X148278900Y-91264331D01*
X148286232Y-91334094D01*
X148345142Y-91515401D01*
X148440461Y-91680498D01*
X148443101Y-91683430D01*
X148565385Y-91819241D01*
X148565389Y-91819244D01*
X148568023Y-91822170D01*
X148571211Y-91824486D01*
X148571213Y-91824488D01*
X148719065Y-91931909D01*
X148719068Y-91931911D01*
X148722252Y-91934224D01*
X148896409Y-92011764D01*
X149082881Y-92051400D01*
X149273519Y-92051400D01*
X149459991Y-92011764D01*
X149616456Y-91942101D01*
X151285037Y-91942101D01*
X151289576Y-91945843D01*
X151432966Y-92009684D01*
X151440417Y-92012105D01*
X151619082Y-92050081D01*
X151626871Y-92050900D01*
X151809529Y-92050900D01*
X151817318Y-92050081D01*
X151995983Y-92012105D01*
X152003434Y-92009684D01*
X152144058Y-91947074D01*
X152151832Y-91939566D01*
X152148934Y-91934444D01*
X151727577Y-91513087D01*
X151717778Y-91508518D01*
X151711787Y-91510123D01*
X151289606Y-91932304D01*
X151285037Y-91942101D01*
X149616456Y-91942101D01*
X149634148Y-91934224D01*
X149637332Y-91931911D01*
X149637335Y-91931909D01*
X149785187Y-91824488D01*
X149785189Y-91824486D01*
X149788377Y-91822170D01*
X149791011Y-91819244D01*
X149791015Y-91819241D01*
X149913299Y-91683430D01*
X149915939Y-91680498D01*
X150011258Y-91515401D01*
X150070168Y-91334094D01*
X150077501Y-91264331D01*
X150089683Y-91148420D01*
X150807219Y-91148420D01*
X150826311Y-91330071D01*
X150827941Y-91337738D01*
X150884383Y-91511448D01*
X150887571Y-91518609D01*
X150916559Y-91568818D01*
X150924839Y-91575766D01*
X150926990Y-91575766D01*
X150929013Y-91574477D01*
X151349613Y-91153877D01*
X151353788Y-91144922D01*
X152082218Y-91144922D01*
X152083823Y-91150913D01*
X152503834Y-91570924D01*
X152513633Y-91575493D01*
X152515709Y-91574937D01*
X152517328Y-91573170D01*
X152548829Y-91518609D01*
X152552017Y-91511448D01*
X152608459Y-91337738D01*
X152610089Y-91330071D01*
X152629181Y-91148420D01*
X152629181Y-91144500D01*
X153346305Y-91144500D01*
X153346717Y-91148420D01*
X153358900Y-91264331D01*
X153366232Y-91334094D01*
X153425142Y-91515401D01*
X153520461Y-91680498D01*
X153523101Y-91683430D01*
X153645385Y-91819241D01*
X153645389Y-91819244D01*
X153648023Y-91822170D01*
X153651211Y-91824486D01*
X153651213Y-91824488D01*
X153799065Y-91931909D01*
X153799068Y-91931911D01*
X153802252Y-91934224D01*
X153976409Y-92011764D01*
X154162881Y-92051400D01*
X154353519Y-92051400D01*
X154539991Y-92011764D01*
X154714148Y-91934224D01*
X154717332Y-91931911D01*
X154717335Y-91931909D01*
X154865187Y-91824488D01*
X154865189Y-91824486D01*
X154868377Y-91822170D01*
X154871011Y-91819244D01*
X154871015Y-91819241D01*
X154993299Y-91683430D01*
X154995939Y-91680498D01*
X155091258Y-91515401D01*
X155150168Y-91334094D01*
X155157501Y-91264331D01*
X155169683Y-91148420D01*
X155170095Y-91144500D01*
X155886305Y-91144500D01*
X155886717Y-91148420D01*
X155898900Y-91264331D01*
X155906232Y-91334094D01*
X155965142Y-91515401D01*
X156060461Y-91680498D01*
X156063101Y-91683430D01*
X156185385Y-91819241D01*
X156185389Y-91819244D01*
X156188023Y-91822170D01*
X156191211Y-91824486D01*
X156191213Y-91824488D01*
X156339065Y-91931909D01*
X156339068Y-91931911D01*
X156342252Y-91934224D01*
X156516409Y-92011764D01*
X156702881Y-92051400D01*
X156893519Y-92051400D01*
X157079991Y-92011764D01*
X157254148Y-91934224D01*
X157257332Y-91931911D01*
X157257335Y-91931909D01*
X157405187Y-91824488D01*
X157405189Y-91824486D01*
X157408377Y-91822170D01*
X157411011Y-91819244D01*
X157411015Y-91819241D01*
X157533299Y-91683430D01*
X157535939Y-91680498D01*
X157631258Y-91515401D01*
X157690168Y-91334094D01*
X157697501Y-91264331D01*
X157709683Y-91148420D01*
X157710095Y-91144500D01*
X158426305Y-91144500D01*
X158426717Y-91148420D01*
X158438900Y-91264331D01*
X158446232Y-91334094D01*
X158505142Y-91515401D01*
X158600461Y-91680498D01*
X158603101Y-91683430D01*
X158725385Y-91819241D01*
X158725389Y-91819244D01*
X158728023Y-91822170D01*
X158731211Y-91824486D01*
X158731213Y-91824488D01*
X158879065Y-91931909D01*
X158879068Y-91931911D01*
X158882252Y-91934224D01*
X159056409Y-92011764D01*
X159242881Y-92051400D01*
X159433519Y-92051400D01*
X159619991Y-92011764D01*
X159794148Y-91934224D01*
X159797332Y-91931911D01*
X159797335Y-91931909D01*
X159945187Y-91824488D01*
X159945189Y-91824486D01*
X159948377Y-91822170D01*
X159951011Y-91819244D01*
X159951015Y-91819241D01*
X160073299Y-91683430D01*
X160075939Y-91680498D01*
X160171258Y-91515401D01*
X160230168Y-91334094D01*
X160237501Y-91264331D01*
X160249683Y-91148420D01*
X160250095Y-91144500D01*
X160966305Y-91144500D01*
X160966717Y-91148420D01*
X160978900Y-91264331D01*
X160986232Y-91334094D01*
X161045142Y-91515401D01*
X161140461Y-91680498D01*
X161143101Y-91683430D01*
X161265385Y-91819241D01*
X161265389Y-91819244D01*
X161268023Y-91822170D01*
X161271211Y-91824486D01*
X161271213Y-91824488D01*
X161419065Y-91931909D01*
X161419068Y-91931911D01*
X161422252Y-91934224D01*
X161596409Y-92011764D01*
X161782881Y-92051400D01*
X161973519Y-92051400D01*
X161992521Y-92047361D01*
X164894912Y-92047361D01*
X164895365Y-92058161D01*
X164896188Y-92059063D01*
X164900005Y-92060000D01*
X165594741Y-92060000D01*
X165604898Y-92056303D01*
X165608000Y-92050931D01*
X165608000Y-92046741D01*
X166116000Y-92046741D01*
X166119697Y-92056898D01*
X166125069Y-92060000D01*
X166819189Y-92060000D01*
X166829346Y-92056303D01*
X166830099Y-92054999D01*
X166829894Y-92051540D01*
X166794312Y-91933688D01*
X166791524Y-91926922D01*
X166702684Y-91759839D01*
X166698639Y-91753751D01*
X166579041Y-91607109D01*
X166573878Y-91601910D01*
X166428078Y-91481294D01*
X166422016Y-91477205D01*
X166255557Y-91387201D01*
X166248813Y-91384366D01*
X166128666Y-91347175D01*
X166117871Y-91347703D01*
X166116868Y-91348631D01*
X166116000Y-91352220D01*
X166116000Y-92046741D01*
X165608000Y-92046741D01*
X165608000Y-91357057D01*
X165604303Y-91346900D01*
X165602875Y-91346075D01*
X165599651Y-91346255D01*
X165488208Y-91379055D01*
X165481421Y-91381797D01*
X165313721Y-91469468D01*
X165307603Y-91473472D01*
X165160128Y-91592044D01*
X165154903Y-91597161D01*
X165033266Y-91742122D01*
X165029132Y-91748160D01*
X164937975Y-91913975D01*
X164935088Y-91920711D01*
X164894912Y-92047361D01*
X161992521Y-92047361D01*
X162159991Y-92011764D01*
X162334148Y-91934224D01*
X162337332Y-91931911D01*
X162337335Y-91931909D01*
X162485187Y-91824488D01*
X162485189Y-91824486D01*
X162488377Y-91822170D01*
X162491011Y-91819244D01*
X162491015Y-91819241D01*
X162613299Y-91683430D01*
X162615939Y-91680498D01*
X162711258Y-91515401D01*
X162770168Y-91334094D01*
X162777501Y-91264331D01*
X162789683Y-91148420D01*
X162790095Y-91144500D01*
X162770168Y-90954906D01*
X162711258Y-90773599D01*
X162615939Y-90608502D01*
X162610598Y-90602570D01*
X162491015Y-90469759D01*
X162491011Y-90469756D01*
X162488377Y-90466830D01*
X162419792Y-90417000D01*
X162337335Y-90357091D01*
X162337332Y-90357089D01*
X162334148Y-90354776D01*
X162159991Y-90277236D01*
X161973519Y-90237600D01*
X161782881Y-90237600D01*
X161596409Y-90277236D01*
X161592811Y-90278838D01*
X161425848Y-90353175D01*
X161425845Y-90353177D01*
X161422253Y-90354776D01*
X161419069Y-90357089D01*
X161419066Y-90357091D01*
X161271213Y-90464512D01*
X161268023Y-90466830D01*
X161265389Y-90469756D01*
X161265385Y-90469759D01*
X161145802Y-90602570D01*
X161140461Y-90608502D01*
X161045142Y-90773599D01*
X160986232Y-90954906D01*
X160966305Y-91144500D01*
X160250095Y-91144500D01*
X160230168Y-90954906D01*
X160171258Y-90773599D01*
X160075939Y-90608502D01*
X160070598Y-90602570D01*
X159951015Y-90469759D01*
X159951011Y-90469756D01*
X159948377Y-90466830D01*
X159879792Y-90417000D01*
X159797335Y-90357091D01*
X159797332Y-90357089D01*
X159794148Y-90354776D01*
X159619991Y-90277236D01*
X159433519Y-90237600D01*
X159242881Y-90237600D01*
X159056409Y-90277236D01*
X159052811Y-90278838D01*
X158885848Y-90353175D01*
X158885845Y-90353177D01*
X158882253Y-90354776D01*
X158879069Y-90357089D01*
X158879066Y-90357091D01*
X158731213Y-90464512D01*
X158728023Y-90466830D01*
X158725389Y-90469756D01*
X158725385Y-90469759D01*
X158605802Y-90602570D01*
X158600461Y-90608502D01*
X158505142Y-90773599D01*
X158446232Y-90954906D01*
X158426305Y-91144500D01*
X157710095Y-91144500D01*
X157690168Y-90954906D01*
X157631258Y-90773599D01*
X157535939Y-90608502D01*
X157530598Y-90602570D01*
X157411015Y-90469759D01*
X157411011Y-90469756D01*
X157408377Y-90466830D01*
X157339792Y-90417000D01*
X157257335Y-90357091D01*
X157257332Y-90357089D01*
X157254148Y-90354776D01*
X157079991Y-90277236D01*
X156893519Y-90237600D01*
X156702881Y-90237600D01*
X156516409Y-90277236D01*
X156512811Y-90278838D01*
X156345848Y-90353175D01*
X156345845Y-90353177D01*
X156342253Y-90354776D01*
X156339069Y-90357089D01*
X156339066Y-90357091D01*
X156191213Y-90464512D01*
X156188023Y-90466830D01*
X156185389Y-90469756D01*
X156185385Y-90469759D01*
X156065802Y-90602570D01*
X156060461Y-90608502D01*
X155965142Y-90773599D01*
X155906232Y-90954906D01*
X155886305Y-91144500D01*
X155170095Y-91144500D01*
X155150168Y-90954906D01*
X155091258Y-90773599D01*
X154995939Y-90608502D01*
X154990598Y-90602570D01*
X154871015Y-90469759D01*
X154871011Y-90469756D01*
X154868377Y-90466830D01*
X154799792Y-90417000D01*
X154717335Y-90357091D01*
X154717332Y-90357089D01*
X154714148Y-90354776D01*
X154539991Y-90277236D01*
X154353519Y-90237600D01*
X154162881Y-90237600D01*
X153976409Y-90277236D01*
X153972811Y-90278838D01*
X153805848Y-90353175D01*
X153805845Y-90353177D01*
X153802253Y-90354776D01*
X153799069Y-90357089D01*
X153799066Y-90357091D01*
X153651213Y-90464512D01*
X153648023Y-90466830D01*
X153645389Y-90469756D01*
X153645385Y-90469759D01*
X153525802Y-90602570D01*
X153520461Y-90608502D01*
X153425142Y-90773599D01*
X153366232Y-90954906D01*
X153346305Y-91144500D01*
X152629181Y-91144500D01*
X152629181Y-91140580D01*
X152610089Y-90958929D01*
X152608459Y-90951262D01*
X152552017Y-90777552D01*
X152548829Y-90770391D01*
X152519841Y-90720182D01*
X152511561Y-90713234D01*
X152509410Y-90713234D01*
X152507387Y-90714523D01*
X152086787Y-91135123D01*
X152082218Y-91144922D01*
X151353788Y-91144922D01*
X151354182Y-91144078D01*
X151352577Y-91138087D01*
X150932566Y-90718076D01*
X150922767Y-90713507D01*
X150920691Y-90714063D01*
X150919072Y-90715830D01*
X150887571Y-90770391D01*
X150884383Y-90777552D01*
X150827941Y-90951262D01*
X150826311Y-90958929D01*
X150807219Y-91140580D01*
X150807219Y-91148420D01*
X150089683Y-91148420D01*
X150090095Y-91144500D01*
X150070168Y-90954906D01*
X150011258Y-90773599D01*
X149915939Y-90608502D01*
X149910598Y-90602570D01*
X149791015Y-90469759D01*
X149791011Y-90469756D01*
X149788377Y-90466830D01*
X149719792Y-90417000D01*
X149637335Y-90357091D01*
X149637332Y-90357089D01*
X149634148Y-90354776D01*
X149622150Y-90349434D01*
X151284568Y-90349434D01*
X151287466Y-90354556D01*
X151708823Y-90775913D01*
X151718622Y-90780482D01*
X151724613Y-90778877D01*
X152146794Y-90356696D01*
X152151363Y-90346899D01*
X152146824Y-90343157D01*
X152003434Y-90279316D01*
X151995983Y-90276895D01*
X151817318Y-90238919D01*
X151809529Y-90238100D01*
X151626871Y-90238100D01*
X151619082Y-90238919D01*
X151440417Y-90276895D01*
X151432966Y-90279316D01*
X151292342Y-90341926D01*
X151284568Y-90349434D01*
X149622150Y-90349434D01*
X149459991Y-90277236D01*
X149273519Y-90237600D01*
X149082881Y-90237600D01*
X148896409Y-90277236D01*
X148892811Y-90278838D01*
X148725848Y-90353175D01*
X148725845Y-90353177D01*
X148722253Y-90354776D01*
X148719069Y-90357089D01*
X148719066Y-90357091D01*
X148571213Y-90464512D01*
X148568023Y-90466830D01*
X148565389Y-90469756D01*
X148565385Y-90469759D01*
X148445802Y-90602570D01*
X148440461Y-90608502D01*
X148345142Y-90773599D01*
X148286232Y-90954906D01*
X148266305Y-91144500D01*
X147550095Y-91144500D01*
X147530168Y-90954906D01*
X147471258Y-90773599D01*
X147375939Y-90608502D01*
X147370598Y-90602570D01*
X147251015Y-90469759D01*
X147251011Y-90469756D01*
X147248377Y-90466830D01*
X147179792Y-90417000D01*
X147097335Y-90357091D01*
X147097332Y-90357089D01*
X147094148Y-90354776D01*
X146919991Y-90277236D01*
X146733519Y-90237600D01*
X146542881Y-90237600D01*
X146356409Y-90277236D01*
X146352811Y-90278838D01*
X146185848Y-90353175D01*
X146185845Y-90353177D01*
X146182253Y-90354776D01*
X146179069Y-90357089D01*
X146179066Y-90357091D01*
X146031213Y-90464512D01*
X146028023Y-90466830D01*
X146025389Y-90469756D01*
X146025385Y-90469759D01*
X145905802Y-90602570D01*
X145900461Y-90608502D01*
X145805142Y-90773599D01*
X145746232Y-90954906D01*
X145726305Y-91144500D01*
X145010095Y-91144500D01*
X144990168Y-90954906D01*
X144931258Y-90773599D01*
X144835939Y-90608502D01*
X144830598Y-90602570D01*
X144711015Y-90469759D01*
X144711011Y-90469756D01*
X144708377Y-90466830D01*
X144639792Y-90417000D01*
X144557335Y-90357091D01*
X144557332Y-90357089D01*
X144554148Y-90354776D01*
X144379991Y-90277236D01*
X144193519Y-90237600D01*
X144002881Y-90237600D01*
X143816409Y-90277236D01*
X143812811Y-90278838D01*
X143645848Y-90353175D01*
X143645845Y-90353177D01*
X143642253Y-90354776D01*
X143639069Y-90357089D01*
X143639066Y-90357091D01*
X143491213Y-90464512D01*
X143488023Y-90466830D01*
X143485389Y-90469756D01*
X143485385Y-90469759D01*
X143365802Y-90602570D01*
X143360461Y-90608502D01*
X143265142Y-90773599D01*
X143206232Y-90954906D01*
X143186305Y-91144500D01*
X142470095Y-91144500D01*
X142450168Y-90954906D01*
X142391258Y-90773599D01*
X142295939Y-90608502D01*
X142290598Y-90602570D01*
X142171015Y-90469759D01*
X142171011Y-90469756D01*
X142168377Y-90466830D01*
X142099792Y-90417000D01*
X142017335Y-90357091D01*
X142017332Y-90357089D01*
X142014148Y-90354776D01*
X141839991Y-90277236D01*
X141653519Y-90237600D01*
X141462881Y-90237600D01*
X141276409Y-90277236D01*
X141272811Y-90278838D01*
X141105848Y-90353175D01*
X141105845Y-90353177D01*
X141102253Y-90354776D01*
X141099069Y-90357089D01*
X141099066Y-90357091D01*
X140951213Y-90464512D01*
X140948023Y-90466830D01*
X140945389Y-90469756D01*
X140945385Y-90469759D01*
X140825802Y-90602570D01*
X140820461Y-90608502D01*
X140725142Y-90773599D01*
X140666232Y-90954906D01*
X140646305Y-91144500D01*
X139930095Y-91144500D01*
X139910168Y-90954906D01*
X139851258Y-90773599D01*
X139755939Y-90608502D01*
X139750598Y-90602570D01*
X139631015Y-90469759D01*
X139631011Y-90469756D01*
X139628377Y-90466830D01*
X139559792Y-90417000D01*
X139477335Y-90357091D01*
X139477332Y-90357089D01*
X139474148Y-90354776D01*
X139299991Y-90277236D01*
X139113519Y-90237600D01*
X138922881Y-90237600D01*
X138736409Y-90277236D01*
X138732811Y-90278838D01*
X138565848Y-90353175D01*
X138565845Y-90353177D01*
X138562253Y-90354776D01*
X138559069Y-90357089D01*
X138559066Y-90357091D01*
X138411213Y-90464512D01*
X138408023Y-90466830D01*
X138405389Y-90469756D01*
X138405385Y-90469759D01*
X138285802Y-90602570D01*
X138280461Y-90608502D01*
X138185142Y-90773599D01*
X138126232Y-90954906D01*
X138106305Y-91144500D01*
X137390095Y-91144500D01*
X137370168Y-90954906D01*
X137311258Y-90773599D01*
X137215939Y-90608502D01*
X137210598Y-90602570D01*
X137091015Y-90469759D01*
X137091011Y-90469756D01*
X137088377Y-90466830D01*
X137019792Y-90417000D01*
X136937335Y-90357091D01*
X136937332Y-90357089D01*
X136934148Y-90354776D01*
X136759991Y-90277236D01*
X136573519Y-90237600D01*
X136382881Y-90237600D01*
X136196409Y-90277236D01*
X136192811Y-90278838D01*
X136025848Y-90353175D01*
X136025845Y-90353177D01*
X136022253Y-90354776D01*
X136019069Y-90357089D01*
X136019066Y-90357091D01*
X135871213Y-90464512D01*
X135868023Y-90466830D01*
X135865389Y-90469756D01*
X135865385Y-90469759D01*
X135745802Y-90602570D01*
X135740461Y-90608502D01*
X135645142Y-90773599D01*
X135586232Y-90954906D01*
X135566305Y-91144500D01*
X134850095Y-91144500D01*
X134830168Y-90954906D01*
X134771258Y-90773599D01*
X134675939Y-90608502D01*
X134670598Y-90602570D01*
X134551015Y-90469759D01*
X134551011Y-90469756D01*
X134548377Y-90466830D01*
X134479792Y-90417000D01*
X134397335Y-90357091D01*
X134397332Y-90357089D01*
X134394148Y-90354776D01*
X134219991Y-90277236D01*
X134033519Y-90237600D01*
X133842881Y-90237600D01*
X133656409Y-90277236D01*
X133652811Y-90278838D01*
X133485848Y-90353175D01*
X133485845Y-90353177D01*
X133482253Y-90354776D01*
X133479069Y-90357089D01*
X133479066Y-90357091D01*
X133331213Y-90464512D01*
X133328023Y-90466830D01*
X133325389Y-90469756D01*
X133325385Y-90469759D01*
X133205802Y-90602570D01*
X133200461Y-90608502D01*
X133105142Y-90773599D01*
X133046232Y-90954906D01*
X133026305Y-91144500D01*
X132309181Y-91144500D01*
X132309181Y-91140580D01*
X132290089Y-90958929D01*
X132288459Y-90951262D01*
X132232017Y-90777552D01*
X132228829Y-90770391D01*
X132199841Y-90720182D01*
X132191561Y-90713234D01*
X132189410Y-90713234D01*
X132187387Y-90714523D01*
X131766787Y-91135123D01*
X131762218Y-91144922D01*
X131033788Y-91144922D01*
X131034182Y-91144078D01*
X131032577Y-91138087D01*
X130612566Y-90718076D01*
X130602767Y-90713507D01*
X130600691Y-90714063D01*
X130599072Y-90715830D01*
X130567571Y-90770391D01*
X130564383Y-90777552D01*
X130507941Y-90951262D01*
X130506311Y-90958929D01*
X130487219Y-91140580D01*
X130487219Y-91148420D01*
X129769683Y-91148420D01*
X129770095Y-91144500D01*
X129750168Y-90954906D01*
X129691258Y-90773599D01*
X129595939Y-90608502D01*
X129590598Y-90602570D01*
X129471015Y-90469759D01*
X129471011Y-90469756D01*
X129468377Y-90466830D01*
X129399792Y-90417000D01*
X129317335Y-90357091D01*
X129317332Y-90357089D01*
X129314148Y-90354776D01*
X129302150Y-90349434D01*
X130964568Y-90349434D01*
X130967466Y-90354556D01*
X131388823Y-90775913D01*
X131398622Y-90780482D01*
X131404613Y-90778877D01*
X131826794Y-90356696D01*
X131831363Y-90346899D01*
X131826824Y-90343157D01*
X131683434Y-90279316D01*
X131675983Y-90276895D01*
X131497318Y-90238919D01*
X131489529Y-90238100D01*
X131306871Y-90238100D01*
X131299082Y-90238919D01*
X131120417Y-90276895D01*
X131112966Y-90279316D01*
X130972342Y-90341926D01*
X130964568Y-90349434D01*
X129302150Y-90349434D01*
X129139991Y-90277236D01*
X128953519Y-90237600D01*
X128762881Y-90237600D01*
X128576409Y-90277236D01*
X128572811Y-90278838D01*
X128405848Y-90353175D01*
X128405845Y-90353177D01*
X128402253Y-90354776D01*
X128399069Y-90357089D01*
X128399066Y-90357091D01*
X128251213Y-90464512D01*
X128248023Y-90466830D01*
X128245389Y-90469756D01*
X128245385Y-90469759D01*
X128125802Y-90602570D01*
X128120461Y-90608502D01*
X128025142Y-90773599D01*
X127966232Y-90954906D01*
X127946305Y-91144500D01*
X125607874Y-91144500D01*
X125661130Y-91103635D01*
X125668035Y-91096730D01*
X125758595Y-90978709D01*
X125763482Y-90970244D01*
X125777149Y-90937250D01*
X125777606Y-90926784D01*
X125771486Y-90925000D01*
X124752659Y-90925000D01*
X124742502Y-90928697D01*
X124739400Y-90934069D01*
X124739400Y-91260141D01*
X124231400Y-91260141D01*
X124231400Y-90938259D01*
X124227703Y-90928102D01*
X124222331Y-90925000D01*
X123201836Y-90925000D01*
X123191992Y-90928583D01*
X122047527Y-90928583D01*
X122047606Y-90926784D01*
X122041486Y-90925000D01*
X121372659Y-90925000D01*
X121362502Y-90928697D01*
X121359400Y-90934069D01*
X121359400Y-91260141D01*
X120851400Y-91260141D01*
X120851400Y-90938259D01*
X120847703Y-90928102D01*
X120842331Y-90925000D01*
X120171836Y-90925000D01*
X120161992Y-90928583D01*
X119685300Y-90928583D01*
X119685300Y-90415216D01*
X120163194Y-90415216D01*
X120169314Y-90417000D01*
X120838141Y-90417000D01*
X120848298Y-90413303D01*
X120851400Y-90407931D01*
X120851400Y-90403741D01*
X121359400Y-90403741D01*
X121363097Y-90413898D01*
X121368469Y-90417000D01*
X122038964Y-90417000D01*
X122043865Y-90415216D01*
X123193194Y-90415216D01*
X123199314Y-90417000D01*
X124218141Y-90417000D01*
X124228298Y-90413303D01*
X124231400Y-90407931D01*
X124231400Y-90403741D01*
X124739400Y-90403741D01*
X124743097Y-90413898D01*
X124748469Y-90417000D01*
X125768964Y-90417000D01*
X125778808Y-90413417D01*
X125778114Y-90407080D01*
X125763482Y-90371756D01*
X125758595Y-90363291D01*
X125734223Y-90331529D01*
X125718755Y-90282470D01*
X125738440Y-90234946D01*
X125754535Y-90221666D01*
X125839908Y-90169247D01*
X125844473Y-90166444D01*
X125848065Y-90162476D01*
X125848067Y-90162474D01*
X125884681Y-90122023D01*
X125931532Y-90070263D01*
X125962087Y-90007196D01*
X125985759Y-89958338D01*
X125985759Y-89958337D01*
X125988097Y-89953512D01*
X126009620Y-89825579D01*
X126009757Y-89814400D01*
X126009345Y-89811522D01*
X125992125Y-89691276D01*
X125992124Y-89691273D01*
X125991366Y-89685979D01*
X125937670Y-89567882D01*
X125930169Y-89559176D01*
X125856482Y-89473658D01*
X125856481Y-89473657D01*
X125852987Y-89469602D01*
X125847357Y-89465953D01*
X125748616Y-89401952D01*
X125748615Y-89401951D01*
X125744123Y-89399040D01*
X125701567Y-89386313D01*
X125624965Y-89363404D01*
X125624962Y-89363404D01*
X125619831Y-89361869D01*
X125614476Y-89361836D01*
X125614474Y-89361836D01*
X125556364Y-89361481D01*
X125490102Y-89361076D01*
X125365366Y-89396726D01*
X125255648Y-89465953D01*
X125169770Y-89563191D01*
X125114636Y-89680623D01*
X125094677Y-89808810D01*
X125095371Y-89814117D01*
X125095371Y-89814120D01*
X125097245Y-89828449D01*
X125111498Y-89937446D01*
X125113657Y-89942352D01*
X125113657Y-89942353D01*
X125122792Y-89963113D01*
X125126157Y-90014443D01*
X125095740Y-90055926D01*
X125053961Y-90068600D01*
X124752659Y-90068600D01*
X124742502Y-90072297D01*
X124739400Y-90077669D01*
X124739400Y-90403741D01*
X124231400Y-90403741D01*
X124231400Y-90081859D01*
X124227703Y-90071702D01*
X124222331Y-90068600D01*
X123698374Y-90068600D01*
X123693481Y-90068921D01*
X123583029Y-90083462D01*
X123573588Y-90085991D01*
X123436150Y-90142921D01*
X123427693Y-90147803D01*
X123309670Y-90238365D01*
X123302765Y-90245270D01*
X123212205Y-90363291D01*
X123207318Y-90371756D01*
X123193651Y-90404750D01*
X123193194Y-90415216D01*
X122043865Y-90415216D01*
X122048808Y-90413417D01*
X122048114Y-90407080D01*
X122033482Y-90371756D01*
X122028595Y-90363291D01*
X121938035Y-90245270D01*
X121931130Y-90238365D01*
X121813107Y-90147803D01*
X121804650Y-90142921D01*
X121667212Y-90085991D01*
X121657771Y-90083462D01*
X121547319Y-90068921D01*
X121542426Y-90068600D01*
X121372659Y-90068600D01*
X121362502Y-90072297D01*
X121359400Y-90077669D01*
X121359400Y-90403741D01*
X120851400Y-90403741D01*
X120851400Y-90081859D01*
X120847703Y-90071702D01*
X120842331Y-90068600D01*
X120668374Y-90068600D01*
X120663481Y-90068921D01*
X120553029Y-90083462D01*
X120543588Y-90085991D01*
X120406150Y-90142921D01*
X120397693Y-90147803D01*
X120279670Y-90238365D01*
X120272765Y-90245270D01*
X120182205Y-90363291D01*
X120177318Y-90371756D01*
X120163651Y-90404750D01*
X120163194Y-90415216D01*
X119685300Y-90415216D01*
X119685300Y-88132410D01*
X126415477Y-88132410D01*
X126416171Y-88137717D01*
X126416171Y-88137720D01*
X126418045Y-88152049D01*
X126432298Y-88261046D01*
X126484547Y-88379791D01*
X126568023Y-88479098D01*
X126676017Y-88550984D01*
X126799845Y-88589671D01*
X126866716Y-88590896D01*
X126924193Y-88591950D01*
X126924195Y-88591950D01*
X126929555Y-88592048D01*
X126934726Y-88590638D01*
X126934728Y-88590638D01*
X127002058Y-88572282D01*
X127054718Y-88557925D01*
X127165273Y-88490044D01*
X127168865Y-88486076D01*
X127168867Y-88486074D01*
X127205481Y-88445623D01*
X127252332Y-88393863D01*
X127308897Y-88277112D01*
X127330420Y-88149179D01*
X127330557Y-88138000D01*
X127330145Y-88135122D01*
X127329757Y-88132410D01*
X128980877Y-88132410D01*
X128981571Y-88137717D01*
X128981571Y-88137720D01*
X128983445Y-88152049D01*
X128997698Y-88261046D01*
X129049947Y-88379791D01*
X129133423Y-88479098D01*
X129241417Y-88550984D01*
X129365245Y-88589671D01*
X129432116Y-88590896D01*
X129489593Y-88591950D01*
X129489595Y-88591950D01*
X129494955Y-88592048D01*
X129500126Y-88590638D01*
X129500128Y-88590638D01*
X129567458Y-88572282D01*
X129620118Y-88557925D01*
X129730673Y-88490044D01*
X129734265Y-88486076D01*
X129734267Y-88486074D01*
X129770881Y-88445623D01*
X129817732Y-88393863D01*
X129874297Y-88277112D01*
X129895820Y-88149179D01*
X129895957Y-88138000D01*
X129895545Y-88135122D01*
X129878325Y-88014876D01*
X129878324Y-88014873D01*
X129877566Y-88009579D01*
X129823870Y-87891482D01*
X129816369Y-87882776D01*
X129742682Y-87797258D01*
X129742681Y-87797257D01*
X129739187Y-87793202D01*
X129733557Y-87789553D01*
X129634816Y-87725552D01*
X129634815Y-87725551D01*
X129630323Y-87722640D01*
X129587767Y-87709913D01*
X129511165Y-87687004D01*
X129511162Y-87687004D01*
X129506031Y-87685469D01*
X129500676Y-87685436D01*
X129500674Y-87685436D01*
X129442564Y-87685081D01*
X129376302Y-87684676D01*
X129251566Y-87720326D01*
X129141848Y-87789553D01*
X129055970Y-87886791D01*
X129000836Y-88004223D01*
X128980877Y-88132410D01*
X127329757Y-88132410D01*
X127312925Y-88014876D01*
X127312924Y-88014873D01*
X127312166Y-88009579D01*
X127258470Y-87891482D01*
X127250969Y-87882776D01*
X127177282Y-87797258D01*
X127177281Y-87797257D01*
X127173787Y-87793202D01*
X127168157Y-87789553D01*
X127069416Y-87725552D01*
X127069415Y-87725551D01*
X127064923Y-87722640D01*
X127022367Y-87709913D01*
X126945765Y-87687004D01*
X126945762Y-87687004D01*
X126940631Y-87685469D01*
X126935276Y-87685436D01*
X126935274Y-87685436D01*
X126877164Y-87685081D01*
X126810902Y-87684676D01*
X126686166Y-87720326D01*
X126576448Y-87789553D01*
X126490570Y-87886791D01*
X126435436Y-88004223D01*
X126415477Y-88132410D01*
X119685300Y-88132410D01*
X119685300Y-86393293D01*
X119686442Y-86380235D01*
X119688868Y-86366477D01*
X119690010Y-86360000D01*
X119688044Y-86348850D01*
X119687039Y-86331252D01*
X119701319Y-86095174D01*
X119702414Y-86086159D01*
X119749416Y-85829677D01*
X119751589Y-85820860D01*
X119822669Y-85592754D01*
X119829167Y-85571903D01*
X119832385Y-85563417D01*
X119860977Y-85499890D01*
X119939405Y-85325630D01*
X119943623Y-85317592D01*
X119948511Y-85309507D01*
X120078532Y-85094427D01*
X120083681Y-85086968D01*
X120244499Y-84881699D01*
X120250521Y-84874902D01*
X120434902Y-84690521D01*
X120441699Y-84684499D01*
X120646968Y-84523681D01*
X120654427Y-84518532D01*
X120877595Y-84383622D01*
X120885630Y-84379405D01*
X121123423Y-84272383D01*
X121131903Y-84269167D01*
X121308699Y-84214075D01*
X121380860Y-84191589D01*
X121389677Y-84189416D01*
X121646159Y-84142414D01*
X121655174Y-84141319D01*
X121891252Y-84127039D01*
X121908851Y-84128044D01*
X121920000Y-84130010D01*
X121940236Y-84126442D01*
X121953293Y-84125300D01*
X128522901Y-84125300D01*
X128571239Y-84142893D01*
G37*
%TD.AperFunction*%
%TD*%
M02*
