%TF.GenerationSoftware,KiCad,Pcbnew,(6.0.7)*%
%TF.CreationDate,2022-12-19T16:29:32-08:00*%
%TF.ProjectId,Intermediary_revC_4layer,496e7465-726d-4656-9469-6172795f7265,rev?*%
%TF.SameCoordinates,Original*%
%TF.FileFunction,Copper,L4,Bot*%
%TF.FilePolarity,Positive*%
%FSLAX46Y46*%
G04 Gerber Fmt 4.6, Leading zero omitted, Abs format (unit mm)*
G04 Created by KiCad (PCBNEW (6.0.7)) date 2022-12-19 16:29:32*
%MOMM*%
%LPD*%
G01*
G04 APERTURE LIST*
G04 Aperture macros list*
%AMRoundRect*
0 Rectangle with rounded corners*
0 $1 Rounding radius*
0 $2 $3 $4 $5 $6 $7 $8 $9 X,Y pos of 4 corners*
0 Add a 4 corners polygon primitive as box body*
4,1,4,$2,$3,$4,$5,$6,$7,$8,$9,$2,$3,0*
0 Add four circle primitives for the rounded corners*
1,1,$1+$1,$2,$3*
1,1,$1+$1,$4,$5*
1,1,$1+$1,$6,$7*
1,1,$1+$1,$8,$9*
0 Add four rect primitives between the rounded corners*
20,1,$1+$1,$2,$3,$4,$5,0*
20,1,$1+$1,$4,$5,$6,$7,0*
20,1,$1+$1,$6,$7,$8,$9,0*
20,1,$1+$1,$8,$9,$2,$3,0*%
%AMFreePoly0*
4,1,6,1.000000,0.000000,0.500000,-0.750000,-0.500000,-0.750000,-0.500000,0.750000,0.500000,0.750000,1.000000,0.000000,1.000000,0.000000,$1*%
%AMFreePoly1*
4,1,7,0.700000,0.000000,1.200000,-0.750000,-1.200000,-0.750000,-0.700000,0.000000,-1.200000,0.750000,1.200000,0.750000,0.700000,0.000000,0.700000,0.000000,$1*%
G04 Aperture macros list end*
%TA.AperFunction,ComponentPad*%
%ADD10C,0.650000*%
%TD*%
%TA.AperFunction,ComponentPad*%
%ADD11O,1.700000X0.900000*%
%TD*%
%TA.AperFunction,ComponentPad*%
%ADD12O,2.400000X0.900000*%
%TD*%
%TA.AperFunction,SMDPad,CuDef*%
%ADD13R,0.850000X0.300000*%
%TD*%
%TA.AperFunction,SMDPad,CuDef*%
%ADD14R,0.300000X0.850000*%
%TD*%
%TA.AperFunction,SMDPad,CuDef*%
%ADD15R,2.550000X2.550000*%
%TD*%
%TA.AperFunction,WasherPad*%
%ADD16C,1.300000*%
%TD*%
%TA.AperFunction,ComponentPad*%
%ADD17C,1.700000*%
%TD*%
%TA.AperFunction,ComponentPad*%
%ADD18O,1.700000X1.700000*%
%TD*%
%TA.AperFunction,ComponentPad*%
%ADD19R,1.508000X1.508000*%
%TD*%
%TA.AperFunction,ComponentPad*%
%ADD20C,1.508000*%
%TD*%
%TA.AperFunction,SMDPad,CuDef*%
%ADD21RoundRect,0.250000X0.312500X0.625000X-0.312500X0.625000X-0.312500X-0.625000X0.312500X-0.625000X0*%
%TD*%
%TA.AperFunction,SMDPad,CuDef*%
%ADD22RoundRect,0.250000X-0.325000X-0.650000X0.325000X-0.650000X0.325000X0.650000X-0.325000X0.650000X0*%
%TD*%
%TA.AperFunction,SMDPad,CuDef*%
%ADD23RoundRect,0.250000X-0.312500X-0.625000X0.312500X-0.625000X0.312500X0.625000X-0.312500X0.625000X0*%
%TD*%
%TA.AperFunction,SMDPad,CuDef*%
%ADD24R,1.000000X0.700000*%
%TD*%
%TA.AperFunction,SMDPad,CuDef*%
%ADD25R,0.600000X0.700000*%
%TD*%
%TA.AperFunction,SMDPad,CuDef*%
%ADD26FreePoly0,180.000000*%
%TD*%
%TA.AperFunction,SMDPad,CuDef*%
%ADD27FreePoly1,0.000000*%
%TD*%
%TA.AperFunction,SMDPad,CuDef*%
%ADD28FreePoly0,0.000000*%
%TD*%
%TA.AperFunction,SMDPad,CuDef*%
%ADD29RoundRect,0.250000X0.325000X0.650000X-0.325000X0.650000X-0.325000X-0.650000X0.325000X-0.650000X0*%
%TD*%
%TA.AperFunction,ViaPad*%
%ADD30C,0.600000*%
%TD*%
%TA.AperFunction,Conductor*%
%ADD31C,0.203200*%
%TD*%
%TA.AperFunction,Conductor*%
%ADD32C,0.406400*%
%TD*%
%TA.AperFunction,Conductor*%
%ADD33C,0.609600*%
%TD*%
%TA.AperFunction,Conductor*%
%ADD34C,0.600000*%
%TD*%
%TA.AperFunction,Conductor*%
%ADD35C,0.152400*%
%TD*%
%TA.AperFunction,Conductor*%
%ADD36C,0.200000*%
%TD*%
G04 APERTURE END LIST*
D10*
%TO.P,J5,A1,GND*%
%TO.N,GNDREF*%
X125465400Y-92021000D03*
%TO.P,J5,A4,VBUS*%
%TO.N,+5V*%
X125465400Y-92871000D03*
%TO.P,J5,A5,CC1*%
%TO.N,Net-(J5-PadA5)*%
X125465400Y-93721000D03*
%TO.P,J5,A6,DP1*%
%TO.N,/D+*%
X125465400Y-94571000D03*
%TO.P,J5,A7,DN1*%
%TO.N,/D-*%
X125465400Y-95421000D03*
%TO.P,J5,A8,SBU1*%
%TO.N,unconnected-(J5-PadA8)*%
X125465400Y-96271000D03*
%TO.P,J5,A9,VBUS*%
%TO.N,+5V*%
X125465400Y-97121000D03*
%TO.P,J5,A12,GND*%
%TO.N,GNDREF*%
X125465400Y-97971000D03*
%TO.P,J5,B1,GND*%
X124115400Y-97971000D03*
%TO.P,J5,B4,VBUS*%
%TO.N,+5V*%
X124115400Y-97121000D03*
%TO.P,J5,B5,CC2*%
%TO.N,Net-(J5-PadB5)*%
X124115400Y-96271000D03*
%TO.P,J5,B6,DP2*%
%TO.N,/D+*%
X124115400Y-95421000D03*
%TO.P,J5,B7,DN2*%
%TO.N,/D-*%
X124115400Y-94571000D03*
%TO.P,J5,B8,SBU2*%
%TO.N,unconnected-(J5-PadB8)*%
X124115400Y-93721000D03*
%TO.P,J5,B9,VBUS*%
%TO.N,+5V*%
X124115400Y-92871000D03*
%TO.P,J5,B12,GND*%
%TO.N,GNDREF*%
X124115400Y-92021000D03*
D11*
%TO.P,J5,S1,SHELL*%
X121105400Y-90671000D03*
%TO.P,J5,S2,SHELL*%
X121105400Y-99321000D03*
D12*
%TO.P,J5,S3,SHELL*%
X124485400Y-90671000D03*
%TO.P,J5,S4,SHELL*%
X124485400Y-99321000D03*
%TD*%
D13*
%TO.P,IC1,1,RI_/_CLK*%
%TO.N,unconnected-(IC1-Pad1)*%
X141132200Y-96246000D03*
%TO.P,IC1,2,GND_1*%
%TO.N,GNDREF*%
X141132200Y-95746000D03*
%TO.P,IC1,3,D+*%
%TO.N,/D+_CP2102N*%
X141132200Y-95246000D03*
%TO.P,IC1,4,D-*%
%TO.N,/D-_CP2102N*%
X141132200Y-94746000D03*
%TO.P,IC1,5,VIO*%
%TO.N,+3V3*%
X141132200Y-94246000D03*
%TO.P,IC1,6,VDD*%
X141132200Y-93746000D03*
D14*
%TO.P,IC1,7,VREGIN*%
%TO.N,/VREGIN_CP2102N*%
X141832200Y-93046000D03*
%TO.P,IC1,8,VBUS*%
%TO.N,/CP2102N/VBUS*%
X142332200Y-93046000D03*
%TO.P,IC1,9,RSTB*%
%TO.N,Net-(IC1-Pad9)*%
X142832200Y-93046000D03*
%TO.P,IC1,10,NC_1*%
%TO.N,unconnected-(IC1-Pad10)*%
X143332200Y-93046000D03*
%TO.P,IC1,11,GPIO.3_/_WAKEUP*%
%TO.N,unconnected-(IC1-Pad11)*%
X143832200Y-93046000D03*
%TO.P,IC1,12,GPIO.2_/_RS485*%
%TO.N,unconnected-(IC1-Pad12)*%
X144332200Y-93046000D03*
D13*
%TO.P,IC1,13,GPIO.1_/_RXT*%
%TO.N,/RA3{slash}RXT_PIC*%
X145032200Y-93746000D03*
%TO.P,IC1,14,GPIO.0_/_TXT*%
%TO.N,/RA2{slash}TXT_PIC*%
X145032200Y-94246000D03*
%TO.P,IC1,15,SUSPENDB*%
%TO.N,unconnected-(IC1-Pad15)*%
X145032200Y-94746000D03*
%TO.P,IC1,16,NC_2*%
%TO.N,unconnected-(IC1-Pad16)*%
X145032200Y-95246000D03*
%TO.P,IC1,17,SUSPEND*%
%TO.N,unconnected-(IC1-Pad17)*%
X145032200Y-95746000D03*
%TO.P,IC1,18,CTS*%
%TO.N,unconnected-(IC1-Pad18)*%
X145032200Y-96246000D03*
D14*
%TO.P,IC1,19,RTS*%
%TO.N,unconnected-(IC1-Pad19)*%
X144332200Y-96946000D03*
%TO.P,IC1,20,RXD*%
%TO.N,/CP2102N/RXD*%
X143832200Y-96946000D03*
%TO.P,IC1,21,TXD*%
%TO.N,/CP2102N/TXD*%
X143332200Y-96946000D03*
%TO.P,IC1,22,DSR*%
%TO.N,unconnected-(IC1-Pad22)*%
X142832200Y-96946000D03*
%TO.P,IC1,23,DTR*%
%TO.N,unconnected-(IC1-Pad23)*%
X142332200Y-96946000D03*
%TO.P,IC1,24,DCD*%
%TO.N,unconnected-(IC1-Pad24)*%
X141832200Y-96946000D03*
D15*
%TO.P,IC1,25,GND_2*%
%TO.N,GNDREF*%
X143082200Y-94996000D03*
%TD*%
D16*
%TO.P,H3,*%
%TO.N,*%
X168148000Y-85852000D03*
%TD*%
%TO.P,H2,*%
%TO.N,*%
X168148000Y-104013000D03*
%TD*%
%TO.P,H1,*%
%TO.N,*%
X121158000Y-97282000D03*
%TD*%
D17*
%TO.P,J1,1,Pin_1*%
%TO.N,/PIC32/RA0*%
X129112200Y-104775000D03*
D18*
%TO.P,J1,2,Pin_2*%
%TO.N,/PIC32/RA1*%
X131652200Y-104775000D03*
%TO.P,J1,3,Pin_3*%
%TO.N,/PIC32/RB0*%
X134192200Y-104775000D03*
%TO.P,J1,4,Pin_4*%
%TO.N,/PIC32/RB1*%
X136732200Y-104775000D03*
%TO.P,J1,5,Pin_5*%
%TO.N,/CP2102N/TXD*%
X139272200Y-104775000D03*
%TO.P,J1,6,Pin_6*%
%TO.N,/CP2102N/RXD*%
X141812200Y-104775000D03*
%TD*%
D17*
%TO.P,J3,1,Pin_1*%
%TO.N,/PIC32/RB15*%
X129137200Y-85090000D03*
D18*
%TO.P,J3,2,Pin_2*%
%TO.N,/PIC32/RB14*%
X131677200Y-85090000D03*
%TO.P,J3,3,Pin_3*%
%TO.N,/PIC32/RB13*%
X134217200Y-85090000D03*
%TO.P,J3,4,Pin_4*%
%TO.N,+3V3*%
X136757200Y-85090000D03*
%TO.P,J3,5,Pin_5*%
%TO.N,/RB11{slash}D-_PIC*%
X139297200Y-85090000D03*
%TO.P,J3,6,Pin_6*%
%TO.N,/RB10{slash}D+_PIC*%
X141837200Y-85090000D03*
%TD*%
D17*
%TO.P,J6,1,Pin_1*%
%TO.N,/PIC32/RB9{slash}TX_TGT*%
X165862000Y-97394000D03*
D18*
%TO.P,J6,2,Pin_2*%
%TO.N,/PIC32/RB8{slash}RX_TGT*%
X165862000Y-94854000D03*
%TO.P,J6,3,Pin_3*%
%TO.N,GNDREF*%
X165862000Y-92314000D03*
%TD*%
D17*
%TO.P,J4,1,Pin_1*%
%TO.N,GNDREF*%
X148949200Y-85090000D03*
D18*
%TO.P,J4,2,Pin_2*%
X151489200Y-85090000D03*
%TO.P,J4,3,Pin_3*%
%TO.N,/PIC32/RB9{slash}TX_TGT*%
X154029200Y-85090000D03*
%TO.P,J4,4,Pin_4*%
%TO.N,/PIC32/RB8{slash}RX_TGT*%
X156569200Y-85090000D03*
%TO.P,J4,5,Pin_5*%
%TO.N,/PIC32/RB7*%
X159109200Y-85090000D03*
%TO.P,J4,6,Pin_6*%
%TO.N,/VBUS_PIC*%
X161649200Y-85090000D03*
%TD*%
D17*
%TO.P,J2,1,Pin_1*%
%TO.N,/RA2{slash}TXT_PIC*%
X148924200Y-104775000D03*
D18*
%TO.P,J2,2,Pin_2*%
%TO.N,/RA3{slash}RXT_PIC*%
X151464200Y-104775000D03*
%TO.P,J2,3,Pin_3*%
%TO.N,/PIC32/RB4*%
X154004200Y-104775000D03*
%TO.P,J2,4,Pin_4*%
%TO.N,/PIC32/RA4*%
X156544200Y-104775000D03*
%TO.P,J2,5,Pin_5*%
%TO.N,GNDREF*%
X159084200Y-104775000D03*
%TO.P,J2,6,Pin_6*%
%TO.N,/PIC32/RB5*%
X161624200Y-104775000D03*
%TD*%
D19*
%TO.P,U1,1,MCLR*%
%TO.N,/PIC32/~{MCLR}*%
X128858200Y-98764500D03*
D20*
%TO.P,U1,2,PGED3/VREF+/CVREF+/AN0/C3INC/RPA0/CTED1/PMD7/RA0*%
%TO.N,/PIC32/RA0*%
X131398200Y-98764500D03*
%TO.P,U1,3,PGEC3/VREF-/CVREF-/AN1/RPA1/CTED2/PMD6/RA1*%
%TO.N,/PIC32/RA1*%
X133938200Y-98764500D03*
%TO.P,U1,4,PGED1/AN2/C1IND/C2INB/C3IND/RPB0/PMD0/RB0*%
%TO.N,/PIC32/RB0*%
X136478200Y-98764500D03*
%TO.P,U1,5,PGEC1/AN3/C1INC/C2INA/RPB1/CTED12/PMD1/RB1*%
%TO.N,/PIC32/RB1*%
X139018200Y-98764500D03*
%TO.P,U1,6,AN4/C1INB/C2IND/RPB2/SDA2/CTED13/PMD2/RB2*%
%TO.N,/CP2102N/TXD*%
X141558200Y-98764500D03*
%TO.P,U1,7,AN5/C1INA/C2INC/RTCC/RPB3/SCL2/PMWR/RB3*%
%TO.N,/CP2102N/RXD*%
X144098200Y-98764500D03*
%TO.P,U1,8,VSS_2*%
%TO.N,GNDREF*%
X146638200Y-98764500D03*
%TO.P,U1,9,OSC1/CLKI/RPA2/RA2*%
%TO.N,/RA2{slash}TXT_PIC*%
X149178200Y-98764500D03*
%TO.P,U1,10,OSC2/CLKO/RPA3/PMA0/RA3*%
%TO.N,/RA3{slash}RXT_PIC*%
X151718200Y-98764500D03*
%TO.P,U1,11,SOSCI/RPB4/RB4*%
%TO.N,/PIC32/RB4*%
X154258200Y-98764500D03*
%TO.P,U1,12,SOSCO/RPA4/T1CK/CTED9/PMA1/RA4*%
%TO.N,/PIC32/RA4*%
X156798200Y-98764500D03*
%TO.P,U1,13,VDD*%
%TO.N,+3V3*%
X159338200Y-98764500D03*
%TO.P,U1,14,TMS/RPB5/USBID/RB5*%
%TO.N,/PIC32/RB5*%
X161878200Y-98764500D03*
%TO.P,U1,15,VBUS*%
%TO.N,/VBUS_PIC*%
X161878200Y-91144500D03*
%TO.P,U1,16,TDI/RPB7/CTED3/PMD5/INT0/RB7*%
%TO.N,/PIC32/RB7*%
X159338200Y-91144500D03*
%TO.P,U1,17,TCK/RPB8/SCL1/CTED10/PMD4/RB8*%
%TO.N,/PIC32/RB8{slash}RX_TGT*%
X156798200Y-91144500D03*
%TO.P,U1,18,TDO/RPB9/SDA1/CTED4/PMD3/RB9*%
%TO.N,/PIC32/RB9{slash}TX_TGT*%
X154258200Y-91144500D03*
%TO.P,U1,19,VSS*%
%TO.N,GNDREF*%
X151718200Y-91144500D03*
%TO.P,U1,20,VCAP*%
%TO.N,Net-(C6-Pad1)*%
X149178200Y-91144500D03*
%TO.P,U1,21,PGED2/RPB10/D+/CTED11/RB10*%
%TO.N,/RB10{slash}D+_PIC*%
X146638200Y-91144500D03*
%TO.P,U1,22,PGEC2/RPB11/D-/RB11*%
%TO.N,/RB11{slash}D-_PIC*%
X144098200Y-91144500D03*
%TO.P,U1,23,VUSB3V3*%
%TO.N,+3V3*%
X141558200Y-91144500D03*
%TO.P,U1,24,AN11/RPB13/CTPLS/PMRD/RB13*%
%TO.N,/PIC32/RB13*%
X139018200Y-91144500D03*
%TO.P,U1,25,CVREF/AN10/C3INB/RPB14/VBUSON/SCK1/CTED5/RB14*%
%TO.N,/PIC32/RB14*%
X136478200Y-91144500D03*
%TO.P,U1,26,AN9/C3INA/RPB15/SCK2/CTED6/PMCS1/RB15*%
%TO.N,/PIC32/RB15*%
X133938200Y-91144500D03*
%TO.P,U1,27,AVSS*%
%TO.N,GNDREF*%
X131398200Y-91144500D03*
%TO.P,U1,28,AVDD*%
%TO.N,+3V3*%
X128858200Y-91144500D03*
%TD*%
D21*
%TO.P,R4,1*%
%TO.N,/VREGIN_CP2102N*%
X155147200Y-96266000D03*
%TO.P,R4,2*%
%TO.N,/CP2102N/VBUS*%
X152222200Y-96266000D03*
%TD*%
%TO.P,R1,1*%
%TO.N,+3V3*%
X150321200Y-93726000D03*
%TO.P,R1,2*%
%TO.N,Net-(IC1-Pad9)*%
X147396200Y-93726000D03*
%TD*%
D22*
%TO.P,C4,1*%
%TO.N,/VREGIN_CP2102N*%
X143942200Y-88138000D03*
%TO.P,C4,2*%
%TO.N,GNDREF*%
X146892200Y-88138000D03*
%TD*%
D23*
%TO.P,R7,1*%
%TO.N,Net-(J5-PadA5)*%
X128295400Y-93624400D03*
%TO.P,R7,2*%
%TO.N,GNDREF*%
X131220400Y-93624400D03*
%TD*%
D21*
%TO.P,R8,1*%
%TO.N,Net-(D1-Pad1)*%
X146765200Y-101727000D03*
%TO.P,R8,2*%
%TO.N,/RA2{slash}TXT_PIC*%
X143840200Y-101727000D03*
%TD*%
D23*
%TO.P,R6,1*%
%TO.N,Net-(J5-PadB5)*%
X128295400Y-96113600D03*
%TO.P,R6,2*%
%TO.N,GNDREF*%
X131220400Y-96113600D03*
%TD*%
D21*
%TO.P,R2,1*%
%TO.N,+3V3*%
X136605200Y-101727000D03*
%TO.P,R2,2*%
%TO.N,Net-(C1-Pad1)*%
X133680200Y-101727000D03*
%TD*%
D24*
%TO.P,D2,1,A*%
%TO.N,GNDREF*%
X120904000Y-93421200D03*
D25*
%TO.P,D2,2,K*%
%TO.N,+5V*%
X122604000Y-93421200D03*
%TO.P,D2,3,K*%
%TO.N,/D+*%
X122604000Y-95421200D03*
%TO.P,D2,4,K*%
%TO.N,/D-*%
X120704000Y-95421200D03*
%TD*%
D26*
%TO.P,JP2,3,B*%
%TO.N,/D+_CP2102N*%
X125698000Y-104317800D03*
D27*
%TO.P,JP2,2,C*%
%TO.N,/D+*%
X123698000Y-104317800D03*
D28*
%TO.P,JP2,1,A*%
%TO.N,/RB10{slash}D+_PIC*%
X121698000Y-104317800D03*
%TD*%
D29*
%TO.P,C8,1*%
%TO.N,+3V3*%
X137873000Y-96088200D03*
%TO.P,C8,2*%
%TO.N,GNDREF*%
X134923000Y-96088200D03*
%TD*%
%TO.P,C7,1*%
%TO.N,+3V3*%
X137873000Y-93548200D03*
%TO.P,C7,2*%
%TO.N,GNDREF*%
X134923000Y-93548200D03*
%TD*%
D21*
%TO.P,R5,1*%
%TO.N,/CP2102N/VBUS*%
X150317200Y-96266000D03*
%TO.P,R5,2*%
%TO.N,GNDREF*%
X147392200Y-96266000D03*
%TD*%
D26*
%TO.P,JP3,3,B*%
%TO.N,/D-_CP2102N*%
X125698000Y-101625400D03*
D27*
%TO.P,JP3,2,C*%
%TO.N,/D-*%
X123698000Y-101625400D03*
D28*
%TO.P,JP3,1,A*%
%TO.N,/RB11{slash}D-_PIC*%
X121698000Y-101625400D03*
%TD*%
D23*
%TO.P,R9,1*%
%TO.N,Net-(D3-Pad1)*%
X148662200Y-101727000D03*
%TO.P,R9,2*%
%TO.N,/RA3{slash}RXT_PIC*%
X151587200Y-101727000D03*
%TD*%
D22*
%TO.P,C2,1*%
%TO.N,GNDREF*%
X156388200Y-101727000D03*
%TO.P,C2,2*%
%TO.N,+3V3*%
X159338200Y-101727000D03*
%TD*%
D29*
%TO.P,C9,1*%
%TO.N,+3V3*%
X137111000Y-88138000D03*
%TO.P,C9,2*%
%TO.N,GNDREF*%
X134161000Y-88138000D03*
%TD*%
D22*
%TO.P,C6,1*%
%TO.N,Net-(C6-Pad1)*%
X148797200Y-88138000D03*
%TO.P,C6,2*%
%TO.N,GNDREF*%
X151747200Y-88138000D03*
%TD*%
D29*
%TO.P,C3,1*%
%TO.N,/VREGIN_CP2102N*%
X142066200Y-88138000D03*
%TO.P,C3,2*%
%TO.N,GNDREF*%
X139116200Y-88138000D03*
%TD*%
D21*
%TO.P,R3,1*%
%TO.N,Net-(C1-Pad1)*%
X131783200Y-101727000D03*
%TO.P,R3,2*%
%TO.N,/PIC32/~{MCLR}*%
X128858200Y-101727000D03*
%TD*%
D26*
%TO.P,JP1,3,B*%
%TO.N,/VREGIN_CP2102N*%
X125641000Y-88138000D03*
D27*
%TO.P,JP1,2,C*%
%TO.N,+5V*%
X123641000Y-88138000D03*
D28*
%TO.P,JP1,1,A*%
%TO.N,/VBUS_PIC*%
X121641000Y-88138000D03*
%TD*%
D22*
%TO.P,C1,1*%
%TO.N,Net-(C1-Pad1)*%
X138510200Y-101727000D03*
%TO.P,C1,2*%
%TO.N,GNDREF*%
X141460200Y-101727000D03*
%TD*%
D29*
%TO.P,C10,1*%
%TO.N,/VBUS_PIC*%
X161925000Y-88138000D03*
%TO.P,C10,2*%
%TO.N,GNDREF*%
X158975000Y-88138000D03*
%TD*%
D22*
%TO.P,C5,1*%
%TO.N,+3V3*%
X128397000Y-88138000D03*
%TO.P,C5,2*%
%TO.N,GNDREF*%
X131347000Y-88138000D03*
%TD*%
D30*
%TO.N,GNDREF*%
X132969000Y-88138000D03*
X143764000Y-95631000D03*
X142494000Y-94361000D03*
X131220400Y-94865000D03*
X143764000Y-94361000D03*
X150698200Y-88138000D03*
X134923000Y-94820000D03*
X142494000Y-95631000D03*
X140157200Y-88138000D03*
X157429200Y-101727000D03*
X145846800Y-88138000D03*
X148539200Y-96266000D03*
X124383800Y-85852000D03*
X140436600Y-101727000D03*
X160020000Y-88138000D03*
X120904000Y-94234000D03*
%TO.N,+3V3*%
X140233400Y-94005400D03*
X151358600Y-93726000D03*
X125552200Y-89814400D03*
X122625200Y-102850600D03*
X129438400Y-88138000D03*
X137871200Y-94818200D03*
X135585200Y-101727000D03*
%TO.N,Net-(D1-Pad1)*%
X127541617Y-103716417D03*
%TO.N,Net-(D3-Pad1)*%
X127329700Y-105029000D03*
%TO.N,/RB10{slash}D+_PIC*%
X127914400Y-100304600D03*
%TO.N,Net-(J5-PadB5)*%
X122758300Y-97586700D03*
X126826200Y-94869000D03*
%TO.N,/D+*%
X126800700Y-101726934D03*
X126802585Y-95888647D03*
%TO.N,/VREGIN_CP2102N*%
X154127200Y-96266000D03*
X126873000Y-88138000D03*
X141147800Y-93065600D03*
%TO.N,/RA2{slash}TXT_PIC*%
X145288000Y-101701600D03*
%TD*%
D31*
%TO.N,/RB11{slash}D-_PIC*%
X138063600Y-86323600D02*
X139297200Y-85090000D01*
X128682399Y-86323600D02*
X138063600Y-86323600D01*
X122857674Y-85267800D02*
X127626599Y-85267800D01*
X120001400Y-88124074D02*
X122857674Y-85267800D01*
X121005600Y-101625400D02*
X120001400Y-100621200D01*
X121698000Y-101625400D02*
X121005600Y-101625400D01*
X120001400Y-100621200D02*
X120001400Y-88124074D01*
X127626599Y-85267800D02*
X128682399Y-86323600D01*
D32*
%TO.N,/VBUS_PIC*%
X160618600Y-86831600D02*
X122422664Y-86831600D01*
X122422664Y-86831600D02*
X121641000Y-87613264D01*
X121641000Y-87613264D02*
X121641000Y-88138000D01*
D33*
%TO.N,+5V*%
X123647200Y-89433400D02*
X123647200Y-88144200D01*
X123647200Y-88144200D02*
X123641000Y-88138000D01*
X122828200Y-90252400D02*
X123647200Y-89433400D01*
X122828200Y-92526400D02*
X122828200Y-90252400D01*
X123172800Y-92871000D02*
X122828200Y-92526400D01*
D34*
%TO.N,/VREGIN_CP2102N*%
X125641000Y-88138000D02*
X126873000Y-88138000D01*
D31*
%TO.N,Net-(C1-Pad1)*%
X137330400Y-100547200D02*
X138510200Y-101727000D01*
X134860000Y-100547200D02*
X137330400Y-100547200D01*
X131783200Y-101727000D02*
X133680200Y-101727000D01*
X133680200Y-101727000D02*
X134860000Y-100547200D01*
%TO.N,GNDREF*%
X131220400Y-96113600D02*
X131220400Y-94865000D01*
X160020000Y-88138000D02*
X158975000Y-88138000D01*
X134923000Y-93548200D02*
X134923000Y-94820000D01*
X140436600Y-101727000D02*
X141460200Y-101727000D01*
X132969000Y-88138000D02*
X131347000Y-88138000D01*
D35*
X147392200Y-96266000D02*
X148539200Y-96266000D01*
D31*
X140157200Y-88138000D02*
X139116200Y-88138000D01*
X146892200Y-88138000D02*
X145846800Y-88138000D01*
X120904000Y-93421200D02*
X120904000Y-94234000D01*
X134161000Y-88138000D02*
X132969000Y-88138000D01*
X142332200Y-95746000D02*
X143082200Y-94996000D01*
X131220400Y-94865000D02*
X131220400Y-93624400D01*
X134923000Y-94820000D02*
X134923000Y-96088200D01*
X141132200Y-95746000D02*
X142332200Y-95746000D01*
X156388200Y-101727000D02*
X157429200Y-101727000D01*
X150698200Y-88138000D02*
X151747200Y-88138000D01*
%TO.N,+3V3*%
X141209600Y-89342800D02*
X138315800Y-89342800D01*
X141132200Y-94246000D02*
X140474000Y-94246000D01*
X159338200Y-98764500D02*
X159338200Y-101727000D01*
X128397000Y-88138000D02*
X129438400Y-88138000D01*
X141558200Y-91144500D02*
X141558200Y-89691400D01*
X140474000Y-94246000D02*
X140233400Y-94005400D01*
X151358600Y-93726000D02*
X150321200Y-93726000D01*
X140492800Y-93746000D02*
X140233400Y-94005400D01*
X128397000Y-90683300D02*
X128858200Y-91144500D01*
X128397000Y-88138000D02*
X128397000Y-90683300D01*
X141558200Y-89691400D02*
X141209600Y-89342800D01*
X135585200Y-101727000D02*
X136605200Y-101727000D01*
X141132200Y-93746000D02*
X140492800Y-93746000D01*
X138315800Y-89342800D02*
X137111000Y-88138000D01*
X137873000Y-96088200D02*
X137873000Y-93548200D01*
D33*
%TO.N,+5V*%
X124121200Y-92871000D02*
X123172800Y-92871000D01*
X123172800Y-92871000D02*
X122616000Y-93427800D01*
D31*
%TO.N,Net-(C6-Pad1)*%
X149178200Y-88519000D02*
X148797200Y-88138000D01*
X149178200Y-91144500D02*
X149178200Y-88519000D01*
%TO.N,Net-(D1-Pad1)*%
X128355294Y-102946200D02*
X145550000Y-102946200D01*
X127585077Y-103716417D02*
X128355294Y-102946200D01*
X145550000Y-102946200D02*
X146769200Y-101727000D01*
X127541617Y-103716417D02*
X127585077Y-103716417D01*
%TO.N,Net-(D3-Pad1)*%
X127329700Y-104924366D02*
X128901466Y-103352600D01*
X127329700Y-105029000D02*
X127329700Y-104924366D01*
X128901466Y-103352600D02*
X147044600Y-103352600D01*
X147044600Y-103352600D02*
X148670200Y-101727000D01*
%TO.N,/RB10{slash}D+_PIC*%
X126625400Y-103625600D02*
X126625400Y-105071452D01*
X127914400Y-102336600D02*
X126625400Y-103625600D01*
X126324252Y-105372600D02*
X121908000Y-105372600D01*
X127914400Y-100304600D02*
X127914400Y-102336600D01*
X121698000Y-105162600D02*
X121698000Y-104317800D01*
X126625400Y-105071452D02*
X126324252Y-105372600D01*
X121908000Y-105372600D02*
X121698000Y-105162600D01*
%TO.N,Net-(IC1-Pad9)*%
X143133000Y-92227400D02*
X145897600Y-92227400D01*
X145897600Y-92227400D02*
X147396200Y-93726000D01*
X142832200Y-92528200D02*
X143133000Y-92227400D01*
X142832200Y-93046000D02*
X142832200Y-92528200D01*
%TO.N,/PIC32/~{MCLR}*%
X128858200Y-98764500D02*
X128858200Y-101727000D01*
%TO.N,Net-(J5-PadB5)*%
X128070800Y-96113600D02*
X128299400Y-96113600D01*
X124121200Y-96271000D02*
X124074000Y-96271000D01*
X124074000Y-96271000D02*
X122758300Y-97586700D01*
X126826200Y-94869000D02*
X128070800Y-96113600D01*
%TO.N,Net-(J5-PadA5)*%
X128196000Y-93721000D02*
X128299400Y-93617600D01*
X125471200Y-93721000D02*
X128196000Y-93721000D01*
%TO.N,/VBUS_PIC*%
X161925000Y-88138000D02*
X161878200Y-88184800D01*
D32*
X161671000Y-85725000D02*
X161671000Y-85111800D01*
X161671000Y-85111800D02*
X161649200Y-85090000D01*
X161878200Y-88184800D02*
X161878200Y-91144500D01*
X161925000Y-88138000D02*
X160618600Y-86831600D01*
X160618600Y-86831600D02*
X160618600Y-86777400D01*
X160618600Y-86777400D02*
X161671000Y-85725000D01*
D36*
%TO.N,/D+*%
X124993400Y-103022400D02*
X123698000Y-104317800D01*
X126783047Y-95888647D02*
X125465400Y-94571000D01*
D31*
X124121200Y-95421000D02*
X122622800Y-95421000D01*
D36*
X126800700Y-102303090D02*
X126081390Y-103022400D01*
X126802585Y-95888647D02*
X126783047Y-95888647D01*
X126800700Y-101726934D02*
X126800700Y-102303090D01*
X126081390Y-103022400D02*
X124993400Y-103022400D01*
D31*
X122622800Y-95421000D02*
X122616000Y-95427800D01*
%TO.N,/D-*%
X124369200Y-94571000D02*
X124121200Y-94571000D01*
X123698000Y-101625400D02*
X124002800Y-101625400D01*
X124121200Y-94571000D02*
X121572800Y-94571000D01*
X126060200Y-99568000D02*
X126060200Y-96015800D01*
X124002800Y-101625400D02*
X126060200Y-99568000D01*
D36*
X126060200Y-96015800D02*
X125465400Y-95421000D01*
D31*
X125471200Y-95421000D02*
X125219200Y-95421000D01*
X125219200Y-95421000D02*
X124369200Y-94571000D01*
X121572800Y-94571000D02*
X120716000Y-95427800D01*
%TO.N,/D+_CP2102N*%
X125698000Y-103978264D02*
X125698000Y-104317800D01*
X127354700Y-102321564D02*
X125698000Y-103978264D01*
X141132200Y-95246000D02*
X139433200Y-95246000D01*
X127973300Y-97705700D02*
X127354700Y-98324300D01*
X139433200Y-95246000D02*
X139217400Y-95461800D01*
X139217400Y-97128270D02*
X138639970Y-97705700D01*
X139217400Y-95461800D02*
X139217400Y-97128270D01*
X127354700Y-98324300D02*
X127354700Y-102321564D01*
X138639970Y-97705700D02*
X127973300Y-97705700D01*
%TO.N,/D-_CP2102N*%
X127795500Y-97299300D02*
X126515800Y-98579000D01*
X126515800Y-100807600D02*
X126515800Y-98579000D01*
X138471634Y-97299300D02*
X127795500Y-97299300D01*
X139340400Y-94746000D02*
X141132200Y-94746000D01*
X138471634Y-97299300D02*
X138811000Y-96959934D01*
X138811000Y-95275400D02*
X139340400Y-94746000D01*
X138811000Y-96959934D02*
X138811000Y-95275400D01*
X125698000Y-101625400D02*
X126515800Y-100807600D01*
%TO.N,/VREGIN_CP2102N*%
X141167400Y-93046000D02*
X141147800Y-93065600D01*
X141832200Y-92367870D02*
X142617000Y-91583070D01*
X142066200Y-89662000D02*
X142066200Y-88138000D01*
X142066200Y-88138000D02*
X143942200Y-88138000D01*
X142617000Y-90212800D02*
X142066200Y-89662000D01*
X154127200Y-96266000D02*
X155147200Y-96266000D01*
X142617000Y-91583070D02*
X142617000Y-90212800D01*
X141832200Y-93046000D02*
X141167400Y-93046000D01*
X141832200Y-93046000D02*
X141832200Y-92367870D01*
%TO.N,/CP2102N/VBUS*%
X143039400Y-90705930D02*
X143702330Y-90043000D01*
X147146200Y-90043000D02*
X147908200Y-90805000D01*
X147908200Y-90805000D02*
X147908200Y-91948000D01*
X147908200Y-91948000D02*
X148797200Y-92837000D01*
X152349200Y-96266000D02*
X150444200Y-96266000D01*
X142332200Y-93046000D02*
X142332200Y-92442606D01*
X148797200Y-92837000D02*
X148797200Y-94746000D01*
X142332200Y-92442606D02*
X143039400Y-91735406D01*
X143702330Y-90043000D02*
X147146200Y-90043000D01*
X148797200Y-94746000D02*
X150317200Y-96266000D01*
X143039400Y-91735406D02*
X143039400Y-90705930D01*
%TO.N,/CP2102N/RXD*%
X143832200Y-96946000D02*
X143832200Y-98498500D01*
X143832200Y-98498500D02*
X144098200Y-98764500D01*
%TO.N,/CP2102N/TXD*%
X143332200Y-98033130D02*
X142600830Y-98764500D01*
X143332200Y-96946000D02*
X143332200Y-98033130D01*
X142600830Y-98764500D02*
X141558200Y-98764500D01*
%TO.N,/RA2{slash}TXT_PIC*%
X145161000Y-100410200D02*
X143844200Y-101727000D01*
X143865600Y-101701600D02*
X143840200Y-101727000D01*
X145032200Y-94246000D02*
X145735800Y-94246000D01*
X145161000Y-97282000D02*
X145161000Y-100410200D01*
X145735800Y-94246000D02*
X145977800Y-94488000D01*
X145977800Y-94488000D02*
X145977800Y-96465200D01*
X145288000Y-101701600D02*
X143865600Y-101701600D01*
X145977800Y-96465200D02*
X145161000Y-97282000D01*
%TO.N,/RA3{slash}RXT_PIC*%
X145810536Y-93746000D02*
X145032200Y-93746000D01*
X151718200Y-98764500D02*
X151718200Y-101596000D01*
X146384200Y-94319664D02*
X145810536Y-93746000D01*
X150342600Y-100482400D02*
X151587200Y-101727000D01*
X146735800Y-100482400D02*
X145567400Y-99314000D01*
X146735800Y-100482400D02*
X150342600Y-100482400D01*
X145567400Y-97450336D02*
X146384200Y-96633536D01*
X151718200Y-101596000D02*
X151587200Y-101727000D01*
X146384200Y-96633536D02*
X146384200Y-94319664D01*
X145567400Y-99314000D02*
X145567400Y-97450336D01*
%TD*%
M02*
