M48
; DRILL file {KiCad (6.0.7)} date Mon Dec 19 16:29:39 2022
; FORMAT={-:-/ absolute / metric / decimal}
; #@! TF.CreationDate,2022-12-19T16:29:39-08:00
; #@! TF.GenerationSoftware,Kicad,Pcbnew,(6.0.7)
; #@! TF.FileFunction,Plated,1,4,PTH
FMAT,2
METRIC
; #@! TA.AperFunction,Plated,PTH,ViaDrill
T1C0.300
; #@! TA.AperFunction,Plated,PTH,ComponentDrill
T2C0.400
; #@! TA.AperFunction,Plated,PTH,ComponentDrill
T3C0.600
; #@! TA.AperFunction,Plated,PTH,ComponentDrill
T4C1.000
%
G90
G05
T1
X120.904Y-94.234
X122.625Y-102.851
X122.758Y-97.587
X124.384Y-85.852
X125.552Y-89.814
X126.801Y-101.727
X126.803Y-95.889
X126.826Y-94.869
X126.873Y-88.138
X127.33Y-105.029
X127.542Y-103.716
X127.914Y-100.305
X129.438Y-88.138
X131.22Y-94.865
X132.969Y-88.138
X134.923Y-94.82
X135.585Y-101.727
X137.871Y-94.818
X140.157Y-88.138
X140.233Y-94.005
X140.437Y-101.727
X141.148Y-93.066
X142.494Y-94.361
X142.494Y-95.631
X143.764Y-94.361
X143.764Y-95.631
X145.288Y-101.702
X145.847Y-88.138
X148.539Y-96.266
X150.698Y-88.138
X151.359Y-93.726
X154.127Y-96.266
X157.429Y-101.727
X160.02Y-88.138
T2
X124.115Y-92.021
X124.115Y-92.871
X124.115Y-93.721
X124.115Y-94.571
X124.115Y-95.421
X124.115Y-96.271
X124.115Y-97.121
X124.115Y-97.971
X125.465Y-92.021
X125.465Y-92.871
X125.465Y-93.721
X125.465Y-94.571
X125.465Y-95.421
X125.465Y-96.271
X125.465Y-97.121
X125.465Y-97.971
T4
X128.858Y-91.144
X128.858Y-98.764
X129.112Y-104.775
X129.137Y-85.09
X131.398Y-91.144
X131.398Y-98.764
X131.652Y-104.775
X131.677Y-85.09
X133.938Y-91.144
X133.938Y-98.764
X134.192Y-104.775
X134.217Y-85.09
X136.478Y-91.144
X136.478Y-98.764
X136.732Y-104.775
X136.757Y-85.09
X139.018Y-91.144
X139.018Y-98.764
X139.272Y-104.775
X139.297Y-85.09
X141.558Y-91.144
X141.558Y-98.764
X141.812Y-104.775
X141.837Y-85.09
X144.098Y-91.144
X144.098Y-98.764
X146.638Y-91.144
X146.638Y-98.764
X148.924Y-104.775
X148.949Y-85.09
X149.178Y-91.144
X149.178Y-98.764
X151.464Y-104.775
X151.489Y-85.09
X151.718Y-91.144
X151.718Y-98.764
X154.004Y-104.775
X154.029Y-85.09
X154.258Y-91.144
X154.258Y-98.764
X156.544Y-104.775
X156.569Y-85.09
X156.798Y-91.144
X156.798Y-98.764
X159.084Y-104.775
X159.109Y-85.09
X159.338Y-91.144
X159.338Y-98.764
X161.624Y-104.775
X161.649Y-85.09
X161.878Y-91.144
X161.878Y-98.764
X165.862Y-92.314
X165.862Y-94.854
X165.862Y-97.394
T3
G00X121.505Y-90.671
M15
G01X120.705Y-90.671
M16
G05
G00X121.505Y-99.321
M15
G01X120.705Y-99.321
M16
G05
G00X125.235Y-90.671
M15
G01X123.735Y-90.671
M16
G05
G00X125.235Y-99.321
M15
G01X123.735Y-99.321
M16
G05
T0
M30
