%TF.GenerationSoftware,KiCad,Pcbnew,(6.0.7)*%
%TF.CreationDate,2022-12-19T16:29:32-08:00*%
%TF.ProjectId,Intermediary_revC_4layer,496e7465-726d-4656-9469-6172795f7265,rev?*%
%TF.SameCoordinates,Original*%
%TF.FileFunction,Copper,L1,Top*%
%TF.FilePolarity,Positive*%
%FSLAX46Y46*%
G04 Gerber Fmt 4.6, Leading zero omitted, Abs format (unit mm)*
G04 Created by KiCad (PCBNEW (6.0.7)) date 2022-12-19 16:29:32*
%MOMM*%
%LPD*%
G01*
G04 APERTURE LIST*
G04 Aperture macros list*
%AMRoundRect*
0 Rectangle with rounded corners*
0 $1 Rounding radius*
0 $2 $3 $4 $5 $6 $7 $8 $9 X,Y pos of 4 corners*
0 Add a 4 corners polygon primitive as box body*
4,1,4,$2,$3,$4,$5,$6,$7,$8,$9,$2,$3,0*
0 Add four circle primitives for the rounded corners*
1,1,$1+$1,$2,$3*
1,1,$1+$1,$4,$5*
1,1,$1+$1,$6,$7*
1,1,$1+$1,$8,$9*
0 Add four rect primitives between the rounded corners*
20,1,$1+$1,$2,$3,$4,$5,0*
20,1,$1+$1,$4,$5,$6,$7,0*
20,1,$1+$1,$6,$7,$8,$9,0*
20,1,$1+$1,$8,$9,$2,$3,0*%
G04 Aperture macros list end*
%TA.AperFunction,ComponentPad*%
%ADD10C,0.650000*%
%TD*%
%TA.AperFunction,ComponentPad*%
%ADD11O,1.700000X0.900000*%
%TD*%
%TA.AperFunction,ComponentPad*%
%ADD12O,2.400000X0.900000*%
%TD*%
%TA.AperFunction,WasherPad*%
%ADD13C,1.300000*%
%TD*%
%TA.AperFunction,ComponentPad*%
%ADD14C,1.700000*%
%TD*%
%TA.AperFunction,ComponentPad*%
%ADD15O,1.700000X1.700000*%
%TD*%
%TA.AperFunction,SMDPad,CuDef*%
%ADD16RoundRect,0.250000X0.312500X0.625000X-0.312500X0.625000X-0.312500X-0.625000X0.312500X-0.625000X0*%
%TD*%
%TA.AperFunction,SMDPad,CuDef*%
%ADD17RoundRect,0.250000X0.375000X0.625000X-0.375000X0.625000X-0.375000X-0.625000X0.375000X-0.625000X0*%
%TD*%
%TA.AperFunction,ComponentPad*%
%ADD18R,1.508000X1.508000*%
%TD*%
%TA.AperFunction,ComponentPad*%
%ADD19C,1.508000*%
%TD*%
%TA.AperFunction,ViaPad*%
%ADD20C,0.600000*%
%TD*%
%TA.AperFunction,Conductor*%
%ADD21C,0.203200*%
%TD*%
%TA.AperFunction,Conductor*%
%ADD22C,0.609600*%
%TD*%
%TA.AperFunction,Conductor*%
%ADD23C,0.200000*%
%TD*%
%TA.AperFunction,Conductor*%
%ADD24C,0.600000*%
%TD*%
G04 APERTURE END LIST*
D10*
%TO.P,J5,A1,GND*%
%TO.N,GNDREF*%
X125465400Y-92021000D03*
%TO.P,J5,A4,VBUS*%
%TO.N,+5V*%
X125465400Y-92871000D03*
%TO.P,J5,A5,CC1*%
%TO.N,Net-(J5-PadA5)*%
X125465400Y-93721000D03*
%TO.P,J5,A6,DP1*%
%TO.N,/D+*%
X125465400Y-94571000D03*
%TO.P,J5,A7,DN1*%
%TO.N,/D-*%
X125465400Y-95421000D03*
%TO.P,J5,A8,SBU1*%
%TO.N,unconnected-(J5-PadA8)*%
X125465400Y-96271000D03*
%TO.P,J5,A9,VBUS*%
%TO.N,+5V*%
X125465400Y-97121000D03*
%TO.P,J5,A12,GND*%
%TO.N,GNDREF*%
X125465400Y-97971000D03*
%TO.P,J5,B1,GND*%
X124115400Y-97971000D03*
%TO.P,J5,B4,VBUS*%
%TO.N,+5V*%
X124115400Y-97121000D03*
%TO.P,J5,B5,CC2*%
%TO.N,Net-(J5-PadB5)*%
X124115400Y-96271000D03*
%TO.P,J5,B6,DP2*%
%TO.N,/D+*%
X124115400Y-95421000D03*
%TO.P,J5,B7,DN2*%
%TO.N,/D-*%
X124115400Y-94571000D03*
%TO.P,J5,B8,SBU2*%
%TO.N,unconnected-(J5-PadB8)*%
X124115400Y-93721000D03*
%TO.P,J5,B9,VBUS*%
%TO.N,+5V*%
X124115400Y-92871000D03*
%TO.P,J5,B12,GND*%
%TO.N,GNDREF*%
X124115400Y-92021000D03*
D11*
%TO.P,J5,S1,SHELL*%
X121105400Y-90671000D03*
%TO.P,J5,S2,SHELL*%
X121105400Y-99321000D03*
D12*
%TO.P,J5,S3,SHELL*%
X124485400Y-90671000D03*
%TO.P,J5,S4,SHELL*%
X124485400Y-99321000D03*
%TD*%
D13*
%TO.P,H3,*%
%TO.N,*%
X168148000Y-85852000D03*
%TD*%
%TO.P,H2,*%
%TO.N,*%
X168148000Y-104013000D03*
%TD*%
%TO.P,H1,*%
%TO.N,*%
X121158000Y-97282000D03*
%TD*%
D14*
%TO.P,J1,1,Pin_1*%
%TO.N,/PIC32/RA0*%
X129112200Y-104775000D03*
D15*
%TO.P,J1,2,Pin_2*%
%TO.N,/PIC32/RA1*%
X131652200Y-104775000D03*
%TO.P,J1,3,Pin_3*%
%TO.N,/PIC32/RB0*%
X134192200Y-104775000D03*
%TO.P,J1,4,Pin_4*%
%TO.N,/PIC32/RB1*%
X136732200Y-104775000D03*
%TO.P,J1,5,Pin_5*%
%TO.N,/CP2102N/TXD*%
X139272200Y-104775000D03*
%TO.P,J1,6,Pin_6*%
%TO.N,/CP2102N/RXD*%
X141812200Y-104775000D03*
%TD*%
D14*
%TO.P,J3,1,Pin_1*%
%TO.N,/PIC32/RB15*%
X129137200Y-85090000D03*
D15*
%TO.P,J3,2,Pin_2*%
%TO.N,/PIC32/RB14*%
X131677200Y-85090000D03*
%TO.P,J3,3,Pin_3*%
%TO.N,/PIC32/RB13*%
X134217200Y-85090000D03*
%TO.P,J3,4,Pin_4*%
%TO.N,+3V3*%
X136757200Y-85090000D03*
%TO.P,J3,5,Pin_5*%
%TO.N,/RB11{slash}D-_PIC*%
X139297200Y-85090000D03*
%TO.P,J3,6,Pin_6*%
%TO.N,/RB10{slash}D+_PIC*%
X141837200Y-85090000D03*
%TD*%
D16*
%TO.P,R10,1*%
%TO.N,+3V3*%
X125552200Y-88468200D03*
%TO.P,R10,2*%
%TO.N,Net-(D4-Pad2)*%
X122627200Y-88468200D03*
%TD*%
D17*
%TO.P,D1,1,K*%
%TO.N,Net-(D1-Pad1)*%
X125425200Y-101574600D03*
%TO.P,D1,2,A*%
%TO.N,+3V3*%
X122625200Y-101574600D03*
%TD*%
D14*
%TO.P,J6,1,Pin_1*%
%TO.N,/PIC32/RB9{slash}TX_TGT*%
X165862000Y-97394000D03*
D15*
%TO.P,J6,2,Pin_2*%
%TO.N,/PIC32/RB8{slash}RX_TGT*%
X165862000Y-94854000D03*
%TO.P,J6,3,Pin_3*%
%TO.N,GNDREF*%
X165862000Y-92314000D03*
%TD*%
D14*
%TO.P,J4,1,Pin_1*%
%TO.N,GNDREF*%
X148949200Y-85090000D03*
D15*
%TO.P,J4,2,Pin_2*%
X151489200Y-85090000D03*
%TO.P,J4,3,Pin_3*%
%TO.N,/PIC32/RB9{slash}TX_TGT*%
X154029200Y-85090000D03*
%TO.P,J4,4,Pin_4*%
%TO.N,/PIC32/RB8{slash}RX_TGT*%
X156569200Y-85090000D03*
%TO.P,J4,5,Pin_5*%
%TO.N,/PIC32/RB7*%
X159109200Y-85090000D03*
%TO.P,J4,6,Pin_6*%
%TO.N,/VBUS_PIC*%
X161649200Y-85090000D03*
%TD*%
D14*
%TO.P,J2,1,Pin_1*%
%TO.N,/RA2{slash}TXT_PIC*%
X148924200Y-104775000D03*
D15*
%TO.P,J2,2,Pin_2*%
%TO.N,/RA3{slash}RXT_PIC*%
X151464200Y-104775000D03*
%TO.P,J2,3,Pin_3*%
%TO.N,/PIC32/RB4*%
X154004200Y-104775000D03*
%TO.P,J2,4,Pin_4*%
%TO.N,/PIC32/RA4*%
X156544200Y-104775000D03*
%TO.P,J2,5,Pin_5*%
%TO.N,GNDREF*%
X159084200Y-104775000D03*
%TO.P,J2,6,Pin_6*%
%TO.N,/PIC32/RB5*%
X161624200Y-104775000D03*
%TD*%
D17*
%TO.P,D3,1,K*%
%TO.N,Net-(D3-Pad1)*%
X125425200Y-104140000D03*
%TO.P,D3,2,A*%
%TO.N,+3V3*%
X122625200Y-104140000D03*
%TD*%
%TO.P,D4,1,K*%
%TO.N,GNDREF*%
X125476000Y-85852000D03*
%TO.P,D4,2,A*%
%TO.N,Net-(D4-Pad2)*%
X122676000Y-85852000D03*
%TD*%
D18*
%TO.P,U1,1,MCLR*%
%TO.N,/PIC32/~{MCLR}*%
X128858200Y-98764500D03*
D19*
%TO.P,U1,2,PGED3/VREF+/CVREF+/AN0/C3INC/RPA0/CTED1/PMD7/RA0*%
%TO.N,/PIC32/RA0*%
X131398200Y-98764500D03*
%TO.P,U1,3,PGEC3/VREF-/CVREF-/AN1/RPA1/CTED2/PMD6/RA1*%
%TO.N,/PIC32/RA1*%
X133938200Y-98764500D03*
%TO.P,U1,4,PGED1/AN2/C1IND/C2INB/C3IND/RPB0/PMD0/RB0*%
%TO.N,/PIC32/RB0*%
X136478200Y-98764500D03*
%TO.P,U1,5,PGEC1/AN3/C1INC/C2INA/RPB1/CTED12/PMD1/RB1*%
%TO.N,/PIC32/RB1*%
X139018200Y-98764500D03*
%TO.P,U1,6,AN4/C1INB/C2IND/RPB2/SDA2/CTED13/PMD2/RB2*%
%TO.N,/CP2102N/TXD*%
X141558200Y-98764500D03*
%TO.P,U1,7,AN5/C1INA/C2INC/RTCC/RPB3/SCL2/PMWR/RB3*%
%TO.N,/CP2102N/RXD*%
X144098200Y-98764500D03*
%TO.P,U1,8,VSS_2*%
%TO.N,GNDREF*%
X146638200Y-98764500D03*
%TO.P,U1,9,OSC1/CLKI/RPA2/RA2*%
%TO.N,/RA2{slash}TXT_PIC*%
X149178200Y-98764500D03*
%TO.P,U1,10,OSC2/CLKO/RPA3/PMA0/RA3*%
%TO.N,/RA3{slash}RXT_PIC*%
X151718200Y-98764500D03*
%TO.P,U1,11,SOSCI/RPB4/RB4*%
%TO.N,/PIC32/RB4*%
X154258200Y-98764500D03*
%TO.P,U1,12,SOSCO/RPA4/T1CK/CTED9/PMA1/RA4*%
%TO.N,/PIC32/RA4*%
X156798200Y-98764500D03*
%TO.P,U1,13,VDD*%
%TO.N,+3V3*%
X159338200Y-98764500D03*
%TO.P,U1,14,TMS/RPB5/USBID/RB5*%
%TO.N,/PIC32/RB5*%
X161878200Y-98764500D03*
%TO.P,U1,15,VBUS*%
%TO.N,/VBUS_PIC*%
X161878200Y-91144500D03*
%TO.P,U1,16,TDI/RPB7/CTED3/PMD5/INT0/RB7*%
%TO.N,/PIC32/RB7*%
X159338200Y-91144500D03*
%TO.P,U1,17,TCK/RPB8/SCL1/CTED10/PMD4/RB8*%
%TO.N,/PIC32/RB8{slash}RX_TGT*%
X156798200Y-91144500D03*
%TO.P,U1,18,TDO/RPB9/SDA1/CTED4/PMD3/RB9*%
%TO.N,/PIC32/RB9{slash}TX_TGT*%
X154258200Y-91144500D03*
%TO.P,U1,19,VSS*%
%TO.N,GNDREF*%
X151718200Y-91144500D03*
%TO.P,U1,20,VCAP*%
%TO.N,Net-(C6-Pad1)*%
X149178200Y-91144500D03*
%TO.P,U1,21,PGED2/RPB10/D+/CTED11/RB10*%
%TO.N,/RB10{slash}D+_PIC*%
X146638200Y-91144500D03*
%TO.P,U1,22,PGEC2/RPB11/D-/RB11*%
%TO.N,/RB11{slash}D-_PIC*%
X144098200Y-91144500D03*
%TO.P,U1,23,VUSB3V3*%
%TO.N,+3V3*%
X141558200Y-91144500D03*
%TO.P,U1,24,AN11/RPB13/CTPLS/PMRD/RB13*%
%TO.N,/PIC32/RB13*%
X139018200Y-91144500D03*
%TO.P,U1,25,CVREF/AN10/C3INB/RPB14/VBUSON/SCK1/CTED5/RB14*%
%TO.N,/PIC32/RB14*%
X136478200Y-91144500D03*
%TO.P,U1,26,AN9/C3INA/RPB15/SCK2/CTED6/PMCS1/RB15*%
%TO.N,/PIC32/RB15*%
X133938200Y-91144500D03*
%TO.P,U1,27,AVSS*%
%TO.N,GNDREF*%
X131398200Y-91144500D03*
%TO.P,U1,28,AVDD*%
%TO.N,+3V3*%
X128858200Y-91144500D03*
%TD*%
D20*
%TO.N,GNDREF*%
X132969000Y-88138000D03*
X143764000Y-95631000D03*
X142494000Y-94361000D03*
X131220400Y-94865000D03*
X143764000Y-94361000D03*
X150698200Y-88138000D03*
X134923000Y-94820000D03*
X142494000Y-95631000D03*
X140157200Y-88138000D03*
X157429200Y-101727000D03*
X145846800Y-88138000D03*
X148539200Y-96266000D03*
X124383800Y-85852000D03*
X140436600Y-101727000D03*
X160020000Y-88138000D03*
X120904000Y-94234000D03*
%TO.N,+3V3*%
X140233400Y-94005400D03*
X151358600Y-93726000D03*
X125552200Y-89814400D03*
X122625200Y-102850600D03*
X129438400Y-88138000D03*
X137871200Y-94818200D03*
X135585200Y-101727000D03*
%TO.N,Net-(D1-Pad1)*%
X127541617Y-103716417D03*
%TO.N,Net-(D3-Pad1)*%
X127329700Y-105029000D03*
%TO.N,/RB10{slash}D+_PIC*%
X127914400Y-100304600D03*
%TO.N,Net-(J5-PadB5)*%
X122758300Y-97586700D03*
X126826200Y-94869000D03*
%TO.N,/D+*%
X126800700Y-101726934D03*
X126802585Y-95888647D03*
%TO.N,/VREGIN_CP2102N*%
X154127200Y-96266000D03*
X126873000Y-88138000D03*
X141147800Y-93065600D03*
%TO.N,/RA2{slash}TXT_PIC*%
X145288000Y-101701600D03*
%TD*%
D21*
%TO.N,GNDREF*%
X125476000Y-85852000D02*
X124383800Y-85852000D01*
%TO.N,+3V3*%
X125552200Y-88468200D02*
X125552200Y-89814400D01*
X122625200Y-102850600D02*
X122625200Y-101574600D01*
X122625200Y-104140000D02*
X122625200Y-102850600D01*
D22*
%TO.N,+5V*%
X125471200Y-97121000D02*
X123576001Y-97121000D01*
X123576001Y-97121000D02*
X123141705Y-96686704D01*
X123141705Y-96686704D02*
X123141705Y-93390876D01*
X123661581Y-92871000D02*
X125465400Y-92871000D01*
X123141705Y-93390876D02*
X123661581Y-92871000D01*
D21*
%TO.N,Net-(D1-Pad1)*%
X127541617Y-103712417D02*
X125429200Y-101600000D01*
X127541617Y-103716417D02*
X127541617Y-103712417D01*
%TO.N,Net-(D3-Pad1)*%
X126440700Y-104140000D02*
X125429200Y-104140000D01*
X127329700Y-105029000D02*
X126440700Y-104140000D01*
%TO.N,Net-(D4-Pad2)*%
X122682000Y-88417400D02*
X122631200Y-88468200D01*
X122682000Y-85826600D02*
X122682000Y-88417400D01*
%TO.N,/PIC32/RA0*%
X131398200Y-98764500D02*
X131398200Y-102489000D01*
X131398200Y-102489000D02*
X129112200Y-104775000D01*
%TO.N,/PIC32/RA1*%
X133938200Y-102489000D02*
X131652200Y-104775000D01*
X133938200Y-98764500D02*
X133938200Y-102489000D01*
%TO.N,/PIC32/RB0*%
X136478200Y-98764500D02*
X136478200Y-102489000D01*
X136478200Y-102489000D02*
X134192200Y-104775000D01*
%TO.N,/PIC32/RB1*%
X139018200Y-102489000D02*
X136732200Y-104775000D01*
X139018200Y-98764500D02*
X139018200Y-102489000D01*
%TO.N,/PIC32/RB4*%
X154258200Y-104521000D02*
X154004200Y-104775000D01*
X154258200Y-98764500D02*
X154258200Y-104521000D01*
%TO.N,/PIC32/RA4*%
X156798200Y-98764500D02*
X156798200Y-104521000D01*
X156798200Y-104521000D02*
X156544200Y-104775000D01*
%TO.N,/PIC32/RB5*%
X161878200Y-98764500D02*
X161878200Y-104521000D01*
X161878200Y-104521000D02*
X161624200Y-104775000D01*
%TO.N,/PIC32/RB15*%
X133938200Y-89891000D02*
X129137200Y-85090000D01*
X133938200Y-91144500D02*
X133938200Y-89891000D01*
%TO.N,/PIC32/RB14*%
X136478200Y-89891000D02*
X131677200Y-85090000D01*
X136478200Y-91144500D02*
X136478200Y-89891000D01*
%TO.N,/PIC32/RB13*%
X139018200Y-89891000D02*
X134217200Y-85090000D01*
X139018200Y-91144500D02*
X139018200Y-89891000D01*
%TO.N,/RB11{slash}D-_PIC*%
X144098200Y-91144500D02*
X144098200Y-89891000D01*
X144098200Y-89891000D02*
X139297200Y-85090000D01*
%TO.N,/RB10{slash}D+_PIC*%
X131089400Y-97256600D02*
X154152600Y-97256600D01*
X130175000Y-98171000D02*
X131089400Y-97256600D01*
X146638200Y-89891000D02*
X141837200Y-85090000D01*
X154736800Y-96672400D02*
X154736800Y-95859600D01*
X154178000Y-95300800D02*
X150794500Y-95300800D01*
X146638200Y-91144500D02*
X146638200Y-89891000D01*
X129209800Y-100304600D02*
X130175000Y-99339400D01*
X130175000Y-99339400D02*
X130175000Y-98171000D01*
X154152600Y-97256600D02*
X154736800Y-96672400D01*
X154736800Y-95859600D02*
X154178000Y-95300800D01*
X150794500Y-95300800D02*
X146638200Y-91144500D01*
X127914400Y-100304600D02*
X129209800Y-100304600D01*
%TO.N,/PIC32/RB7*%
X159338200Y-85319000D02*
X159109200Y-85090000D01*
X159338200Y-91144500D02*
X159338200Y-85319000D01*
%TO.N,/PIC32/RB9{slash}TX_TGT*%
X154258200Y-85319000D02*
X154029200Y-85090000D01*
X160507700Y-97394000D02*
X154258200Y-91144500D01*
X165735000Y-97394000D02*
X160507700Y-97394000D01*
X154258200Y-91144500D02*
X154258200Y-85319000D01*
%TO.N,/PIC32/RB8{slash}RX_TGT*%
X156798200Y-91144500D02*
X156798200Y-85319000D01*
X156798200Y-91144500D02*
X160507700Y-94854000D01*
X160507700Y-94854000D02*
X165862000Y-94854000D01*
X156798200Y-85319000D02*
X156569200Y-85090000D01*
%TO.N,Net-(J5-PadB5)*%
X126085600Y-95609600D02*
X126826200Y-94869000D01*
X126085600Y-99622280D02*
X126085600Y-95609600D01*
X122758300Y-97586700D02*
X122758300Y-99483780D01*
X123403520Y-100129000D02*
X125578880Y-100129000D01*
X125578880Y-100129000D02*
X126085600Y-99622280D01*
X122758300Y-99483780D02*
X123403520Y-100129000D01*
%TO.N,/D+*%
X124369200Y-95421000D02*
X124121200Y-95421000D01*
D23*
X126800700Y-101726934D02*
X126800700Y-95890532D01*
D21*
X125219200Y-94571000D02*
X124369200Y-95421000D01*
X125471200Y-94571000D02*
X125219200Y-94571000D01*
D23*
X126800700Y-95890532D02*
X126802585Y-95888647D01*
D24*
%TO.N,/VREGIN_CP2102N*%
X149809200Y-96266000D02*
X146608800Y-93065600D01*
X146608800Y-93065600D02*
X141147800Y-93065600D01*
X141147800Y-93065600D02*
X129073192Y-93065600D01*
X129073192Y-93065600D02*
X126873000Y-90865408D01*
X126873000Y-90865408D02*
X126873000Y-88138000D01*
X154127200Y-96266000D02*
X149809200Y-96266000D01*
D21*
%TO.N,/CP2102N/RXD*%
X144098200Y-98764500D02*
X144098200Y-102489000D01*
X144098200Y-102489000D02*
X141812200Y-104775000D01*
%TO.N,/CP2102N/TXD*%
X141558200Y-98764500D02*
X141558200Y-102489000D01*
X141558200Y-102489000D02*
X139272200Y-104775000D01*
%TO.N,/RA2{slash}TXT_PIC*%
X145288000Y-101701600D02*
X146241100Y-101701600D01*
X146241100Y-101701600D02*
X149178200Y-98764500D01*
X149178200Y-104521000D02*
X148924200Y-104775000D01*
X149178200Y-98764500D02*
X149178200Y-104521000D01*
%TO.N,/RA3{slash}RXT_PIC*%
X151718200Y-98764500D02*
X151718200Y-104521000D01*
X151718200Y-104521000D02*
X151464200Y-104775000D01*
%TD*%
M02*
