%TF.GenerationSoftware,KiCad,Pcbnew,(6.0.7)*%
%TF.CreationDate,2022-12-19T16:29:32-08:00*%
%TF.ProjectId,Intermediary_revC_4layer,496e7465-726d-4656-9469-6172795f7265,rev?*%
%TF.SameCoordinates,Original*%
%TF.FileFunction,Soldermask,Top*%
%TF.FilePolarity,Negative*%
%FSLAX46Y46*%
G04 Gerber Fmt 4.6, Leading zero omitted, Abs format (unit mm)*
G04 Created by KiCad (PCBNEW (6.0.7)) date 2022-12-19 16:29:32*
%MOMM*%
%LPD*%
G01*
G04 APERTURE LIST*
G04 Aperture macros list*
%AMRoundRect*
0 Rectangle with rounded corners*
0 $1 Rounding radius*
0 $2 $3 $4 $5 $6 $7 $8 $9 X,Y pos of 4 corners*
0 Add a 4 corners polygon primitive as box body*
4,1,4,$2,$3,$4,$5,$6,$7,$8,$9,$2,$3,0*
0 Add four circle primitives for the rounded corners*
1,1,$1+$1,$2,$3*
1,1,$1+$1,$4,$5*
1,1,$1+$1,$6,$7*
1,1,$1+$1,$8,$9*
0 Add four rect primitives between the rounded corners*
20,1,$1+$1,$2,$3,$4,$5,0*
20,1,$1+$1,$4,$5,$6,$7,0*
20,1,$1+$1,$6,$7,$8,$9,0*
20,1,$1+$1,$8,$9,$2,$3,0*%
G04 Aperture macros list end*
%ADD10C,0.010000*%
%ADD11C,0.954800*%
%ADD12C,1.300000*%
%ADD13C,1.700000*%
%ADD14O,1.700000X1.700000*%
%ADD15RoundRect,0.250000X0.312500X0.625000X-0.312500X0.625000X-0.312500X-0.625000X0.312500X-0.625000X0*%
%ADD16RoundRect,0.250000X0.375000X0.625000X-0.375000X0.625000X-0.375000X-0.625000X0.375000X-0.625000X0*%
%ADD17R,1.508000X1.508000*%
%ADD18C,1.508000*%
G04 APERTURE END LIST*
%TO.C,J5*%
G36*
X125264400Y-98772000D02*
G01*
X125292400Y-98774000D01*
X125321400Y-98778000D01*
X125349400Y-98783000D01*
X125377400Y-98790000D01*
X125405400Y-98798000D01*
X125432400Y-98808000D01*
X125459400Y-98819000D01*
X125485400Y-98831000D01*
X125510400Y-98845000D01*
X125535400Y-98860000D01*
X125558400Y-98876000D01*
X125581400Y-98894000D01*
X125603400Y-98912000D01*
X125624400Y-98932000D01*
X125644400Y-98953000D01*
X125662400Y-98975000D01*
X125680400Y-98998000D01*
X125696400Y-99021000D01*
X125711400Y-99046000D01*
X125725400Y-99071000D01*
X125737400Y-99097000D01*
X125748400Y-99124000D01*
X125758400Y-99151000D01*
X125766400Y-99179000D01*
X125773400Y-99207000D01*
X125778400Y-99235000D01*
X125782400Y-99264000D01*
X125784400Y-99292000D01*
X125785400Y-99321000D01*
X125784400Y-99350000D01*
X125782400Y-99378000D01*
X125778400Y-99407000D01*
X125773400Y-99435000D01*
X125766400Y-99463000D01*
X125758400Y-99491000D01*
X125748400Y-99518000D01*
X125737400Y-99545000D01*
X125725400Y-99571000D01*
X125711400Y-99596000D01*
X125696400Y-99621000D01*
X125680400Y-99644000D01*
X125662400Y-99667000D01*
X125644400Y-99689000D01*
X125624400Y-99710000D01*
X125603400Y-99730000D01*
X125581400Y-99748000D01*
X125558400Y-99766000D01*
X125535400Y-99782000D01*
X125510400Y-99797000D01*
X125485400Y-99811000D01*
X125459400Y-99823000D01*
X125432400Y-99834000D01*
X125405400Y-99844000D01*
X125377400Y-99852000D01*
X125349400Y-99859000D01*
X125321400Y-99864000D01*
X125292400Y-99868000D01*
X125264400Y-99870000D01*
X125235400Y-99871000D01*
X123735400Y-99871000D01*
X123706400Y-99870000D01*
X123678400Y-99868000D01*
X123649400Y-99864000D01*
X123621400Y-99859000D01*
X123593400Y-99852000D01*
X123565400Y-99844000D01*
X123538400Y-99834000D01*
X123511400Y-99823000D01*
X123485400Y-99811000D01*
X123460400Y-99797000D01*
X123435400Y-99782000D01*
X123412400Y-99766000D01*
X123389400Y-99748000D01*
X123367400Y-99730000D01*
X123346400Y-99710000D01*
X123326400Y-99689000D01*
X123308400Y-99667000D01*
X123290400Y-99644000D01*
X123274400Y-99621000D01*
X123259400Y-99596000D01*
X123245400Y-99571000D01*
X123233400Y-99545000D01*
X123222400Y-99518000D01*
X123212400Y-99491000D01*
X123204400Y-99463000D01*
X123197400Y-99435000D01*
X123192400Y-99407000D01*
X123188400Y-99378000D01*
X123186400Y-99350000D01*
X123185400Y-99321000D01*
X123186400Y-99292000D01*
X123188400Y-99264000D01*
X123192400Y-99235000D01*
X123197400Y-99207000D01*
X123204400Y-99179000D01*
X123212400Y-99151000D01*
X123222400Y-99124000D01*
X123233400Y-99097000D01*
X123245400Y-99071000D01*
X123259400Y-99046000D01*
X123274400Y-99021000D01*
X123290400Y-98998000D01*
X123308400Y-98975000D01*
X123326400Y-98953000D01*
X123346400Y-98932000D01*
X123367400Y-98912000D01*
X123389400Y-98894000D01*
X123412400Y-98876000D01*
X123435400Y-98860000D01*
X123460400Y-98845000D01*
X123485400Y-98831000D01*
X123511400Y-98819000D01*
X123538400Y-98808000D01*
X123565400Y-98798000D01*
X123593400Y-98790000D01*
X123621400Y-98783000D01*
X123649400Y-98778000D01*
X123678400Y-98774000D01*
X123706400Y-98772000D01*
X123735400Y-98771000D01*
X125235400Y-98771000D01*
X125264400Y-98772000D01*
G37*
D10*
X125264400Y-98772000D02*
X125292400Y-98774000D01*
X125321400Y-98778000D01*
X125349400Y-98783000D01*
X125377400Y-98790000D01*
X125405400Y-98798000D01*
X125432400Y-98808000D01*
X125459400Y-98819000D01*
X125485400Y-98831000D01*
X125510400Y-98845000D01*
X125535400Y-98860000D01*
X125558400Y-98876000D01*
X125581400Y-98894000D01*
X125603400Y-98912000D01*
X125624400Y-98932000D01*
X125644400Y-98953000D01*
X125662400Y-98975000D01*
X125680400Y-98998000D01*
X125696400Y-99021000D01*
X125711400Y-99046000D01*
X125725400Y-99071000D01*
X125737400Y-99097000D01*
X125748400Y-99124000D01*
X125758400Y-99151000D01*
X125766400Y-99179000D01*
X125773400Y-99207000D01*
X125778400Y-99235000D01*
X125782400Y-99264000D01*
X125784400Y-99292000D01*
X125785400Y-99321000D01*
X125784400Y-99350000D01*
X125782400Y-99378000D01*
X125778400Y-99407000D01*
X125773400Y-99435000D01*
X125766400Y-99463000D01*
X125758400Y-99491000D01*
X125748400Y-99518000D01*
X125737400Y-99545000D01*
X125725400Y-99571000D01*
X125711400Y-99596000D01*
X125696400Y-99621000D01*
X125680400Y-99644000D01*
X125662400Y-99667000D01*
X125644400Y-99689000D01*
X125624400Y-99710000D01*
X125603400Y-99730000D01*
X125581400Y-99748000D01*
X125558400Y-99766000D01*
X125535400Y-99782000D01*
X125510400Y-99797000D01*
X125485400Y-99811000D01*
X125459400Y-99823000D01*
X125432400Y-99834000D01*
X125405400Y-99844000D01*
X125377400Y-99852000D01*
X125349400Y-99859000D01*
X125321400Y-99864000D01*
X125292400Y-99868000D01*
X125264400Y-99870000D01*
X125235400Y-99871000D01*
X123735400Y-99871000D01*
X123706400Y-99870000D01*
X123678400Y-99868000D01*
X123649400Y-99864000D01*
X123621400Y-99859000D01*
X123593400Y-99852000D01*
X123565400Y-99844000D01*
X123538400Y-99834000D01*
X123511400Y-99823000D01*
X123485400Y-99811000D01*
X123460400Y-99797000D01*
X123435400Y-99782000D01*
X123412400Y-99766000D01*
X123389400Y-99748000D01*
X123367400Y-99730000D01*
X123346400Y-99710000D01*
X123326400Y-99689000D01*
X123308400Y-99667000D01*
X123290400Y-99644000D01*
X123274400Y-99621000D01*
X123259400Y-99596000D01*
X123245400Y-99571000D01*
X123233400Y-99545000D01*
X123222400Y-99518000D01*
X123212400Y-99491000D01*
X123204400Y-99463000D01*
X123197400Y-99435000D01*
X123192400Y-99407000D01*
X123188400Y-99378000D01*
X123186400Y-99350000D01*
X123185400Y-99321000D01*
X123186400Y-99292000D01*
X123188400Y-99264000D01*
X123192400Y-99235000D01*
X123197400Y-99207000D01*
X123204400Y-99179000D01*
X123212400Y-99151000D01*
X123222400Y-99124000D01*
X123233400Y-99097000D01*
X123245400Y-99071000D01*
X123259400Y-99046000D01*
X123274400Y-99021000D01*
X123290400Y-98998000D01*
X123308400Y-98975000D01*
X123326400Y-98953000D01*
X123346400Y-98932000D01*
X123367400Y-98912000D01*
X123389400Y-98894000D01*
X123412400Y-98876000D01*
X123435400Y-98860000D01*
X123460400Y-98845000D01*
X123485400Y-98831000D01*
X123511400Y-98819000D01*
X123538400Y-98808000D01*
X123565400Y-98798000D01*
X123593400Y-98790000D01*
X123621400Y-98783000D01*
X123649400Y-98778000D01*
X123678400Y-98774000D01*
X123706400Y-98772000D01*
X123735400Y-98771000D01*
X125235400Y-98771000D01*
X125264400Y-98772000D01*
G36*
X121534400Y-98772000D02*
G01*
X121562400Y-98774000D01*
X121591400Y-98778000D01*
X121619400Y-98783000D01*
X121647400Y-98790000D01*
X121675400Y-98798000D01*
X121702400Y-98808000D01*
X121729400Y-98819000D01*
X121755400Y-98831000D01*
X121780400Y-98845000D01*
X121805400Y-98860000D01*
X121828400Y-98876000D01*
X121851400Y-98894000D01*
X121873400Y-98912000D01*
X121894400Y-98932000D01*
X121914400Y-98953000D01*
X121932400Y-98975000D01*
X121950400Y-98998000D01*
X121966400Y-99021000D01*
X121981400Y-99046000D01*
X121995400Y-99071000D01*
X122007400Y-99097000D01*
X122018400Y-99124000D01*
X122028400Y-99151000D01*
X122036400Y-99179000D01*
X122043400Y-99207000D01*
X122048400Y-99235000D01*
X122052400Y-99264000D01*
X122054400Y-99292000D01*
X122055400Y-99321000D01*
X122054400Y-99350000D01*
X122052400Y-99378000D01*
X122048400Y-99407000D01*
X122043400Y-99435000D01*
X122036400Y-99463000D01*
X122028400Y-99491000D01*
X122018400Y-99518000D01*
X122007400Y-99545000D01*
X121995400Y-99571000D01*
X121981400Y-99596000D01*
X121966400Y-99621000D01*
X121950400Y-99644000D01*
X121932400Y-99667000D01*
X121914400Y-99689000D01*
X121894400Y-99710000D01*
X121873400Y-99730000D01*
X121851400Y-99748000D01*
X121828400Y-99766000D01*
X121805400Y-99782000D01*
X121780400Y-99797000D01*
X121755400Y-99811000D01*
X121729400Y-99823000D01*
X121702400Y-99834000D01*
X121675400Y-99844000D01*
X121647400Y-99852000D01*
X121619400Y-99859000D01*
X121591400Y-99864000D01*
X121562400Y-99868000D01*
X121534400Y-99870000D01*
X121505400Y-99871000D01*
X120705400Y-99871000D01*
X120676400Y-99870000D01*
X120648400Y-99868000D01*
X120619400Y-99864000D01*
X120591400Y-99859000D01*
X120563400Y-99852000D01*
X120535400Y-99844000D01*
X120508400Y-99834000D01*
X120481400Y-99823000D01*
X120455400Y-99811000D01*
X120430400Y-99797000D01*
X120405400Y-99782000D01*
X120382400Y-99766000D01*
X120359400Y-99748000D01*
X120337400Y-99730000D01*
X120316400Y-99710000D01*
X120296400Y-99689000D01*
X120278400Y-99667000D01*
X120260400Y-99644000D01*
X120244400Y-99621000D01*
X120229400Y-99596000D01*
X120215400Y-99571000D01*
X120203400Y-99545000D01*
X120192400Y-99518000D01*
X120182400Y-99491000D01*
X120174400Y-99463000D01*
X120167400Y-99435000D01*
X120162400Y-99407000D01*
X120158400Y-99378000D01*
X120156400Y-99350000D01*
X120155400Y-99321000D01*
X120156400Y-99292000D01*
X120158400Y-99264000D01*
X120162400Y-99235000D01*
X120167400Y-99207000D01*
X120174400Y-99179000D01*
X120182400Y-99151000D01*
X120192400Y-99124000D01*
X120203400Y-99097000D01*
X120215400Y-99071000D01*
X120229400Y-99046000D01*
X120244400Y-99021000D01*
X120260400Y-98998000D01*
X120278400Y-98975000D01*
X120296400Y-98953000D01*
X120316400Y-98932000D01*
X120337400Y-98912000D01*
X120359400Y-98894000D01*
X120382400Y-98876000D01*
X120405400Y-98860000D01*
X120430400Y-98845000D01*
X120455400Y-98831000D01*
X120481400Y-98819000D01*
X120508400Y-98808000D01*
X120535400Y-98798000D01*
X120563400Y-98790000D01*
X120591400Y-98783000D01*
X120619400Y-98778000D01*
X120648400Y-98774000D01*
X120676400Y-98772000D01*
X120705400Y-98771000D01*
X121505400Y-98771000D01*
X121534400Y-98772000D01*
G37*
X121534400Y-98772000D02*
X121562400Y-98774000D01*
X121591400Y-98778000D01*
X121619400Y-98783000D01*
X121647400Y-98790000D01*
X121675400Y-98798000D01*
X121702400Y-98808000D01*
X121729400Y-98819000D01*
X121755400Y-98831000D01*
X121780400Y-98845000D01*
X121805400Y-98860000D01*
X121828400Y-98876000D01*
X121851400Y-98894000D01*
X121873400Y-98912000D01*
X121894400Y-98932000D01*
X121914400Y-98953000D01*
X121932400Y-98975000D01*
X121950400Y-98998000D01*
X121966400Y-99021000D01*
X121981400Y-99046000D01*
X121995400Y-99071000D01*
X122007400Y-99097000D01*
X122018400Y-99124000D01*
X122028400Y-99151000D01*
X122036400Y-99179000D01*
X122043400Y-99207000D01*
X122048400Y-99235000D01*
X122052400Y-99264000D01*
X122054400Y-99292000D01*
X122055400Y-99321000D01*
X122054400Y-99350000D01*
X122052400Y-99378000D01*
X122048400Y-99407000D01*
X122043400Y-99435000D01*
X122036400Y-99463000D01*
X122028400Y-99491000D01*
X122018400Y-99518000D01*
X122007400Y-99545000D01*
X121995400Y-99571000D01*
X121981400Y-99596000D01*
X121966400Y-99621000D01*
X121950400Y-99644000D01*
X121932400Y-99667000D01*
X121914400Y-99689000D01*
X121894400Y-99710000D01*
X121873400Y-99730000D01*
X121851400Y-99748000D01*
X121828400Y-99766000D01*
X121805400Y-99782000D01*
X121780400Y-99797000D01*
X121755400Y-99811000D01*
X121729400Y-99823000D01*
X121702400Y-99834000D01*
X121675400Y-99844000D01*
X121647400Y-99852000D01*
X121619400Y-99859000D01*
X121591400Y-99864000D01*
X121562400Y-99868000D01*
X121534400Y-99870000D01*
X121505400Y-99871000D01*
X120705400Y-99871000D01*
X120676400Y-99870000D01*
X120648400Y-99868000D01*
X120619400Y-99864000D01*
X120591400Y-99859000D01*
X120563400Y-99852000D01*
X120535400Y-99844000D01*
X120508400Y-99834000D01*
X120481400Y-99823000D01*
X120455400Y-99811000D01*
X120430400Y-99797000D01*
X120405400Y-99782000D01*
X120382400Y-99766000D01*
X120359400Y-99748000D01*
X120337400Y-99730000D01*
X120316400Y-99710000D01*
X120296400Y-99689000D01*
X120278400Y-99667000D01*
X120260400Y-99644000D01*
X120244400Y-99621000D01*
X120229400Y-99596000D01*
X120215400Y-99571000D01*
X120203400Y-99545000D01*
X120192400Y-99518000D01*
X120182400Y-99491000D01*
X120174400Y-99463000D01*
X120167400Y-99435000D01*
X120162400Y-99407000D01*
X120158400Y-99378000D01*
X120156400Y-99350000D01*
X120155400Y-99321000D01*
X120156400Y-99292000D01*
X120158400Y-99264000D01*
X120162400Y-99235000D01*
X120167400Y-99207000D01*
X120174400Y-99179000D01*
X120182400Y-99151000D01*
X120192400Y-99124000D01*
X120203400Y-99097000D01*
X120215400Y-99071000D01*
X120229400Y-99046000D01*
X120244400Y-99021000D01*
X120260400Y-98998000D01*
X120278400Y-98975000D01*
X120296400Y-98953000D01*
X120316400Y-98932000D01*
X120337400Y-98912000D01*
X120359400Y-98894000D01*
X120382400Y-98876000D01*
X120405400Y-98860000D01*
X120430400Y-98845000D01*
X120455400Y-98831000D01*
X120481400Y-98819000D01*
X120508400Y-98808000D01*
X120535400Y-98798000D01*
X120563400Y-98790000D01*
X120591400Y-98783000D01*
X120619400Y-98778000D01*
X120648400Y-98774000D01*
X120676400Y-98772000D01*
X120705400Y-98771000D01*
X121505400Y-98771000D01*
X121534400Y-98772000D01*
G36*
X125264400Y-90122000D02*
G01*
X125292400Y-90124000D01*
X125321400Y-90128000D01*
X125349400Y-90133000D01*
X125377400Y-90140000D01*
X125405400Y-90148000D01*
X125432400Y-90158000D01*
X125459400Y-90169000D01*
X125485400Y-90181000D01*
X125510400Y-90195000D01*
X125535400Y-90210000D01*
X125558400Y-90226000D01*
X125581400Y-90244000D01*
X125603400Y-90262000D01*
X125624400Y-90282000D01*
X125644400Y-90303000D01*
X125662400Y-90325000D01*
X125680400Y-90348000D01*
X125696400Y-90371000D01*
X125711400Y-90396000D01*
X125725400Y-90421000D01*
X125737400Y-90447000D01*
X125748400Y-90474000D01*
X125758400Y-90501000D01*
X125766400Y-90529000D01*
X125773400Y-90557000D01*
X125778400Y-90585000D01*
X125782400Y-90614000D01*
X125784400Y-90642000D01*
X125785400Y-90671000D01*
X125784400Y-90700000D01*
X125782400Y-90728000D01*
X125778400Y-90757000D01*
X125773400Y-90785000D01*
X125766400Y-90813000D01*
X125758400Y-90841000D01*
X125748400Y-90868000D01*
X125737400Y-90895000D01*
X125725400Y-90921000D01*
X125711400Y-90946000D01*
X125696400Y-90971000D01*
X125680400Y-90994000D01*
X125662400Y-91017000D01*
X125644400Y-91039000D01*
X125624400Y-91060000D01*
X125603400Y-91080000D01*
X125581400Y-91098000D01*
X125558400Y-91116000D01*
X125535400Y-91132000D01*
X125510400Y-91147000D01*
X125485400Y-91161000D01*
X125459400Y-91173000D01*
X125432400Y-91184000D01*
X125405400Y-91194000D01*
X125377400Y-91202000D01*
X125349400Y-91209000D01*
X125321400Y-91214000D01*
X125292400Y-91218000D01*
X125264400Y-91220000D01*
X125235400Y-91221000D01*
X123735400Y-91221000D01*
X123706400Y-91220000D01*
X123678400Y-91218000D01*
X123649400Y-91214000D01*
X123621400Y-91209000D01*
X123593400Y-91202000D01*
X123565400Y-91194000D01*
X123538400Y-91184000D01*
X123511400Y-91173000D01*
X123485400Y-91161000D01*
X123460400Y-91147000D01*
X123435400Y-91132000D01*
X123412400Y-91116000D01*
X123389400Y-91098000D01*
X123367400Y-91080000D01*
X123346400Y-91060000D01*
X123326400Y-91039000D01*
X123308400Y-91017000D01*
X123290400Y-90994000D01*
X123274400Y-90971000D01*
X123259400Y-90946000D01*
X123245400Y-90921000D01*
X123233400Y-90895000D01*
X123222400Y-90868000D01*
X123212400Y-90841000D01*
X123204400Y-90813000D01*
X123197400Y-90785000D01*
X123192400Y-90757000D01*
X123188400Y-90728000D01*
X123186400Y-90700000D01*
X123185400Y-90671000D01*
X123186400Y-90642000D01*
X123188400Y-90614000D01*
X123192400Y-90585000D01*
X123197400Y-90557000D01*
X123204400Y-90529000D01*
X123212400Y-90501000D01*
X123222400Y-90474000D01*
X123233400Y-90447000D01*
X123245400Y-90421000D01*
X123259400Y-90396000D01*
X123274400Y-90371000D01*
X123290400Y-90348000D01*
X123308400Y-90325000D01*
X123326400Y-90303000D01*
X123346400Y-90282000D01*
X123367400Y-90262000D01*
X123389400Y-90244000D01*
X123412400Y-90226000D01*
X123435400Y-90210000D01*
X123460400Y-90195000D01*
X123485400Y-90181000D01*
X123511400Y-90169000D01*
X123538400Y-90158000D01*
X123565400Y-90148000D01*
X123593400Y-90140000D01*
X123621400Y-90133000D01*
X123649400Y-90128000D01*
X123678400Y-90124000D01*
X123706400Y-90122000D01*
X123735400Y-90121000D01*
X125235400Y-90121000D01*
X125264400Y-90122000D01*
G37*
X125264400Y-90122000D02*
X125292400Y-90124000D01*
X125321400Y-90128000D01*
X125349400Y-90133000D01*
X125377400Y-90140000D01*
X125405400Y-90148000D01*
X125432400Y-90158000D01*
X125459400Y-90169000D01*
X125485400Y-90181000D01*
X125510400Y-90195000D01*
X125535400Y-90210000D01*
X125558400Y-90226000D01*
X125581400Y-90244000D01*
X125603400Y-90262000D01*
X125624400Y-90282000D01*
X125644400Y-90303000D01*
X125662400Y-90325000D01*
X125680400Y-90348000D01*
X125696400Y-90371000D01*
X125711400Y-90396000D01*
X125725400Y-90421000D01*
X125737400Y-90447000D01*
X125748400Y-90474000D01*
X125758400Y-90501000D01*
X125766400Y-90529000D01*
X125773400Y-90557000D01*
X125778400Y-90585000D01*
X125782400Y-90614000D01*
X125784400Y-90642000D01*
X125785400Y-90671000D01*
X125784400Y-90700000D01*
X125782400Y-90728000D01*
X125778400Y-90757000D01*
X125773400Y-90785000D01*
X125766400Y-90813000D01*
X125758400Y-90841000D01*
X125748400Y-90868000D01*
X125737400Y-90895000D01*
X125725400Y-90921000D01*
X125711400Y-90946000D01*
X125696400Y-90971000D01*
X125680400Y-90994000D01*
X125662400Y-91017000D01*
X125644400Y-91039000D01*
X125624400Y-91060000D01*
X125603400Y-91080000D01*
X125581400Y-91098000D01*
X125558400Y-91116000D01*
X125535400Y-91132000D01*
X125510400Y-91147000D01*
X125485400Y-91161000D01*
X125459400Y-91173000D01*
X125432400Y-91184000D01*
X125405400Y-91194000D01*
X125377400Y-91202000D01*
X125349400Y-91209000D01*
X125321400Y-91214000D01*
X125292400Y-91218000D01*
X125264400Y-91220000D01*
X125235400Y-91221000D01*
X123735400Y-91221000D01*
X123706400Y-91220000D01*
X123678400Y-91218000D01*
X123649400Y-91214000D01*
X123621400Y-91209000D01*
X123593400Y-91202000D01*
X123565400Y-91194000D01*
X123538400Y-91184000D01*
X123511400Y-91173000D01*
X123485400Y-91161000D01*
X123460400Y-91147000D01*
X123435400Y-91132000D01*
X123412400Y-91116000D01*
X123389400Y-91098000D01*
X123367400Y-91080000D01*
X123346400Y-91060000D01*
X123326400Y-91039000D01*
X123308400Y-91017000D01*
X123290400Y-90994000D01*
X123274400Y-90971000D01*
X123259400Y-90946000D01*
X123245400Y-90921000D01*
X123233400Y-90895000D01*
X123222400Y-90868000D01*
X123212400Y-90841000D01*
X123204400Y-90813000D01*
X123197400Y-90785000D01*
X123192400Y-90757000D01*
X123188400Y-90728000D01*
X123186400Y-90700000D01*
X123185400Y-90671000D01*
X123186400Y-90642000D01*
X123188400Y-90614000D01*
X123192400Y-90585000D01*
X123197400Y-90557000D01*
X123204400Y-90529000D01*
X123212400Y-90501000D01*
X123222400Y-90474000D01*
X123233400Y-90447000D01*
X123245400Y-90421000D01*
X123259400Y-90396000D01*
X123274400Y-90371000D01*
X123290400Y-90348000D01*
X123308400Y-90325000D01*
X123326400Y-90303000D01*
X123346400Y-90282000D01*
X123367400Y-90262000D01*
X123389400Y-90244000D01*
X123412400Y-90226000D01*
X123435400Y-90210000D01*
X123460400Y-90195000D01*
X123485400Y-90181000D01*
X123511400Y-90169000D01*
X123538400Y-90158000D01*
X123565400Y-90148000D01*
X123593400Y-90140000D01*
X123621400Y-90133000D01*
X123649400Y-90128000D01*
X123678400Y-90124000D01*
X123706400Y-90122000D01*
X123735400Y-90121000D01*
X125235400Y-90121000D01*
X125264400Y-90122000D01*
G36*
X121534400Y-90122000D02*
G01*
X121562400Y-90124000D01*
X121591400Y-90128000D01*
X121619400Y-90133000D01*
X121647400Y-90140000D01*
X121675400Y-90148000D01*
X121702400Y-90158000D01*
X121729400Y-90169000D01*
X121755400Y-90181000D01*
X121780400Y-90195000D01*
X121805400Y-90210000D01*
X121828400Y-90226000D01*
X121851400Y-90244000D01*
X121873400Y-90262000D01*
X121894400Y-90282000D01*
X121914400Y-90303000D01*
X121932400Y-90325000D01*
X121950400Y-90348000D01*
X121966400Y-90371000D01*
X121981400Y-90396000D01*
X121995400Y-90421000D01*
X122007400Y-90447000D01*
X122018400Y-90474000D01*
X122028400Y-90501000D01*
X122036400Y-90529000D01*
X122043400Y-90557000D01*
X122048400Y-90585000D01*
X122052400Y-90614000D01*
X122054400Y-90642000D01*
X122055400Y-90671000D01*
X122054400Y-90700000D01*
X122052400Y-90728000D01*
X122048400Y-90757000D01*
X122043400Y-90785000D01*
X122036400Y-90813000D01*
X122028400Y-90841000D01*
X122018400Y-90868000D01*
X122007400Y-90895000D01*
X121995400Y-90921000D01*
X121981400Y-90946000D01*
X121966400Y-90971000D01*
X121950400Y-90994000D01*
X121932400Y-91017000D01*
X121914400Y-91039000D01*
X121894400Y-91060000D01*
X121873400Y-91080000D01*
X121851400Y-91098000D01*
X121828400Y-91116000D01*
X121805400Y-91132000D01*
X121780400Y-91147000D01*
X121755400Y-91161000D01*
X121729400Y-91173000D01*
X121702400Y-91184000D01*
X121675400Y-91194000D01*
X121647400Y-91202000D01*
X121619400Y-91209000D01*
X121591400Y-91214000D01*
X121562400Y-91218000D01*
X121534400Y-91220000D01*
X121505400Y-91221000D01*
X120705400Y-91221000D01*
X120676400Y-91220000D01*
X120648400Y-91218000D01*
X120619400Y-91214000D01*
X120591400Y-91209000D01*
X120563400Y-91202000D01*
X120535400Y-91194000D01*
X120508400Y-91184000D01*
X120481400Y-91173000D01*
X120455400Y-91161000D01*
X120430400Y-91147000D01*
X120405400Y-91132000D01*
X120382400Y-91116000D01*
X120359400Y-91098000D01*
X120337400Y-91080000D01*
X120316400Y-91060000D01*
X120296400Y-91039000D01*
X120278400Y-91017000D01*
X120260400Y-90994000D01*
X120244400Y-90971000D01*
X120229400Y-90946000D01*
X120215400Y-90921000D01*
X120203400Y-90895000D01*
X120192400Y-90868000D01*
X120182400Y-90841000D01*
X120174400Y-90813000D01*
X120167400Y-90785000D01*
X120162400Y-90757000D01*
X120158400Y-90728000D01*
X120156400Y-90700000D01*
X120155400Y-90671000D01*
X120156400Y-90642000D01*
X120158400Y-90614000D01*
X120162400Y-90585000D01*
X120167400Y-90557000D01*
X120174400Y-90529000D01*
X120182400Y-90501000D01*
X120192400Y-90474000D01*
X120203400Y-90447000D01*
X120215400Y-90421000D01*
X120229400Y-90396000D01*
X120244400Y-90371000D01*
X120260400Y-90348000D01*
X120278400Y-90325000D01*
X120296400Y-90303000D01*
X120316400Y-90282000D01*
X120337400Y-90262000D01*
X120359400Y-90244000D01*
X120382400Y-90226000D01*
X120405400Y-90210000D01*
X120430400Y-90195000D01*
X120455400Y-90181000D01*
X120481400Y-90169000D01*
X120508400Y-90158000D01*
X120535400Y-90148000D01*
X120563400Y-90140000D01*
X120591400Y-90133000D01*
X120619400Y-90128000D01*
X120648400Y-90124000D01*
X120676400Y-90122000D01*
X120705400Y-90121000D01*
X121505400Y-90121000D01*
X121534400Y-90122000D01*
G37*
X121534400Y-90122000D02*
X121562400Y-90124000D01*
X121591400Y-90128000D01*
X121619400Y-90133000D01*
X121647400Y-90140000D01*
X121675400Y-90148000D01*
X121702400Y-90158000D01*
X121729400Y-90169000D01*
X121755400Y-90181000D01*
X121780400Y-90195000D01*
X121805400Y-90210000D01*
X121828400Y-90226000D01*
X121851400Y-90244000D01*
X121873400Y-90262000D01*
X121894400Y-90282000D01*
X121914400Y-90303000D01*
X121932400Y-90325000D01*
X121950400Y-90348000D01*
X121966400Y-90371000D01*
X121981400Y-90396000D01*
X121995400Y-90421000D01*
X122007400Y-90447000D01*
X122018400Y-90474000D01*
X122028400Y-90501000D01*
X122036400Y-90529000D01*
X122043400Y-90557000D01*
X122048400Y-90585000D01*
X122052400Y-90614000D01*
X122054400Y-90642000D01*
X122055400Y-90671000D01*
X122054400Y-90700000D01*
X122052400Y-90728000D01*
X122048400Y-90757000D01*
X122043400Y-90785000D01*
X122036400Y-90813000D01*
X122028400Y-90841000D01*
X122018400Y-90868000D01*
X122007400Y-90895000D01*
X121995400Y-90921000D01*
X121981400Y-90946000D01*
X121966400Y-90971000D01*
X121950400Y-90994000D01*
X121932400Y-91017000D01*
X121914400Y-91039000D01*
X121894400Y-91060000D01*
X121873400Y-91080000D01*
X121851400Y-91098000D01*
X121828400Y-91116000D01*
X121805400Y-91132000D01*
X121780400Y-91147000D01*
X121755400Y-91161000D01*
X121729400Y-91173000D01*
X121702400Y-91184000D01*
X121675400Y-91194000D01*
X121647400Y-91202000D01*
X121619400Y-91209000D01*
X121591400Y-91214000D01*
X121562400Y-91218000D01*
X121534400Y-91220000D01*
X121505400Y-91221000D01*
X120705400Y-91221000D01*
X120676400Y-91220000D01*
X120648400Y-91218000D01*
X120619400Y-91214000D01*
X120591400Y-91209000D01*
X120563400Y-91202000D01*
X120535400Y-91194000D01*
X120508400Y-91184000D01*
X120481400Y-91173000D01*
X120455400Y-91161000D01*
X120430400Y-91147000D01*
X120405400Y-91132000D01*
X120382400Y-91116000D01*
X120359400Y-91098000D01*
X120337400Y-91080000D01*
X120316400Y-91060000D01*
X120296400Y-91039000D01*
X120278400Y-91017000D01*
X120260400Y-90994000D01*
X120244400Y-90971000D01*
X120229400Y-90946000D01*
X120215400Y-90921000D01*
X120203400Y-90895000D01*
X120192400Y-90868000D01*
X120182400Y-90841000D01*
X120174400Y-90813000D01*
X120167400Y-90785000D01*
X120162400Y-90757000D01*
X120158400Y-90728000D01*
X120156400Y-90700000D01*
X120155400Y-90671000D01*
X120156400Y-90642000D01*
X120158400Y-90614000D01*
X120162400Y-90585000D01*
X120167400Y-90557000D01*
X120174400Y-90529000D01*
X120182400Y-90501000D01*
X120192400Y-90474000D01*
X120203400Y-90447000D01*
X120215400Y-90421000D01*
X120229400Y-90396000D01*
X120244400Y-90371000D01*
X120260400Y-90348000D01*
X120278400Y-90325000D01*
X120296400Y-90303000D01*
X120316400Y-90282000D01*
X120337400Y-90262000D01*
X120359400Y-90244000D01*
X120382400Y-90226000D01*
X120405400Y-90210000D01*
X120430400Y-90195000D01*
X120455400Y-90181000D01*
X120481400Y-90169000D01*
X120508400Y-90158000D01*
X120535400Y-90148000D01*
X120563400Y-90140000D01*
X120591400Y-90133000D01*
X120619400Y-90128000D01*
X120648400Y-90124000D01*
X120676400Y-90122000D01*
X120705400Y-90121000D01*
X121505400Y-90121000D01*
X121534400Y-90122000D01*
%TD*%
D11*
%TO.C,J5*%
X125465400Y-92021000D03*
X125465400Y-92871000D03*
X125465400Y-93721000D03*
X125465400Y-94571000D03*
X125465400Y-95421000D03*
X125465400Y-96271000D03*
X125465400Y-97121000D03*
X125465400Y-97971000D03*
X124115400Y-97971000D03*
X124115400Y-97121000D03*
X124115400Y-96271000D03*
X124115400Y-95421000D03*
X124115400Y-94571000D03*
X124115400Y-93721000D03*
X124115400Y-92871000D03*
X124115400Y-92021000D03*
%TD*%
D12*
%TO.C,H3*%
X168148000Y-85852000D03*
%TD*%
%TO.C,H2*%
X168148000Y-104013000D03*
%TD*%
%TO.C,H1*%
X121158000Y-97282000D03*
%TD*%
D13*
%TO.C,J1*%
X129112200Y-104775000D03*
D14*
X131652200Y-104775000D03*
X134192200Y-104775000D03*
X136732200Y-104775000D03*
X139272200Y-104775000D03*
X141812200Y-104775000D03*
%TD*%
D13*
%TO.C,J3*%
X129137200Y-85090000D03*
D14*
X131677200Y-85090000D03*
X134217200Y-85090000D03*
X136757200Y-85090000D03*
X139297200Y-85090000D03*
X141837200Y-85090000D03*
%TD*%
D15*
%TO.C,R10*%
X125552200Y-88468200D03*
X122627200Y-88468200D03*
%TD*%
D16*
%TO.C,D1*%
X125425200Y-101574600D03*
X122625200Y-101574600D03*
%TD*%
D13*
%TO.C,J6*%
X165862000Y-97394000D03*
D14*
X165862000Y-94854000D03*
X165862000Y-92314000D03*
%TD*%
D13*
%TO.C,J4*%
X148949200Y-85090000D03*
D14*
X151489200Y-85090000D03*
X154029200Y-85090000D03*
X156569200Y-85090000D03*
X159109200Y-85090000D03*
X161649200Y-85090000D03*
%TD*%
D13*
%TO.C,J2*%
X148924200Y-104775000D03*
D14*
X151464200Y-104775000D03*
X154004200Y-104775000D03*
X156544200Y-104775000D03*
X159084200Y-104775000D03*
X161624200Y-104775000D03*
%TD*%
D16*
%TO.C,D3*%
X125425200Y-104140000D03*
X122625200Y-104140000D03*
%TD*%
%TO.C,D4*%
X125476000Y-85852000D03*
X122676000Y-85852000D03*
%TD*%
D17*
%TO.C,U1*%
X128858200Y-98764500D03*
D18*
X131398200Y-98764500D03*
X133938200Y-98764500D03*
X136478200Y-98764500D03*
X139018200Y-98764500D03*
X141558200Y-98764500D03*
X144098200Y-98764500D03*
X146638200Y-98764500D03*
X149178200Y-98764500D03*
X151718200Y-98764500D03*
X154258200Y-98764500D03*
X156798200Y-98764500D03*
X159338200Y-98764500D03*
X161878200Y-98764500D03*
X161878200Y-91144500D03*
X159338200Y-91144500D03*
X156798200Y-91144500D03*
X154258200Y-91144500D03*
X151718200Y-91144500D03*
X149178200Y-91144500D03*
X146638200Y-91144500D03*
X144098200Y-91144500D03*
X141558200Y-91144500D03*
X139018200Y-91144500D03*
X136478200Y-91144500D03*
X133938200Y-91144500D03*
X131398200Y-91144500D03*
X128858200Y-91144500D03*
%TD*%
M02*
