%TF.GenerationSoftware,KiCad,Pcbnew,(6.0.7)*%
%TF.CreationDate,2022-12-19T16:29:39-08:00*%
%TF.ProjectId,Intermediary_revC_4layer,496e7465-726d-4656-9469-6172795f7265,rev?*%
%TF.SameCoordinates,Original*%
%TF.FileFunction,Drillmap*%
%TF.FilePolarity,Positive*%
%FSLAX45Y45*%
G04 Gerber Fmt 4.5, Leading zero omitted, Abs format (unit mm)*
G04 Created by KiCad (PCBNEW (6.0.7)) date 2022-12-19 16:29:39*
%MOMM*%
%LPD*%
G01*
G04 APERTURE LIST*
%ADD10C,0.100000*%
%ADD11C,0.200000*%
%ADD12C,0.030000*%
%ADD13C,0.040000*%
%ADD14C,0.060000*%
G04 APERTURE END LIST*
D10*
X16764000Y-10604500D02*
G75*
G03*
X17018000Y-10350500I0J254000D01*
G01*
X12192000Y-8382000D02*
G75*
G03*
X11938000Y-8636000I0J-254000D01*
G01*
X12192000Y-8382000D02*
X16764000Y-8382000D01*
X17018000Y-8636000D02*
G75*
G03*
X16764000Y-8382000I-254000J0D01*
G01*
X11938000Y-10350500D02*
X11938000Y-8636000D01*
X16764000Y-10604500D02*
X12192000Y-10604500D01*
X11938000Y-10350500D02*
G75*
G03*
X12192000Y-10604500I254000J0D01*
G01*
X17018000Y-8636000D02*
X17018000Y-10350500D01*
D11*
D12*
X12075400Y-9408400D02*
X12105400Y-9438400D01*
X12105400Y-9408400D02*
X12075400Y-9438400D01*
X12247520Y-10270060D02*
X12277520Y-10300060D01*
X12277520Y-10270060D02*
X12247520Y-10300060D01*
X12260830Y-9743670D02*
X12290830Y-9773670D01*
X12290830Y-9743670D02*
X12260830Y-9773670D01*
X12423380Y-8570200D02*
X12453380Y-8600200D01*
X12453380Y-8570200D02*
X12423380Y-8600200D01*
X12540220Y-8966440D02*
X12570220Y-8996440D01*
X12570220Y-8966440D02*
X12540220Y-8996440D01*
X12665070Y-10157693D02*
X12695070Y-10187693D01*
X12695070Y-10157693D02*
X12665070Y-10187693D01*
X12665258Y-9573865D02*
X12695258Y-9603865D01*
X12695258Y-9573865D02*
X12665258Y-9603865D01*
X12667620Y-9471900D02*
X12697620Y-9501900D01*
X12697620Y-9471900D02*
X12667620Y-9501900D01*
X12672300Y-8798800D02*
X12702300Y-8828800D01*
X12702300Y-8798800D02*
X12672300Y-8828800D01*
X12717970Y-10487900D02*
X12747970Y-10517900D01*
X12747970Y-10487900D02*
X12717970Y-10517900D01*
X12739162Y-10356642D02*
X12769162Y-10386642D01*
X12769162Y-10356642D02*
X12739162Y-10386642D01*
X12776440Y-10015460D02*
X12806440Y-10045460D01*
X12806440Y-10015460D02*
X12776440Y-10045460D01*
X12928840Y-8798800D02*
X12958840Y-8828800D01*
X12958840Y-8798800D02*
X12928840Y-8828800D01*
X13107040Y-9471500D02*
X13137040Y-9501500D01*
X13137040Y-9471500D02*
X13107040Y-9501500D01*
X13281900Y-8798800D02*
X13311900Y-8828800D01*
X13311900Y-8798800D02*
X13281900Y-8828800D01*
X13477300Y-9467000D02*
X13507300Y-9497000D01*
X13507300Y-9467000D02*
X13477300Y-9497000D01*
X13543520Y-10157700D02*
X13573520Y-10187700D01*
X13573520Y-10157700D02*
X13543520Y-10187700D01*
X13772120Y-9466820D02*
X13802120Y-9496820D01*
X13802120Y-9466820D02*
X13772120Y-9496820D01*
X14000720Y-8798800D02*
X14030720Y-8828800D01*
X14030720Y-8798800D02*
X14000720Y-8828800D01*
X14008340Y-9385540D02*
X14038340Y-9415540D01*
X14038340Y-9385540D02*
X14008340Y-9415540D01*
X14028660Y-10157700D02*
X14058660Y-10187700D01*
X14058660Y-10157700D02*
X14028660Y-10187700D01*
X14099780Y-9291560D02*
X14129780Y-9321560D01*
X14129780Y-9291560D02*
X14099780Y-9321560D01*
X14234400Y-9421100D02*
X14264400Y-9451100D01*
X14264400Y-9421100D02*
X14234400Y-9451100D01*
X14234400Y-9548100D02*
X14264400Y-9578100D01*
X14264400Y-9548100D02*
X14234400Y-9578100D01*
X14361400Y-9421100D02*
X14391400Y-9451100D01*
X14391400Y-9421100D02*
X14361400Y-9451100D01*
X14361400Y-9548100D02*
X14391400Y-9578100D01*
X14391400Y-9548100D02*
X14361400Y-9578100D01*
X14513800Y-10155160D02*
X14543800Y-10185160D01*
X14543800Y-10155160D02*
X14513800Y-10185160D01*
X14569680Y-8798800D02*
X14599680Y-8828800D01*
X14599680Y-8798800D02*
X14569680Y-8828800D01*
X14838920Y-9611600D02*
X14868920Y-9641600D01*
X14868920Y-9611600D02*
X14838920Y-9641600D01*
X15054820Y-8798800D02*
X15084820Y-8828800D01*
X15084820Y-8798800D02*
X15054820Y-8828800D01*
X15120860Y-9357600D02*
X15150860Y-9387600D01*
X15150860Y-9357600D02*
X15120860Y-9387600D01*
X15397720Y-9611600D02*
X15427720Y-9641600D01*
X15427720Y-9611600D02*
X15397720Y-9641600D01*
X15727920Y-10157700D02*
X15757920Y-10187700D01*
X15757920Y-10157700D02*
X15727920Y-10187700D01*
X15987000Y-8798800D02*
X16017000Y-8828800D01*
X16017000Y-8798800D02*
X15987000Y-8828800D01*
D13*
X12431540Y-9202100D02*
G75*
G03*
X12431540Y-9202100I-20000J0D01*
G01*
X12431540Y-9287100D02*
G75*
G03*
X12431540Y-9287100I-20000J0D01*
G01*
X12431540Y-9372100D02*
G75*
G03*
X12431540Y-9372100I-20000J0D01*
G01*
X12431540Y-9457100D02*
G75*
G03*
X12431540Y-9457100I-20000J0D01*
G01*
X12431540Y-9542100D02*
G75*
G03*
X12431540Y-9542100I-20000J0D01*
G01*
X12431540Y-9627100D02*
G75*
G03*
X12431540Y-9627100I-20000J0D01*
G01*
X12431540Y-9712100D02*
G75*
G03*
X12431540Y-9712100I-20000J0D01*
G01*
X12431540Y-9797100D02*
G75*
G03*
X12431540Y-9797100I-20000J0D01*
G01*
X12566540Y-9202100D02*
G75*
G03*
X12566540Y-9202100I-20000J0D01*
G01*
X12566540Y-9287100D02*
G75*
G03*
X12566540Y-9287100I-20000J0D01*
G01*
X12566540Y-9372100D02*
G75*
G03*
X12566540Y-9372100I-20000J0D01*
G01*
X12566540Y-9457100D02*
G75*
G03*
X12566540Y-9457100I-20000J0D01*
G01*
X12566540Y-9542100D02*
G75*
G03*
X12566540Y-9542100I-20000J0D01*
G01*
X12566540Y-9627100D02*
G75*
G03*
X12566540Y-9627100I-20000J0D01*
G01*
X12566540Y-9712100D02*
G75*
G03*
X12566540Y-9712100I-20000J0D01*
G01*
X12566540Y-9797100D02*
G75*
G03*
X12566540Y-9797100I-20000J0D01*
G01*
D14*
X12110540Y-9037100D02*
X12110540Y-9097100D01*
X12080540Y-9067100D02*
X12140540Y-9067100D01*
D11*
X12150540Y-9037100D02*
X12070540Y-9037100D01*
X12150540Y-9097100D02*
X12070540Y-9097100D01*
X12070540Y-9037100D02*
G75*
G03*
X12070540Y-9097100I0J-30000D01*
G01*
X12150540Y-9097100D02*
G75*
G03*
X12150540Y-9037100I0J30000D01*
G01*
D14*
X12110540Y-9902100D02*
X12110540Y-9962100D01*
X12080540Y-9932100D02*
X12140540Y-9932100D01*
D11*
X12150540Y-9902100D02*
X12070540Y-9902100D01*
X12150540Y-9962100D02*
X12070540Y-9962100D01*
X12070540Y-9902100D02*
G75*
G03*
X12070540Y-9962100I0J-30000D01*
G01*
X12150540Y-9962100D02*
G75*
G03*
X12150540Y-9902100I0J30000D01*
G01*
D14*
X12448540Y-9037100D02*
X12448540Y-9097100D01*
X12418540Y-9067100D02*
X12478540Y-9067100D01*
D11*
X12523540Y-9037100D02*
X12373540Y-9037100D01*
X12523540Y-9097100D02*
X12373540Y-9097100D01*
X12373540Y-9037100D02*
G75*
G03*
X12373540Y-9097100I0J-30000D01*
G01*
X12523540Y-9097100D02*
G75*
G03*
X12523540Y-9037100I0J30000D01*
G01*
D14*
X12448540Y-9902100D02*
X12448540Y-9962100D01*
X12418540Y-9932100D02*
X12478540Y-9932100D01*
D11*
X12523540Y-9902100D02*
X12373540Y-9902100D01*
X12523540Y-9962100D02*
X12373540Y-9962100D01*
X12373540Y-9902100D02*
G75*
G03*
X12373540Y-9962100I0J-30000D01*
G01*
X12523540Y-9962100D02*
G75*
G03*
X12523540Y-9902100I0J30000D01*
G01*
D10*
X12921176Y-9149806D02*
X12921176Y-9079094D01*
X12850464Y-9079094D01*
X12850464Y-9149806D01*
X12921176Y-9149806D01*
X12921176Y-9911806D02*
X12921176Y-9841094D01*
X12850464Y-9841094D01*
X12850464Y-9911806D01*
X12921176Y-9911806D01*
X12946576Y-10512856D02*
X12946576Y-10442144D01*
X12875864Y-10442144D01*
X12875864Y-10512856D01*
X12946576Y-10512856D01*
X12949076Y-8544356D02*
X12949076Y-8473644D01*
X12878364Y-8473644D01*
X12878364Y-8544356D01*
X12949076Y-8544356D01*
X13175176Y-9149806D02*
X13175176Y-9079094D01*
X13104464Y-9079094D01*
X13104464Y-9149806D01*
X13175176Y-9149806D01*
X13175176Y-9911806D02*
X13175176Y-9841094D01*
X13104464Y-9841094D01*
X13104464Y-9911806D01*
X13175176Y-9911806D01*
X13200576Y-10512856D02*
X13200576Y-10442144D01*
X13129864Y-10442144D01*
X13129864Y-10512856D01*
X13200576Y-10512856D01*
X13203076Y-8544356D02*
X13203076Y-8473644D01*
X13132364Y-8473644D01*
X13132364Y-8544356D01*
X13203076Y-8544356D01*
X13429176Y-9149806D02*
X13429176Y-9079094D01*
X13358464Y-9079094D01*
X13358464Y-9149806D01*
X13429176Y-9149806D01*
X13429176Y-9911806D02*
X13429176Y-9841094D01*
X13358464Y-9841094D01*
X13358464Y-9911806D01*
X13429176Y-9911806D01*
X13454576Y-10512856D02*
X13454576Y-10442144D01*
X13383864Y-10442144D01*
X13383864Y-10512856D01*
X13454576Y-10512856D01*
X13457076Y-8544356D02*
X13457076Y-8473644D01*
X13386364Y-8473644D01*
X13386364Y-8544356D01*
X13457076Y-8544356D01*
X13683176Y-9149806D02*
X13683176Y-9079094D01*
X13612464Y-9079094D01*
X13612464Y-9149806D01*
X13683176Y-9149806D01*
X13683176Y-9911806D02*
X13683176Y-9841094D01*
X13612464Y-9841094D01*
X13612464Y-9911806D01*
X13683176Y-9911806D01*
X13708576Y-10512856D02*
X13708576Y-10442144D01*
X13637864Y-10442144D01*
X13637864Y-10512856D01*
X13708576Y-10512856D01*
X13711076Y-8544356D02*
X13711076Y-8473644D01*
X13640364Y-8473644D01*
X13640364Y-8544356D01*
X13711076Y-8544356D01*
X13937176Y-9149806D02*
X13937176Y-9079094D01*
X13866464Y-9079094D01*
X13866464Y-9149806D01*
X13937176Y-9149806D01*
X13937176Y-9911806D02*
X13937176Y-9841094D01*
X13866464Y-9841094D01*
X13866464Y-9911806D01*
X13937176Y-9911806D01*
X13962576Y-10512856D02*
X13962576Y-10442144D01*
X13891864Y-10442144D01*
X13891864Y-10512856D01*
X13962576Y-10512856D01*
X13965076Y-8544356D02*
X13965076Y-8473644D01*
X13894364Y-8473644D01*
X13894364Y-8544356D01*
X13965076Y-8544356D01*
X14191176Y-9149806D02*
X14191176Y-9079094D01*
X14120464Y-9079094D01*
X14120464Y-9149806D01*
X14191176Y-9149806D01*
X14191176Y-9911806D02*
X14191176Y-9841094D01*
X14120464Y-9841094D01*
X14120464Y-9911806D01*
X14191176Y-9911806D01*
X14216576Y-10512856D02*
X14216576Y-10442144D01*
X14145864Y-10442144D01*
X14145864Y-10512856D01*
X14216576Y-10512856D01*
X14219076Y-8544356D02*
X14219076Y-8473644D01*
X14148364Y-8473644D01*
X14148364Y-8544356D01*
X14219076Y-8544356D01*
X14445176Y-9149806D02*
X14445176Y-9079094D01*
X14374464Y-9079094D01*
X14374464Y-9149806D01*
X14445176Y-9149806D01*
X14445176Y-9911806D02*
X14445176Y-9841094D01*
X14374464Y-9841094D01*
X14374464Y-9911806D01*
X14445176Y-9911806D01*
X14699176Y-9149806D02*
X14699176Y-9079094D01*
X14628464Y-9079094D01*
X14628464Y-9149806D01*
X14699176Y-9149806D01*
X14699176Y-9911806D02*
X14699176Y-9841094D01*
X14628464Y-9841094D01*
X14628464Y-9911806D01*
X14699176Y-9911806D01*
X14927776Y-10512856D02*
X14927776Y-10442144D01*
X14857064Y-10442144D01*
X14857064Y-10512856D01*
X14927776Y-10512856D01*
X14930276Y-8544356D02*
X14930276Y-8473644D01*
X14859564Y-8473644D01*
X14859564Y-8544356D01*
X14930276Y-8544356D01*
X14953176Y-9149806D02*
X14953176Y-9079094D01*
X14882464Y-9079094D01*
X14882464Y-9149806D01*
X14953176Y-9149806D01*
X14953176Y-9911806D02*
X14953176Y-9841094D01*
X14882464Y-9841094D01*
X14882464Y-9911806D01*
X14953176Y-9911806D01*
X15181776Y-10512856D02*
X15181776Y-10442144D01*
X15111064Y-10442144D01*
X15111064Y-10512856D01*
X15181776Y-10512856D01*
X15184276Y-8544356D02*
X15184276Y-8473644D01*
X15113564Y-8473644D01*
X15113564Y-8544356D01*
X15184276Y-8544356D01*
X15207176Y-9149806D02*
X15207176Y-9079094D01*
X15136464Y-9079094D01*
X15136464Y-9149806D01*
X15207176Y-9149806D01*
X15207176Y-9911806D02*
X15207176Y-9841094D01*
X15136464Y-9841094D01*
X15136464Y-9911806D01*
X15207176Y-9911806D01*
X15435776Y-10512856D02*
X15435776Y-10442144D01*
X15365064Y-10442144D01*
X15365064Y-10512856D01*
X15435776Y-10512856D01*
X15438276Y-8544356D02*
X15438276Y-8473644D01*
X15367564Y-8473644D01*
X15367564Y-8544356D01*
X15438276Y-8544356D01*
X15461176Y-9149806D02*
X15461176Y-9079094D01*
X15390464Y-9079094D01*
X15390464Y-9149806D01*
X15461176Y-9149806D01*
X15461176Y-9911806D02*
X15461176Y-9841094D01*
X15390464Y-9841094D01*
X15390464Y-9911806D01*
X15461176Y-9911806D01*
X15689776Y-10512856D02*
X15689776Y-10442144D01*
X15619064Y-10442144D01*
X15619064Y-10512856D01*
X15689776Y-10512856D01*
X15692276Y-8544356D02*
X15692276Y-8473644D01*
X15621564Y-8473644D01*
X15621564Y-8544356D01*
X15692276Y-8544356D01*
X15715176Y-9149806D02*
X15715176Y-9079094D01*
X15644464Y-9079094D01*
X15644464Y-9149806D01*
X15715176Y-9149806D01*
X15715176Y-9911806D02*
X15715176Y-9841094D01*
X15644464Y-9841094D01*
X15644464Y-9911806D01*
X15715176Y-9911806D01*
X15943776Y-10512856D02*
X15943776Y-10442144D01*
X15873064Y-10442144D01*
X15873064Y-10512856D01*
X15943776Y-10512856D01*
X15946276Y-8544356D02*
X15946276Y-8473644D01*
X15875564Y-8473644D01*
X15875564Y-8544356D01*
X15946276Y-8544356D01*
X15969176Y-9149806D02*
X15969176Y-9079094D01*
X15898464Y-9079094D01*
X15898464Y-9149806D01*
X15969176Y-9149806D01*
X15969176Y-9911806D02*
X15969176Y-9841094D01*
X15898464Y-9841094D01*
X15898464Y-9911806D01*
X15969176Y-9911806D01*
X16197776Y-10512856D02*
X16197776Y-10442144D01*
X16127064Y-10442144D01*
X16127064Y-10512856D01*
X16197776Y-10512856D01*
X16200276Y-8544356D02*
X16200276Y-8473644D01*
X16129564Y-8473644D01*
X16129564Y-8544356D01*
X16200276Y-8544356D01*
X16223176Y-9149806D02*
X16223176Y-9079094D01*
X16152464Y-9079094D01*
X16152464Y-9149806D01*
X16223176Y-9149806D01*
X16223176Y-9911806D02*
X16223176Y-9841094D01*
X16152464Y-9841094D01*
X16152464Y-9911806D01*
X16223176Y-9911806D01*
X16621556Y-9266756D02*
X16621556Y-9196044D01*
X16550844Y-9196044D01*
X16550844Y-9266756D01*
X16621556Y-9266756D01*
X16621556Y-9520756D02*
X16621556Y-9450044D01*
X16550844Y-9450044D01*
X16550844Y-9520756D01*
X16621556Y-9520756D01*
X16621556Y-9774756D02*
X16621556Y-9704044D01*
X16550844Y-9704044D01*
X16550844Y-9774756D01*
X16621556Y-9774756D01*
D11*
X12190619Y-10919976D02*
X12190619Y-10719976D01*
X12238238Y-10719976D01*
X12266809Y-10729500D01*
X12285857Y-10748548D01*
X12295381Y-10767595D01*
X12304905Y-10805690D01*
X12304905Y-10834262D01*
X12295381Y-10872357D01*
X12285857Y-10891405D01*
X12266809Y-10910452D01*
X12238238Y-10919976D01*
X12190619Y-10919976D01*
X12390619Y-10919976D02*
X12390619Y-10786643D01*
X12390619Y-10824738D02*
X12400143Y-10805690D01*
X12409667Y-10796167D01*
X12428714Y-10786643D01*
X12447762Y-10786643D01*
X12514428Y-10919976D02*
X12514428Y-10786643D01*
X12514428Y-10719976D02*
X12504905Y-10729500D01*
X12514428Y-10739024D01*
X12523952Y-10729500D01*
X12514428Y-10719976D01*
X12514428Y-10739024D01*
X12638238Y-10919976D02*
X12619190Y-10910452D01*
X12609667Y-10891405D01*
X12609667Y-10719976D01*
X12743000Y-10919976D02*
X12723952Y-10910452D01*
X12714428Y-10891405D01*
X12714428Y-10719976D01*
X12971571Y-10919976D02*
X12971571Y-10719976D01*
X13038238Y-10862833D01*
X13104905Y-10719976D01*
X13104905Y-10919976D01*
X13285857Y-10919976D02*
X13285857Y-10815214D01*
X13276333Y-10796167D01*
X13257286Y-10786643D01*
X13219190Y-10786643D01*
X13200143Y-10796167D01*
X13285857Y-10910452D02*
X13266809Y-10919976D01*
X13219190Y-10919976D01*
X13200143Y-10910452D01*
X13190619Y-10891405D01*
X13190619Y-10872357D01*
X13200143Y-10853310D01*
X13219190Y-10843786D01*
X13266809Y-10843786D01*
X13285857Y-10834262D01*
X13381095Y-10786643D02*
X13381095Y-10986643D01*
X13381095Y-10796167D02*
X13400143Y-10786643D01*
X13438238Y-10786643D01*
X13457286Y-10796167D01*
X13466809Y-10805690D01*
X13476333Y-10824738D01*
X13476333Y-10881881D01*
X13466809Y-10900929D01*
X13457286Y-10910452D01*
X13438238Y-10919976D01*
X13400143Y-10919976D01*
X13381095Y-10910452D01*
X13562048Y-10900929D02*
X13571571Y-10910452D01*
X13562048Y-10919976D01*
X13552524Y-10910452D01*
X13562048Y-10900929D01*
X13562048Y-10919976D01*
X13562048Y-10796167D02*
X13571571Y-10805690D01*
X13562048Y-10815214D01*
X13552524Y-10805690D01*
X13562048Y-10796167D01*
X13562048Y-10815214D01*
D12*
X11903000Y-11234500D02*
X11933000Y-11264500D01*
X11933000Y-11234500D02*
X11903000Y-11264500D01*
D11*
X12228714Y-11139976D02*
X12247762Y-11139976D01*
X12266809Y-11149500D01*
X12276333Y-11159024D01*
X12285857Y-11178071D01*
X12295381Y-11216167D01*
X12295381Y-11263786D01*
X12285857Y-11301881D01*
X12276333Y-11320928D01*
X12266809Y-11330452D01*
X12247762Y-11339976D01*
X12228714Y-11339976D01*
X12209667Y-11330452D01*
X12200143Y-11320928D01*
X12190619Y-11301881D01*
X12181095Y-11263786D01*
X12181095Y-11216167D01*
X12190619Y-11178071D01*
X12200143Y-11159024D01*
X12209667Y-11149500D01*
X12228714Y-11139976D01*
X12381095Y-11320928D02*
X12390619Y-11330452D01*
X12381095Y-11339976D01*
X12371571Y-11330452D01*
X12381095Y-11320928D01*
X12381095Y-11339976D01*
X12457286Y-11139976D02*
X12581095Y-11139976D01*
X12514428Y-11216167D01*
X12543000Y-11216167D01*
X12562048Y-11225690D01*
X12571571Y-11235214D01*
X12581095Y-11254262D01*
X12581095Y-11301881D01*
X12571571Y-11320928D01*
X12562048Y-11330452D01*
X12543000Y-11339976D01*
X12485857Y-11339976D01*
X12466809Y-11330452D01*
X12457286Y-11320928D01*
X12704905Y-11139976D02*
X12723952Y-11139976D01*
X12743000Y-11149500D01*
X12752524Y-11159024D01*
X12762048Y-11178071D01*
X12771571Y-11216167D01*
X12771571Y-11263786D01*
X12762048Y-11301881D01*
X12752524Y-11320928D01*
X12743000Y-11330452D01*
X12723952Y-11339976D01*
X12704905Y-11339976D01*
X12685857Y-11330452D01*
X12676333Y-11320928D01*
X12666809Y-11301881D01*
X12657286Y-11263786D01*
X12657286Y-11216167D01*
X12666809Y-11178071D01*
X12676333Y-11159024D01*
X12685857Y-11149500D01*
X12704905Y-11139976D01*
X12895381Y-11139976D02*
X12914428Y-11139976D01*
X12933476Y-11149500D01*
X12943000Y-11159024D01*
X12952524Y-11178071D01*
X12962048Y-11216167D01*
X12962048Y-11263786D01*
X12952524Y-11301881D01*
X12943000Y-11320928D01*
X12933476Y-11330452D01*
X12914428Y-11339976D01*
X12895381Y-11339976D01*
X12876333Y-11330452D01*
X12866809Y-11320928D01*
X12857286Y-11301881D01*
X12847762Y-11263786D01*
X12847762Y-11216167D01*
X12857286Y-11178071D01*
X12866809Y-11159024D01*
X12876333Y-11149500D01*
X12895381Y-11139976D01*
X13047762Y-11339976D02*
X13047762Y-11206643D01*
X13047762Y-11225690D02*
X13057286Y-11216167D01*
X13076333Y-11206643D01*
X13104905Y-11206643D01*
X13123952Y-11216167D01*
X13133476Y-11235214D01*
X13133476Y-11339976D01*
X13133476Y-11235214D02*
X13143000Y-11216167D01*
X13162048Y-11206643D01*
X13190619Y-11206643D01*
X13209667Y-11216167D01*
X13219190Y-11235214D01*
X13219190Y-11339976D01*
X13314428Y-11339976D02*
X13314428Y-11206643D01*
X13314428Y-11225690D02*
X13323952Y-11216167D01*
X13343000Y-11206643D01*
X13371571Y-11206643D01*
X13390619Y-11216167D01*
X13400143Y-11235214D01*
X13400143Y-11339976D01*
X13400143Y-11235214D02*
X13409667Y-11216167D01*
X13428714Y-11206643D01*
X13457286Y-11206643D01*
X13476333Y-11216167D01*
X13485857Y-11235214D01*
X13485857Y-11339976D01*
X13876333Y-11130452D02*
X13704905Y-11387595D01*
X14133476Y-11139976D02*
X14152524Y-11139976D01*
X14171571Y-11149500D01*
X14181095Y-11159024D01*
X14190619Y-11178071D01*
X14200143Y-11216167D01*
X14200143Y-11263786D01*
X14190619Y-11301881D01*
X14181095Y-11320928D01*
X14171571Y-11330452D01*
X14152524Y-11339976D01*
X14133476Y-11339976D01*
X14114428Y-11330452D01*
X14104905Y-11320928D01*
X14095381Y-11301881D01*
X14085857Y-11263786D01*
X14085857Y-11216167D01*
X14095381Y-11178071D01*
X14104905Y-11159024D01*
X14114428Y-11149500D01*
X14133476Y-11139976D01*
X14285857Y-11320928D02*
X14295381Y-11330452D01*
X14285857Y-11339976D01*
X14276333Y-11330452D01*
X14285857Y-11320928D01*
X14285857Y-11339976D01*
X14419190Y-11139976D02*
X14438238Y-11139976D01*
X14457286Y-11149500D01*
X14466809Y-11159024D01*
X14476333Y-11178071D01*
X14485857Y-11216167D01*
X14485857Y-11263786D01*
X14476333Y-11301881D01*
X14466809Y-11320928D01*
X14457286Y-11330452D01*
X14438238Y-11339976D01*
X14419190Y-11339976D01*
X14400143Y-11330452D01*
X14390619Y-11320928D01*
X14381095Y-11301881D01*
X14371571Y-11263786D01*
X14371571Y-11216167D01*
X14381095Y-11178071D01*
X14390619Y-11159024D01*
X14400143Y-11149500D01*
X14419190Y-11139976D01*
X14676333Y-11339976D02*
X14562048Y-11339976D01*
X14619190Y-11339976D02*
X14619190Y-11139976D01*
X14600143Y-11168548D01*
X14581095Y-11187595D01*
X14562048Y-11197119D01*
X14866809Y-11339976D02*
X14752524Y-11339976D01*
X14809667Y-11339976D02*
X14809667Y-11139976D01*
X14790619Y-11168548D01*
X14771571Y-11187595D01*
X14752524Y-11197119D01*
X14981095Y-11225690D02*
X14962048Y-11216167D01*
X14952524Y-11206643D01*
X14943000Y-11187595D01*
X14943000Y-11178071D01*
X14952524Y-11159024D01*
X14962048Y-11149500D01*
X14981095Y-11139976D01*
X15019190Y-11139976D01*
X15038238Y-11149500D01*
X15047762Y-11159024D01*
X15057286Y-11178071D01*
X15057286Y-11187595D01*
X15047762Y-11206643D01*
X15038238Y-11216167D01*
X15019190Y-11225690D01*
X14981095Y-11225690D01*
X14962048Y-11235214D01*
X14952524Y-11244738D01*
X14943000Y-11263786D01*
X14943000Y-11301881D01*
X14952524Y-11320928D01*
X14962048Y-11330452D01*
X14981095Y-11339976D01*
X15019190Y-11339976D01*
X15038238Y-11330452D01*
X15047762Y-11320928D01*
X15057286Y-11301881D01*
X15057286Y-11263786D01*
X15047762Y-11244738D01*
X15038238Y-11235214D01*
X15019190Y-11225690D01*
X15133476Y-11139976D02*
X15133476Y-11178071D01*
X15209667Y-11139976D02*
X15209667Y-11178071D01*
X15504905Y-11416167D02*
X15495381Y-11406643D01*
X15476333Y-11378071D01*
X15466809Y-11359024D01*
X15457286Y-11330452D01*
X15447762Y-11282833D01*
X15447762Y-11244738D01*
X15457286Y-11197119D01*
X15466809Y-11168548D01*
X15476333Y-11149500D01*
X15495381Y-11120929D01*
X15504905Y-11111405D01*
X15562048Y-11139976D02*
X15685857Y-11139976D01*
X15619190Y-11216167D01*
X15647762Y-11216167D01*
X15666809Y-11225690D01*
X15676333Y-11235214D01*
X15685857Y-11254262D01*
X15685857Y-11301881D01*
X15676333Y-11320928D01*
X15666809Y-11330452D01*
X15647762Y-11339976D01*
X15590619Y-11339976D01*
X15571571Y-11330452D01*
X15562048Y-11320928D01*
X15857286Y-11206643D02*
X15857286Y-11339976D01*
X15809667Y-11130452D02*
X15762048Y-11273309D01*
X15885857Y-11273309D01*
X16114428Y-11339976D02*
X16114428Y-11139976D01*
X16200143Y-11339976D02*
X16200143Y-11235214D01*
X16190619Y-11216167D01*
X16171571Y-11206643D01*
X16143000Y-11206643D01*
X16123952Y-11216167D01*
X16114428Y-11225690D01*
X16323952Y-11339976D02*
X16304905Y-11330452D01*
X16295381Y-11320928D01*
X16285857Y-11301881D01*
X16285857Y-11244738D01*
X16295381Y-11225690D01*
X16304905Y-11216167D01*
X16323952Y-11206643D01*
X16352524Y-11206643D01*
X16371571Y-11216167D01*
X16381095Y-11225690D01*
X16390619Y-11244738D01*
X16390619Y-11301881D01*
X16381095Y-11320928D01*
X16371571Y-11330452D01*
X16352524Y-11339976D01*
X16323952Y-11339976D01*
X16504905Y-11339976D02*
X16485857Y-11330452D01*
X16476333Y-11311405D01*
X16476333Y-11139976D01*
X16657286Y-11330452D02*
X16638238Y-11339976D01*
X16600143Y-11339976D01*
X16581095Y-11330452D01*
X16571571Y-11311405D01*
X16571571Y-11235214D01*
X16581095Y-11216167D01*
X16600143Y-11206643D01*
X16638238Y-11206643D01*
X16657286Y-11216167D01*
X16666809Y-11235214D01*
X16666809Y-11254262D01*
X16571571Y-11273309D01*
X16743000Y-11330452D02*
X16762048Y-11339976D01*
X16800143Y-11339976D01*
X16819190Y-11330452D01*
X16828714Y-11311405D01*
X16828714Y-11301881D01*
X16819190Y-11282833D01*
X16800143Y-11273309D01*
X16771571Y-11273309D01*
X16752524Y-11263786D01*
X16743000Y-11244738D01*
X16743000Y-11235214D01*
X16752524Y-11216167D01*
X16771571Y-11206643D01*
X16800143Y-11206643D01*
X16819190Y-11216167D01*
X16895381Y-11416167D02*
X16904905Y-11406643D01*
X16923952Y-11378071D01*
X16933476Y-11359024D01*
X16943000Y-11330452D01*
X16952524Y-11282833D01*
X16952524Y-11244738D01*
X16943000Y-11197119D01*
X16933476Y-11168548D01*
X16923952Y-11149500D01*
X16904905Y-11120929D01*
X16895381Y-11111405D01*
D13*
X11933000Y-11513500D02*
G75*
G03*
X11933000Y-11513500I-20000J0D01*
G01*
D11*
X12228714Y-11403976D02*
X12247762Y-11403976D01*
X12266809Y-11413500D01*
X12276333Y-11423024D01*
X12285857Y-11442071D01*
X12295381Y-11480167D01*
X12295381Y-11527786D01*
X12285857Y-11565881D01*
X12276333Y-11584928D01*
X12266809Y-11594452D01*
X12247762Y-11603976D01*
X12228714Y-11603976D01*
X12209667Y-11594452D01*
X12200143Y-11584928D01*
X12190619Y-11565881D01*
X12181095Y-11527786D01*
X12181095Y-11480167D01*
X12190619Y-11442071D01*
X12200143Y-11423024D01*
X12209667Y-11413500D01*
X12228714Y-11403976D01*
X12381095Y-11584928D02*
X12390619Y-11594452D01*
X12381095Y-11603976D01*
X12371571Y-11594452D01*
X12381095Y-11584928D01*
X12381095Y-11603976D01*
X12562048Y-11470643D02*
X12562048Y-11603976D01*
X12514428Y-11394452D02*
X12466809Y-11537309D01*
X12590619Y-11537309D01*
X12704905Y-11403976D02*
X12723952Y-11403976D01*
X12743000Y-11413500D01*
X12752524Y-11423024D01*
X12762048Y-11442071D01*
X12771571Y-11480167D01*
X12771571Y-11527786D01*
X12762048Y-11565881D01*
X12752524Y-11584928D01*
X12743000Y-11594452D01*
X12723952Y-11603976D01*
X12704905Y-11603976D01*
X12685857Y-11594452D01*
X12676333Y-11584928D01*
X12666809Y-11565881D01*
X12657286Y-11527786D01*
X12657286Y-11480167D01*
X12666809Y-11442071D01*
X12676333Y-11423024D01*
X12685857Y-11413500D01*
X12704905Y-11403976D01*
X12895381Y-11403976D02*
X12914428Y-11403976D01*
X12933476Y-11413500D01*
X12943000Y-11423024D01*
X12952524Y-11442071D01*
X12962048Y-11480167D01*
X12962048Y-11527786D01*
X12952524Y-11565881D01*
X12943000Y-11584928D01*
X12933476Y-11594452D01*
X12914428Y-11603976D01*
X12895381Y-11603976D01*
X12876333Y-11594452D01*
X12866809Y-11584928D01*
X12857286Y-11565881D01*
X12847762Y-11527786D01*
X12847762Y-11480167D01*
X12857286Y-11442071D01*
X12866809Y-11423024D01*
X12876333Y-11413500D01*
X12895381Y-11403976D01*
X13047762Y-11603976D02*
X13047762Y-11470643D01*
X13047762Y-11489690D02*
X13057286Y-11480167D01*
X13076333Y-11470643D01*
X13104905Y-11470643D01*
X13123952Y-11480167D01*
X13133476Y-11499214D01*
X13133476Y-11603976D01*
X13133476Y-11499214D02*
X13143000Y-11480167D01*
X13162048Y-11470643D01*
X13190619Y-11470643D01*
X13209667Y-11480167D01*
X13219190Y-11499214D01*
X13219190Y-11603976D01*
X13314428Y-11603976D02*
X13314428Y-11470643D01*
X13314428Y-11489690D02*
X13323952Y-11480167D01*
X13343000Y-11470643D01*
X13371571Y-11470643D01*
X13390619Y-11480167D01*
X13400143Y-11499214D01*
X13400143Y-11603976D01*
X13400143Y-11499214D02*
X13409667Y-11480167D01*
X13428714Y-11470643D01*
X13457286Y-11470643D01*
X13476333Y-11480167D01*
X13485857Y-11499214D01*
X13485857Y-11603976D01*
X13876333Y-11394452D02*
X13704905Y-11651595D01*
X14133476Y-11403976D02*
X14152524Y-11403976D01*
X14171571Y-11413500D01*
X14181095Y-11423024D01*
X14190619Y-11442071D01*
X14200143Y-11480167D01*
X14200143Y-11527786D01*
X14190619Y-11565881D01*
X14181095Y-11584928D01*
X14171571Y-11594452D01*
X14152524Y-11603976D01*
X14133476Y-11603976D01*
X14114428Y-11594452D01*
X14104905Y-11584928D01*
X14095381Y-11565881D01*
X14085857Y-11527786D01*
X14085857Y-11480167D01*
X14095381Y-11442071D01*
X14104905Y-11423024D01*
X14114428Y-11413500D01*
X14133476Y-11403976D01*
X14285857Y-11584928D02*
X14295381Y-11594452D01*
X14285857Y-11603976D01*
X14276333Y-11594452D01*
X14285857Y-11584928D01*
X14285857Y-11603976D01*
X14419190Y-11403976D02*
X14438238Y-11403976D01*
X14457286Y-11413500D01*
X14466809Y-11423024D01*
X14476333Y-11442071D01*
X14485857Y-11480167D01*
X14485857Y-11527786D01*
X14476333Y-11565881D01*
X14466809Y-11584928D01*
X14457286Y-11594452D01*
X14438238Y-11603976D01*
X14419190Y-11603976D01*
X14400143Y-11594452D01*
X14390619Y-11584928D01*
X14381095Y-11565881D01*
X14371571Y-11527786D01*
X14371571Y-11480167D01*
X14381095Y-11442071D01*
X14390619Y-11423024D01*
X14400143Y-11413500D01*
X14419190Y-11403976D01*
X14676333Y-11603976D02*
X14562048Y-11603976D01*
X14619190Y-11603976D02*
X14619190Y-11403976D01*
X14600143Y-11432548D01*
X14581095Y-11451595D01*
X14562048Y-11461119D01*
X14857286Y-11403976D02*
X14762048Y-11403976D01*
X14752524Y-11499214D01*
X14762048Y-11489690D01*
X14781095Y-11480167D01*
X14828714Y-11480167D01*
X14847762Y-11489690D01*
X14857286Y-11499214D01*
X14866809Y-11518262D01*
X14866809Y-11565881D01*
X14857286Y-11584928D01*
X14847762Y-11594452D01*
X14828714Y-11603976D01*
X14781095Y-11603976D01*
X14762048Y-11594452D01*
X14752524Y-11584928D01*
X14933476Y-11403976D02*
X15066809Y-11403976D01*
X14981095Y-11603976D01*
X15133476Y-11403976D02*
X15133476Y-11442071D01*
X15209667Y-11403976D02*
X15209667Y-11442071D01*
X15504905Y-11680167D02*
X15495381Y-11670643D01*
X15476333Y-11642071D01*
X15466809Y-11623024D01*
X15457286Y-11594452D01*
X15447762Y-11546833D01*
X15447762Y-11508738D01*
X15457286Y-11461119D01*
X15466809Y-11432548D01*
X15476333Y-11413500D01*
X15495381Y-11384928D01*
X15504905Y-11375405D01*
X15685857Y-11603976D02*
X15571571Y-11603976D01*
X15628714Y-11603976D02*
X15628714Y-11403976D01*
X15609667Y-11432548D01*
X15590619Y-11451595D01*
X15571571Y-11461119D01*
X15857286Y-11403976D02*
X15819190Y-11403976D01*
X15800143Y-11413500D01*
X15790619Y-11423024D01*
X15771571Y-11451595D01*
X15762048Y-11489690D01*
X15762048Y-11565881D01*
X15771571Y-11584928D01*
X15781095Y-11594452D01*
X15800143Y-11603976D01*
X15838238Y-11603976D01*
X15857286Y-11594452D01*
X15866809Y-11584928D01*
X15876333Y-11565881D01*
X15876333Y-11518262D01*
X15866809Y-11499214D01*
X15857286Y-11489690D01*
X15838238Y-11480167D01*
X15800143Y-11480167D01*
X15781095Y-11489690D01*
X15771571Y-11499214D01*
X15762048Y-11518262D01*
X16114428Y-11603976D02*
X16114428Y-11403976D01*
X16200143Y-11603976D02*
X16200143Y-11499214D01*
X16190619Y-11480167D01*
X16171571Y-11470643D01*
X16143000Y-11470643D01*
X16123952Y-11480167D01*
X16114428Y-11489690D01*
X16323952Y-11603976D02*
X16304905Y-11594452D01*
X16295381Y-11584928D01*
X16285857Y-11565881D01*
X16285857Y-11508738D01*
X16295381Y-11489690D01*
X16304905Y-11480167D01*
X16323952Y-11470643D01*
X16352524Y-11470643D01*
X16371571Y-11480167D01*
X16381095Y-11489690D01*
X16390619Y-11508738D01*
X16390619Y-11565881D01*
X16381095Y-11584928D01*
X16371571Y-11594452D01*
X16352524Y-11603976D01*
X16323952Y-11603976D01*
X16504905Y-11603976D02*
X16485857Y-11594452D01*
X16476333Y-11575405D01*
X16476333Y-11403976D01*
X16657286Y-11594452D02*
X16638238Y-11603976D01*
X16600143Y-11603976D01*
X16581095Y-11594452D01*
X16571571Y-11575405D01*
X16571571Y-11499214D01*
X16581095Y-11480167D01*
X16600143Y-11470643D01*
X16638238Y-11470643D01*
X16657286Y-11480167D01*
X16666809Y-11499214D01*
X16666809Y-11518262D01*
X16571571Y-11537309D01*
X16743000Y-11594452D02*
X16762048Y-11603976D01*
X16800143Y-11603976D01*
X16819190Y-11594452D01*
X16828714Y-11575405D01*
X16828714Y-11565881D01*
X16819190Y-11546833D01*
X16800143Y-11537309D01*
X16771571Y-11537309D01*
X16752524Y-11527786D01*
X16743000Y-11508738D01*
X16743000Y-11499214D01*
X16752524Y-11480167D01*
X16771571Y-11470643D01*
X16800143Y-11470643D01*
X16819190Y-11480167D01*
X16895381Y-11680167D02*
X16904905Y-11670643D01*
X16923952Y-11642071D01*
X16933476Y-11623024D01*
X16943000Y-11594452D01*
X16952524Y-11546833D01*
X16952524Y-11508738D01*
X16943000Y-11461119D01*
X16933476Y-11432548D01*
X16923952Y-11413500D01*
X16904905Y-11384928D01*
X16895381Y-11375405D01*
D14*
X11903000Y-11747500D02*
X11903000Y-11807500D01*
X11873000Y-11777500D02*
X11933000Y-11777500D01*
D11*
X12228714Y-11667976D02*
X12247762Y-11667976D01*
X12266809Y-11677500D01*
X12276333Y-11687024D01*
X12285857Y-11706071D01*
X12295381Y-11744167D01*
X12295381Y-11791786D01*
X12285857Y-11829881D01*
X12276333Y-11848928D01*
X12266809Y-11858452D01*
X12247762Y-11867976D01*
X12228714Y-11867976D01*
X12209667Y-11858452D01*
X12200143Y-11848928D01*
X12190619Y-11829881D01*
X12181095Y-11791786D01*
X12181095Y-11744167D01*
X12190619Y-11706071D01*
X12200143Y-11687024D01*
X12209667Y-11677500D01*
X12228714Y-11667976D01*
X12381095Y-11848928D02*
X12390619Y-11858452D01*
X12381095Y-11867976D01*
X12371571Y-11858452D01*
X12381095Y-11848928D01*
X12381095Y-11867976D01*
X12562048Y-11667976D02*
X12523952Y-11667976D01*
X12504905Y-11677500D01*
X12495381Y-11687024D01*
X12476333Y-11715595D01*
X12466809Y-11753690D01*
X12466809Y-11829881D01*
X12476333Y-11848928D01*
X12485857Y-11858452D01*
X12504905Y-11867976D01*
X12543000Y-11867976D01*
X12562048Y-11858452D01*
X12571571Y-11848928D01*
X12581095Y-11829881D01*
X12581095Y-11782262D01*
X12571571Y-11763214D01*
X12562048Y-11753690D01*
X12543000Y-11744167D01*
X12504905Y-11744167D01*
X12485857Y-11753690D01*
X12476333Y-11763214D01*
X12466809Y-11782262D01*
X12704905Y-11667976D02*
X12723952Y-11667976D01*
X12743000Y-11677500D01*
X12752524Y-11687024D01*
X12762048Y-11706071D01*
X12771571Y-11744167D01*
X12771571Y-11791786D01*
X12762048Y-11829881D01*
X12752524Y-11848928D01*
X12743000Y-11858452D01*
X12723952Y-11867976D01*
X12704905Y-11867976D01*
X12685857Y-11858452D01*
X12676333Y-11848928D01*
X12666809Y-11829881D01*
X12657286Y-11791786D01*
X12657286Y-11744167D01*
X12666809Y-11706071D01*
X12676333Y-11687024D01*
X12685857Y-11677500D01*
X12704905Y-11667976D01*
X12895381Y-11667976D02*
X12914428Y-11667976D01*
X12933476Y-11677500D01*
X12943000Y-11687024D01*
X12952524Y-11706071D01*
X12962048Y-11744167D01*
X12962048Y-11791786D01*
X12952524Y-11829881D01*
X12943000Y-11848928D01*
X12933476Y-11858452D01*
X12914428Y-11867976D01*
X12895381Y-11867976D01*
X12876333Y-11858452D01*
X12866809Y-11848928D01*
X12857286Y-11829881D01*
X12847762Y-11791786D01*
X12847762Y-11744167D01*
X12857286Y-11706071D01*
X12866809Y-11687024D01*
X12876333Y-11677500D01*
X12895381Y-11667976D01*
X13047762Y-11867976D02*
X13047762Y-11734643D01*
X13047762Y-11753690D02*
X13057286Y-11744167D01*
X13076333Y-11734643D01*
X13104905Y-11734643D01*
X13123952Y-11744167D01*
X13133476Y-11763214D01*
X13133476Y-11867976D01*
X13133476Y-11763214D02*
X13143000Y-11744167D01*
X13162048Y-11734643D01*
X13190619Y-11734643D01*
X13209667Y-11744167D01*
X13219190Y-11763214D01*
X13219190Y-11867976D01*
X13314428Y-11867976D02*
X13314428Y-11734643D01*
X13314428Y-11753690D02*
X13323952Y-11744167D01*
X13343000Y-11734643D01*
X13371571Y-11734643D01*
X13390619Y-11744167D01*
X13400143Y-11763214D01*
X13400143Y-11867976D01*
X13400143Y-11763214D02*
X13409667Y-11744167D01*
X13428714Y-11734643D01*
X13457286Y-11734643D01*
X13476333Y-11744167D01*
X13485857Y-11763214D01*
X13485857Y-11867976D01*
X13876333Y-11658452D02*
X13704905Y-11915595D01*
X14133476Y-11667976D02*
X14152524Y-11667976D01*
X14171571Y-11677500D01*
X14181095Y-11687024D01*
X14190619Y-11706071D01*
X14200143Y-11744167D01*
X14200143Y-11791786D01*
X14190619Y-11829881D01*
X14181095Y-11848928D01*
X14171571Y-11858452D01*
X14152524Y-11867976D01*
X14133476Y-11867976D01*
X14114428Y-11858452D01*
X14104905Y-11848928D01*
X14095381Y-11829881D01*
X14085857Y-11791786D01*
X14085857Y-11744167D01*
X14095381Y-11706071D01*
X14104905Y-11687024D01*
X14114428Y-11677500D01*
X14133476Y-11667976D01*
X14285857Y-11848928D02*
X14295381Y-11858452D01*
X14285857Y-11867976D01*
X14276333Y-11858452D01*
X14285857Y-11848928D01*
X14285857Y-11867976D01*
X14419190Y-11667976D02*
X14438238Y-11667976D01*
X14457286Y-11677500D01*
X14466809Y-11687024D01*
X14476333Y-11706071D01*
X14485857Y-11744167D01*
X14485857Y-11791786D01*
X14476333Y-11829881D01*
X14466809Y-11848928D01*
X14457286Y-11858452D01*
X14438238Y-11867976D01*
X14419190Y-11867976D01*
X14400143Y-11858452D01*
X14390619Y-11848928D01*
X14381095Y-11829881D01*
X14371571Y-11791786D01*
X14371571Y-11744167D01*
X14381095Y-11706071D01*
X14390619Y-11687024D01*
X14400143Y-11677500D01*
X14419190Y-11667976D01*
X14562048Y-11687024D02*
X14571571Y-11677500D01*
X14590619Y-11667976D01*
X14638238Y-11667976D01*
X14657286Y-11677500D01*
X14666809Y-11687024D01*
X14676333Y-11706071D01*
X14676333Y-11725119D01*
X14666809Y-11753690D01*
X14552524Y-11867976D01*
X14676333Y-11867976D01*
X14743000Y-11667976D02*
X14866809Y-11667976D01*
X14800143Y-11744167D01*
X14828714Y-11744167D01*
X14847762Y-11753690D01*
X14857286Y-11763214D01*
X14866809Y-11782262D01*
X14866809Y-11829881D01*
X14857286Y-11848928D01*
X14847762Y-11858452D01*
X14828714Y-11867976D01*
X14771571Y-11867976D01*
X14752524Y-11858452D01*
X14743000Y-11848928D01*
X15038238Y-11667976D02*
X15000143Y-11667976D01*
X14981095Y-11677500D01*
X14971571Y-11687024D01*
X14952524Y-11715595D01*
X14943000Y-11753690D01*
X14943000Y-11829881D01*
X14952524Y-11848928D01*
X14962048Y-11858452D01*
X14981095Y-11867976D01*
X15019190Y-11867976D01*
X15038238Y-11858452D01*
X15047762Y-11848928D01*
X15057286Y-11829881D01*
X15057286Y-11782262D01*
X15047762Y-11763214D01*
X15038238Y-11753690D01*
X15019190Y-11744167D01*
X14981095Y-11744167D01*
X14962048Y-11753690D01*
X14952524Y-11763214D01*
X14943000Y-11782262D01*
X15133476Y-11667976D02*
X15133476Y-11706071D01*
X15209667Y-11667976D02*
X15209667Y-11706071D01*
X15504905Y-11944167D02*
X15495381Y-11934643D01*
X15476333Y-11906071D01*
X15466809Y-11887024D01*
X15457286Y-11858452D01*
X15447762Y-11810833D01*
X15447762Y-11772738D01*
X15457286Y-11725119D01*
X15466809Y-11696548D01*
X15476333Y-11677500D01*
X15495381Y-11648928D01*
X15504905Y-11639405D01*
X15619190Y-11667976D02*
X15638238Y-11667976D01*
X15657286Y-11677500D01*
X15666809Y-11687024D01*
X15676333Y-11706071D01*
X15685857Y-11744167D01*
X15685857Y-11791786D01*
X15676333Y-11829881D01*
X15666809Y-11848928D01*
X15657286Y-11858452D01*
X15638238Y-11867976D01*
X15619190Y-11867976D01*
X15600143Y-11858452D01*
X15590619Y-11848928D01*
X15581095Y-11829881D01*
X15571571Y-11791786D01*
X15571571Y-11744167D01*
X15581095Y-11706071D01*
X15590619Y-11687024D01*
X15600143Y-11677500D01*
X15619190Y-11667976D01*
X15923952Y-11867976D02*
X15923952Y-11667976D01*
X16009667Y-11867976D02*
X16009667Y-11763214D01*
X16000143Y-11744167D01*
X15981095Y-11734643D01*
X15952524Y-11734643D01*
X15933476Y-11744167D01*
X15923952Y-11753690D01*
X16133476Y-11867976D02*
X16114428Y-11858452D01*
X16104905Y-11848928D01*
X16095381Y-11829881D01*
X16095381Y-11772738D01*
X16104905Y-11753690D01*
X16114428Y-11744167D01*
X16133476Y-11734643D01*
X16162048Y-11734643D01*
X16181095Y-11744167D01*
X16190619Y-11753690D01*
X16200143Y-11772738D01*
X16200143Y-11829881D01*
X16190619Y-11848928D01*
X16181095Y-11858452D01*
X16162048Y-11867976D01*
X16133476Y-11867976D01*
X16314428Y-11867976D02*
X16295381Y-11858452D01*
X16285857Y-11839405D01*
X16285857Y-11667976D01*
X16466809Y-11858452D02*
X16447762Y-11867976D01*
X16409667Y-11867976D01*
X16390619Y-11858452D01*
X16381095Y-11839405D01*
X16381095Y-11763214D01*
X16390619Y-11744167D01*
X16409667Y-11734643D01*
X16447762Y-11734643D01*
X16466809Y-11744167D01*
X16476333Y-11763214D01*
X16476333Y-11782262D01*
X16381095Y-11801309D01*
X16552524Y-11858452D02*
X16571571Y-11867976D01*
X16609667Y-11867976D01*
X16628714Y-11858452D01*
X16638238Y-11839405D01*
X16638238Y-11829881D01*
X16628714Y-11810833D01*
X16609667Y-11801309D01*
X16581095Y-11801309D01*
X16562048Y-11791786D01*
X16552524Y-11772738D01*
X16552524Y-11763214D01*
X16562048Y-11744167D01*
X16581095Y-11734643D01*
X16609667Y-11734643D01*
X16628714Y-11744167D01*
X16876333Y-11791786D02*
X17028714Y-11791786D01*
X16952524Y-11867976D02*
X16952524Y-11715595D01*
X17362048Y-11734643D02*
X17362048Y-11867976D01*
X17314429Y-11658452D02*
X17266810Y-11801309D01*
X17390619Y-11801309D01*
X17609667Y-11858452D02*
X17628714Y-11867976D01*
X17666810Y-11867976D01*
X17685857Y-11858452D01*
X17695381Y-11839405D01*
X17695381Y-11829881D01*
X17685857Y-11810833D01*
X17666810Y-11801309D01*
X17638238Y-11801309D01*
X17619190Y-11791786D01*
X17609667Y-11772738D01*
X17609667Y-11763214D01*
X17619190Y-11744167D01*
X17638238Y-11734643D01*
X17666810Y-11734643D01*
X17685857Y-11744167D01*
X17809667Y-11867976D02*
X17790619Y-11858452D01*
X17781095Y-11839405D01*
X17781095Y-11667976D01*
X17914429Y-11867976D02*
X17895381Y-11858452D01*
X17885857Y-11848928D01*
X17876333Y-11829881D01*
X17876333Y-11772738D01*
X17885857Y-11753690D01*
X17895381Y-11744167D01*
X17914429Y-11734643D01*
X17943000Y-11734643D01*
X17962048Y-11744167D01*
X17971571Y-11753690D01*
X17981095Y-11772738D01*
X17981095Y-11829881D01*
X17971571Y-11848928D01*
X17962048Y-11858452D01*
X17943000Y-11867976D01*
X17914429Y-11867976D01*
X18038238Y-11734643D02*
X18114429Y-11734643D01*
X18066810Y-11667976D02*
X18066810Y-11839405D01*
X18076333Y-11858452D01*
X18095381Y-11867976D01*
X18114429Y-11867976D01*
X18171571Y-11858452D02*
X18190619Y-11867976D01*
X18228714Y-11867976D01*
X18247762Y-11858452D01*
X18257286Y-11839405D01*
X18257286Y-11829881D01*
X18247762Y-11810833D01*
X18228714Y-11801309D01*
X18200143Y-11801309D01*
X18181095Y-11791786D01*
X18171571Y-11772738D01*
X18171571Y-11763214D01*
X18181095Y-11744167D01*
X18200143Y-11734643D01*
X18228714Y-11734643D01*
X18247762Y-11744167D01*
X18323952Y-11944167D02*
X18333476Y-11934643D01*
X18352524Y-11906071D01*
X18362048Y-11887024D01*
X18371571Y-11858452D01*
X18381095Y-11810833D01*
X18381095Y-11772738D01*
X18371571Y-11725119D01*
X18362048Y-11696548D01*
X18352524Y-11677500D01*
X18333476Y-11648928D01*
X18323952Y-11639405D01*
D10*
X11918356Y-12076856D02*
X11918356Y-12006144D01*
X11847644Y-12006144D01*
X11847644Y-12076856D01*
X11918356Y-12076856D01*
D11*
X12295381Y-12131976D02*
X12181095Y-12131976D01*
X12238238Y-12131976D02*
X12238238Y-11931976D01*
X12219190Y-11960548D01*
X12200143Y-11979595D01*
X12181095Y-11989119D01*
X12381095Y-12112928D02*
X12390619Y-12122452D01*
X12381095Y-12131976D01*
X12371571Y-12122452D01*
X12381095Y-12112928D01*
X12381095Y-12131976D01*
X12514428Y-11931976D02*
X12533476Y-11931976D01*
X12552524Y-11941500D01*
X12562048Y-11951024D01*
X12571571Y-11970071D01*
X12581095Y-12008167D01*
X12581095Y-12055786D01*
X12571571Y-12093881D01*
X12562048Y-12112928D01*
X12552524Y-12122452D01*
X12533476Y-12131976D01*
X12514428Y-12131976D01*
X12495381Y-12122452D01*
X12485857Y-12112928D01*
X12476333Y-12093881D01*
X12466809Y-12055786D01*
X12466809Y-12008167D01*
X12476333Y-11970071D01*
X12485857Y-11951024D01*
X12495381Y-11941500D01*
X12514428Y-11931976D01*
X12704905Y-11931976D02*
X12723952Y-11931976D01*
X12743000Y-11941500D01*
X12752524Y-11951024D01*
X12762048Y-11970071D01*
X12771571Y-12008167D01*
X12771571Y-12055786D01*
X12762048Y-12093881D01*
X12752524Y-12112928D01*
X12743000Y-12122452D01*
X12723952Y-12131976D01*
X12704905Y-12131976D01*
X12685857Y-12122452D01*
X12676333Y-12112928D01*
X12666809Y-12093881D01*
X12657286Y-12055786D01*
X12657286Y-12008167D01*
X12666809Y-11970071D01*
X12676333Y-11951024D01*
X12685857Y-11941500D01*
X12704905Y-11931976D01*
X12895381Y-11931976D02*
X12914428Y-11931976D01*
X12933476Y-11941500D01*
X12943000Y-11951024D01*
X12952524Y-11970071D01*
X12962048Y-12008167D01*
X12962048Y-12055786D01*
X12952524Y-12093881D01*
X12943000Y-12112928D01*
X12933476Y-12122452D01*
X12914428Y-12131976D01*
X12895381Y-12131976D01*
X12876333Y-12122452D01*
X12866809Y-12112928D01*
X12857286Y-12093881D01*
X12847762Y-12055786D01*
X12847762Y-12008167D01*
X12857286Y-11970071D01*
X12866809Y-11951024D01*
X12876333Y-11941500D01*
X12895381Y-11931976D01*
X13047762Y-12131976D02*
X13047762Y-11998643D01*
X13047762Y-12017690D02*
X13057286Y-12008167D01*
X13076333Y-11998643D01*
X13104905Y-11998643D01*
X13123952Y-12008167D01*
X13133476Y-12027214D01*
X13133476Y-12131976D01*
X13133476Y-12027214D02*
X13143000Y-12008167D01*
X13162048Y-11998643D01*
X13190619Y-11998643D01*
X13209667Y-12008167D01*
X13219190Y-12027214D01*
X13219190Y-12131976D01*
X13314428Y-12131976D02*
X13314428Y-11998643D01*
X13314428Y-12017690D02*
X13323952Y-12008167D01*
X13343000Y-11998643D01*
X13371571Y-11998643D01*
X13390619Y-12008167D01*
X13400143Y-12027214D01*
X13400143Y-12131976D01*
X13400143Y-12027214D02*
X13409667Y-12008167D01*
X13428714Y-11998643D01*
X13457286Y-11998643D01*
X13476333Y-12008167D01*
X13485857Y-12027214D01*
X13485857Y-12131976D01*
X13876333Y-11922452D02*
X13704905Y-12179595D01*
X14133476Y-11931976D02*
X14152524Y-11931976D01*
X14171571Y-11941500D01*
X14181095Y-11951024D01*
X14190619Y-11970071D01*
X14200143Y-12008167D01*
X14200143Y-12055786D01*
X14190619Y-12093881D01*
X14181095Y-12112928D01*
X14171571Y-12122452D01*
X14152524Y-12131976D01*
X14133476Y-12131976D01*
X14114428Y-12122452D01*
X14104905Y-12112928D01*
X14095381Y-12093881D01*
X14085857Y-12055786D01*
X14085857Y-12008167D01*
X14095381Y-11970071D01*
X14104905Y-11951024D01*
X14114428Y-11941500D01*
X14133476Y-11931976D01*
X14285857Y-12112928D02*
X14295381Y-12122452D01*
X14285857Y-12131976D01*
X14276333Y-12122452D01*
X14285857Y-12112928D01*
X14285857Y-12131976D01*
X14419190Y-11931976D02*
X14438238Y-11931976D01*
X14457286Y-11941500D01*
X14466809Y-11951024D01*
X14476333Y-11970071D01*
X14485857Y-12008167D01*
X14485857Y-12055786D01*
X14476333Y-12093881D01*
X14466809Y-12112928D01*
X14457286Y-12122452D01*
X14438238Y-12131976D01*
X14419190Y-12131976D01*
X14400143Y-12122452D01*
X14390619Y-12112928D01*
X14381095Y-12093881D01*
X14371571Y-12055786D01*
X14371571Y-12008167D01*
X14381095Y-11970071D01*
X14390619Y-11951024D01*
X14400143Y-11941500D01*
X14419190Y-11931976D01*
X14552524Y-11931976D02*
X14676333Y-11931976D01*
X14609667Y-12008167D01*
X14638238Y-12008167D01*
X14657286Y-12017690D01*
X14666809Y-12027214D01*
X14676333Y-12046262D01*
X14676333Y-12093881D01*
X14666809Y-12112928D01*
X14657286Y-12122452D01*
X14638238Y-12131976D01*
X14581095Y-12131976D01*
X14562048Y-12122452D01*
X14552524Y-12112928D01*
X14771571Y-12131976D02*
X14809667Y-12131976D01*
X14828714Y-12122452D01*
X14838238Y-12112928D01*
X14857286Y-12084357D01*
X14866809Y-12046262D01*
X14866809Y-11970071D01*
X14857286Y-11951024D01*
X14847762Y-11941500D01*
X14828714Y-11931976D01*
X14790619Y-11931976D01*
X14771571Y-11941500D01*
X14762048Y-11951024D01*
X14752524Y-11970071D01*
X14752524Y-12017690D01*
X14762048Y-12036738D01*
X14771571Y-12046262D01*
X14790619Y-12055786D01*
X14828714Y-12055786D01*
X14847762Y-12046262D01*
X14857286Y-12036738D01*
X14866809Y-12017690D01*
X15038238Y-11998643D02*
X15038238Y-12131976D01*
X14990619Y-11922452D02*
X14943000Y-12065309D01*
X15066809Y-12065309D01*
X15133476Y-11931976D02*
X15133476Y-11970071D01*
X15209667Y-11931976D02*
X15209667Y-11970071D01*
X15504905Y-12208167D02*
X15495381Y-12198643D01*
X15476333Y-12170071D01*
X15466809Y-12151024D01*
X15457286Y-12122452D01*
X15447762Y-12074833D01*
X15447762Y-12036738D01*
X15457286Y-11989119D01*
X15466809Y-11960548D01*
X15476333Y-11941500D01*
X15495381Y-11912928D01*
X15504905Y-11903405D01*
X15676333Y-11931976D02*
X15581095Y-11931976D01*
X15571571Y-12027214D01*
X15581095Y-12017690D01*
X15600143Y-12008167D01*
X15647762Y-12008167D01*
X15666809Y-12017690D01*
X15676333Y-12027214D01*
X15685857Y-12046262D01*
X15685857Y-12093881D01*
X15676333Y-12112928D01*
X15666809Y-12122452D01*
X15647762Y-12131976D01*
X15600143Y-12131976D01*
X15581095Y-12122452D01*
X15571571Y-12112928D01*
X15866809Y-11931976D02*
X15771571Y-11931976D01*
X15762048Y-12027214D01*
X15771571Y-12017690D01*
X15790619Y-12008167D01*
X15838238Y-12008167D01*
X15857286Y-12017690D01*
X15866809Y-12027214D01*
X15876333Y-12046262D01*
X15876333Y-12093881D01*
X15866809Y-12112928D01*
X15857286Y-12122452D01*
X15838238Y-12131976D01*
X15790619Y-12131976D01*
X15771571Y-12122452D01*
X15762048Y-12112928D01*
X16114428Y-12131976D02*
X16114428Y-11931976D01*
X16200143Y-12131976D02*
X16200143Y-12027214D01*
X16190619Y-12008167D01*
X16171571Y-11998643D01*
X16143000Y-11998643D01*
X16123952Y-12008167D01*
X16114428Y-12017690D01*
X16323952Y-12131976D02*
X16304905Y-12122452D01*
X16295381Y-12112928D01*
X16285857Y-12093881D01*
X16285857Y-12036738D01*
X16295381Y-12017690D01*
X16304905Y-12008167D01*
X16323952Y-11998643D01*
X16352524Y-11998643D01*
X16371571Y-12008167D01*
X16381095Y-12017690D01*
X16390619Y-12036738D01*
X16390619Y-12093881D01*
X16381095Y-12112928D01*
X16371571Y-12122452D01*
X16352524Y-12131976D01*
X16323952Y-12131976D01*
X16504905Y-12131976D02*
X16485857Y-12122452D01*
X16476333Y-12103405D01*
X16476333Y-11931976D01*
X16657286Y-12122452D02*
X16638238Y-12131976D01*
X16600143Y-12131976D01*
X16581095Y-12122452D01*
X16571571Y-12103405D01*
X16571571Y-12027214D01*
X16581095Y-12008167D01*
X16600143Y-11998643D01*
X16638238Y-11998643D01*
X16657286Y-12008167D01*
X16666809Y-12027214D01*
X16666809Y-12046262D01*
X16571571Y-12065309D01*
X16743000Y-12122452D02*
X16762048Y-12131976D01*
X16800143Y-12131976D01*
X16819190Y-12122452D01*
X16828714Y-12103405D01*
X16828714Y-12093881D01*
X16819190Y-12074833D01*
X16800143Y-12065309D01*
X16771571Y-12065309D01*
X16752524Y-12055786D01*
X16743000Y-12036738D01*
X16743000Y-12027214D01*
X16752524Y-12008167D01*
X16771571Y-11998643D01*
X16800143Y-11998643D01*
X16819190Y-12008167D01*
X16895381Y-12208167D02*
X16904905Y-12198643D01*
X16923952Y-12170071D01*
X16933476Y-12151024D01*
X16943000Y-12122452D01*
X16952524Y-12074833D01*
X16952524Y-12036738D01*
X16943000Y-11989119D01*
X16933476Y-11960548D01*
X16923952Y-11941500D01*
X16904905Y-11912928D01*
X16895381Y-11903405D01*
M02*
